<svg width="900" height="448" viewBox="0 0 900 448" fill="none" xmlns="http://www.w3.org/2000/svg">
<rect width="900" height="446.484" transform="translate(0 0.757812)" fill="#B99DCF"/>
<rect y="1.19727" width="450" height="241.699" fill="#EA9EBE"/>
<rect y="242.896" width="225" height="204.346" fill="#DB78A2"/>
<rect x="225" y="242.896" width="225" height="204.346" fill="#EFECE2"/>
<rect x="450" y="242.457" width="225" height="204.346" fill="#DA936B"/>
<rect x="675" y="242.896" width="225" height="204.346" fill="#322D41"/>
<rect x="450" y="0.757812" width="450" height="241.699" fill="#B99DCF"/>
<path fill-rule="evenodd" clip-rule="evenodd" d="M119.47 144.519C130.147 143.331 137.773 135.013 141.03 125.86C142.781 120.938 143.146 116.064 142.181 112.311C141.24 108.65 139.108 106.191 135.727 105.343C131.926 104.389 129.349 105.146 127.403 106.791C125.301 108.568 123.614 111.656 122.359 115.941C120.062 123.782 119.541 134.414 119.47 144.519ZM116.836 116.254C116.989 115.646 117.151 115.049 117.322 114.465C118.696 109.776 120.765 105.531 124.015 102.783C127.421 99.9031 131.793 98.9444 137.005 100.252C142.638 101.666 145.952 105.9 147.264 111.005C148.553 116.018 147.979 121.984 145.974 127.619C141.981 138.844 131.821 149.912 116.836 149.912C101.851 149.912 91.6913 138.844 87.6978 127.619C85.693 121.984 85.1193 116.018 86.4081 111.005C87.7202 105.9 91.0339 101.666 96.6674 100.252C101.879 98.9444 106.251 99.9031 109.657 102.783C112.907 105.531 114.976 109.776 116.35 114.465C116.521 115.049 116.683 115.646 116.836 116.254ZM114.203 144.519C114.131 134.414 113.61 123.782 111.313 115.941C110.058 111.656 108.371 108.568 106.269 106.791C104.323 105.146 101.747 104.389 97.945 105.343C94.5647 106.191 92.4326 108.65 91.4912 112.311C90.5265 116.064 90.8917 120.938 92.6427 125.86C95.899 135.013 103.525 143.331 114.203 144.519Z" fill="#322D41"/>
<path d="M335.314 149.911C324.292 149.911 317.769 143.913 317.769 132.142L317.844 130.417L312.82 129.293L313.87 123.519L318.968 124.719C322.118 115.722 330.74 109.348 341.387 109.348C350.609 109.348 356.457 113.697 356.457 120.295C356.457 128.093 348.21 132.667 334.789 132.667C331.415 132.667 328.341 132.367 324.817 131.767V132.142C324.817 140.239 328.791 143.913 335.689 143.913C341.762 143.913 347.01 141.139 351.284 136.565L355.183 140.764C350.309 146.537 343.711 149.911 335.314 149.911ZM325.117 105.974L340.787 93.3032H345.136L356.307 105.974H348.21L342.212 99.2265L334.114 105.974H325.117ZM325.791 125.994C328.866 126.443 331.79 126.668 334.789 126.668C344.011 126.668 349.409 124.494 349.409 120.37C349.409 117.071 346.485 115.347 341.312 115.347C333.814 115.347 328.041 119.545 325.791 125.994Z" fill="#322D41"/>
<path d="M306.171 148.862L293.575 133.492L281.204 148.862H272.431L289.001 129.068L273.106 110.249H281.578L293.65 124.644L305.646 110.249H314.194L298.373 128.993L314.869 148.862H306.171Z" fill="#322D41"/>
<path d="M252.713 149.912C239.967 149.912 230.595 141.514 230.595 129.593C230.595 117.671 239.967 109.199 252.713 109.199C265.309 109.199 274.682 117.671 274.682 129.593C274.682 141.514 265.309 149.912 252.713 149.912ZM252.713 143.614C261.785 143.614 267.484 137.765 267.484 129.518C267.484 121.345 261.785 115.572 252.713 115.572C243.491 115.572 237.793 121.345 237.793 129.518C237.793 137.765 243.491 143.614 252.713 143.614Z" fill="#322D41"/>
<path d="M204.561 148.862V110.248H211.533L210.709 121.045H210.859C213.108 113.397 218.956 109.199 227.504 109.199C228.928 109.199 230.278 109.349 231.103 109.499V116.472C229.528 115.947 226.979 115.572 224.805 115.572C216.932 115.572 211.533 120.895 211.533 128.693V148.862H204.561Z" fill="#322D41"/>
<path d="M190.09 139.415C188.14 134.241 183.417 132.292 177.493 132.292H169.921V148.862H162.948V96.3775L169.921 94.8779V125.994H177.343C185.591 125.994 189.94 119.171 190.615 110.248H197.587C196.913 119.995 192.639 126.444 184.241 128.618V128.768L186.941 129.218C192.039 130.043 194.888 132.892 196.913 137.465L201.636 148.862H193.614L190.09 139.415Z" fill="#322D41"/>
<path fill-rule="evenodd" clip-rule="evenodd" d="M569.47 144.519C580.147 143.331 587.773 135.013 591.03 125.86C592.781 120.938 593.146 116.064 592.181 112.311C591.24 108.65 589.108 106.191 585.727 105.343C581.926 104.389 579.349 105.146 577.403 106.791C575.301 108.568 573.614 111.656 572.359 115.941C570.062 123.782 569.541 134.414 569.47 144.519ZM566.836 116.254C566.989 115.646 567.151 115.049 567.322 114.465C568.696 109.776 570.765 105.531 574.015 102.783C577.421 99.9031 581.793 98.9444 587.005 100.252C592.638 101.666 595.952 105.9 597.264 111.005C598.553 116.018 597.979 121.984 595.974 127.619C591.981 138.844 581.821 149.912 566.836 149.912C551.851 149.912 541.691 138.844 537.698 127.619C535.693 121.984 535.119 116.018 536.408 111.005C537.72 105.9 541.034 101.666 546.667 100.252C551.879 98.9444 556.251 99.9031 559.657 102.783C562.907 105.531 564.976 109.776 566.35 114.465C566.521 115.049 566.683 115.646 566.836 116.254ZM564.203 144.519C564.131 134.414 563.61 123.782 561.313 115.941C560.058 111.656 558.371 108.568 556.269 106.791C554.323 105.146 551.747 104.389 547.945 105.343C544.565 106.191 542.433 108.65 541.491 112.311C540.526 116.064 540.892 120.938 542.643 125.86C545.899 135.013 553.525 143.331 564.203 144.519Z" fill="#322D41"/>
<path d="M785.314 149.911C774.292 149.911 767.769 143.913 767.769 132.142L767.844 130.417L762.82 129.293L763.87 123.519L768.968 124.719C772.118 115.722 780.74 109.348 791.387 109.348C800.609 109.348 806.457 113.697 806.457 120.295C806.457 128.093 798.21 132.667 784.789 132.667C781.415 132.667 778.341 132.367 774.817 131.767V132.142C774.817 140.239 778.791 143.913 785.689 143.913C791.762 143.913 797.01 141.139 801.284 136.565L805.183 140.764C800.309 146.537 793.711 149.911 785.314 149.911ZM775.117 105.974L790.787 93.3032H795.136L806.307 105.974H798.21L792.212 99.2265L784.114 105.974H775.117ZM775.791 125.994C778.866 126.443 781.79 126.668 784.789 126.668C794.011 126.668 799.409 124.494 799.409 120.37C799.409 117.071 796.485 115.347 791.312 115.347C783.814 115.347 778.041 119.545 775.791 125.994Z" fill="#322D41"/>
<path d="M756.171 148.862L743.575 133.492L731.204 148.862H722.431L739.001 129.068L723.106 110.249H731.578L743.65 124.644L755.646 110.249H764.194L748.373 128.993L764.869 148.862H756.171Z" fill="#322D41"/>
<path d="M702.713 149.912C689.967 149.912 680.595 141.514 680.595 129.593C680.595 117.671 689.967 109.199 702.713 109.199C715.309 109.199 724.682 117.671 724.682 129.593C724.682 141.514 715.309 149.912 702.713 149.912ZM702.713 143.614C711.785 143.614 717.484 137.765 717.484 129.518C717.484 121.345 711.785 115.572 702.713 115.572C693.491 115.572 687.793 121.345 687.793 129.518C687.793 137.765 693.491 143.614 702.713 143.614Z" fill="#322D41"/>
<path d="M654.561 148.862V110.248H661.533L660.709 121.045H660.859C663.108 113.397 668.956 109.199 677.504 109.199C678.928 109.199 680.278 109.349 681.103 109.499V116.472C679.528 115.947 676.979 115.572 674.805 115.572C666.932 115.572 661.533 120.895 661.533 128.693V148.862H654.561Z" fill="#322D41"/>
<path d="M640.09 139.415C638.14 134.241 633.417 132.292 627.493 132.292H619.921V148.862H612.948V96.3775L619.921 94.8779V125.994H627.343C635.591 125.994 639.94 119.171 640.615 110.248H647.587C646.913 119.995 642.639 126.444 634.241 128.618V128.768L636.941 129.218C642.039 130.043 644.888 132.892 646.913 137.465L651.636 148.862H643.614L640.09 139.415Z" fill="#322D41"/>
<path fill-rule="evenodd" clip-rule="evenodd" d="M116.108 372.441C130.735 370.814 141.183 359.419 145.644 346.879C148.042 340.137 148.543 333.46 147.221 328.319C145.931 323.303 143.011 319.935 138.38 318.773C133.172 317.466 129.642 318.503 126.976 320.756C124.097 323.191 121.786 327.421 120.066 333.291C116.919 344.032 116.206 358.598 116.108 372.441ZM112.5 333.721C112.71 332.888 112.932 332.07 113.166 331.27C115.048 324.846 117.882 319.03 122.334 315.266C127.001 311.32 132.99 310.007 140.13 311.799C147.847 313.736 152.387 319.536 154.185 326.529C155.95 333.397 155.164 341.569 152.418 349.289C146.947 364.667 133.028 379.829 112.5 379.829C91.9717 379.829 78.053 364.667 72.5823 349.289C69.8358 341.569 69.0499 333.397 70.8153 326.529C72.6129 319.536 77.1525 313.736 84.87 311.799C92.0102 310.007 97.9992 311.32 102.666 315.266C107.118 319.03 109.952 324.846 111.834 331.27C112.068 332.07 112.29 332.888 112.5 333.721ZM108.892 372.441C108.794 358.598 108.081 344.032 104.934 333.291C103.214 327.421 100.903 323.191 98.0235 320.756C95.358 318.503 91.8285 317.466 86.6203 318.773C81.9894 319.935 79.0686 323.303 77.779 328.319C76.4573 333.46 76.9577 340.137 79.3564 346.879C83.8173 359.419 94.2647 370.814 108.892 372.441Z" fill="#EA9EBE"/>
<path fill-rule="evenodd" clip-rule="evenodd" d="M341.108 372.441C355.735 370.814 366.183 359.419 370.644 346.879C373.042 340.137 373.543 333.46 372.221 328.319C370.931 323.303 368.011 319.935 363.38 318.773C358.172 317.466 354.642 318.503 351.976 320.756C349.097 323.191 346.786 327.421 345.066 333.291C341.919 344.032 341.206 358.598 341.108 372.441ZM337.5 333.721C337.71 332.888 337.932 332.07 338.166 331.27C340.048 324.846 342.882 319.03 347.334 315.266C352.001 311.32 357.99 310.007 365.13 311.799C372.847 313.736 377.387 319.536 379.185 326.529C380.95 333.397 380.164 341.569 377.418 349.289C371.947 364.667 358.028 379.829 337.5 379.829C316.972 379.829 303.053 364.667 297.582 349.289C294.836 341.569 294.05 333.397 295.815 326.529C297.613 319.536 302.153 313.736 309.87 311.799C317.01 310.007 322.999 311.32 327.666 315.266C332.118 319.03 334.952 324.846 336.834 331.27C337.068 332.07 337.29 332.888 337.5 333.721ZM333.892 372.441C333.794 358.598 333.081 344.032 329.934 333.291C328.214 327.421 325.903 323.191 323.024 320.756C320.358 318.503 316.828 317.466 311.62 318.773C306.989 319.935 304.069 323.303 302.779 328.319C301.457 333.46 301.958 340.137 304.356 346.879C308.817 359.419 319.265 370.814 333.892 372.441Z" fill="#DB78A2"/>
<path fill-rule="evenodd" clip-rule="evenodd" d="M566.108 372.441C580.735 370.814 591.183 359.419 595.644 346.879C598.042 340.137 598.543 333.46 597.221 328.319C595.931 323.303 593.011 319.935 588.38 318.773C583.172 317.466 579.642 318.503 576.976 320.756C574.097 323.191 571.786 327.421 570.066 333.291C566.919 344.032 566.206 358.598 566.108 372.441ZM562.5 333.721C562.71 332.888 562.932 332.07 563.166 331.27C565.048 324.846 567.882 319.03 572.334 315.266C577.001 311.32 582.99 310.007 590.13 311.799C597.847 313.736 602.387 319.536 604.185 326.529C605.95 333.397 605.164 341.569 602.418 349.289C596.947 364.667 583.028 379.829 562.5 379.829C541.972 379.829 528.053 364.667 522.582 349.289C519.836 341.569 519.05 333.397 520.815 326.529C522.613 319.536 527.153 313.736 534.87 311.799C542.01 310.007 547.999 311.32 552.666 315.266C557.118 319.03 559.952 324.846 561.834 331.27C562.068 332.07 562.29 332.888 562.5 333.721ZM558.892 372.441C558.794 358.598 558.081 344.032 554.934 333.291C553.214 327.421 550.903 323.191 548.024 320.756C545.358 318.503 541.828 317.466 536.62 318.773C531.989 319.935 529.069 323.303 527.779 328.319C526.457 333.46 526.958 340.137 529.356 346.879C533.817 359.419 544.265 370.814 558.892 372.441Z" fill="#322D41"/>
<path fill-rule="evenodd" clip-rule="evenodd" d="M791.108 372.441C805.735 370.814 816.183 359.419 820.644 346.879C823.042 340.137 823.543 333.46 822.221 328.319C820.931 323.303 818.011 319.935 813.38 318.773C808.172 317.466 804.642 318.503 801.976 320.756C799.097 323.191 796.786 327.421 795.066 333.291C791.919 344.032 791.206 358.598 791.108 372.441ZM787.5 333.721C787.71 332.888 787.932 332.07 788.166 331.27C790.048 324.846 792.882 319.03 797.334 315.266C802.001 311.32 807.99 310.007 815.13 311.799C822.847 313.736 827.387 319.536 829.185 326.529C830.95 333.397 830.164 341.569 827.418 349.289C821.947 364.667 808.028 379.829 787.5 379.829C766.972 379.829 753.053 364.667 747.582 349.289C744.836 341.569 744.05 333.397 745.815 326.529C747.613 319.536 752.153 313.736 759.87 311.799C767.01 310.007 772.999 311.32 777.666 315.266C782.118 319.03 784.952 324.846 786.834 331.27C787.068 332.07 787.29 332.888 787.5 333.721ZM783.892 372.441C783.794 358.598 783.081 344.032 779.934 333.291C778.214 327.421 775.903 323.191 773.024 320.756C770.358 318.503 766.828 317.466 761.62 318.773C756.989 319.935 754.069 323.303 752.779 328.319C751.457 333.46 751.958 340.137 754.356 346.879C758.817 359.419 769.265 370.814 783.892 372.441Z" fill="#B99DCF"/>
</svg>
