<svg width="589" height="242" viewBox="0 0 589 242" fill="none" xmlns="http://www.w3.org/2000/svg">
<rect width="589" height="242" fill="#322D41"/>
<path fill-rule="evenodd" clip-rule="evenodd" d="M408.246 120.868C420.3 119.518 428.909 110.058 432.585 99.6486C434.561 94.0515 434.974 88.5087 433.885 84.2407C432.822 80.0763 430.415 77.2807 426.599 76.3159C422.307 75.2308 419.399 76.0918 417.202 77.9625C414.829 79.9836 412.925 83.4955 411.508 88.3683C408.915 97.2851 408.327 109.377 408.246 120.868ZM405.273 88.7249C405.446 88.0333 405.629 87.3546 405.822 86.6901C407.373 81.3576 409.708 76.5292 413.377 73.4044C417.222 70.1294 422.158 69.039 428.041 70.5266C434.401 72.1345 438.142 76.9499 439.623 82.7546C441.078 88.4558 440.43 95.2405 438.167 101.649C433.659 114.415 422.189 127.002 405.273 127.002C388.357 127.002 376.887 114.415 372.379 101.649C370.116 95.2405 369.468 88.4558 370.923 82.7546C372.404 76.9499 376.145 72.1345 382.505 70.5266C388.389 69.039 393.324 70.1294 397.169 73.4044C400.838 76.5292 403.173 81.3576 404.724 86.6901C404.917 87.3546 405.1 88.0333 405.273 88.7249ZM402.3 120.868C402.219 109.377 401.631 97.2851 399.038 88.3683C397.621 83.4955 395.717 79.9836 393.344 77.9625C391.147 76.0918 388.239 75.2308 383.947 76.3159C380.131 77.2807 377.724 80.0763 376.661 84.2407C375.572 88.5087 375.985 94.0515 377.961 99.6486C381.637 110.058 390.246 119.518 402.3 120.868Z" fill="#EFECE2"/>
<path fill-rule="evenodd" clip-rule="evenodd" d="M189.216 120.836C201.352 119.486 210.019 110.032 213.72 99.6295C215.71 94.0359 216.125 88.4967 215.028 84.2315C213.959 80.0697 211.535 77.276 207.694 76.3118C203.373 75.2274 200.445 76.0878 198.233 77.9573C195.844 79.9771 193.927 83.4867 192.5 88.3564C189.89 97.2675 189.298 109.352 189.216 120.836ZM186.223 88.7128C186.397 88.0216 186.581 87.3434 186.776 86.6793C188.337 81.3502 190.689 76.5249 194.382 73.4021C198.253 70.1292 203.222 69.0396 209.146 70.5262C215.548 72.1331 219.314 76.9453 220.806 82.7463C222.27 88.4439 221.618 95.2242 219.34 101.629C214.801 114.386 203.254 126.965 186.223 126.965C169.193 126.965 157.646 114.386 153.107 101.629C150.828 95.2242 150.176 88.4439 151.641 82.7463C153.132 76.9453 156.899 72.1331 163.301 70.5262C169.225 69.0396 174.193 70.1292 178.065 73.4021C181.758 76.5249 184.109 81.3502 185.671 86.6793C185.865 87.3434 186.049 88.0216 186.223 88.7128ZM183.23 120.836C183.149 109.352 182.557 97.2675 179.946 88.3564C178.52 83.4867 176.602 79.9771 174.213 77.9573C172.002 76.0878 169.074 75.2274 164.753 76.3118C160.911 77.276 158.488 80.0697 157.418 84.2315C156.322 88.4967 156.737 94.0359 158.727 99.6295C162.428 110.032 171.095 119.486 183.23 120.836Z" fill="#EFEADC" fill-opacity="0.3"/>
<path fill-rule="evenodd" clip-rule="evenodd" d="M186.223 88.7113C184.959 83.6969 183.123 79.1695 180.399 75.8039C178.483 73.4359 176.085 71.5915 173.125 70.6209C170.169 69.6516 166.881 69.6289 163.301 70.5273C156.899 72.1342 153.132 76.9465 151.641 82.7475C150.176 88.445 150.828 95.2254 153.107 101.63C157.646 114.387 169.193 126.966 186.223 126.966C203.254 126.966 214.801 114.387 219.34 101.63C221.618 95.2254 222.27 88.445 220.806 82.7475C219.314 76.9465 215.548 72.1342 209.146 70.5273C205.566 69.6289 202.278 69.6516 199.321 70.6209C196.361 71.5915 193.964 73.4359 192.048 75.8039C189.324 79.1695 187.487 83.6969 186.223 88.7113ZM171.267 76.289C169.58 75.7358 167.463 75.6328 164.753 76.3129C160.911 77.2771 158.488 80.0708 157.418 84.2326C156.322 88.4978 156.737 94.0371 158.727 99.6306C162.725 110.87 172.521 121.001 186.223 121.001C199.926 121.001 209.721 110.87 213.72 99.6306C215.71 94.0371 216.125 88.4978 215.028 84.2326C213.959 80.0708 211.535 77.2771 207.694 76.3129C204.984 75.6328 202.867 75.7358 201.18 76.289C199.497 76.8409 198.012 77.9157 196.685 79.5562C193.942 82.9456 192.075 88.4956 190.911 95.5001C190.44 98.3341 187.854 99.2719 186.223 99.2719C184.593 99.2719 182.007 98.3341 181.536 95.5001C180.372 88.4956 178.505 82.9456 175.762 79.5562C174.434 77.9157 172.95 76.8409 171.267 76.289Z" fill="#EFECE2"/>
<path fill-rule="evenodd" clip-rule="evenodd" d="M298.64 120.836C310.776 119.486 319.443 110.032 323.144 99.6295C325.134 94.0359 325.549 88.4967 324.452 84.2315C323.382 80.0697 320.959 77.276 317.117 76.3118C312.797 75.2274 309.868 76.0878 307.657 77.9573C305.268 79.9771 303.351 83.4867 301.924 88.3564C299.313 97.2675 298.721 109.352 298.64 120.836ZM295.647 88.7128C295.821 88.0216 296.005 87.3434 296.2 86.6793C297.761 81.3502 300.112 76.5249 303.806 73.4021C307.677 70.1292 312.646 69.0396 318.569 70.5262C324.972 72.1331 328.738 76.9453 330.229 82.7463C331.694 88.4439 331.042 95.2242 328.764 101.629C324.225 114.386 312.678 126.965 295.647 126.965C278.617 126.965 267.069 114.386 262.531 101.629C260.252 95.2242 259.6 88.4439 261.065 82.7463C262.556 76.9453 266.322 72.1331 272.725 70.5262C278.649 69.0396 283.617 70.1292 287.488 73.4021C291.182 76.5249 293.533 81.3502 295.095 86.6793C295.289 87.3434 295.473 88.0216 295.647 88.7128ZM292.654 120.836C292.573 109.352 291.981 97.2675 289.37 88.3564C287.944 83.4867 286.026 79.9771 283.637 77.9573C281.426 76.0878 278.498 75.2274 274.177 76.3118C270.335 77.276 267.912 80.0697 266.842 84.2315C265.746 88.4967 266.161 94.0359 268.151 99.6295C271.852 110.032 280.519 119.486 292.654 120.836Z" fill="#EFEADC" fill-opacity="0.3"/>
<path fill-rule="evenodd" clip-rule="evenodd" d="M298.64 120.836C310.775 119.486 319.443 110.032 323.144 99.6295C325.133 94.0359 325.549 88.4967 324.452 84.2315C323.382 80.0697 320.959 77.276 317.117 76.3118C312.796 75.2274 309.868 76.0878 307.657 77.9573C305.268 79.9771 303.351 83.4867 301.924 88.3564C299.313 97.2676 298.721 109.352 298.64 120.836ZM303.806 73.4021C307.677 70.1292 312.646 69.0396 318.569 70.5262C324.972 72.1331 328.738 76.9453 330.229 82.7463C331.694 88.4439 331.042 95.2242 328.763 101.629C324.225 114.386 312.678 126.965 295.647 126.965C294 126.965 292.665 125.63 292.665 123.983C292.665 111.688 293.074 97.3471 296.2 86.6793C297.761 81.3502 300.112 76.5249 303.806 73.4021Z" fill="#EFECE2"/>
<path d="M160.981 157.703C160.357 157.703 159.779 157.592 159.246 157.371C158.721 157.141 158.262 156.825 157.868 156.423C157.474 156.013 157.171 155.542 156.957 155.008C156.744 154.467 156.637 153.889 156.637 153.273C156.637 152.658 156.744 152.084 156.957 151.551C157.171 151.009 157.474 150.538 157.868 150.136C158.262 149.734 158.721 149.418 159.246 149.188C159.779 148.959 160.357 148.844 160.981 148.844C161.678 148.844 162.281 148.959 162.79 149.188C163.298 149.418 163.749 149.73 164.143 150.123L163.183 151.083C162.929 150.804 162.617 150.587 162.248 150.431C161.887 150.275 161.465 150.197 160.981 150.197C160.554 150.197 160.165 150.271 159.812 150.419C159.459 150.566 159.152 150.78 158.889 151.059C158.635 151.329 158.438 151.653 158.298 152.031C158.159 152.408 158.089 152.822 158.089 153.273C158.089 153.725 158.159 154.139 158.298 154.516C158.438 154.894 158.635 155.222 158.889 155.501C159.152 155.771 159.459 155.98 159.812 156.128C160.165 156.276 160.554 156.35 160.981 156.35C161.506 156.35 161.949 156.272 162.31 156.116C162.679 155.952 162.991 155.73 163.245 155.451L164.205 156.411C163.811 156.813 163.347 157.129 162.814 157.359C162.281 157.588 161.67 157.703 160.981 157.703ZM169.081 157.703C168.466 157.703 167.892 157.588 167.358 157.359C166.825 157.129 166.358 156.813 165.956 156.411C165.554 156.001 165.238 155.529 165.008 154.996C164.787 154.455 164.676 153.876 164.676 153.261C164.676 152.646 164.787 152.072 165.008 151.538C165.238 151.005 165.55 150.538 165.943 150.136C166.345 149.726 166.809 149.41 167.334 149.188C167.867 148.959 168.441 148.844 169.056 148.844C169.672 148.844 170.242 148.959 170.767 149.188C171.3 149.41 171.768 149.726 172.169 150.136C172.571 150.538 172.883 151.009 173.105 151.551C173.334 152.084 173.449 152.658 173.449 153.273C173.449 153.889 173.334 154.467 173.105 155.008C172.883 155.542 172.571 156.009 172.169 156.411C171.776 156.813 171.312 157.129 170.779 157.359C170.254 157.588 169.688 157.703 169.081 157.703ZM169.056 156.35C169.639 156.35 170.147 156.218 170.582 155.956C171.025 155.693 171.37 155.332 171.616 154.873C171.87 154.405 171.997 153.868 171.997 153.261C171.997 152.81 171.923 152.4 171.776 152.031C171.636 151.653 171.435 151.329 171.173 151.059C170.91 150.78 170.599 150.566 170.238 150.419C169.885 150.271 169.491 150.197 169.056 150.197C168.482 150.197 167.974 150.329 167.531 150.591C167.096 150.845 166.751 151.202 166.497 151.662C166.251 152.121 166.128 152.654 166.128 153.261C166.128 153.712 166.198 154.131 166.337 154.516C166.485 154.894 166.686 155.218 166.94 155.488C167.202 155.759 167.514 155.972 167.875 156.128C168.236 156.276 168.63 156.35 169.056 156.35ZM175.86 153.926V152.757H178.038C178.473 152.757 178.809 152.646 179.047 152.424C179.293 152.195 179.416 151.879 179.416 151.477C179.416 151.116 179.297 150.812 179.059 150.566C178.822 150.32 178.485 150.197 178.05 150.197H175.86V148.967H178.112C178.653 148.967 179.129 149.078 179.539 149.299C179.949 149.512 180.265 149.808 180.487 150.185C180.716 150.554 180.831 150.977 180.831 151.452C180.831 151.953 180.716 152.387 180.487 152.757C180.265 153.126 179.949 153.413 179.539 153.618C179.129 153.823 178.653 153.926 178.112 153.926H175.86ZM174.888 157.58V148.967H176.303V157.58H174.888ZM179.613 157.58L176.598 153.839L177.915 153.36L181.397 157.58H179.613ZM181.53 157.58L185.074 148.967H186.058L189.577 157.58H188.052L185.295 150.603H185.812L183.031 157.58H181.53ZM183.277 155.919V154.688H187.842V155.919H183.277ZM194.11 157.703C193.486 157.703 192.908 157.592 192.375 157.371C191.85 157.141 191.39 156.825 190.997 156.423C190.603 156.013 190.299 155.542 190.086 155.008C189.873 154.467 189.766 153.889 189.766 153.273C189.766 152.658 189.873 152.084 190.086 151.551C190.299 151.009 190.603 150.538 190.997 150.136C191.39 149.734 191.85 149.418 192.375 149.188C192.908 148.959 193.486 148.844 194.11 148.844C194.807 148.844 195.41 148.959 195.919 149.188C196.427 149.418 196.878 149.73 197.272 150.123L196.312 151.083C196.058 150.804 195.746 150.587 195.377 150.431C195.016 150.275 194.594 150.197 194.11 150.197C193.683 150.197 193.294 150.271 192.941 150.419C192.588 150.566 192.28 150.78 192.018 151.059C191.764 151.329 191.567 151.653 191.427 152.031C191.288 152.408 191.218 152.822 191.218 153.273C191.218 153.725 191.288 154.139 191.427 154.516C191.567 154.894 191.764 155.222 192.018 155.501C192.28 155.771 192.588 155.98 192.941 156.128C193.294 156.276 193.683 156.35 194.11 156.35C194.635 156.35 195.078 156.272 195.439 156.116C195.808 155.952 196.12 155.73 196.374 155.451L197.334 156.411C196.94 156.813 196.476 157.129 195.943 157.359C195.41 157.588 194.799 157.703 194.11 157.703ZM193.642 160.164C193.339 160.164 193.072 160.127 192.842 160.053C192.613 159.979 192.391 159.873 192.178 159.733L192.732 159.032C192.822 159.114 192.933 159.18 193.064 159.229C193.195 159.286 193.355 159.315 193.544 159.315C193.757 159.315 193.909 159.286 193.999 159.229C194.097 159.171 194.147 159.102 194.147 159.02C194.147 158.929 194.102 158.847 194.011 158.774C193.929 158.708 193.794 158.675 193.605 158.675H192.965L193.372 157.408H194.356L194.061 158.294L193.568 157.925C194.077 157.908 194.487 158.007 194.799 158.22C195.111 158.441 195.266 158.716 195.266 159.044C195.266 159.364 195.115 159.631 194.811 159.844C194.516 160.057 194.126 160.164 193.642 160.164ZM197.74 157.58L201.284 148.967H202.268L205.787 157.58H204.262L201.505 150.603H202.022L199.241 157.58H197.74ZM199.487 155.919V154.688H204.052V155.919H199.487ZM202.65 148.118C202.379 148.118 202.149 148.069 201.961 147.97C201.772 147.872 201.596 147.777 201.432 147.687C201.276 147.589 201.099 147.539 200.902 147.539C200.697 147.539 200.533 147.576 200.41 147.65C200.287 147.724 200.168 147.835 200.053 147.982L199.327 147.256C199.565 146.986 199.803 146.772 200.041 146.617C200.279 146.453 200.558 146.371 200.878 146.371C201.149 146.371 201.378 146.42 201.567 146.518C201.756 146.608 201.932 146.703 202.096 146.801C202.26 146.9 202.436 146.949 202.625 146.949C202.838 146.949 203.007 146.912 203.13 146.838C203.253 146.764 203.367 146.654 203.474 146.506L204.2 147.232C203.962 147.503 203.724 147.72 203.486 147.884C203.249 148.04 202.97 148.118 202.65 148.118ZM210.369 157.703C209.754 157.703 209.18 157.588 208.646 157.359C208.113 157.129 207.646 156.813 207.244 156.411C206.842 156.001 206.526 155.529 206.296 154.996C206.075 154.455 205.964 153.876 205.964 153.261C205.964 152.646 206.075 152.072 206.296 151.538C206.526 151.005 206.838 150.538 207.231 150.136C207.633 149.726 208.097 149.41 208.622 149.188C209.155 148.959 209.729 148.844 210.344 148.844C210.96 148.844 211.53 148.959 212.055 149.188C212.588 149.41 213.056 149.726 213.457 150.136C213.859 150.538 214.171 151.009 214.393 151.551C214.622 152.084 214.737 152.658 214.737 153.273C214.737 153.889 214.622 154.467 214.393 155.008C214.171 155.542 213.859 156.009 213.457 156.411C213.064 156.813 212.6 157.129 212.067 157.359C211.542 157.588 210.976 157.703 210.369 157.703ZM210.344 156.35C210.927 156.35 211.435 156.218 211.87 155.956C212.313 155.693 212.658 155.332 212.904 154.873C213.158 154.405 213.285 153.868 213.285 153.261C213.285 152.81 213.211 152.4 213.064 152.031C212.924 151.653 212.723 151.329 212.461 151.059C212.198 150.78 211.887 150.566 211.526 150.419C211.173 150.271 210.779 150.197 210.344 150.197C209.77 150.197 209.262 150.329 208.819 150.591C208.384 150.845 208.039 151.202 207.785 151.662C207.539 152.121 207.416 152.654 207.416 153.261C207.416 153.712 207.486 154.131 207.625 154.516C207.773 154.894 207.974 155.218 208.228 155.488C208.49 155.759 208.802 155.972 209.163 156.128C209.524 156.276 209.918 156.35 210.344 156.35Z" fill="#EFECE2"/>
<path d="M274.935 154.332V153.101H277.088C277.383 153.101 277.642 153.044 277.863 152.929C278.093 152.806 278.273 152.638 278.404 152.424C278.536 152.203 278.601 151.945 278.601 151.649C278.601 151.354 278.536 151.1 278.404 150.886C278.273 150.665 278.093 150.497 277.863 150.382C277.642 150.259 277.383 150.197 277.088 150.197H274.935V148.967H277.162C277.703 148.967 278.187 149.078 278.614 149.299C279.048 149.521 279.389 149.832 279.635 150.234C279.889 150.636 280.016 151.108 280.016 151.649C280.016 152.191 279.889 152.662 279.635 153.064C279.389 153.466 279.048 153.778 278.614 153.999C278.187 154.221 277.703 154.332 277.162 154.332H274.935ZM273.963 157.58V148.967H275.378V157.58H273.963ZM281.292 157.58V148.967H282.707V157.58H281.292ZM282.265 157.58V156.288H287.088V157.58H282.265ZM282.265 153.803V152.56H286.67V153.803H282.265ZM282.265 150.259V148.967H287.026V150.259H282.265ZM283.532 148.118L282.917 147.503L284.492 145.497L285.538 146.543L283.532 148.118ZM290.416 157.58V149.213H291.831V157.58H290.416ZM287.61 150.259V148.967H294.636V150.259H287.61ZM294.039 157.58L297.583 148.967H298.567L302.086 157.58H300.56L297.804 150.603H298.321L295.54 157.58H294.039ZM295.786 155.919V154.688H300.351V155.919H295.786ZM303.222 157.58V148.967H304.637V157.58H303.222ZM304.194 157.58V156.288H308.698V157.58H304.194ZM309.059 157.58L312.603 148.967H313.587L317.106 157.58H315.581L312.824 150.603H313.341L310.56 157.58H309.059ZM310.806 155.919V154.688H315.371V155.919H310.806Z" fill="#EFECE2"/>
<path d="M367.084 157.703C366.461 157.703 365.883 157.592 365.349 157.371C364.824 157.141 364.365 156.825 363.971 156.423C363.578 156.013 363.274 155.542 363.061 155.008C362.847 154.467 362.741 153.889 362.741 153.273C362.741 152.658 362.847 152.084 363.061 151.551C363.274 151.009 363.578 150.538 363.971 150.136C364.365 149.734 364.824 149.418 365.349 149.188C365.883 148.959 366.461 148.844 367.084 148.844C367.782 148.844 368.385 148.959 368.893 149.188C369.402 149.418 369.853 149.73 370.247 150.123L369.287 151.083C369.033 150.804 368.721 150.587 368.352 150.431C367.991 150.275 367.568 150.197 367.084 150.197C366.658 150.197 366.268 150.271 365.915 150.419C365.563 150.566 365.255 150.78 364.993 151.059C364.738 151.329 364.541 151.653 364.402 152.031C364.263 152.408 364.193 152.822 364.193 153.273C364.193 153.725 364.263 154.139 364.402 154.516C364.541 154.894 364.738 155.222 364.993 155.501C365.255 155.771 365.563 155.98 365.915 156.128C366.268 156.276 366.658 156.35 367.084 156.35C367.609 156.35 368.052 156.272 368.413 156.116C368.782 155.952 369.094 155.73 369.348 155.451L370.308 156.411C369.914 156.813 369.451 157.129 368.918 157.359C368.385 157.588 367.773 157.703 367.084 157.703ZM375.185 157.703C374.569 157.703 373.995 157.588 373.462 157.359C372.929 157.129 372.461 156.813 372.059 156.411C371.657 156.001 371.341 155.529 371.112 154.996C370.89 154.455 370.779 153.876 370.779 153.261C370.779 152.646 370.89 152.072 371.112 151.538C371.341 151.005 371.653 150.538 372.047 150.136C372.449 149.726 372.912 149.41 373.437 149.188C373.97 148.959 374.545 148.844 375.16 148.844C375.775 148.844 376.345 148.959 376.87 149.188C377.403 149.41 377.871 149.726 378.273 150.136C378.675 150.538 378.987 151.009 379.208 151.551C379.438 152.084 379.553 152.658 379.553 153.273C379.553 153.889 379.438 154.467 379.208 155.008C378.987 155.542 378.675 156.009 378.273 156.411C377.879 156.813 377.416 157.129 376.883 157.359C376.358 157.588 375.792 157.703 375.185 157.703ZM375.16 156.35C375.742 156.35 376.251 156.218 376.686 155.956C377.129 155.693 377.473 155.332 377.719 154.873C377.974 154.405 378.101 153.868 378.101 153.261C378.101 152.81 378.027 152.4 377.879 152.031C377.74 151.653 377.539 151.329 377.276 151.059C377.014 150.78 376.702 150.566 376.341 150.419C375.988 150.271 375.595 150.197 375.16 150.197C374.586 150.197 374.077 150.329 373.634 150.591C373.199 150.845 372.855 151.202 372.601 151.662C372.354 152.121 372.231 152.654 372.231 153.261C372.231 153.712 372.301 154.131 372.441 154.516C372.588 154.894 372.789 155.218 373.043 155.488C373.306 155.759 373.618 155.972 373.979 156.128C374.34 156.276 374.733 156.35 375.16 156.35ZM381.964 153.926V152.757H384.142C384.576 152.757 384.913 152.646 385.151 152.424C385.397 152.195 385.52 151.879 385.52 151.477C385.52 151.116 385.401 150.812 385.163 150.566C384.925 150.32 384.589 150.197 384.154 150.197H381.964V148.967H384.215C384.757 148.967 385.233 149.078 385.643 149.299C386.053 149.512 386.369 149.808 386.59 150.185C386.82 150.554 386.935 150.977 386.935 151.452C386.935 151.953 386.82 152.387 386.59 152.757C386.369 153.126 386.053 153.413 385.643 153.618C385.233 153.823 384.757 153.926 384.215 153.926H381.964ZM380.992 157.58V148.967H382.407V157.58H380.992ZM385.717 157.58L382.702 153.839L384.019 153.36L387.501 157.58H385.717ZM389.522 153.926V152.757H391.7C392.135 152.757 392.471 152.646 392.709 152.424C392.955 152.195 393.078 151.879 393.078 151.477C393.078 151.116 392.959 150.812 392.721 150.566C392.483 150.32 392.147 150.197 391.712 150.197H389.522V148.967H391.774C392.315 148.967 392.791 149.078 393.201 149.299C393.611 149.512 393.927 149.808 394.149 150.185C394.378 150.554 394.493 150.977 394.493 151.452C394.493 151.953 394.378 152.387 394.149 152.757C393.927 153.126 393.611 153.413 393.201 153.618C392.791 153.823 392.315 153.926 391.774 153.926H389.522ZM388.55 157.58V148.967H389.965V157.58H388.55ZM393.275 157.58L390.26 153.839L391.577 153.36L395.059 157.58H393.275ZM396.108 157.58V148.967H397.523V157.58H396.108ZM397.08 157.58V156.288H401.904V157.58H397.08ZM397.08 153.803V152.56H401.485V153.803H397.08ZM397.08 150.259V148.967H401.842V150.259H397.08ZM403.366 157.58V148.967H404.35L404.781 150.591V157.58H403.366ZM409.334 157.58L404.178 150.849L404.35 148.967L409.506 155.697L409.334 157.58ZM409.334 157.58L408.903 156.067V148.967H410.318V157.58H409.334ZM414.352 157.58V149.213H415.767V157.58H414.352ZM411.546 150.259V148.967H418.572V150.259H411.546ZM419.804 157.58V148.967H421.219V157.58H419.804ZM423.085 157.58V148.967H424.069L424.5 150.591V157.58H423.085ZM429.053 157.58L423.897 150.849L424.069 148.967L429.225 155.697L429.053 157.58ZM429.053 157.58L428.622 156.067V148.967H430.037V157.58H429.053ZM431.905 157.58V148.967H433.32V157.58H431.905ZM437.38 157.58V148.967H438.795V157.58H437.38ZM432.877 153.766V152.474H437.688V153.766H432.877ZM440.025 157.58L443.568 148.967H444.553L448.072 157.58H446.546L443.79 150.603H444.307L441.526 157.58H440.025ZM441.772 155.919V154.688H446.337V155.919H441.772Z" fill="#EFECE2"/>
<path d="M364.547 167.467V166.746H366.208C366.437 166.746 366.639 166.699 366.815 166.605C366.996 166.512 367.137 166.38 367.237 166.21C367.342 166.04 367.395 165.838 367.395 165.604C367.395 165.369 367.342 165.167 367.237 164.997C367.137 164.827 366.996 164.695 366.815 164.602C366.639 164.508 366.437 164.461 366.208 164.461H364.547V163.74H366.261C366.636 163.74 366.97 163.816 367.263 163.969C367.562 164.121 367.796 164.338 367.966 164.619C368.142 164.895 368.23 165.223 368.23 165.604C368.23 165.979 368.142 166.307 367.966 166.588C367.796 166.863 367.562 167.08 367.263 167.238C366.97 167.391 366.636 167.467 366.261 167.467H364.547ZM363.993 169.84V163.74H364.82V169.84H363.993ZM370.85 169.928C370.44 169.928 370.071 169.831 369.742 169.638C369.414 169.444 369.154 169.184 368.96 168.855C368.767 168.521 368.67 168.149 368.67 167.739C368.67 167.335 368.767 166.972 368.96 166.649C369.154 166.321 369.414 166.061 369.742 165.867C370.071 165.674 370.44 165.577 370.85 165.577C371.254 165.577 371.62 165.674 371.948 165.867C372.282 166.055 372.546 166.312 372.739 166.641C372.933 166.969 373.03 167.335 373.03 167.739C373.03 168.149 372.933 168.521 372.739 168.855C372.546 169.184 372.282 169.444 371.948 169.638C371.62 169.831 371.254 169.928 370.85 169.928ZM370.85 169.163C371.114 169.163 371.348 169.102 371.553 168.979C371.758 168.855 371.919 168.688 372.036 168.478C372.154 168.261 372.212 168.015 372.212 167.739C372.212 167.47 372.151 167.229 372.028 167.019C371.91 166.808 371.749 166.644 371.544 166.526C371.345 166.403 371.114 166.342 370.85 166.342C370.586 166.342 370.352 166.403 370.147 166.526C369.942 166.644 369.781 166.808 369.663 167.019C369.546 167.229 369.488 167.47 369.488 167.739C369.488 168.015 369.546 168.261 369.663 168.478C369.781 168.688 369.942 168.855 370.147 168.979C370.352 169.102 370.586 169.163 370.85 169.163ZM376.874 169.84V167.405C376.874 167.089 376.774 166.828 376.575 166.623C376.376 166.418 376.118 166.315 375.802 166.315C375.591 166.315 375.403 166.362 375.239 166.456C375.075 166.55 374.946 166.679 374.852 166.843C374.759 167.007 374.712 167.194 374.712 167.405L374.387 167.221C374.387 166.904 374.457 166.623 374.598 166.377C374.738 166.131 374.934 165.937 375.186 165.797C375.438 165.65 375.723 165.577 376.039 165.577C376.355 165.577 376.634 165.656 376.874 165.814C377.12 165.973 377.313 166.181 377.454 166.438C377.595 166.69 377.665 166.96 377.665 167.247V169.84H376.874ZM373.921 169.84V165.665H374.712V169.84H373.921ZM379.326 169.84V163.916H380.117V169.84H379.326ZM378.298 166.386V165.665H381.145V166.386H378.298ZM383.699 169.928C383.289 169.928 382.919 169.831 382.591 169.638C382.263 169.444 382.002 169.184 381.809 168.855C381.616 168.521 381.519 168.149 381.519 167.739C381.519 167.335 381.616 166.972 381.809 166.649C382.002 166.321 382.263 166.061 382.591 165.867C382.919 165.674 383.289 165.577 383.699 165.577C384.103 165.577 384.469 165.674 384.797 165.867C385.131 166.055 385.395 166.312 385.588 166.641C385.782 166.969 385.878 167.335 385.878 167.739C385.878 168.149 385.782 168.521 385.588 168.855C385.395 169.184 385.131 169.444 384.797 169.638C384.469 169.831 384.103 169.928 383.699 169.928ZM383.699 169.163C383.962 169.163 384.197 169.102 384.402 168.979C384.607 168.855 384.768 168.688 384.885 168.478C385.002 168.261 385.061 168.015 385.061 167.739C385.061 167.47 384.999 167.229 384.876 167.019C384.759 166.808 384.598 166.644 384.393 166.526C384.194 166.403 383.962 166.342 383.699 166.342C383.435 166.342 383.201 166.403 382.996 166.526C382.79 166.644 382.629 166.808 382.512 167.019C382.395 167.229 382.336 167.47 382.336 167.739C382.336 168.015 382.395 168.261 382.512 168.478C382.629 168.688 382.79 168.855 382.996 168.979C383.201 169.102 383.435 169.163 383.699 169.163ZM390.795 169.928C390.479 169.928 390.192 169.863 389.934 169.734C389.682 169.6 389.48 169.415 389.327 169.181C389.175 168.946 389.09 168.68 389.072 168.381V167.124C389.09 166.819 389.175 166.553 389.327 166.324C389.486 166.09 389.691 165.908 389.943 165.779C390.2 165.645 390.485 165.577 390.795 165.577C391.176 165.577 391.519 165.674 391.823 165.867C392.134 166.061 392.377 166.321 392.553 166.649C392.729 166.978 392.817 167.347 392.817 167.757C392.817 168.167 392.729 168.536 392.553 168.864C392.377 169.192 392.134 169.453 391.823 169.646C391.519 169.834 391.176 169.928 390.795 169.928ZM388.598 169.84V163.564H389.389V166.685L389.239 167.695L389.389 168.715V169.84H388.598ZM390.663 169.181C390.927 169.181 391.158 169.119 391.358 168.996C391.557 168.873 391.715 168.706 391.832 168.495C391.949 168.278 392.008 168.029 392.008 167.748C392.008 167.473 391.949 167.227 391.832 167.01C391.715 166.793 391.557 166.626 391.358 166.509C391.158 166.386 390.93 166.324 390.672 166.324C390.408 166.324 390.177 166.386 389.978 166.509C389.779 166.626 389.623 166.793 389.512 167.01C389.401 167.227 389.345 167.476 389.345 167.757C389.345 168.032 389.398 168.278 389.503 168.495C389.614 168.706 389.77 168.873 389.969 168.996C390.174 169.119 390.405 169.181 390.663 169.181ZM395.489 169.928C395.108 169.928 394.762 169.834 394.452 169.646C394.141 169.453 393.895 169.192 393.713 168.864C393.538 168.536 393.45 168.167 393.45 167.757C393.45 167.347 393.538 166.978 393.713 166.649C393.895 166.321 394.138 166.061 394.443 165.867C394.753 165.674 395.102 165.577 395.489 165.577C395.805 165.577 396.086 165.645 396.332 165.779C396.584 165.908 396.787 166.09 396.939 166.324C397.091 166.553 397.176 166.819 397.194 167.124V168.381C397.176 168.68 397.091 168.946 396.939 169.181C396.792 169.415 396.593 169.6 396.341 169.734C396.095 169.863 395.811 169.928 395.489 169.928ZM395.621 169.181C396.013 169.181 396.33 169.049 396.57 168.785C396.81 168.516 396.93 168.173 396.93 167.757C396.93 167.47 396.874 167.221 396.763 167.01C396.658 166.793 396.505 166.626 396.306 166.509C396.107 166.386 395.875 166.324 395.612 166.324C395.348 166.324 395.114 166.386 394.909 166.509C394.709 166.632 394.551 166.802 394.434 167.019C394.323 167.229 394.267 167.473 394.267 167.748C394.267 168.029 394.323 168.278 394.434 168.495C394.551 168.706 394.712 168.873 394.917 168.996C395.123 169.119 395.357 169.181 395.621 169.181ZM396.877 169.84V168.715L397.027 167.695L396.877 166.685V165.665H397.677V169.84H396.877ZM400.156 169.928C399.922 169.928 399.699 169.898 399.488 169.84C399.283 169.775 399.093 169.687 398.917 169.576C398.741 169.459 398.589 169.321 398.46 169.163L398.969 168.653C399.122 168.841 399.298 168.981 399.497 169.075C399.696 169.163 399.919 169.207 400.165 169.207C400.411 169.207 400.601 169.166 400.736 169.084C400.871 168.996 400.938 168.876 400.938 168.724C400.938 168.571 400.883 168.454 400.771 168.372C400.666 168.284 400.528 168.214 400.358 168.161C400.188 168.103 400.007 168.047 399.813 167.994C399.626 167.936 399.447 167.862 399.277 167.774C399.107 167.687 398.967 167.566 398.855 167.414C398.75 167.262 398.697 167.06 398.697 166.808C398.697 166.556 398.759 166.339 398.882 166.157C399.005 165.97 399.175 165.826 399.391 165.727C399.614 165.627 399.881 165.577 400.191 165.577C400.519 165.577 400.809 165.636 401.061 165.753C401.319 165.864 401.53 166.034 401.694 166.263L401.184 166.772C401.067 166.62 400.921 166.503 400.745 166.421C400.575 166.339 400.382 166.298 400.165 166.298C399.936 166.298 399.76 166.339 399.637 166.421C399.52 166.497 399.462 166.605 399.462 166.746C399.462 166.887 399.514 166.995 399.62 167.071C399.725 167.147 399.863 167.212 400.033 167.265C400.209 167.317 400.39 167.373 400.578 167.432C400.765 167.484 400.944 167.558 401.114 167.651C401.284 167.745 401.422 167.871 401.527 168.029C401.638 168.187 401.694 168.396 401.694 168.653C401.694 169.046 401.553 169.356 401.272 169.585C400.997 169.813 400.625 169.928 400.156 169.928ZM404.513 169.928C404.097 169.928 403.722 169.834 403.388 169.646C403.054 169.453 402.791 169.192 402.597 168.864C402.404 168.536 402.307 168.164 402.307 167.748C402.307 167.338 402.401 166.969 402.588 166.641C402.782 166.312 403.04 166.055 403.362 165.867C403.69 165.674 404.056 165.577 404.461 165.577C404.847 165.577 405.187 165.665 405.48 165.841C405.779 166.017 406.01 166.26 406.174 166.57C406.344 166.881 406.429 167.232 406.429 167.625C406.429 167.684 406.426 167.748 406.42 167.818C406.415 167.883 406.403 167.959 406.385 168.047H402.861V167.388H405.963L405.673 167.643C405.673 167.361 405.624 167.124 405.524 166.931C405.424 166.731 405.284 166.579 405.102 166.474C404.92 166.362 404.701 166.307 404.443 166.307C404.173 166.307 403.936 166.365 403.731 166.482C403.526 166.6 403.368 166.764 403.256 166.975C403.145 167.186 403.089 167.435 403.089 167.722C403.089 168.015 403.148 168.272 403.265 168.495C403.382 168.712 403.549 168.882 403.766 169.005C403.983 169.122 404.232 169.181 404.513 169.181C404.748 169.181 404.961 169.14 405.155 169.058C405.354 168.976 405.524 168.853 405.665 168.688L406.174 169.207C405.975 169.441 405.729 169.62 405.436 169.743C405.149 169.866 404.841 169.928 404.513 169.928ZM410.887 169.928C410.5 169.928 410.154 169.834 409.849 169.646C409.545 169.453 409.302 169.192 409.12 168.864C408.944 168.536 408.856 168.167 408.856 167.757C408.856 167.347 408.944 166.978 409.12 166.649C409.302 166.321 409.545 166.061 409.849 165.867C410.154 165.674 410.5 165.577 410.887 165.577C411.197 165.577 411.478 165.645 411.73 165.779C411.982 165.908 412.184 166.09 412.337 166.324C412.495 166.553 412.583 166.819 412.6 167.124V168.381C412.583 168.68 412.498 168.946 412.346 169.181C412.193 169.415 411.991 169.6 411.739 169.734C411.487 169.863 411.203 169.928 410.887 169.928ZM411.018 169.181C411.282 169.181 411.511 169.119 411.704 168.996C411.903 168.873 412.058 168.706 412.17 168.495C412.281 168.278 412.337 168.032 412.337 167.757C412.337 167.47 412.278 167.221 412.161 167.01C412.05 166.799 411.894 166.632 411.695 166.509C411.502 166.386 411.273 166.324 411.01 166.324C410.746 166.324 410.514 166.386 410.315 166.509C410.116 166.632 409.958 166.802 409.841 167.019C409.729 167.229 409.674 167.473 409.674 167.748C409.674 168.029 409.729 168.278 409.841 168.495C409.958 168.706 410.116 168.873 410.315 168.996C410.52 169.119 410.755 169.181 411.018 169.181ZM413.084 169.84H412.284V168.715L412.433 167.695L412.284 166.685V163.564H413.084V169.84ZM416.143 169.928C415.733 169.928 415.363 169.831 415.035 169.638C414.707 169.444 414.446 169.184 414.253 168.855C414.06 168.521 413.963 168.149 413.963 167.739C413.963 167.335 414.06 166.972 414.253 166.649C414.446 166.321 414.707 166.061 415.035 165.867C415.363 165.674 415.733 165.577 416.143 165.577C416.547 165.577 416.913 165.674 417.241 165.867C417.575 166.055 417.839 166.312 418.032 166.641C418.226 166.969 418.322 167.335 418.322 167.739C418.322 168.149 418.226 168.521 418.032 168.855C417.839 169.184 417.575 169.444 417.241 169.638C416.913 169.831 416.547 169.928 416.143 169.928ZM416.143 169.163C416.406 169.163 416.641 169.102 416.846 168.979C417.051 168.855 417.212 168.688 417.329 168.478C417.446 168.261 417.505 168.015 417.505 167.739C417.505 167.47 417.443 167.229 417.32 167.019C417.203 166.808 417.042 166.644 416.837 166.526C416.638 166.403 416.406 166.342 416.143 166.342C415.879 166.342 415.645 166.403 415.44 166.526C415.234 166.644 415.073 166.808 414.956 167.019C414.839 167.229 414.78 167.47 414.78 167.739C414.78 168.015 414.839 168.261 414.956 168.478C415.073 168.688 415.234 168.855 415.44 168.979C415.645 169.102 415.879 169.163 416.143 169.163ZM422.949 169.928C422.539 169.928 422.167 169.831 421.833 169.638C421.505 169.444 421.244 169.184 421.051 168.855C420.863 168.521 420.769 168.152 420.769 167.748C420.769 167.338 420.863 166.969 421.051 166.641C421.244 166.312 421.505 166.055 421.833 165.867C422.167 165.674 422.539 165.577 422.949 165.577C423.271 165.577 423.57 165.639 423.846 165.762C424.121 165.879 424.358 166.052 424.557 166.28L424.03 166.808C423.901 166.655 423.743 166.541 423.556 166.465C423.374 166.383 423.172 166.342 422.949 166.342C422.685 166.342 422.451 166.403 422.246 166.526C422.041 166.644 421.88 166.808 421.763 167.019C421.645 167.229 421.587 167.473 421.587 167.748C421.587 168.023 421.645 168.267 421.763 168.478C421.88 168.688 422.041 168.855 422.246 168.979C422.451 169.102 422.685 169.163 422.949 169.163C423.172 169.163 423.374 169.125 423.556 169.049C423.743 168.967 423.904 168.85 424.039 168.697L424.557 169.225C424.364 169.447 424.127 169.62 423.846 169.743C423.57 169.866 423.271 169.928 422.949 169.928ZM425.342 169.84V165.665H426.133V169.84H425.342ZM426.133 167.458L425.834 167.326C425.834 166.793 425.957 166.368 426.203 166.052C426.449 165.735 426.804 165.577 427.267 165.577C427.478 165.577 427.668 165.615 427.838 165.691C428.008 165.762 428.166 165.882 428.313 166.052L427.794 166.588C427.706 166.494 427.61 166.427 427.504 166.386C427.399 166.345 427.276 166.324 427.135 166.324C426.842 166.324 426.602 166.418 426.414 166.605C426.227 166.793 426.133 167.077 426.133 167.458ZM430.639 169.928C430.229 169.928 429.86 169.831 429.532 169.638C429.204 169.444 428.943 169.184 428.75 168.855C428.556 168.521 428.46 168.149 428.46 167.739C428.46 167.335 428.556 166.972 428.75 166.649C428.943 166.321 429.204 166.061 429.532 165.867C429.86 165.674 430.229 165.577 430.639 165.577C431.044 165.577 431.41 165.674 431.738 165.867C432.072 166.055 432.336 166.312 432.529 166.641C432.723 166.969 432.819 167.335 432.819 167.739C432.819 168.149 432.723 168.521 432.529 168.855C432.336 169.184 432.072 169.444 431.738 169.638C431.41 169.831 431.044 169.928 430.639 169.928ZM430.639 169.163C430.903 169.163 431.138 169.102 431.343 168.979C431.548 168.855 431.709 168.688 431.826 168.478C431.943 168.261 432.002 168.015 432.002 167.739C432.002 167.47 431.94 167.229 431.817 167.019C431.7 166.808 431.539 166.644 431.334 166.526C431.135 166.403 430.903 166.342 430.639 166.342C430.376 166.342 430.141 166.403 429.936 166.526C429.731 166.644 429.57 166.808 429.453 167.019C429.336 167.229 429.277 167.47 429.277 167.739C429.277 168.015 429.336 168.261 429.453 168.478C429.57 168.688 429.731 168.855 429.936 168.979C430.141 169.102 430.376 169.163 430.639 169.163ZM435.618 169.928C435.208 169.928 434.835 169.831 434.501 169.638C434.173 169.444 433.913 169.184 433.719 168.855C433.532 168.521 433.438 168.152 433.438 167.748C433.438 167.338 433.532 166.969 433.719 166.641C433.913 166.312 434.173 166.055 434.501 165.867C434.835 165.674 435.208 165.577 435.618 165.577C435.94 165.577 436.239 165.639 436.514 165.762C436.79 165.879 437.027 166.052 437.226 166.28L436.699 166.808C436.57 166.655 436.412 166.541 436.224 166.465C436.042 166.383 435.84 166.342 435.618 166.342C435.354 166.342 435.12 166.403 434.915 166.526C434.709 166.644 434.548 166.808 434.431 167.019C434.314 167.229 434.255 167.473 434.255 167.748C434.255 168.023 434.314 168.267 434.431 168.478C434.548 168.688 434.709 168.855 434.915 168.979C435.12 169.102 435.354 169.163 435.618 169.163C435.84 169.163 436.042 169.125 436.224 169.049C436.412 168.967 436.573 168.85 436.708 168.697L437.226 169.225C437.033 169.447 436.795 169.62 436.514 169.743C436.239 169.866 435.94 169.928 435.618 169.928ZM440.964 169.84V167.405C440.964 167.089 440.864 166.828 440.665 166.623C440.466 166.418 440.208 166.315 439.891 166.315C439.68 166.315 439.493 166.362 439.329 166.456C439.165 166.55 439.036 166.679 438.942 166.843C438.848 167.007 438.802 167.194 438.802 167.405L438.476 167.221C438.476 166.904 438.547 166.623 438.687 166.377C438.828 166.131 439.024 165.937 439.276 165.797C439.528 165.65 439.812 165.577 440.129 165.577C440.445 165.577 440.723 165.647 440.964 165.788C441.21 165.929 441.403 166.125 441.544 166.377C441.684 166.629 441.755 166.919 441.755 167.247V169.84H440.964ZM438.011 169.84V163.564H438.802V169.84H438.011ZM444.759 169.928C444.343 169.928 443.968 169.834 443.634 169.646C443.3 169.453 443.037 169.192 442.843 168.864C442.65 168.536 442.553 168.164 442.553 167.748C442.553 167.338 442.647 166.969 442.834 166.641C443.028 166.312 443.286 166.055 443.608 165.867C443.936 165.674 444.302 165.577 444.707 165.577C445.093 165.577 445.433 165.665 445.726 165.841C446.025 166.017 446.256 166.26 446.42 166.57C446.59 166.881 446.675 167.232 446.675 167.625C446.675 167.684 446.672 167.748 446.666 167.818C446.661 167.883 446.649 167.959 446.631 168.047H443.107V167.388H446.209L445.919 167.643C445.919 167.361 445.87 167.124 445.77 166.931C445.67 166.731 445.53 166.579 445.348 166.474C445.166 166.362 444.947 166.307 444.689 166.307C444.419 166.307 444.182 166.365 443.977 166.482C443.772 166.6 443.614 166.764 443.502 166.975C443.391 167.186 443.335 167.435 443.335 167.722C443.335 168.015 443.394 168.272 443.511 168.495C443.628 168.712 443.795 168.882 444.012 169.005C444.229 169.122 444.478 169.181 444.759 169.181C444.994 169.181 445.208 169.14 445.401 169.058C445.6 168.976 445.77 168.853 445.911 168.688L446.42 169.207C446.221 169.441 445.975 169.62 445.682 169.743C445.395 169.866 445.087 169.928 444.759 169.928ZM443.555 165.05L443.195 164.698L444.39 163.336H445.005L446.201 164.698L445.849 165.05L444.434 163.872L444.97 163.881L443.555 165.05Z" fill="#EFECE2"/>
<path d="M246.684 169.84V169.084H248.38C248.831 169.084 249.227 168.987 249.567 168.794C249.907 168.595 250.17 168.322 250.358 167.977C250.551 167.631 250.648 167.232 250.648 166.781C250.648 166.336 250.551 165.94 250.358 165.595C250.164 165.249 249.898 164.979 249.558 164.786C249.218 164.593 248.826 164.496 248.38 164.496H246.693V163.74H248.398C248.843 163.74 249.253 163.816 249.628 163.969C250.009 164.121 250.337 164.335 250.613 164.61C250.894 164.886 251.111 165.208 251.263 165.577C251.421 165.946 251.5 166.351 251.5 166.79C251.5 167.224 251.421 167.628 251.263 168.003C251.111 168.372 250.897 168.694 250.622 168.97C250.346 169.245 250.018 169.459 249.637 169.611C249.262 169.764 248.855 169.84 248.415 169.84H246.684ZM246.139 169.84V163.74H246.965V169.84H246.139ZM254.438 169.928C254.022 169.928 253.647 169.834 253.313 169.646C252.979 169.453 252.715 169.192 252.522 168.864C252.329 168.536 252.232 168.164 252.232 167.748C252.232 167.338 252.326 166.969 252.513 166.641C252.707 166.312 252.964 166.055 253.287 165.867C253.615 165.674 253.981 165.577 254.385 165.577C254.772 165.577 255.112 165.665 255.405 165.841C255.704 166.017 255.935 166.26 256.099 166.57C256.269 166.881 256.354 167.232 256.354 167.625C256.354 167.684 256.351 167.748 256.345 167.818C256.339 167.883 256.328 167.959 256.31 168.047H252.786V167.388H255.888L255.598 167.643C255.598 167.361 255.548 167.124 255.449 166.931C255.349 166.731 255.209 166.579 255.027 166.474C254.845 166.362 254.626 166.307 254.368 166.307C254.098 166.307 253.861 166.365 253.656 166.482C253.451 166.6 253.293 166.764 253.181 166.975C253.07 167.186 253.014 167.435 253.014 167.722C253.014 168.015 253.073 168.272 253.19 168.495C253.307 168.712 253.474 168.882 253.691 169.005C253.908 169.122 254.157 169.181 254.438 169.181C254.672 169.181 254.886 169.14 255.08 169.058C255.279 168.976 255.449 168.853 255.589 168.688L256.099 169.207C255.9 169.441 255.654 169.62 255.361 169.743C255.074 169.866 254.766 169.928 254.438 169.928ZM257.217 169.84V163.564H258.008V169.84H257.217ZM259.174 169.84V165.665H259.965V169.84H259.174ZM259.569 164.83C259.423 164.83 259.303 164.783 259.209 164.689C259.115 164.59 259.068 164.467 259.068 164.32C259.068 164.18 259.115 164.062 259.209 163.969C259.303 163.869 259.423 163.819 259.569 163.819C259.716 163.819 259.836 163.869 259.93 163.969C260.023 164.062 260.07 164.18 260.07 164.32C260.07 164.467 260.023 164.59 259.93 164.689C259.836 164.783 259.716 164.83 259.569 164.83ZM263.038 169.928C262.627 169.928 262.255 169.831 261.921 169.638C261.593 169.444 261.333 169.184 261.139 168.855C260.952 168.521 260.858 168.152 260.858 167.748C260.858 167.338 260.952 166.969 261.139 166.641C261.333 166.312 261.593 166.055 261.921 165.867C262.255 165.674 262.627 165.577 263.038 165.577C263.36 165.577 263.659 165.639 263.934 165.762C264.21 165.879 264.447 166.052 264.646 166.28L264.119 166.808C263.99 166.655 263.832 166.541 263.644 166.465C263.462 166.383 263.26 166.342 263.038 166.342C262.774 166.342 262.54 166.403 262.335 166.526C262.129 166.644 261.968 166.808 261.851 167.019C261.734 167.229 261.675 167.473 261.675 167.748C261.675 168.023 261.734 168.267 261.851 168.478C261.968 168.688 262.129 168.855 262.335 168.979C262.54 169.102 262.774 169.163 263.038 169.163C263.26 169.163 263.462 169.125 263.644 169.049C263.832 168.967 263.993 168.85 264.127 168.697L264.646 169.225C264.453 169.447 264.215 169.62 263.934 169.743C263.659 169.866 263.36 169.928 263.038 169.928ZM267.12 169.928C266.739 169.928 266.394 169.834 266.083 169.646C265.772 169.453 265.526 169.192 265.345 168.864C265.169 168.536 265.081 168.167 265.081 167.757C265.081 167.347 265.169 166.978 265.345 166.649C265.526 166.321 265.769 166.061 266.074 165.867C266.385 165.674 266.733 165.577 267.12 165.577C267.436 165.577 267.718 165.645 267.964 165.779C268.216 165.908 268.418 166.09 268.57 166.324C268.723 166.553 268.808 166.819 268.825 167.124V168.381C268.808 168.68 268.723 168.946 268.57 169.181C268.424 169.415 268.225 169.6 267.973 169.734C267.727 169.863 267.442 169.928 267.12 169.928ZM267.252 169.181C267.644 169.181 267.961 169.049 268.201 168.785C268.441 168.516 268.561 168.173 268.561 167.757C268.561 167.47 268.506 167.221 268.394 167.01C268.289 166.793 268.137 166.626 267.937 166.509C267.738 166.386 267.507 166.324 267.243 166.324C266.979 166.324 266.745 166.386 266.54 166.509C266.341 166.632 266.183 166.802 266.065 167.019C265.954 167.229 265.898 167.473 265.898 167.748C265.898 168.029 265.954 168.278 266.065 168.495C266.183 168.706 266.344 168.873 266.549 168.996C266.754 169.119 266.988 169.181 267.252 169.181ZM268.509 169.84V168.715L268.658 167.695L268.509 166.685V165.665H269.309V169.84H268.509ZM272.227 169.928C271.84 169.928 271.494 169.834 271.19 169.646C270.885 169.453 270.642 169.192 270.46 168.864C270.284 168.536 270.197 168.167 270.197 167.757C270.197 167.347 270.284 166.978 270.46 166.649C270.642 166.321 270.885 166.061 271.19 165.867C271.494 165.674 271.84 165.577 272.227 165.577C272.537 165.577 272.819 165.645 273.071 165.779C273.323 165.908 273.525 166.09 273.677 166.324C273.835 166.553 273.923 166.819 273.941 167.124V168.381C273.923 168.68 273.838 168.946 273.686 169.181C273.533 169.415 273.331 169.6 273.079 169.734C272.827 169.863 272.543 169.928 272.227 169.928ZM272.359 169.181C272.622 169.181 272.851 169.119 273.044 168.996C273.243 168.873 273.399 168.706 273.51 168.495C273.621 168.278 273.677 168.032 273.677 167.757C273.677 167.47 273.618 167.221 273.501 167.01C273.39 166.799 273.235 166.632 273.035 166.509C272.842 166.386 272.614 166.324 272.35 166.324C272.086 166.324 271.855 166.386 271.656 166.509C271.456 166.632 271.298 166.802 271.181 167.019C271.07 167.229 271.014 167.473 271.014 167.748C271.014 168.029 271.07 168.278 271.181 168.495C271.298 168.706 271.456 168.873 271.656 168.996C271.861 169.119 272.095 169.181 272.359 169.181ZM274.424 169.84H273.624V168.715L273.774 167.695L273.624 166.685V163.564H274.424V169.84ZM277.509 169.928C277.093 169.928 276.718 169.834 276.384 169.646C276.05 169.453 275.787 169.192 275.593 168.864C275.4 168.536 275.303 168.164 275.303 167.748C275.303 167.338 275.397 166.969 275.584 166.641C275.778 166.312 276.036 166.055 276.358 165.867C276.686 165.674 277.052 165.577 277.457 165.577C277.843 165.577 278.183 165.665 278.476 165.841C278.775 166.017 279.006 166.26 279.17 166.57C279.34 166.881 279.425 167.232 279.425 167.625C279.425 167.684 279.422 167.748 279.417 167.818C279.411 167.883 279.399 167.959 279.381 168.047H275.857V167.388H278.959L278.669 167.643C278.669 167.361 278.62 167.124 278.52 166.931C278.42 166.731 278.28 166.579 278.098 166.474C277.917 166.362 277.697 166.307 277.439 166.307C277.169 166.307 276.932 166.365 276.727 166.482C276.522 166.6 276.364 166.764 276.252 166.975C276.141 167.186 276.085 167.435 276.085 167.722C276.085 168.015 276.144 168.272 276.261 168.495C276.378 168.712 276.545 168.882 276.762 169.005C276.979 169.122 277.228 169.181 277.509 169.181C277.744 169.181 277.958 169.14 278.151 169.058C278.35 168.976 278.52 168.853 278.661 168.688L279.17 169.207C278.971 169.441 278.725 169.62 278.432 169.743C278.145 169.866 277.837 169.928 277.509 169.928ZM279.954 169.409L282.432 166.096H283.364L280.885 169.409H279.954ZM279.954 169.84V169.409L280.657 169.119H283.311V169.84H279.954ZM280.103 166.386V165.665H283.364V166.096L282.634 166.386H280.103ZM285.917 169.928C285.536 169.928 285.19 169.834 284.88 169.646C284.569 169.453 284.323 169.192 284.142 168.864C283.966 168.536 283.878 168.167 283.878 167.757C283.878 167.347 283.966 166.978 284.142 166.649C284.323 166.321 284.566 166.061 284.871 165.867C285.182 165.674 285.53 165.577 285.917 165.577C286.233 165.577 286.515 165.645 286.761 165.779C287.013 165.908 287.215 166.09 287.367 166.324C287.52 166.553 287.605 166.819 287.622 167.124V168.381C287.605 168.68 287.52 168.946 287.367 169.181C287.221 169.415 287.021 169.6 286.77 169.734C286.523 169.863 286.239 169.928 285.917 169.928ZM286.049 169.181C286.441 169.181 286.758 169.049 286.998 168.785C287.238 168.516 287.358 168.173 287.358 167.757C287.358 167.47 287.303 167.221 287.191 167.01C287.086 166.793 286.934 166.626 286.734 166.509C286.535 166.386 286.304 166.324 286.04 166.324C285.776 166.324 285.542 166.386 285.337 166.509C285.138 166.632 284.98 166.802 284.862 167.019C284.751 167.229 284.695 167.473 284.695 167.748C284.695 168.029 284.751 168.278 284.862 168.495C284.98 168.706 285.141 168.873 285.346 168.996C285.551 169.119 285.785 169.181 286.049 169.181ZM287.306 169.84V168.715L287.455 167.695L287.306 166.685V165.665H288.105V169.84H287.306ZM293.019 169.928C292.603 169.928 292.228 169.834 291.894 169.646C291.56 169.453 291.296 169.192 291.103 168.864C290.91 168.536 290.813 168.164 290.813 167.748C290.813 167.338 290.907 166.969 291.094 166.641C291.287 166.312 291.545 166.055 291.868 165.867C292.196 165.674 292.562 165.577 292.966 165.577C293.353 165.577 293.693 165.665 293.986 165.841C294.285 166.017 294.516 166.26 294.68 166.57C294.85 166.881 294.935 167.232 294.935 167.625C294.935 167.684 294.932 167.748 294.926 167.818C294.92 167.883 294.909 167.959 294.891 168.047H291.367V167.388H294.469L294.179 167.643C294.179 167.361 294.129 167.124 294.03 166.931C293.93 166.731 293.789 166.579 293.608 166.474C293.426 166.362 293.206 166.307 292.949 166.307C292.679 166.307 292.442 166.365 292.237 166.482C292.032 166.6 291.873 166.764 291.762 166.975C291.651 167.186 291.595 167.435 291.595 167.722C291.595 168.015 291.654 168.272 291.771 168.495C291.888 168.712 292.055 168.882 292.272 169.005C292.489 169.122 292.738 169.181 293.019 169.181C293.253 169.181 293.467 169.14 293.661 169.058C293.86 168.976 294.03 168.853 294.17 168.688L294.68 169.207C294.481 169.441 294.235 169.62 293.942 169.743C293.655 169.866 293.347 169.928 293.019 169.928ZM298.223 169.84V165.041C298.223 164.73 298.291 164.461 298.425 164.232C298.56 163.998 298.745 163.813 298.979 163.679C299.219 163.544 299.498 163.477 299.814 163.477C300.054 163.477 300.262 163.518 300.438 163.6C300.614 163.682 300.775 163.802 300.922 163.96L300.403 164.47C300.327 164.388 300.242 164.326 300.148 164.285C300.054 164.238 299.94 164.215 299.805 164.215C299.553 164.215 299.357 164.288 299.216 164.435C299.082 164.581 299.014 164.783 299.014 165.041V169.84H298.223ZM297.195 166.386V165.665H300.341V166.386H297.195ZM302.829 169.928C302.413 169.928 302.038 169.834 301.704 169.646C301.37 169.453 301.107 169.192 300.913 168.864C300.72 168.536 300.623 168.164 300.623 167.748C300.623 167.338 300.717 166.969 300.905 166.641C301.098 166.312 301.356 166.055 301.678 165.867C302.006 165.674 302.372 165.577 302.777 165.577C303.163 165.577 303.503 165.665 303.796 165.841C304.095 166.017 304.326 166.26 304.49 166.57C304.66 166.881 304.745 167.232 304.745 167.625C304.745 167.684 304.742 167.748 304.737 167.818C304.731 167.883 304.719 167.959 304.701 168.047H301.177V167.388H304.28L303.99 167.643C303.99 167.361 303.94 167.124 303.84 166.931C303.74 166.731 303.6 166.579 303.418 166.474C303.237 166.362 303.017 166.307 302.759 166.307C302.49 166.307 302.252 166.365 302.047 166.482C301.842 166.6 301.684 166.764 301.573 166.975C301.461 167.186 301.406 167.435 301.406 167.722C301.406 168.015 301.464 168.272 301.581 168.495C301.698 168.712 301.865 168.882 302.082 169.005C302.299 169.122 302.548 169.181 302.829 169.181C303.064 169.181 303.278 169.14 303.471 169.058C303.67 168.976 303.84 168.853 303.981 168.688L304.49 169.207C304.291 169.441 304.045 169.62 303.752 169.743C303.465 169.866 303.157 169.928 302.829 169.928ZM305.608 169.84V165.665H306.399V169.84H305.608ZM308.429 169.84V167.317C308.429 167.007 308.332 166.764 308.139 166.588C307.952 166.406 307.714 166.315 307.427 166.315C307.234 166.315 307.061 166.356 306.909 166.438C306.756 166.521 306.633 166.635 306.54 166.781C306.446 166.928 306.399 167.104 306.399 167.309L306.074 167.15C306.074 166.834 306.141 166.559 306.276 166.324C306.416 166.09 306.607 165.908 306.847 165.779C307.087 165.645 307.357 165.577 307.656 165.577C307.949 165.577 308.212 165.642 308.447 165.771C308.687 165.899 308.874 166.081 309.009 166.315C309.15 166.55 309.22 166.828 309.22 167.15V169.84H308.429ZM311.25 169.84V167.317C311.25 167.007 311.154 166.764 310.96 166.588C310.773 166.406 310.539 166.315 310.257 166.315C310.064 166.315 309.888 166.356 309.73 166.438C309.578 166.521 309.455 166.635 309.361 166.781C309.267 166.928 309.22 167.104 309.22 167.309L308.772 167.15C308.79 166.828 308.874 166.553 309.027 166.324C309.185 166.09 309.387 165.908 309.633 165.779C309.879 165.645 310.149 165.577 310.442 165.577C310.747 165.577 311.019 165.642 311.259 165.771C311.499 165.899 311.69 166.081 311.831 166.315C311.977 166.55 312.05 166.831 312.05 167.159V169.84H311.25ZM313.135 169.84V165.665H313.926V169.84H313.135ZM313.531 164.83C313.384 164.83 313.264 164.783 313.171 164.689C313.077 164.59 313.03 164.467 313.03 164.32C313.03 164.18 313.077 164.062 313.171 163.969C313.264 163.869 313.384 163.819 313.531 163.819C313.677 163.819 313.798 163.869 313.891 163.969C313.985 164.062 314.032 164.18 314.032 164.32C314.032 164.467 313.985 164.59 313.891 164.689C313.798 164.783 313.677 164.83 313.531 164.83ZM318.045 169.84V167.405C318.045 167.089 317.946 166.828 317.746 166.623C317.547 166.418 317.289 166.315 316.973 166.315C316.762 166.315 316.575 166.362 316.411 166.456C316.246 166.55 316.118 166.679 316.024 166.843C315.93 167.007 315.883 167.194 315.883 167.405L315.558 167.221C315.558 166.904 315.628 166.623 315.769 166.377C315.91 166.131 316.106 165.937 316.358 165.797C316.61 165.65 316.894 165.577 317.21 165.577C317.527 165.577 317.805 165.656 318.045 165.814C318.291 165.973 318.485 166.181 318.625 166.438C318.766 166.69 318.836 166.96 318.836 167.247V169.84H318.045ZM315.092 169.84V165.665H315.883V169.84H315.092ZM319.916 169.84V165.665H320.707V169.84H319.916ZM320.312 164.83C320.165 164.83 320.045 164.783 319.951 164.689C319.857 164.59 319.811 164.467 319.811 164.32C319.811 164.18 319.857 164.062 319.951 163.969C320.045 163.869 320.165 163.819 320.312 163.819C320.458 163.819 320.578 163.869 320.672 163.969C320.766 164.062 320.813 164.18 320.813 164.32C320.813 164.467 320.766 164.59 320.672 164.689C320.578 164.783 320.458 164.83 320.312 164.83ZM321.873 169.84V163.564H322.664V169.84H321.873ZM323.83 169.84V165.665H324.621V169.84H323.83ZM324.225 164.83C324.079 164.83 323.959 164.783 323.865 164.689C323.771 164.59 323.724 164.467 323.724 164.32C323.724 164.18 323.771 164.062 323.865 163.969C323.959 163.869 324.079 163.819 324.225 163.819C324.372 163.819 324.492 163.869 324.586 163.969C324.68 164.062 324.726 164.18 324.726 164.32C324.726 164.467 324.68 164.59 324.586 164.689C324.492 164.783 324.372 164.83 324.225 164.83ZM327.553 169.928C327.167 169.928 326.821 169.834 326.516 169.646C326.211 169.453 325.968 169.192 325.787 168.864C325.611 168.536 325.523 168.167 325.523 167.757C325.523 167.347 325.611 166.978 325.787 166.649C325.968 166.321 326.211 166.061 326.516 165.867C326.821 165.674 327.167 165.577 327.553 165.577C327.864 165.577 328.145 165.645 328.397 165.779C328.649 165.908 328.851 166.09 329.003 166.324C329.162 166.553 329.25 166.819 329.267 167.124V168.381C329.25 168.68 329.165 168.946 329.012 169.181C328.86 169.415 328.658 169.6 328.406 169.734C328.154 169.863 327.87 169.928 327.553 169.928ZM327.685 169.181C327.949 169.181 328.177 169.119 328.371 168.996C328.57 168.873 328.725 168.706 328.836 168.495C328.948 168.278 329.003 168.032 329.003 167.757C329.003 167.47 328.945 167.221 328.828 167.01C328.716 166.799 328.561 166.632 328.362 166.509C328.169 166.386 327.94 166.324 327.676 166.324C327.413 166.324 327.181 166.386 326.982 166.509C326.783 166.632 326.625 166.802 326.507 167.019C326.396 167.229 326.34 167.473 326.34 167.748C326.34 168.029 326.396 168.278 326.507 168.495C326.625 168.706 326.783 168.873 326.982 168.996C327.187 169.119 327.421 169.181 327.685 169.181ZM329.751 169.84H328.951V168.715L329.1 167.695L328.951 166.685V163.564H329.751V169.84ZM332.678 169.928C332.297 169.928 331.951 169.834 331.64 169.646C331.33 169.453 331.084 169.192 330.902 168.864C330.726 168.536 330.639 168.167 330.639 167.757C330.639 167.347 330.726 166.978 330.902 166.649C331.084 166.321 331.327 166.061 331.632 165.867C331.942 165.674 332.291 165.577 332.678 165.577C332.994 165.577 333.275 165.645 333.521 165.779C333.773 165.908 333.975 166.09 334.128 166.324C334.28 166.553 334.365 166.819 334.383 167.124V168.381C334.365 168.68 334.28 168.946 334.128 169.181C333.981 169.415 333.782 169.6 333.53 169.734C333.284 169.863 333 169.928 332.678 169.928ZM332.809 169.181C333.202 169.181 333.518 169.049 333.759 168.785C333.999 168.516 334.119 168.173 334.119 167.757C334.119 167.47 334.063 167.221 333.952 167.01C333.847 166.793 333.694 166.626 333.495 166.509C333.296 166.386 333.064 166.324 332.801 166.324C332.537 166.324 332.303 166.386 332.097 166.509C331.898 166.632 331.74 166.802 331.623 167.019C331.512 167.229 331.456 167.473 331.456 167.748C331.456 168.029 331.512 168.278 331.623 168.495C331.74 168.706 331.901 168.873 332.106 168.996C332.311 169.119 332.546 169.181 332.809 169.181ZM334.066 169.84V168.715L334.216 167.695L334.066 166.685V165.665H334.866V169.84H334.066ZM337.784 169.928C337.398 169.928 337.052 169.834 336.747 169.646C336.442 169.453 336.199 169.192 336.018 168.864C335.842 168.536 335.754 168.167 335.754 167.757C335.754 167.347 335.842 166.978 336.018 166.649C336.199 166.321 336.442 166.061 336.747 165.867C337.052 165.674 337.398 165.577 337.784 165.577C338.095 165.577 338.376 165.645 338.628 165.779C338.88 165.908 339.082 166.09 339.234 166.324C339.393 166.553 339.481 166.819 339.498 167.124V168.381C339.481 168.68 339.396 168.946 339.243 169.181C339.091 169.415 338.889 169.6 338.637 169.734C338.385 169.863 338.101 169.928 337.784 169.928ZM337.916 169.181C338.18 169.181 338.408 169.119 338.602 168.996C338.801 168.873 338.956 168.706 339.067 168.495C339.179 168.278 339.234 168.032 339.234 167.757C339.234 167.47 339.176 167.221 339.059 167.01C338.947 166.799 338.792 166.632 338.593 166.509C338.4 166.386 338.171 166.324 337.907 166.324C337.644 166.324 337.412 166.386 337.213 166.509C337.014 166.632 336.856 166.802 336.738 167.019C336.627 167.229 336.571 167.473 336.571 167.748C336.571 168.029 336.627 168.278 336.738 168.495C336.856 168.706 337.014 168.873 337.213 168.996C337.418 169.119 337.652 169.181 337.916 169.181ZM339.982 169.84H339.182V168.715L339.331 167.695L339.182 166.685V163.564H339.982V169.84ZM343.067 169.928C342.651 169.928 342.276 169.834 341.942 169.646C341.608 169.453 341.344 169.192 341.151 168.864C340.957 168.536 340.861 168.164 340.861 167.748C340.861 167.338 340.954 166.969 341.142 166.641C341.335 166.312 341.593 166.055 341.915 165.867C342.244 165.674 342.61 165.577 343.014 165.577C343.401 165.577 343.741 165.665 344.034 165.841C344.332 166.017 344.564 166.26 344.728 166.57C344.898 166.881 344.983 167.232 344.983 167.625C344.983 167.684 344.98 167.748 344.974 167.818C344.968 167.883 344.956 167.959 344.939 168.047H341.414V167.388H344.517L344.227 167.643C344.227 167.361 344.177 167.124 344.078 166.931C343.978 166.731 343.837 166.579 343.656 166.474C343.474 166.362 343.254 166.307 342.996 166.307C342.727 166.307 342.49 166.365 342.285 166.482C342.079 166.6 341.921 166.764 341.81 166.975C341.699 167.186 341.643 167.435 341.643 167.722C341.643 168.015 341.702 168.272 341.819 168.495C341.936 168.712 342.103 168.882 342.32 169.005C342.537 169.122 342.786 169.181 343.067 169.181C343.301 169.181 343.515 169.14 343.708 169.058C343.908 168.976 344.078 168.853 344.218 168.688L344.728 169.207C344.529 169.441 344.283 169.62 343.99 169.743C343.703 169.866 343.395 169.928 343.067 169.928Z" fill="#EFECE2"/>
<path d="M141.911 169.84L144.407 163.74H145.005L147.492 169.84H146.595L144.548 164.681H144.855L142.79 169.84H141.911ZM143.097 168.46V167.739H146.305V168.46H143.097ZM148.338 169.84V165.665H149.129V169.84H148.338ZM151.159 169.84V167.317C151.159 167.007 151.063 166.764 150.869 166.588C150.682 166.406 150.445 166.315 150.157 166.315C149.964 166.315 149.791 166.356 149.639 166.438C149.487 166.521 149.364 166.635 149.27 166.781C149.176 166.928 149.129 167.104 149.129 167.309L148.804 167.15C148.804 166.834 148.871 166.559 149.006 166.324C149.147 166.09 149.337 165.908 149.577 165.779C149.818 165.645 150.087 165.577 150.386 165.577C150.679 165.577 150.943 165.642 151.177 165.771C151.417 165.899 151.605 166.081 151.74 166.315C151.88 166.55 151.95 166.828 151.95 167.15V169.84H151.159ZM153.981 169.84V167.317C153.981 167.007 153.884 166.764 153.691 166.588C153.503 166.406 153.269 166.315 152.988 166.315C152.794 166.315 152.618 166.356 152.46 166.438C152.308 166.521 152.185 166.635 152.091 166.781C151.997 166.928 151.95 167.104 151.95 167.309L151.502 167.15C151.52 166.828 151.605 166.553 151.757 166.324C151.915 166.09 152.117 165.908 152.364 165.779C152.61 165.645 152.879 165.577 153.172 165.577C153.477 165.577 153.749 165.642 153.99 165.771C154.23 165.899 154.42 166.081 154.561 166.315C154.707 166.55 154.781 166.831 154.781 167.159V169.84H153.981ZM157.764 169.928C157.354 169.928 156.985 169.831 156.657 169.638C156.329 169.444 156.068 169.184 155.874 168.855C155.681 168.521 155.584 168.149 155.584 167.739C155.584 167.335 155.681 166.972 155.874 166.649C156.068 166.321 156.329 166.061 156.657 165.867C156.985 165.674 157.354 165.577 157.764 165.577C158.168 165.577 158.535 165.674 158.863 165.867C159.197 166.055 159.46 166.312 159.654 166.641C159.847 166.969 159.944 167.335 159.944 167.739C159.944 168.149 159.847 168.521 159.654 168.855C159.46 169.184 159.197 169.444 158.863 169.638C158.535 169.831 158.168 169.928 157.764 169.928ZM157.764 169.163C158.028 169.163 158.262 169.102 158.467 168.979C158.672 168.855 158.833 168.688 158.951 168.478C159.068 168.261 159.126 168.015 159.126 167.739C159.126 167.47 159.065 167.229 158.942 167.019C158.825 166.808 158.664 166.644 158.458 166.526C158.259 166.403 158.028 166.342 157.764 166.342C157.5 166.342 157.266 166.403 157.061 166.526C156.856 166.644 156.695 166.808 156.578 167.019C156.46 167.229 156.402 167.47 156.402 167.739C156.402 168.015 156.46 168.261 156.578 168.478C156.695 168.688 156.856 168.855 157.061 168.979C157.266 169.102 157.5 169.163 157.764 169.163ZM160.835 169.84V165.665H161.626V169.84H160.835ZM161.626 167.458L161.327 167.326C161.327 166.793 161.45 166.368 161.696 166.052C161.943 165.735 162.297 165.577 162.76 165.577C162.971 165.577 163.161 165.615 163.331 165.691C163.501 165.762 163.659 165.882 163.806 166.052L163.287 166.588C163.199 166.494 163.103 166.427 162.997 166.386C162.892 166.345 162.769 166.324 162.628 166.324C162.335 166.324 162.095 166.418 161.907 166.605C161.72 166.793 161.626 167.077 161.626 167.458ZM168.279 169.928C167.863 169.928 167.488 169.834 167.154 169.646C166.82 169.453 166.556 169.192 166.363 168.864C166.17 168.536 166.073 168.164 166.073 167.748C166.073 167.338 166.167 166.969 166.354 166.641C166.548 166.312 166.805 166.055 167.128 165.867C167.456 165.674 167.822 165.577 168.226 165.577C168.613 165.577 168.953 165.665 169.246 165.841C169.545 166.017 169.776 166.26 169.94 166.57C170.11 166.881 170.195 167.232 170.195 167.625C170.195 167.684 170.192 167.748 170.186 167.818C170.18 167.883 170.169 167.959 170.151 168.047H166.627V167.388H169.729L169.439 167.643C169.439 167.361 169.389 167.124 169.29 166.931C169.19 166.731 169.05 166.579 168.868 166.474C168.686 166.362 168.467 166.307 168.209 166.307C167.939 166.307 167.702 166.365 167.497 166.482C167.292 166.6 167.134 166.764 167.022 166.975C166.911 167.186 166.855 167.435 166.855 167.722C166.855 168.015 166.914 168.272 167.031 168.495C167.148 168.712 167.315 168.882 167.532 169.005C167.749 169.122 167.998 169.181 168.279 169.181C168.513 169.181 168.727 169.14 168.921 169.058C169.12 168.976 169.29 168.853 169.43 168.688L169.94 169.207C169.741 169.441 169.495 169.62 169.202 169.743C168.915 169.866 168.607 169.928 168.279 169.928ZM175.083 169.928C174.767 169.928 174.479 169.863 174.222 169.734C173.97 169.6 173.768 169.415 173.615 169.181C173.463 168.946 173.378 168.68 173.36 168.381V167.124C173.378 166.819 173.463 166.553 173.615 166.324C173.773 166.09 173.978 165.908 174.23 165.779C174.488 165.645 174.772 165.577 175.083 165.577C175.464 165.577 175.807 165.674 176.111 165.867C176.422 166.061 176.665 166.321 176.841 166.649C177.017 166.978 177.104 167.347 177.104 167.757C177.104 168.167 177.017 168.536 176.841 168.864C176.665 169.192 176.422 169.453 176.111 169.646C175.807 169.834 175.464 169.928 175.083 169.928ZM172.886 171.589V165.665H173.677V166.764L173.527 167.774L173.677 168.794V171.589H172.886ZM174.951 169.181C175.215 169.181 175.446 169.119 175.645 168.996C175.845 168.873 176.003 168.706 176.12 168.495C176.237 168.278 176.296 168.029 176.296 167.748C176.296 167.473 176.237 167.227 176.12 167.01C176.003 166.793 175.845 166.626 175.645 166.509C175.446 166.386 175.218 166.324 174.96 166.324C174.696 166.324 174.465 166.386 174.266 166.509C174.066 166.626 173.911 166.793 173.8 167.01C173.688 167.227 173.633 167.476 173.633 167.757C173.633 168.032 173.686 168.278 173.791 168.495C173.902 168.706 174.058 168.873 174.257 168.996C174.462 169.119 174.693 169.181 174.951 169.181ZM179.935 169.928C179.519 169.928 179.144 169.834 178.81 169.646C178.476 169.453 178.212 169.192 178.019 168.864C177.825 168.536 177.729 168.164 177.729 167.748C177.729 167.338 177.823 166.969 178.01 166.641C178.203 166.312 178.461 166.055 178.783 165.867C179.112 165.674 179.478 165.577 179.882 165.577C180.269 165.577 180.609 165.665 180.902 165.841C181.2 166.017 181.432 166.26 181.596 166.57C181.766 166.881 181.851 167.232 181.851 167.625C181.851 167.684 181.848 167.748 181.842 167.818C181.836 167.883 181.824 167.959 181.807 168.047H178.282V167.388H181.385L181.095 167.643C181.095 167.361 181.045 167.124 180.946 166.931C180.846 166.731 180.705 166.579 180.524 166.474C180.342 166.362 180.122 166.307 179.865 166.307C179.595 166.307 179.358 166.365 179.153 166.482C178.948 166.6 178.789 166.764 178.678 166.975C178.567 167.186 178.511 167.435 178.511 167.722C178.511 168.015 178.57 168.272 178.687 168.495C178.804 168.712 178.971 168.882 179.188 169.005C179.405 169.122 179.654 169.181 179.935 169.181C180.169 169.181 180.383 169.14 180.576 169.058C180.776 168.976 180.946 168.853 181.086 168.688L181.596 169.207C181.397 169.441 181.151 169.62 180.858 169.743C180.571 169.866 180.263 169.928 179.935 169.928ZM182.713 169.84V165.665H183.504V169.84H182.713ZM183.504 167.458L183.206 167.326C183.206 166.793 183.329 166.368 183.575 166.052C183.821 165.735 184.175 165.577 184.638 165.577C184.849 165.577 185.04 165.615 185.209 165.691C185.379 165.762 185.538 165.882 185.684 166.052L185.165 166.588C185.078 166.494 184.981 166.427 184.875 166.386C184.77 166.345 184.647 166.324 184.506 166.324C184.213 166.324 183.973 166.418 183.786 166.605C183.598 166.793 183.504 167.077 183.504 167.458ZM186.865 169.84V163.916H187.656V169.84H186.865ZM185.837 166.386V165.665H188.685V166.386H185.837ZM191.264 169.928C190.848 169.928 190.473 169.834 190.139 169.646C189.805 169.453 189.542 169.192 189.348 168.864C189.155 168.536 189.058 168.164 189.058 167.748C189.058 167.338 189.152 166.969 189.34 166.641C189.533 166.312 189.791 166.055 190.113 165.867C190.441 165.674 190.807 165.577 191.212 165.577C191.598 165.577 191.938 165.665 192.231 165.841C192.53 166.017 192.762 166.26 192.926 166.57C193.096 166.881 193.18 167.232 193.18 167.625C193.18 167.684 193.178 167.748 193.172 167.818C193.166 167.883 193.154 167.959 193.137 168.047H189.612V167.388H192.715L192.425 167.643C192.425 167.361 192.375 167.124 192.275 166.931C192.176 166.731 192.035 166.579 191.853 166.474C191.672 166.362 191.452 166.307 191.194 166.307C190.925 166.307 190.687 166.365 190.482 166.482C190.277 166.6 190.119 166.764 190.008 166.975C189.896 167.186 189.841 167.435 189.841 167.722C189.841 168.015 189.899 168.272 190.016 168.495C190.134 168.712 190.301 168.882 190.517 169.005C190.734 169.122 190.983 169.181 191.264 169.181C191.499 169.181 191.713 169.14 191.906 169.058C192.105 168.976 192.275 168.853 192.416 168.688L192.926 169.207C192.726 169.441 192.48 169.62 192.187 169.743C191.9 169.866 191.593 169.928 191.264 169.928ZM196.996 169.84V167.405C196.996 167.089 196.897 166.828 196.697 166.623C196.498 166.418 196.24 166.315 195.924 166.315C195.713 166.315 195.525 166.362 195.361 166.456C195.197 166.55 195.068 166.679 194.975 166.843C194.881 167.007 194.834 167.194 194.834 167.405L194.509 167.221C194.509 166.904 194.579 166.623 194.72 166.377C194.86 166.131 195.057 165.937 195.309 165.797C195.561 165.65 195.845 165.577 196.161 165.577C196.478 165.577 196.756 165.656 196.996 165.814C197.242 165.973 197.436 166.181 197.576 166.438C197.717 166.69 197.787 166.96 197.787 167.247V169.84H196.996ZM194.043 169.84V165.665H194.834V169.84H194.043ZM200.765 169.928C200.355 169.928 199.983 169.831 199.649 169.638C199.321 169.444 199.06 169.184 198.867 168.855C198.679 168.521 198.586 168.152 198.586 167.748C198.586 167.338 198.679 166.969 198.867 166.641C199.06 166.312 199.321 166.055 199.649 165.867C199.983 165.674 200.355 165.577 200.765 165.577C201.088 165.577 201.386 165.639 201.662 165.762C201.937 165.879 202.174 166.052 202.374 166.28L201.846 166.808C201.717 166.655 201.559 166.541 201.372 166.465C201.19 166.383 200.988 166.342 200.765 166.342C200.502 166.342 200.267 166.403 200.062 166.526C199.857 166.644 199.696 166.808 199.579 167.019C199.462 167.229 199.403 167.473 199.403 167.748C199.403 168.023 199.462 168.267 199.579 168.478C199.696 168.688 199.857 168.855 200.062 168.979C200.267 169.102 200.502 169.163 200.765 169.163C200.988 169.163 201.19 169.125 201.372 169.049C201.559 168.967 201.72 168.85 201.855 168.697L202.374 169.225C202.18 169.447 201.943 169.62 201.662 169.743C201.386 169.866 201.088 169.928 200.765 169.928ZM203.167 169.84V165.665H203.958V169.84H203.167ZM203.563 164.83C203.416 164.83 203.296 164.783 203.202 164.689C203.108 164.59 203.062 164.467 203.062 164.32C203.062 164.18 203.108 164.062 203.202 163.969C203.296 163.869 203.416 163.819 203.563 163.819C203.709 163.819 203.829 163.869 203.923 163.969C204.017 164.062 204.063 164.18 204.063 164.32C204.063 164.467 204.017 164.59 203.923 164.689C203.829 164.783 203.709 164.83 203.563 164.83ZM205.124 169.84V165.665H205.915V169.84H205.124ZM207.945 169.84V167.317C207.945 167.007 207.848 166.764 207.655 166.588C207.467 166.406 207.23 166.315 206.943 166.315C206.75 166.315 206.577 166.356 206.425 166.438C206.272 166.521 206.149 166.635 206.055 166.781C205.962 166.928 205.915 167.104 205.915 167.309L205.59 167.15C205.59 166.834 205.657 166.559 205.792 166.324C205.932 166.09 206.123 165.908 206.363 165.779C206.603 165.645 206.873 165.577 207.172 165.577C207.465 165.577 207.728 165.642 207.963 165.771C208.203 165.899 208.39 166.081 208.525 166.315C208.666 166.55 208.736 166.828 208.736 167.15V169.84H207.945ZM210.766 169.84V167.317C210.766 167.007 210.67 166.764 210.476 166.588C210.289 166.406 210.054 166.315 209.773 166.315C209.58 166.315 209.404 166.356 209.246 166.438C209.093 166.521 208.97 166.635 208.877 166.781C208.783 166.928 208.736 167.104 208.736 167.309L208.288 167.15C208.305 166.828 208.39 166.553 208.543 166.324C208.701 166.09 208.903 165.908 209.149 165.779C209.395 165.645 209.665 165.577 209.958 165.577C210.262 165.577 210.535 165.642 210.775 165.771C211.015 165.899 211.206 166.081 211.346 166.315C211.493 166.55 211.566 166.831 211.566 167.159V169.84H210.766ZM214.576 169.928C214.16 169.928 213.785 169.834 213.451 169.646C213.117 169.453 212.853 169.192 212.66 168.864C212.467 168.536 212.37 168.164 212.37 167.748C212.37 167.338 212.464 166.969 212.651 166.641C212.845 166.312 213.102 166.055 213.425 165.867C213.753 165.674 214.119 165.577 214.523 165.577C214.91 165.577 215.25 165.665 215.543 165.841C215.842 166.017 216.073 166.26 216.237 166.57C216.407 166.881 216.492 167.232 216.492 167.625C216.492 167.684 216.489 167.748 216.483 167.818C216.477 167.883 216.466 167.959 216.448 168.047H212.924V167.388H216.026L215.736 167.643C215.736 167.361 215.686 167.124 215.587 166.931C215.487 166.731 215.347 166.579 215.165 166.474C214.983 166.362 214.764 166.307 214.506 166.307C214.236 166.307 213.999 166.365 213.794 166.482C213.589 166.6 213.431 166.764 213.319 166.975C213.208 167.186 213.152 167.435 213.152 167.722C213.152 168.015 213.211 168.272 213.328 168.495C213.445 168.712 213.612 168.882 213.829 169.005C214.046 169.122 214.295 169.181 214.576 169.181C214.81 169.181 215.024 169.14 215.218 169.058C215.417 168.976 215.587 168.853 215.727 168.688L216.237 169.207C216.038 169.441 215.792 169.62 215.499 169.743C215.212 169.866 214.904 169.928 214.576 169.928ZM220.308 169.84V167.405C220.308 167.089 220.208 166.828 220.009 166.623C219.81 166.418 219.552 166.315 219.235 166.315C219.025 166.315 218.837 166.362 218.673 166.456C218.509 166.55 218.38 166.679 218.286 166.843C218.192 167.007 218.146 167.194 218.146 167.405L217.82 167.221C217.82 166.904 217.891 166.623 218.031 166.377C218.172 166.131 218.368 165.937 218.62 165.797C218.872 165.65 219.156 165.577 219.473 165.577C219.789 165.577 220.067 165.656 220.308 165.814C220.554 165.973 220.747 166.181 220.888 166.438C221.028 166.69 221.099 166.96 221.099 167.247V169.84H220.308ZM217.355 169.84V165.665H218.146V169.84H217.355ZM222.76 169.84V163.916H223.551V169.84H222.76ZM221.731 166.386V165.665H224.579V166.386H221.731ZM227.133 169.928C226.722 169.928 226.353 169.831 226.025 169.638C225.697 169.444 225.436 169.184 225.243 168.855C225.049 168.521 224.953 168.149 224.953 167.739C224.953 167.335 225.049 166.972 225.243 166.649C225.436 166.321 225.697 166.061 226.025 165.867C226.353 165.674 226.722 165.577 227.133 165.577C227.537 165.577 227.903 165.674 228.231 165.867C228.565 166.055 228.829 166.312 229.022 166.641C229.216 166.969 229.312 167.335 229.312 167.739C229.312 168.149 229.216 168.521 229.022 168.855C228.829 169.184 228.565 169.444 228.231 169.638C227.903 169.831 227.537 169.928 227.133 169.928ZM227.133 169.163C227.396 169.163 227.631 169.102 227.836 168.979C228.041 168.855 228.202 168.688 228.319 168.478C228.436 168.261 228.495 168.015 228.495 167.739C228.495 167.47 228.433 167.229 228.31 167.019C228.193 166.808 228.032 166.644 227.827 166.526C227.628 166.403 227.396 166.342 227.133 166.342C226.869 166.342 226.634 166.403 226.429 166.526C226.224 166.644 226.063 166.808 225.946 167.019C225.829 167.229 225.77 167.47 225.77 167.739C225.77 168.015 225.829 168.261 225.946 168.478C226.063 168.688 226.224 168.855 226.429 168.979C226.634 169.102 226.869 169.163 227.133 169.163Z" fill="#EFECE2"/>
</svg>
