<svg width="85" height="103" viewBox="0 0 85 103" fill="none" xmlns="http://www.w3.org/2000/svg">
<g filter="url(#filter0_d_102_15)">
<path d="M17.6671 64.9059C16.3467 59.81 16.9769 54.6124 23.4187 51.5462C36.159 45.4821 39.9768 34.9283 32.2526 19.7375C32.0079 19.2563 32.1456 18.0973 33.4093 17.8423C39.8568 16.541 44.2904 16.4947 51.1585 17.8513C52.4765 18.1117 52.5599 19.2563 52.3152 19.7375C44.5909 34.9283 48.4088 45.4821 61.1491 51.5462C67.5909 54.6124 68.2963 59.827 66.9007 64.9059C62.1212 82.3 53.0969 86.15 42.2839 86.15C31.4709 86.15 21.9246 81.3375 17.6671 64.9059Z" fill="#DEA2A2"/>
<path d="M22.3879 49.3805C18.6786 51.1461 16.4026 53.6645 15.3639 56.6849C14.3548 59.6193 14.6218 62.7153 15.3452 65.5075C17.5686 74.0883 21.2531 79.9287 26.0626 83.5969C30.8705 87.2639 36.5251 88.5485 42.2839 88.5485C47.9595 88.5485 53.5073 87.5401 58.289 83.9733C63.0656 80.4102 66.7384 74.5489 69.2135 65.5414C69.985 62.7337 70.2527 59.6272 69.2294 56.6837C68.1791 53.6624 65.8842 51.1437 62.1799 49.3805C56.2034 46.5358 52.6834 42.8222 51.3561 38.378C50.016 33.8906 50.7462 28.1149 54.4532 20.8246C54.9035 19.939 54.9518 18.8028 54.5427 17.8032C54.0634 16.6318 53.022 15.7746 51.6233 15.4983C44.4463 14.0806 39.6934 14.1271 32.9348 15.4912C31.5317 15.7744 30.5297 16.6538 30.057 17.7691C29.6543 18.7191 29.6324 19.8764 30.1146 20.8246C33.8216 28.1149 34.5518 33.8906 33.2117 38.378C31.8844 42.8222 28.3644 46.5358 22.3879 49.3805Z" stroke="#FBFBFB" stroke-width="4.797" stroke-linecap="round" stroke-linejoin="round"/>
</g>
<defs>
<filter id="filter0_d_102_15" x="0.306223" y="0.0560093" width="83.9881" height="102.888" filterUnits="userSpaceOnUse" color-interpolation-filters="sRGB">
<feFlood flood-opacity="0" result="BackgroundImageFix"/>
<feColorMatrix in="SourceAlpha" type="matrix" values="0 0 0 0 0 0 0 0 0 0 0 0 0 0 0 0 0 0 127 0" result="hardAlpha"/>
<feOffset/>
<feGaussianBlur stdDeviation="5.9985"/>
<feComposite in2="hardAlpha" operator="out"/>
<feColorMatrix type="matrix" values="0 0 0 0 0.263281 0 0 0 0 0.19884 0 0 0 0 0.150509 0 0 0 0.3 0"/>
<feBlend mode="normal" in2="BackgroundImageFix" result="effect1_dropShadow_102_15"/>
<feBlend mode="normal" in="SourceGraphic" in2="effect1_dropShadow_102_15" result="shape"/>
</filter>
</defs>
</svg>
