<svg width="83" height="107" viewBox="0 0 83 107" fill="none" xmlns="http://www.w3.org/2000/svg">
<g filter="url(#filter0_d_102_10)">
<path d="M17.5 29.55C17.5 22.9226 22.8726 17.55 29.5 17.55H41.5V41.55H29.5C22.8726 41.55 17.5 36.1774 17.5 29.55Z" fill="#C07F7F"/>
<path d="M41.5 17.55H53.5C60.1274 17.55 65.5 22.9226 65.5 29.55C65.5 36.1774 60.1274 41.55 53.5 41.55H41.5V17.55Z" fill="#DEA2A2"/>
<path d="M41.5 53.55C41.5 46.9226 46.8726 41.55 53.5 41.55C60.1274 41.55 65.5 46.9226 65.5 53.55C65.5 60.1774 60.1274 65.55 53.5 65.55C46.8726 65.55 41.5 60.1774 41.5 53.55Z" fill="#7C97B6"/>
<path d="M17.5 53.55C17.5 46.9226 22.8726 41.55 29.5 41.55H41.5V65.55H29.5C22.8726 65.55 17.5 60.1774 17.5 53.55Z" fill="#D3BEDF"/>
<path d="M17.5 77.55C17.5 70.9226 22.8726 65.55 29.5 65.55H41.5V77.55C41.5 84.1774 36.1274 89.55 29.5 89.55C22.8726 89.55 17.5 84.1774 17.5 77.55Z" fill="#96A991"/>
<path d="M53.5 41.55H41.5V53.55C41.5 46.9226 46.8726 41.55 53.5 41.55Z" fill="#FBFBFB"/>
<path d="M15.1 53.55C15.1 58.5587 17.6572 62.9702 21.5373 65.55C17.6572 68.1298 15.1 72.5413 15.1 77.55C15.1 85.5029 21.5471 91.95 29.5 91.95C37.4529 91.95 43.9 85.5029 43.9 77.55V65.55V64.2833C46.4476 66.5635 49.8119 67.95 53.5 67.95C61.4529 67.95 67.9 61.5029 67.9 53.55C67.9 48.5413 65.3428 44.1298 61.4627 41.55C65.3428 38.9702 67.9 34.5587 67.9 29.55C67.9 21.5971 61.4529 15.15 53.5 15.15H41.5H29.5C21.5471 15.15 15.1 21.5971 15.1 29.55C15.1 34.5587 17.6572 38.9702 21.5373 41.55C17.6572 44.1298 15.1 48.5413 15.1 53.55Z" stroke="#FBFBFB" stroke-width="4.8"/>
</g>
<defs>
<filter id="filter0_d_102_10" x="0.703196" y="0.753" width="81.5936" height="105.594" filterUnits="userSpaceOnUse" color-interpolation-filters="sRGB">
<feFlood flood-opacity="0" result="BackgroundImageFix"/>
<feColorMatrix in="SourceAlpha" type="matrix" values="0 0 0 0 0 0 0 0 0 0 0 0 0 0 0 0 0 0 127 0" result="hardAlpha"/>
<feOffset/>
<feGaussianBlur stdDeviation="5.9985"/>
<feComposite in2="hardAlpha" operator="out"/>
<feColorMatrix type="matrix" values="0 0 0 0 0.263281 0 0 0 0 0.19884 0 0 0 0 0.150509 0 0 0 0.3 0"/>
<feBlend mode="normal" in2="BackgroundImageFix" result="effect1_dropShadow_102_10"/>
<feBlend mode="normal" in="SourceGraphic" in2="effect1_dropShadow_102_10" result="shape"/>
</filter>
</defs>
</svg>
