<svg width="104" height="104" viewBox="0 0 104 104" fill="none" xmlns="http://www.w3.org/2000/svg">
<g filter="url(#filter0_d_102_12)">
<path fill-rule="evenodd" clip-rule="evenodd" d="M52.3502 86.35C71.4869 86.35 87.0002 70.8367 87.0002 51.7C87.0002 32.5633 71.4869 17.05 52.3502 17.05C33.2135 17.05 17.7002 32.5633 17.7002 51.7C17.7002 70.8367 33.2135 86.35 52.3502 86.35ZM27.0188 51.1559C26.4892 51.4031 26.4892 52.1562 27.0188 52.4034L38.9951 57.9928L35.9802 67.8123C35.8181 68.3402 36.3124 68.8344 36.8403 68.6724L46.3788 65.7437L51.6468 77.0314C51.894 77.561 52.6471 77.561 52.8943 77.0314L58.1515 65.7668L67.6148 68.6724C68.1427 68.8344 68.637 68.3402 68.4749 67.8123L65.4707 58.0279L77.5223 52.4034C78.0519 52.1562 78.0519 51.4031 77.5223 51.1559L65.8174 45.6932L68.4749 37.0378C68.637 36.5098 68.1427 36.0156 67.6148 36.1777L58.6784 38.9214L52.8943 26.5279C52.6471 25.9983 51.894 25.9983 51.6468 26.5279L45.8519 38.9445L36.8403 36.1777C36.3124 36.0156 35.8181 36.5098 35.9802 37.0378L38.6485 45.7283L27.0188 51.1559Z" fill="#9B82AA"/>
<path fill-rule="evenodd" clip-rule="evenodd" d="M27.0188 52.4034C26.4892 52.1562 26.4892 51.4031 27.0188 51.1559L38.6485 45.7283L35.9802 37.0378C35.8181 36.5098 36.3124 36.0156 36.8403 36.1777L45.8519 38.9445L51.6468 26.5279C51.894 25.9983 52.6471 25.9983 52.8943 26.5279L58.6784 38.9214L67.6148 36.1777C68.1427 36.0156 68.637 36.5098 68.4749 37.0378L65.8174 45.6932L77.5223 51.1559C78.0519 51.4031 78.0519 52.1562 77.5223 52.4034L65.4707 58.0279L68.4749 67.8123C68.637 68.3402 68.1427 68.8344 67.6148 68.6724L58.1515 65.7668L52.8943 77.0314C52.6471 77.561 51.894 77.561 51.6468 77.0314L46.3788 65.7437L36.8403 68.6724C36.3124 68.8344 35.8181 68.3402 35.9802 67.8123L38.9951 57.9928L27.0188 52.4034ZM54.8166 49.4172L52.8083 45.1139C52.5611 44.5843 51.8079 44.5843 51.5607 45.1139L49.5524 49.4172C49.484 49.5637 49.3662 49.6815 49.2197 49.7499L44.9164 51.7582C44.3868 52.0054 44.3868 52.7586 44.9164 53.0058L49.2197 55.0141C49.3662 55.0825 49.484 55.2003 49.5524 55.3468L51.5607 59.65C51.8079 60.1797 52.5611 60.1797 52.8083 59.65L54.8166 55.3468C54.885 55.2003 55.0028 55.0825 55.1493 55.0141L59.4526 53.0058C59.9822 52.7586 59.9822 52.0054 59.4526 51.7582L55.1493 49.7499C55.0028 49.6815 54.885 49.5637 54.8166 49.4172Z" fill="#FBFBFB"/>
<path d="M52.8083 45.1139L54.8166 49.4172C54.885 49.5637 55.0028 49.6815 55.1493 49.7499L59.4526 51.7582C59.9822 52.0054 59.9822 52.7586 59.4526 53.0058L55.1493 55.0141C55.0028 55.0825 54.885 55.2003 54.8166 55.3468L52.8083 59.65C52.5611 60.1797 51.8079 60.1797 51.5607 59.65L49.5524 55.3468C49.484 55.2003 49.3662 55.0825 49.2197 55.0141L44.9164 53.0058C44.3868 52.7586 44.3868 52.0054 44.9164 51.7582L49.2197 49.7499C49.3662 49.6815 49.484 49.5637 49.5524 49.4172L51.5607 45.1139C51.8079 44.5843 52.5611 44.5843 52.8083 45.1139Z" fill="#9B82AA"/>
<path d="M52.3502 88.7485C72.8115 88.7485 89.3987 72.1613 89.3987 51.7C89.3987 31.2387 72.8115 14.6515 52.3502 14.6515C31.8889 14.6515 15.3017 31.2387 15.3017 51.7C15.3017 72.1613 31.8889 88.7485 52.3502 88.7485Z" stroke="#FBFBFB" stroke-width="4.797"/>
</g>
<defs>
<filter id="filter0_d_102_12" x="0.906321" y="0.256006" width="102.888" height="102.888" filterUnits="userSpaceOnUse" color-interpolation-filters="sRGB">
<feFlood flood-opacity="0" result="BackgroundImageFix"/>
<feColorMatrix in="SourceAlpha" type="matrix" values="0 0 0 0 0 0 0 0 0 0 0 0 0 0 0 0 0 0 127 0" result="hardAlpha"/>
<feOffset/>
<feGaussianBlur stdDeviation="5.9985"/>
<feComposite in2="hardAlpha" operator="out"/>
<feColorMatrix type="matrix" values="0 0 0 0 0.263281 0 0 0 0 0.19884 0 0 0 0 0.150509 0 0 0 0.3 0"/>
<feBlend mode="normal" in2="BackgroundImageFix" result="effect1_dropShadow_102_12"/>
<feBlend mode="normal" in="SourceGraphic" in2="effect1_dropShadow_102_12" result="shape"/>
</filter>
</defs>
</svg>
