<svg width="900" height="531" viewBox="0 0 900 531" fill="none" xmlns="http://www.w3.org/2000/svg">
<g clip-path="url(#clip0_230_165)">
<rect width="900" height="530.191" fill="white"/>
<g clip-path="url(#clip1_230_165)">
<rect width="942.563" height="530.191" transform="translate(-21.2075)" fill="#E7E8C5"/>
<g clip-path="url(#clip2_230_165)">
<path d="M947.357 -21.4141L768.222 -19.6578L772.335 39.5174L773.266 256.841L713.657 185.744L721.109 177.36L724.522 166.495L720.177 148.177L713.034 155.939L708.377 164.009L712.103 182.64L697.202 167.426L698.752 173.634L686.024 168.667L675.468 169.289L661.19 175.81L668.329 180.464L678.885 182.949L687.887 182.327L699.997 175.188L748.428 255.596L727.626 250.629L730.42 242.868L727.626 233.866L723.59 229.208L720.177 235.107L721.418 243.177L724.831 250.011L714.279 248.148L709.621 251.561L701.238 254.355L695.962 259.945L693.476 269.878L701.238 268.325L709.621 264.289L714.279 250.939L728.248 256.841L741.289 264.289L731.043 264.911L723.281 273.295L721.418 281.988L731.974 280.434L739.113 273.295L741.289 265.843L744.08 264.911L758.053 272.673L774.816 300.924L773.576 317.378L756.805 422.916L737.25 417.967L721.727 419.83L700.928 417.967L674.537 408.965L653.738 398.409L629.209 385.99L599.717 376.988L573.638 379.473L538.557 395.615L539.798 83.9136L566.499 48.2104L602.512 40.7582L576.742 35.1691L594.128 16.5425L602.917 26.2258L614.113 29.9556L628.381 26.664L618.064 16.1264L605.332 12.8312L596.551 14.5874L606.208 1.19639L614.113 -8.24028L601.598 -9.12025L539.47 49.2744L538.373 -11.3147L470.759 -9.77931L472.077 243.118L447.707 218.093L443.539 187.577L452.758 189.333L462.637 185.604L467.246 177.04L453.855 175.725L443.539 185.165L437.611 169.138L428.171 160.795L419.168 159.477L421.584 169.576L428.171 174.628L438.049 175.942L441.124 210.85L402.486 172.872L408.852 164.09L410.829 151.797L404.901 136.649L400.291 144.771L396.996 153.991L401.168 171.333L386.679 157.065L378.995 148.939L375.704 151.797L385.144 165.626L370.652 161.892L359.897 165.188L346.506 174.845L356.164 177.699L368.458 178.358L386.679 165.626L410.387 192.629L396.779 190.213L382.508 194.385L373.288 203.383L384.264 206.237L395.24 206.679L404.901 200.968L411.926 193.288L471.418 262.879L469.003 399.425L442.221 386.252L414.559 380.545L382.07 388.667L351.992 403.597L318.903 415.95L300.586 415.177L286.617 413.623L256.503 401.358L258.984 282.143L292.67 218.343L286.304 211.355L256.503 239.609L256.035 95.865L308.815 32.9968L330.7 27.2531L334.117 41.3768L339.084 50.2281L350.104 55.0403L361.904 57.9895L357.556 41.999L348.244 31.756L333.031 26.0123L372.615 14.2119L375.409 27.8716L386.738 36.2553L394.967 38.4276L390.001 23.0631L371.683 13.1257H361.749L368.266 1.79286L370.442 -10.1585L355.847 -10.4678L354.452 0.552063L358.487 13.7479L321.389 18.4055L345.137 -10.7808L324.956 -8.45015L257.121 58.608L257.276 -9.38166L170.037 -16.0569L149.588 10.6367L150.903 368.472L193.933 361.447L173.734 401.841L158.808 424.672L140.365 583.612L941.212 577.463L947.357 -21.4141ZM116.219 28.1993L94.2642 37.4188L76.7016 40.4931L78.8996 77.8127L60.8952 97.5697L62.6515 178.358L20.5049 138.406L13.0381 145.431L63.0933 204.702L61.7752 399.204L85.4829 387.791L114.901 378.129L115.781 115.574L130.269 93.1809L125.001 87.474L114.901 98.4497L115.339 65.5189L116.219 28.1993Z" fill="#B7B89C"/>
<path d="M249.826 465.78L254.483 471.989L265.97 467.332L278.389 472.61L286.15 463.917L301.053 462.365L312.85 467.332L315.334 472.3L324.027 466.09L332.72 466.711L337.377 476.957L343.586 472.61L348.864 471.679L353.21 475.715L360.04 466.401L369.665 461.744L384.877 462.054L395.122 467.332L399.158 474.162L405.989 469.195L412.508 469.816L416.544 473.852L424.616 467.643L434.241 467.332L446.349 475.404L452.558 471.368L460.32 471.989L464.666 477.578L467.771 469.506L473.98 463.296L483.915 461.123L494.781 464.849L500.68 472.921L505.647 468.885L509.683 470.127L512.477 475.715L515.892 467.643L525.516 463.917L535.762 466.711L538.245 471.368L544.455 469.195L551.285 469.816L555.942 473.231L564.635 463.296L577.364 458.95L588.54 461.123L598.165 469.816L608.41 465.159H614.93L619.276 469.816L621.449 475.715L627.038 473.542L632.626 477.267L636.351 470.437L640.387 466.09L649.08 461.434L659.636 458.639L677.643 465.159L685.404 473.852L693.787 471.989L700.617 473.231L710.862 467.643L719.866 468.264L728.559 471.989L733.975 584.488L182.517 565.17L194.81 465.064L249.826 465.78Z" fill="#8E8F79"/>
<path d="M930.674 -10.3721L726.51 -9.93393L735.291 14.2156L739.684 20.3606L753.734 36.167L770.854 40.5594H788.859L799.834 37.9232L797.64 97.1979L862.18 199.499L860.424 300.044L876.23 301.358L897.743 304.433L915.306 304.871L924.525 302.677L930.674 -10.3721ZM821.348 38.3614L836.716 49.7789L850.324 55.0477L860.862 54.6095L859.985 113.004L828.373 79.6353L821.348 38.3614Z" fill="#8C8C77"/>
<path d="M223.789 -10.4382L-23.4019 -9.55826V327.198L-8.03735 309.197L3.81832 301.296L4.69829 153.77L79.7756 79.131L77.5812 40.9314L92.0694 38.2989L115.339 28.1995L138.17 9.31876L140.365 5.80625L151.782 11.5168L171.539 15.4675H185.589L204.032 8.88062L223.789 -10.4382ZM4.25647 13.7113L16.5503 23.8107L34.1129 34.3482L50.361 39.1752L61.7749 40.4933V65.0809L4.25647 92.3011V13.7113Z" fill="#8B8C77"/>
<path d="M-24.2805 393.497L-3.20563 369.788L10.8443 353.543L30.1629 361.007L40.2613 373.74L48.6034 406.669L157.051 425.988L171.101 428.622L183.834 436.086L193.932 455.405L215.446 490.53L233.008 498.872L256.279 499.75L289.208 499.311L310.722 505.897L324.333 519.507L336.187 537.07L342.773 562.535L-41.4038 563.413L-24.2805 393.497Z" fill="#6A6B5B"/>
<path d="M924.966 301.295L910.038 303.929L898.623 303.49L879.304 299.978L859.107 300.417L848.131 307.881L839.35 324.126L834.081 346.957L755.928 375.935L745.391 384.277L739.244 400.961L738.366 423.353L738.805 445.306L731.341 467.699L722.121 483.066L698.412 500.189L686.996 505.458L666.799 510.287L644.407 509.848L615.868 505.458L587.769 502.823L570.206 511.604L560.986 523.898L550.887 542.339L547.375 562.535L944.951 570.095L924.966 301.295Z" fill="#6A6B5B"/>
<path d="M-24.2804 328.956L-14.182 316.223L4.25846 299.978L25.3333 286.806L50.7988 277.147L38.066 311.832L21.3818 339.932L-3.20555 370.666L-27.3538 396.132L-30.4272 350.031L-24.2804 328.956Z" fill="#C2D987"/>
<path d="M114.462 516.873L121.926 501.945L141.684 478.236L165.832 462.43L194.371 454.088L225.983 454.527L254.961 459.795L239.594 473.845L201.396 494.92L171.101 507.653L146.952 513.361L125.877 518.19L114.462 516.873Z" fill="#E28F64"/>
<path d="M-22.5248 465.942L-0.571794 442.233L36.7483 412.377L71.873 393.498L113.584 377.252L151.343 368.91L192.175 361.007L179.882 389.985L151.782 435.208L119.731 471.65L90.3135 501.506L50.7982 535.314L22.6984 559.462L-18.1342 574.829L-32.1841 520.825L-22.5248 465.942Z" fill="#A8D3D9"/>
<path d="M712.022 303.929L729.145 335.541L756.806 373.74L783.589 402.718L823.104 438.72L848.13 457.6L907.843 499.311L906.525 469.894L901.257 439.16L885.011 402.279L861.741 370.666L838.032 349.591L799.834 326.76L757.245 312.71L724.755 305.246L712.022 303.929Z" fill="#EDCB6A"/>
<path d="M888.085 537.07L857.79 538.387L813.006 534.875L773.051 525.654L749.781 519.947L715.095 507.214L691.825 494.042L709.388 487.895L742.756 477.358L782.272 472.967L822.665 481.309L851.643 497.994L870.962 514.678L888.085 537.07Z" fill="#C7B3C4"/>
<path d="M356.384 -7.36414C355.086 -1.80161 352.1 2.70593 359.75 13.8611C365.568 7.82057 369.981 2.10763 369.995 -7.36414M772.478 317.568L774.196 300.614L757.431 271.431L704.032 245.973L748.738 255.908L688.509 155.939L772.954 257.77L772.69 39.3062M738.738 417.35C653.063 433.669 625.757 338.528 538.245 396.857L540.108 83.2908L566.808 47.2772L604.684 41.0679L576.121 36.1005L613.377 -7.36414M538.245 -7.36414L538.866 49.1399L600.958 -7.36414M342.654 -7.36414L320.922 18.7147L380.53 11.2636L309.124 32.9959L256.346 96.3302L256.967 239.764L286.15 211.201L292.359 218.031L258.829 282.607L256.967 401.204C348.969 455.799 375.069 339.456 469.323 399.341L471.185 263.359L376.184 152.834L379.289 149.73L440.76 211.822L437.655 154.697L448.211 218.031L471.806 243.489L471.185 -7.36414M256.967 -7.36414V59.6957L324.647 -7.36414M150.699 368.479L149.876 10.0648M114.912 377.445L116.017 114.958L129.677 93.2255L125.952 88.2582L114.775 97.572L116 27.2427M61.4428 96.4123L63.2383 178.913L19.9937 138.207M62.1598 398.447L62.6173 204.371L13.1997 145.057M628.9 26.4762C613.074 32.4538 601.47 29.6032 594.749 16.5414C606.567 8.99435 617.91 13.3365 628.9 26.4762ZM659.946 176.119C680.861 190.05 690.035 182.177 699.685 175.188C683.487 164.181 671.22 168.245 659.946 176.119ZM719.865 148.177C730.034 169.845 721.11 176.761 713.656 184.812C710.162 173.268 703.512 162.103 719.865 148.177ZM722.97 228.587C719.387 235.095 717.806 241.977 727.316 250.94C730.091 245.228 733.832 239.914 722.97 228.587ZM693.476 269.878C712.532 268.265 711.098 259.202 712.725 251.251C700.636 252.224 694.809 258.977 693.476 269.878ZM740.977 264.601C726.042 263.83 723.659 273.099 720.797 281.986C739.296 281.007 740.283 272.864 740.977 264.601ZM394.143 38.7371C392.825 28.2734 390.479 18.3234 373.068 15.906C372.23 30.6642 382.255 35.5473 394.143 38.7371ZM361.213 58.0557C331.86 52.6489 332.778 39.9767 331.796 27.7606C353.281 27.6404 358.177 42.0345 361.213 58.0557ZM466.588 177.919C459.784 193.24 451.684 189.108 443.757 187.578C448.448 173.413 457.284 174.789 466.588 177.919ZM418.291 159.918C427.736 159.945 435.58 162.907 438.049 175.724C424.077 177.841 420.759 169.304 418.291 159.918ZM373.946 203.384C384.964 206.033 395.162 214.155 409.51 194.603C396.622 188.227 384.499 188.744 373.946 203.384ZM347.603 174.846C367.325 182.466 376.253 174.972 384.484 166.503C368.976 158.998 357.269 163.657 347.603 174.846ZM404.241 136.647C398.942 145.615 392.516 153.907 404.241 173.089C410.679 163.088 415.118 152.42 404.241 136.647Z" stroke="#4F4E4E" stroke-width="3.66657" stroke-linecap="round" stroke-linejoin="round"/>
<path d="M3.29492 300.402L4.8716 153.455L79.3825 78.3234L77.5197 40.447C103.456 38.1607 123.701 25.0114 140.543 5.36481C170.257 22.1604 197.238 20.5154 220.332 -7.36414M4.8716 92.6046L4.25067 13.1264C19.9532 28.8025 38.349 39.6309 62.3071 40.447L61.0652 65.5944L4.8716 92.6046Z" stroke="#363535" stroke-width="3.66657" stroke-linecap="round" stroke-linejoin="round"/>
<path d="M861.349 300.015L861.746 198.162L798.412 96.9511L799.654 36.7215C759.275 46.3626 736.132 31.011 728.868 -7.36414M860.863 111.621L861.302 54.5433C846.166 54.8938 832.842 47.0895 820.03 36.9809L828.372 79.5697L860.863 111.621Z" stroke="#363535" stroke-width="3.66657" stroke-linecap="round" stroke-linejoin="round"/>
<path d="M248.932 466.353C251.096 466.866 253.418 466.428 254.793 471.679C264.826 465.155 271.525 467.962 277.457 472.921C288.986 453.436 312.796 464.86 315.023 471.679C328.898 458.797 336.648 469.969 337.686 476.646C341.575 472.239 345.58 468.157 353.52 475.094C361.2 456.171 394.563 457.3 399.158 474.162C404.17 468.044 409.576 465.475 416.233 474.162C427.054 462.957 436.871 464.797 446.038 475.094C454.704 468.163 460.104 471.683 464.665 477.888C466.784 458.178 492.973 455.388 499.748 472.3C505.747 467.734 509.994 468.075 511.856 475.094C520.028 457.681 536.392 464.584 538.555 471.679C547.772 465.837 551.124 470.748 555.631 473.542C570.015 455.827 584.4 455.245 598.785 469.816C606.693 465.631 614.822 458.585 621.138 475.094C630.293 471.979 630.099 475.876 633.246 477.267C640.384 455.931 670.015 452.153 684.783 473.542C688.643 472.068 692.414 470.487 700.306 473.852C708.358 466.314 717.864 465.324 729.227 472.683" stroke="#363535" stroke-width="3.66657" stroke-linecap="round" stroke-linejoin="round"/>
<path d="M22.2573 306.824L-25.2434 379.782M-24.312 328.866C-7.41246 305.458 16.2438 287.197 50.5093 277.019C30.315 338.98 9.21293 355.407 -23.3806 392.821M214.744 469.506C115.24 506.522 96.6727 533.421 59.5127 562.644M111.389 419.841C58.8761 460.894 16.0755 513.046 -28.6714 562.974M-27.4166 471.368C35.163 395.111 112.386 372.103 193.011 361.465C152.141 459.718 76.0556 512.674 14.1853 566.991M256.035 460.813C215.173 493.893 162.035 515.248 111.981 519.8C128.475 491.897 158.812 433.746 256.035 460.813Z" stroke="#271210" stroke-width="3.66657" stroke-linecap="round" stroke-linejoin="round"/>
<path d="M212.393 489.408C255.438 520.047 318.688 463.605 341.723 558.174M157.536 425.954C181.32 427.695 187.187 441.121 192.316 455.029M10.4087 354.343C42.4293 358.445 42.7006 384.025 47.7978 406.341" stroke="#271210" stroke-width="3.66657" stroke-linecap="round" stroke-linejoin="round"/>
<path d="M745.829 498.433C818.864 506.526 878.401 532.615 937.698 559.023M772.173 347.835C833.556 395.875 886.44 465.375 931.453 534.435M692.264 494.92C783.782 452.79 845.513 476.936 890.28 538.826C813.307 538.573 744.71 526.733 692.264 494.92ZM712.104 303.719C810.495 317.199 907.95 370.006 908.721 500.628C829.71 446.482 752.125 391.12 712.104 303.719Z" stroke="#271210" stroke-width="3.66657" stroke-linecap="round" stroke-linejoin="round"/>
<path d="M547.813 558.174C573.758 453.705 627.335 538.833 700.309 499.575M757.877 375.263C719.367 394.448 757.653 443.484 721.228 483.442M926.322 300.614C879.946 317.482 850.727 264.914 833.689 347.921" stroke="#271210" stroke-width="3.66657" stroke-linecap="round" stroke-linejoin="round"/>
</g>
</g>
<rect x="389.094" y="324.131" width="121.665" height="39.8975" rx="17.018" fill="#FBFCDF"/>
<rect x="389.094" y="324.131" width="121.665" height="39.8975" rx="17.018" stroke="#271210" stroke-width="3.66657"/>
<path d="M423.686 336.303C423.686 336.714 423.551 337.123 423.162 337.356L423.148 337.364C422.984 337.455 422.784 337.501 422.587 337.529C422.381 337.557 422.137 337.57 421.859 337.57H421.477V342.695C421.477 344.523 421.459 345.984 421.425 347.077C421.391 348.154 421.339 348.909 421.262 349.297L421.261 349.298C420.904 351.061 420.026 352.347 418.598 353.072L418.597 353.071C418.275 353.251 417.974 353.384 417.71 353.437L417.688 353.442L417.665 353.444C417.441 353.466 416.984 353.476 416.322 353.476C415.426 353.476 414.686 353.369 414.155 353.11C413.51 352.821 412.974 352.385 412.554 351.81L412.549 351.803C412.146 351.231 411.903 350.655 411.903 350.088C411.903 349.708 412.008 349.351 412.259 349.069L412.268 349.058L412.277 349.048C412.537 348.789 412.861 348.645 413.229 348.645C413.56 348.645 413.856 348.779 414.112 348.984C414.321 349.151 414.553 349.4 414.579 349.734C414.585 349.744 414.595 349.763 414.616 349.79C414.674 349.864 414.775 349.967 414.933 350.099L415.173 350.273C415.333 350.38 415.493 350.472 415.654 350.547L415.896 350.648L415.898 350.649C416.155 350.745 416.464 350.806 416.833 350.825H417.116C417.277 350.806 417.405 350.789 417.5 350.773C417.55 350.764 417.588 350.756 417.615 350.749C417.62 350.748 417.623 350.746 417.627 350.745C417.679 350.714 417.795 350.627 417.985 350.438C418.339 350.067 418.542 349.619 418.592 349.074C418.649 348.449 418.698 346.46 418.737 343.073L418.765 337.57H417.235C416.652 337.57 416.173 337.56 415.803 337.539C415.446 337.52 415.149 337.489 414.955 337.434L414.946 337.431C414.707 337.358 414.513 337.206 414.388 336.985C414.27 336.777 414.23 336.537 414.23 336.303C414.231 335.89 414.364 335.508 414.689 335.24C414.952 335.015 415.334 334.94 415.707 334.919C416.096 334.899 417.182 334.89 418.943 334.89C420.703 334.89 421.78 334.899 422.15 334.919L422.149 334.92C422.529 334.94 422.918 335.01 423.184 335.229C423.188 335.232 423.193 335.235 423.197 335.239C423.514 335.498 423.659 335.868 423.685 336.274L423.686 336.288V336.303Z" fill="#271210"/>
<path fill-rule="evenodd" clip-rule="evenodd" d="M475.932 335.386L476.126 335.245L476.45 335.009C476.634 334.862 476.875 334.791 477.1 334.75C477.354 334.704 477.665 334.683 478.023 334.683C478.637 334.683 479.184 334.693 479.663 334.713L479.662 334.714C480.515 334.724 481.218 334.747 481.769 334.787C482.305 334.826 482.731 334.883 483.012 334.967C484.859 335.492 486.227 336.479 487.062 337.944L487.223 338.243L487.226 338.249L487.327 338.477C487.549 339.018 487.666 339.616 487.685 340.266V340.28C487.685 341.266 487.461 342.147 486.996 342.905C486.532 343.662 485.844 344.269 484.958 344.733L484.951 344.737L484.944 344.74L484.522 344.943L486.131 348.108C486.711 349.249 487.152 350.149 487.451 350.806C487.6 351.134 487.717 351.407 487.798 351.622C487.871 351.817 487.939 352.021 487.949 352.18V352.209C487.949 352.439 487.839 352.631 487.735 352.767C487.625 352.911 487.476 353.054 487.305 353.194L487.302 353.196C486.962 353.467 486.558 353.507 486.164 353.357C485.974 353.285 485.819 353.139 485.702 353.005C485.576 352.861 485.445 352.675 485.311 352.457L485.306 352.451L485.302 352.443C485.058 352.016 484.531 350.992 483.729 349.386C483.121 348.182 482.642 347.269 482.289 346.646C482.112 346.334 481.972 346.101 481.865 345.943C481.816 345.869 481.777 345.819 481.75 345.786C481.671 345.764 481.516 345.735 481.253 345.712C480.928 345.684 480.491 345.67 479.938 345.67H478.634L478.583 348.859L478.552 352.699L478.381 352.839L478.057 353.104C477.815 353.302 477.521 353.476 477.198 353.476C476.916 353.476 476.651 353.34 476.428 353.184L476.415 353.176L476.403 353.166L476.108 352.931L475.932 352.789V335.386ZM450.428 350.354C451.312 350.354 452.024 350.063 452.598 349.49C452.923 349.164 453.125 348.871 453.231 348.613C453.336 348.338 453.402 347.916 453.402 347.32V346.731H453.255C452.828 346.731 452.45 346.689 452.14 346.59C451.83 346.491 451.541 346.318 451.373 346.021C451.25 345.804 451.193 345.565 451.193 345.317C451.193 344.991 451.3 344.693 451.516 344.447C451.713 344.215 451.986 344.109 452.266 344.081C452.531 344.037 453.026 344.021 453.697 344.021C454.216 344.021 454.642 344.04 454.967 344.083C455.129 344.105 455.278 344.134 455.407 344.175C455.496 344.203 455.604 344.245 455.703 344.315L455.798 344.394L455.812 344.41L455.826 344.426C455.942 344.565 456.003 344.737 456.04 344.89C456.077 345.044 456.098 345.221 456.109 345.414C456.152 345.818 456.171 346.949 456.171 348.763C456.171 350.521 456.151 351.632 456.11 352.056L456.111 352.057C456.101 352.26 456.079 352.446 456.04 352.607C456.003 352.76 455.942 352.931 455.826 353.071L455.812 353.087L455.798 353.102C455.527 353.373 455.164 353.476 454.787 353.476C454.44 353.476 454.092 353.388 453.835 353.131L453.808 353.104L453.785 353.073C453.695 352.946 453.63 352.789 453.58 352.633C453.542 352.516 453.509 352.383 453.478 352.236C453.474 352.238 453.471 352.241 453.468 352.244C453.433 352.269 453.408 352.288 453.391 352.301C453.381 352.308 453.377 352.312 453.375 352.314C453.373 352.316 453.376 352.313 453.382 352.307L453.381 352.306C453.314 352.377 453.24 352.424 453.196 352.449C453.129 352.487 453.052 352.523 452.972 352.556C452.809 352.623 452.594 352.697 452.333 352.778L452.332 352.777C451.828 352.938 451.387 353.045 451.013 353.089L450.985 353.093H450.96L450.947 353.094C450.942 353.095 450.935 353.095 450.928 353.096C450.897 353.1 450.855 353.106 450.8 353.116L450.761 353.122H450.457C450.096 353.122 449.758 353.091 449.445 353.024C448.278 352.789 447.293 352.258 446.507 351.429C445.723 350.603 445.157 349.501 444.789 348.151L444.788 348.147C444.596 347.42 444.507 346.41 444.507 345.14C444.507 344.024 444.576 343.088 444.722 342.34L444.875 341.522C444.919 341.28 444.955 341.068 444.983 340.886L445.04 340.621C445.116 340.333 445.248 339.97 445.424 339.545L445.607 339.11C445.791 338.692 445.978 338.329 446.17 338.025L446.178 338.014L446.354 337.76C447.186 336.6 448.169 335.764 449.31 335.282L449.557 335.184C449.983 335.019 450.506 334.949 451.104 334.949C451.918 334.949 452.633 335.083 453.227 335.379L453.555 335.556C454.298 335.995 454.887 336.626 455.32 337.436C455.83 338.331 456.083 339.312 456.083 340.369C456.083 340.63 456.067 340.866 456.031 341.069C455.999 341.253 455.942 341.439 455.845 341.598L455.847 341.599C455.846 341.601 455.844 341.602 455.843 341.604L455.84 341.609C455.838 341.612 455.836 341.616 455.834 341.619C455.832 341.623 455.83 341.627 455.827 341.631L455.825 341.629C455.599 342.001 455.189 342.106 454.816 342.106C454.408 342.106 454.028 341.962 453.782 341.611C453.571 341.308 453.465 340.838 453.405 340.304C453.293 339.333 453.031 338.67 452.671 338.254C452.325 337.855 451.85 337.638 451.189 337.629C450.292 337.631 449.437 338.111 448.63 339.23C447.843 340.348 447.377 341.706 447.245 343.323C447.206 344.197 447.188 344.791 447.188 345.111C447.188 347.189 447.59 348.588 448.293 349.422L448.438 349.582L448.443 349.588C448.74 349.902 449.015 350.098 449.266 350.204C449.554 350.298 449.937 350.354 450.428 350.354ZM465.934 345.258C466.698 345.258 467.268 345.253 467.645 345.244C467.648 345.243 467.652 345.243 467.656 345.243C467.65 345.216 467.644 345.188 467.637 345.159C467.633 345.144 467.63 345.128 467.626 345.113C467.529 344.719 467.383 344.15 467.187 343.405C466.794 341.912 466.511 340.878 466.337 340.297L466.333 340.285C466.207 339.814 466.08 339.413 465.958 339.078C465.659 339.981 465.243 341.457 464.711 343.52C464.65 343.819 464.572 344.155 464.475 344.524L464.474 344.53C464.397 344.804 464.331 345.032 464.277 345.215L464.275 345.221L464.286 345.222C464.643 345.246 465.19 345.258 465.934 345.258ZM479.791 342.96C481.128 342.96 482.122 342.872 482.794 342.709C483.449 342.532 483.971 342.236 484.376 341.831C484.824 341.384 485.019 340.897 485.004 340.352V340.339C485.004 339.815 484.816 339.298 484.4 338.778C483.995 338.271 483.442 337.897 482.717 337.666C482.332 337.549 481.478 337.452 480.095 337.393L478.612 337.348V342.96H479.791ZM471.854 352.12C471.854 352.483 471.671 352.782 471.421 353.013C471.181 353.253 470.881 353.416 470.528 353.416C470.044 353.416 469.653 353.187 469.413 352.767L469.403 352.75L469.395 352.733C469.305 352.541 469.21 352.226 469.107 351.826C469.002 351.414 468.881 350.878 468.743 350.219L468.495 349.113C468.423 348.796 468.362 348.533 468.311 348.322C468.289 348.231 468.268 348.151 468.249 348.081L468.229 348.002C468.108 348 467.952 347.997 467.76 347.997H465.88L463.639 348.022L463.215 350.123L463.214 350.122C462.984 351.289 462.782 352.11 462.602 352.527L462.603 352.528C462.442 352.941 462.17 353.319 461.718 353.432L461.662 353.447H461.632C461.582 353.462 461.522 353.476 461.457 353.476C461.144 353.476 460.855 353.364 460.598 353.184C460.307 352.98 460.102 352.682 460.102 352.297C460.102 351.807 460.264 350.823 460.561 349.403C460.862 347.961 461.313 346.021 461.912 343.584C462.775 340.114 463.492 337.743 464.063 336.517L464.066 336.51C464.375 335.871 464.733 335.366 465.161 335.064L465.172 335.057L465.348 334.953C465.529 334.86 465.725 334.801 465.934 334.801C466.094 334.801 466.28 334.846 466.471 334.911L466.662 334.98L466.687 334.99L466.71 335.001C466.954 335.128 467.158 335.354 467.331 335.606C467.51 335.866 467.688 336.199 467.866 336.596C468.223 337.39 468.602 338.489 469.007 339.88C469.443 341.348 470.025 343.647 470.752 346.771C471.115 348.333 471.389 349.555 471.572 350.434C471.664 350.873 471.733 351.23 471.779 351.503C471.824 351.763 471.854 351.981 471.854 352.12Z" fill="#271210"/>
<path fill-rule="evenodd" clip-rule="evenodd" d="M440.518 344.138C440.518 345.887 440.192 347.522 439.536 349.038C438.938 350.446 438.102 351.552 437.021 352.332L436.801 352.485C435.793 353.149 434.63 353.476 433.33 353.476C431.833 353.476 430.517 353.019 429.407 352.101C428.32 351.202 427.518 350.063 426.999 348.694L426.996 348.688C426.504 347.335 426.262 345.866 426.262 344.286C426.262 343.149 426.393 342.069 426.659 341.045C427.046 339.46 427.683 338.134 428.584 337.086L428.588 337.081C429.513 336.031 430.629 335.348 431.929 335.049L432.332 334.967C432.732 334.897 433.124 334.86 433.507 334.86C435.062 334.86 436.47 335.471 437.719 336.644L437.967 336.886L437.97 336.889C439.686 338.668 440.518 341.105 440.518 344.138ZM429.091 345.21L429.06 344.651V344.168C429.06 342.384 429.411 340.907 430.088 339.718L430.089 339.715C430.762 338.514 431.62 337.844 432.652 337.62C432.862 337.586 433.036 337.57 433.176 337.57C433.786 337.588 434.355 337.705 434.886 337.916C435.41 338.147 435.904 338.577 436.356 339.247L436.361 339.253L436.365 339.26C436.778 339.832 437.106 340.501 437.344 341.272L437.44 341.609C437.603 342.284 437.689 343.172 437.689 344.286C437.689 345.367 437.586 346.257 437.39 346.964C437.113 347.793 436.911 348.3 436.78 348.529L436.778 348.532C436.345 349.302 435.824 349.88 435.22 350.282L434.956 350.443C434.678 350.591 434.49 350.664 434.377 350.689L434.365 350.692C434.334 350.7 434.243 350.712 434.063 350.722C433.895 350.731 433.675 350.736 433.398 350.736C432.635 350.716 432.146 350.611 431.871 350.466L431.869 350.465C430.264 349.63 429.3 347.937 429.091 345.21Z" fill="#271210"/>
<rect x="265.603" y="207.724" width="369.588" height="77.3938" rx="38.6969" fill="#FBFCDF" stroke="#271210" stroke-width="3.66657"/>
<path d="M312.783 245.877C312.783 240.339 312.802 236.146 312.842 233.302C312.861 231.881 312.886 230.79 312.916 230.034C312.931 229.657 312.948 229.353 312.967 229.129C312.976 229.019 312.987 228.913 313.001 228.823C313.008 228.778 313.018 228.723 313.032 228.667C313.042 228.629 313.071 228.511 313.143 228.385L313.254 228.21C313.528 227.818 313.911 227.536 314.345 227.343L314.355 227.338C314.484 227.283 314.609 227.261 314.657 227.253C314.727 227.242 314.804 227.233 314.88 227.225C315.032 227.21 315.227 227.197 315.458 227.186C315.922 227.163 316.573 227.144 317.405 227.129C319.073 227.1 321.5 227.085 324.683 227.085H329.219C330.896 227.085 332.219 227.12 333.177 227.191C333.654 227.226 334.062 227.273 334.386 227.333C334.547 227.364 334.706 227.401 334.851 227.449C334.972 227.489 335.138 227.556 335.296 227.669L335.297 227.668C335.304 227.673 335.31 227.678 335.316 227.683C335.322 227.688 335.329 227.691 335.335 227.696L335.334 227.697C336.004 228.186 336.295 228.933 336.346 229.736L336.347 229.766V229.795C336.347 230.551 336.073 231.228 335.501 231.737L335.499 231.735C335.212 232 334.841 232.12 334.556 232.186C334.224 232.263 333.828 232.307 333.388 232.328L333.387 232.327C332.568 232.367 330.045 232.387 325.861 232.387H318.144V243.639H330.404L330.686 243.951L331.216 244.541L331.248 244.577L331.277 244.617C331.652 245.132 331.929 245.718 331.929 246.349C331.929 246.835 331.787 247.294 331.494 247.69C331.21 248.075 330.818 248.354 330.386 248.557L330.385 248.555C330.225 248.635 330.066 248.674 329.976 248.694C329.834 248.724 329.671 248.749 329.496 248.769C329.144 248.81 328.679 248.842 328.111 248.867C326.971 248.917 325.354 248.941 323.269 248.941H318.144V258.956H325.685C329.797 258.956 332.299 258.975 333.152 259.015C333.601 259.037 334.011 259.086 334.366 259.175C334.689 259.256 335.029 259.386 335.312 259.609C335.982 260.085 336.292 260.808 336.345 261.603L336.347 261.634V261.666C336.347 262.42 336.075 263.094 335.541 263.628C335.238 263.932 334.815 264.054 334.512 264.119C334.164 264.193 333.742 264.236 333.266 264.256C332.336 264.297 329.443 264.317 324.624 264.317C319.728 264.317 316.812 264.297 315.921 264.256C315.455 264.235 315.032 264.187 314.668 264.099C314.318 264.015 313.942 263.875 313.643 263.619L313.636 263.613L313.63 263.607L312.783 262.855V245.877Z" fill="#271210"/>
<path d="M344.267 234.862V228.458L345.21 227.705C345.712 227.278 346.322 227.086 346.977 227.085C347.979 227.085 348.906 227.758 349.722 228.615C350.603 229.5 351.794 231.001 353.28 233.075L353.286 233.083C353.71 233.689 355.184 235.965 357.696 239.892L360.555 244.37L360.559 244.375C363.051 248.339 364.959 251.298 366.285 253.258C366.559 253.662 366.806 254.021 367.027 254.336C367.052 253.074 367.065 251.296 367.065 249V242.881L366.943 228.645L367.941 227.829C368.425 227.433 369.011 227.085 369.657 227.085C370.336 227.085 370.925 227.423 371.407 227.857L372.309 228.668V262.914L371.462 263.666L371.438 263.687L371.414 263.706C370.85 264.145 370.154 264.317 369.422 264.317C368.877 264.317 368.371 264.08 367.937 263.787C367.49 263.485 367.026 263.059 366.548 262.54C365.685 261.631 364.414 259.943 362.754 257.532C361.495 255.702 359.995 253.429 358.253 250.715L356.431 247.854C353.722 243.575 351.663 240.37 350.255 238.238C350.085 237.981 349.925 237.741 349.774 237.517L349.71 237.422L349.639 237.315C349.632 238.544 349.628 240.181 349.628 242.225V248.458L349.653 250.847C349.675 253.265 349.687 255.772 349.687 258.367C349.687 259.769 349.657 260.873 349.596 261.666C349.565 262.059 349.524 262.4 349.469 262.673C349.441 262.809 349.406 262.95 349.357 263.083C349.316 263.195 349.23 263.396 349.058 263.569C348.527 264.1 347.832 264.317 347.095 264.317C346.416 264.317 345.752 264.13 345.25 263.628C345.068 263.446 344.965 263.231 344.903 263.069C344.837 262.896 344.79 262.707 344.754 262.517C344.683 262.137 344.641 261.662 344.621 261.111C344.581 259.999 344.522 256.824 344.443 251.606C344.326 245.555 344.267 239.973 344.267 234.862Z" fill="#271210"/>
<path d="M391.716 258.956C392.257 258.956 392.9 258.843 393.656 258.591L393.685 258.583L393.713 258.575C394.899 258.261 395.841 257.714 396.572 256.949L396.851 256.638C397.468 255.9 397.859 255.067 398.035 254.128C398.179 253.327 398.369 252.636 398.623 252.091C398.863 251.578 399.221 251.063 399.782 250.804C399.958 250.709 400.137 250.661 400.28 250.635C400.462 250.602 400.655 250.59 400.847 250.59C401.345 250.59 401.824 250.718 402.245 251.003C402.654 251.281 402.951 251.672 403.162 252.113C403.356 252.5 403.45 252.967 403.494 253.451L403.498 253.493V253.536C403.498 255.13 403.053 256.717 402.206 258.285L402.203 258.291C401.718 259.173 401.028 260.049 400.158 260.918C399.278 261.799 398.367 262.48 397.423 262.929L397.422 262.928C395.628 263.842 393.821 264.317 392.01 264.317C389.388 264.317 387.019 263.45 384.934 261.748L384.925 261.741C382.83 259.988 381.402 257.61 380.613 254.664L380.609 254.647L380.605 254.631C380.228 252.993 380.052 250.649 380.052 247.645C380.052 246.247 380.111 245.047 380.235 244.052V244.048C380.721 240.286 381.819 237.009 383.553 234.243C385.303 231.45 387.641 229.483 390.559 228.383L390.575 228.376L390.593 228.371C391.421 228.095 392.371 227.969 393.424 227.969C395.033 227.969 396.493 228.266 397.78 228.887L397.793 228.893C400.696 230.345 402.473 232.961 403.186 236.564C403.389 237.388 403.514 238.198 403.556 238.995L403.557 239.019V239.044C403.557 239.836 403.356 240.569 402.905 241.189L402.896 241.2C402.457 241.785 401.839 242.284 401.023 242.284C400.578 242.284 400.149 242.159 399.747 241.962C399.276 241.767 398.791 241.458 398.531 240.938L398.519 240.914L398.508 240.888C398.401 240.639 398.328 240.3 398.269 239.955C398.205 239.584 398.143 239.116 398.083 238.557C397.788 235.868 396.814 234.383 395.381 233.712L395.356 233.701L395.334 233.688C395.012 233.515 394.497 233.388 393.719 233.388C392.681 233.388 391.831 233.611 391.137 234.021C389.501 234.995 388.164 236.606 387.162 238.944L387.16 238.949C386.159 241.249 385.586 244.053 385.471 247.383L385.47 247.406L385.468 247.428C385.432 247.86 385.412 248.498 385.412 249.353C385.412 251.652 385.777 253.521 386.463 254.997L386.604 255.287L386.606 255.29C387.903 257.847 389.605 258.956 391.716 258.956Z" fill="#271210"/>
<path fill-rule="evenodd" clip-rule="evenodd" d="M435.04 261.607C435.04 262.35 434.659 262.959 434.14 263.426L434.139 263.425C433.665 263.886 433.079 264.199 432.39 264.199C431.42 264.199 430.638 263.74 430.157 262.899L430.138 262.865L430.121 262.83C429.942 262.446 429.752 261.817 429.547 261.016C429.336 260.192 429.092 259.116 428.815 257.793C428.444 256.112 428.157 254.85 427.953 254.007C427.892 253.753 427.839 253.541 427.794 253.368C427.553 253.363 427.239 253.359 426.852 253.359H423.092L418.611 253.41L417.761 257.611C417.302 259.943 416.896 261.584 416.536 262.418L416.537 262.419L416.536 262.422C416.534 262.428 416.531 262.434 416.529 262.44C416.526 262.447 416.523 262.454 416.521 262.46L416.52 262.459C416.196 263.271 415.659 264.006 414.769 264.229L414.655 264.257H414.602C414.5 264.289 414.378 264.317 414.245 264.317C413.62 264.317 413.042 264.095 412.526 263.734C411.945 263.327 411.535 262.73 411.535 261.96C411.535 260.98 411.859 259.012 412.453 256.17C413.055 253.288 413.957 249.407 415.156 244.533V244.531C416.882 237.589 418.315 232.849 419.459 230.398L419.465 230.386C420.083 229.109 420.797 228.099 421.654 227.494L421.665 227.486L421.675 227.479C422.13 227.176 422.644 226.967 423.199 226.967C423.519 226.967 423.89 227.058 424.272 227.186L424.657 227.325L424.706 227.343L424.752 227.368C425.241 227.621 425.647 228.072 425.993 228.576C426.352 229.096 426.707 229.764 427.063 230.558C427.776 232.147 428.536 234.343 429.346 237.125C430.218 240.061 431.382 244.66 432.836 250.907C433.563 254.032 434.11 256.475 434.476 258.234C434.658 259.112 434.797 259.827 434.891 260.373C434.98 260.892 435.04 261.328 435.04 261.607ZM426.622 247.851C425.869 247.87 424.729 247.88 423.199 247.88C421.712 247.88 420.617 247.856 419.903 247.809C419.9 247.809 419.897 247.808 419.894 247.808C419.891 247.808 419.888 247.807 419.885 247.807C419.992 247.44 420.124 246.979 420.278 246.424L420.282 246.412C420.48 245.659 420.641 244.977 420.763 244.37C421.823 240.258 422.653 237.315 423.25 235.513C423.494 236.185 423.744 236.989 423.997 237.933L424.001 237.947L424.005 237.959C424.353 239.12 424.919 241.188 425.705 244.173C426.097 245.664 426.39 246.803 426.585 247.591C426.597 247.641 426.608 247.689 426.619 247.736C426.628 247.775 426.637 247.813 426.646 247.85L426.634 247.851L426.622 247.851Z" fill="#271210"/>
<path d="M443.196 234.862V228.458L443.55 228.175L444.139 227.705C444.641 227.278 445.252 227.085 445.906 227.085C446.909 227.086 447.835 227.758 448.65 228.615C449.532 229.5 450.722 231.001 452.209 233.075L452.216 233.083C452.64 233.689 454.113 235.965 456.626 239.892L459.484 244.37L459.487 244.375C461.98 248.339 463.888 251.298 465.214 253.258C465.487 253.662 465.735 254.021 465.956 254.336C465.98 253.074 465.994 251.296 465.994 249V242.881L465.872 228.645L466.87 227.829C467.354 227.433 467.94 227.086 468.586 227.085C469.264 227.085 469.854 227.423 470.336 227.857L471.237 228.668V262.914L470.391 263.666L470.367 263.687L470.343 263.706C469.778 264.145 469.083 264.317 468.351 264.317C467.806 264.317 467.299 264.08 466.865 263.787C466.421 263.487 465.961 263.065 465.486 262.549C464.623 261.644 463.349 259.952 461.684 257.532C460.005 255.092 457.896 251.865 455.359 247.854C452.65 243.575 450.593 240.37 449.185 238.238C449.015 237.981 448.854 237.741 448.703 237.516L448.567 237.315C448.561 238.544 448.557 240.181 448.557 242.225V248.458C448.596 251.604 448.615 254.907 448.615 258.367C448.615 259.769 448.586 260.873 448.524 261.666C448.494 262.059 448.454 262.4 448.398 262.673C448.371 262.809 448.335 262.95 448.286 263.083C448.244 263.195 448.159 263.396 447.986 263.569C447.455 264.1 446.76 264.317 446.023 264.317C445.344 264.317 444.681 264.13 444.179 263.628C443.997 263.446 443.894 263.231 443.832 263.069C443.766 262.896 443.719 262.707 443.684 262.517C443.612 262.137 443.57 261.662 443.55 261.111C443.51 259.999 443.451 256.826 443.373 251.61L443.296 247.159C443.23 242.795 443.196 238.696 443.196 234.862Z" fill="#271210"/>
<path d="M488.111 246.82V232.269H484.989C483.603 232.269 482.496 232.23 481.683 232.147C481.278 232.105 480.92 232.05 480.625 231.975C480.378 231.912 480.001 231.795 479.728 231.522C479.225 231.019 478.98 230.382 478.98 229.677C478.98 228.857 479.245 228.075 479.945 227.57C480.243 227.333 480.609 227.203 480.946 227.125C481.318 227.038 481.754 226.989 482.238 226.968C483.167 226.928 486.041 226.909 490.821 226.909H500.932L501.738 227.714C502.276 228.252 502.601 228.909 502.659 229.664L502.662 229.7V229.736C502.662 230.445 502.364 231.052 501.855 231.521L501.856 231.522L501.852 231.526L501.848 231.53C501.845 231.532 501.842 231.534 501.84 231.537C501.836 231.54 501.832 231.544 501.828 231.548L501.823 231.553L501.815 231.56L501.814 231.559C501.547 231.803 501.199 231.914 500.965 231.974C500.672 232.05 500.317 232.104 499.917 232.146C499.113 232.23 498.02 232.269 496.653 232.269H493.531V246.82C493.531 254.51 493.511 259.064 493.472 260.456C493.452 261.161 493.406 261.757 493.326 262.222C493.286 262.455 493.235 262.678 493.163 262.878C493.097 263.064 492.986 263.309 492.784 263.51C492.25 264.045 491.576 264.317 490.821 264.317C490.067 264.317 489.393 264.045 488.858 263.51C488.657 263.309 488.546 263.064 488.479 262.878C488.408 262.678 488.356 262.455 488.316 262.222C488.237 261.757 488.191 261.161 488.171 260.456C488.131 259.064 488.111 254.51 488.111 246.82Z" fill="#271210"/>
<path fill-rule="evenodd" clip-rule="evenodd" d="M526.135 261.607C526.135 262.332 525.769 262.928 525.269 263.391L525.27 263.392L525.265 263.397L525.264 263.397L525.259 263.402C525.255 263.406 525.251 263.409 525.247 263.413L525.241 263.42L525.233 263.426L525.232 263.425C524.759 263.886 524.172 264.199 523.483 264.199C522.514 264.199 521.731 263.74 521.251 262.899L521.231 262.865L521.216 262.83C521.037 262.446 520.846 261.817 520.641 261.016C520.43 260.194 520.187 259.121 519.912 257.804L519.416 255.59C519.272 254.958 519.149 254.43 519.047 254.007C518.986 253.753 518.932 253.541 518.888 253.368C518.647 253.363 518.334 253.359 517.946 253.359H514.187L509.705 253.41L508.855 257.611C508.397 259.943 507.99 261.584 507.63 262.418L507.632 262.419C507.31 263.247 506.768 264.003 505.862 264.229L505.75 264.257H505.695C505.594 264.289 505.472 264.317 505.339 264.317C504.714 264.317 504.136 264.095 503.62 263.734C503.038 263.327 502.629 262.73 502.629 261.96C502.629 260.98 502.954 259.012 503.548 256.17C504.15 253.288 505.051 249.407 506.25 244.533L506.251 244.531C507.977 237.589 509.409 232.849 510.553 230.398L510.559 230.386C511.177 229.109 511.891 228.099 512.748 227.494L512.759 227.486L512.77 227.479C513.225 227.176 513.739 226.967 514.294 226.967C514.614 226.967 514.985 227.058 515.367 227.186L515.751 227.325L515.8 227.343L515.846 227.368C516.335 227.621 516.741 228.072 517.088 228.576C517.446 229.096 517.802 229.764 518.158 230.558C518.871 232.147 519.63 234.343 520.439 237.125C521.312 240.061 522.477 244.659 523.931 250.907C524.658 254.032 525.204 256.475 525.569 258.234C525.752 259.112 525.891 259.827 525.984 260.373C526.073 260.892 526.135 261.328 526.135 261.607ZM517.716 247.851C516.963 247.87 515.824 247.88 514.294 247.88C512.806 247.88 511.711 247.856 510.997 247.809C510.994 247.809 510.991 247.808 510.988 247.808C510.985 247.808 510.982 247.807 510.979 247.807C511.086 247.44 511.218 246.979 511.372 246.424L511.376 246.412C511.57 245.673 511.728 245.004 511.849 244.405C512.913 240.275 513.745 237.32 514.344 235.513C514.588 236.185 514.839 236.989 515.092 237.933L515.095 237.947L515.099 237.959C515.447 239.12 516.013 241.188 516.799 244.173C517.191 245.664 517.484 246.803 517.679 247.591C517.691 247.642 517.703 247.692 517.714 247.74C517.723 247.777 517.732 247.814 517.74 247.85L517.731 247.85L517.716 247.851Z" fill="#271210"/>
<path fill-rule="evenodd" clip-rule="evenodd" d="M535.309 227.798C535.869 227.262 536.635 227.085 537.412 227.085C537.927 227.085 538.396 227.105 538.815 227.145L539.192 227.168C543.07 227.446 546.61 228.916 549.794 231.542C552.874 234.083 555.089 237.26 556.434 241.055L556.69 241.823L556.693 241.831L556.695 241.838C557.162 243.407 557.383 245.311 557.383 247.527C557.383 248.868 557.282 250.071 557.07 251.128L557.068 251.138L557.066 251.147C556.264 254.781 554.073 257.98 550.607 260.752L550.6 260.759L550.599 260.758C549.212 261.842 547.337 262.691 545.03 263.338C542.718 263.987 540.473 264.317 538.296 264.317C537.732 264.317 537.247 264.301 536.85 264.269C536.468 264.238 536.106 264.187 535.818 264.091L535.775 264.077L535.733 264.058C535.047 263.753 534.655 263.141 534.449 262.473L534.436 262.427L534.426 262.38C534.387 262.185 534.37 261.8 534.356 261.363C534.341 260.878 534.329 260.205 534.319 259.349C534.3 257.635 534.29 255.167 534.29 251.946V245.223L534.411 228.607L535.309 227.798ZM551.762 244.186C551.922 244.763 552.021 245.774 552.021 247.292C552.021 248.778 551.92 249.712 551.771 250.192L551.764 250.212L551.759 250.233C551.404 251.581 550.724 252.898 549.695 254.184L549.69 254.191L549.685 254.198C548.7 255.474 547.614 256.37 546.437 256.924L546.43 256.927L546.424 256.931C544.699 257.775 542.592 258.342 540.081 258.608H540.073L540.064 258.61L539.71 258.654V233.042L539.818 233.063L539.952 233.09L540.174 233.135L540.468 233.194L540.513 233.203L540.559 233.208C540.756 233.227 540.911 233.242 541.023 233.252L541.028 233.253C541.111 233.26 541.227 233.271 541.3 233.271C541.291 233.271 541.293 233.271 541.309 233.274C541.348 233.282 541.463 233.303 541.693 233.368C541.978 233.448 542.364 233.572 542.857 233.743C544.968 234.583 546.818 235.953 548.409 237.877L548.415 237.885L548.422 237.892C550.06 239.791 551.167 241.882 551.757 244.169L551.76 244.177L551.762 244.186Z" fill="#271210"/>
<path fill-rule="evenodd" clip-rule="evenodd" d="M593.756 245.642C593.756 249.14 593.105 252.41 591.794 255.442L591.793 255.441C590.517 258.444 588.702 260.763 586.323 262.334C584.308 263.664 581.982 264.317 579.382 264.317C576.387 264.317 573.756 263.403 571.535 261.567C569.361 259.769 567.756 257.491 566.719 254.753L566.714 254.742C565.73 252.036 565.244 249.097 565.244 245.936C565.244 243.664 565.508 241.502 566.04 239.455C566.814 236.284 568.088 233.632 569.89 231.537L569.896 231.529L570.248 231.143C572.027 229.259 574.14 228.023 576.578 227.463C577.661 227.213 578.714 227.085 579.735 227.085C582.847 227.085 585.661 228.307 588.159 230.653L588.654 231.137L588.661 231.144C592.093 234.702 593.756 239.576 593.756 245.642ZM570.866 247.233L570.84 246.667V245.701C570.84 242.131 571.543 239.179 572.896 236.8L572.899 236.795C574.247 234.392 575.962 233.052 578.028 232.606C578.451 232.536 578.8 232.506 579.081 232.505C580.3 232.543 581.436 232.777 582.497 233.2C583.544 233.662 584.53 234.522 585.435 235.861L585.443 235.873L585.451 235.884C586.393 237.188 587.113 238.743 587.598 240.563C587.927 241.916 588.101 243.699 588.101 245.936C588.101 248.108 587.891 249.894 587.494 251.312C586.944 252.96 586.542 253.968 586.281 254.423L586.278 254.429C585.29 256.185 584.073 257.439 582.643 258.245C582.081 258.544 581.702 258.692 581.476 258.743L581.463 258.746L581.451 258.749C581.389 258.764 581.207 258.791 580.849 258.81C580.509 258.828 580.06 258.837 579.499 258.837C577.983 258.797 577.01 258.586 576.463 258.298L576.459 258.296L576.143 258.124C573.018 256.338 571.183 252.825 570.866 247.233Z" fill="#271210"/>
</g>
<defs>
<clipPath id="clip0_230_165">
<rect width="900" height="530.191" fill="white"/>
</clipPath>
<clipPath id="clip1_230_165">
<rect width="942.563" height="530.191" fill="white" transform="translate(-21.2075)"/>
</clipPath>
<clipPath id="clip2_230_165">
<rect width="942.563" height="565.538" fill="white" transform="translate(-21.207 -7.36389)"/>
</clipPath>
</defs>
</svg>
