<svg width="166" height="19" viewBox="0 0 166 19" fill="none" xmlns="http://www.w3.org/2000/svg">
<path d="M0.300781 19V0.119995H1.26078V19H0.300781ZM5.10078 19V0.119995H6.06078V19H5.10078ZM7.02078 19V0.119995H8.94078V19H7.02078Z" fill="#433326"/>
<path d="M11.5033 19V0.119995H12.4633V19H11.5033ZM14.3833 19V0.119995H18.2233V19H14.3833ZM20.1433 19V0.119995H21.1033V19H20.1433Z" fill="#433326"/>
<path d="M22.7058 19V0.119995H23.6658V19H22.7058ZM25.5858 19V0.119995H26.5458V19H25.5858ZM28.4658 19V0.119995H32.3058V19H28.4658Z" fill="#433326"/>
<path d="M33.9083 19V0.119995H34.8683V19H33.9083ZM38.7083 19V0.119995H40.6283V19H38.7083ZM41.5883 19V0.119995H42.5483V19H41.5883Z" fill="#433326"/>
<path d="M45.1108 19V0.119995H46.0708V19H45.1108ZM48.9508 19V0.119995H52.7908V19H48.9508ZM53.7508 19V0.119995H54.7108V19H53.7508Z" fill="#433326"/>
<path d="M56.3133 19V0.119995H57.2733V19H56.3133ZM58.2333 19V0.119995H62.0733V19H58.2333ZM63.9933 19V0.119995H64.9533V19H63.9933Z" fill="#433326"/>
<path d="M67.5158 19V0.119995H68.4758V19H67.5158ZM71.3558 19V0.119995H75.1958V19H71.3558ZM76.1558 19V0.119995H77.1158V19H76.1558Z" fill="#433326"/>
<path d="M78.7183 19V0.119995H80.6383V19H78.7183ZM81.5983 19V0.119995H83.5183V19H81.5983ZM85.4383 19V0.119995H87.3583V19H85.4383Z" fill="#433326"/>
<path d="M89.9208 19V0.119995H90.8808V19H89.9208ZM94.7208 19V0.119995H95.6808V19H94.7208ZM97.6008 19V0.119995H99.5208V19H97.6008Z" fill="#433326"/>
<path d="M101.123 19V0.119995H102.083V19H101.123ZM103.043 19V0.119995H104.963V19H103.043ZM106.883 19V0.119995H107.843V19H106.883Z" fill="#433326"/>
<path d="M112.326 19V0.119995H116.166V19H112.326ZM117.126 19V0.119995H120.006V19H117.126ZM120.966 19V0.119995H121.926V19H120.966Z" fill="#433326"/>
<path d="M123.528 19V0.119995H124.488V19H123.528ZM126.408 19V0.119995H127.368V19H126.408ZM128.328 19V0.119995H130.248V19H128.328Z" fill="#433326"/>
<path d="M134.731 19V0.119995H135.691V19H134.731ZM139.531 19V0.119995H141.451V19H139.531ZM142.411 19V0.119995H143.371V19H142.411Z" fill="#433326"/>
<path d="M145.933 19V0.119995H146.893V19H145.933ZM147.853 19V0.119995H151.693V19H147.853ZM153.613 19V0.119995H154.573V19H153.613Z" fill="#433326"/>
<path d="M157.136 19V0.119995H158.096V19H157.136ZM159.056 19V0.119995H162.896V19H159.056ZM164.816 19V0.119995H165.776V19H164.816Z" fill="#433326"/>
</svg>
