<svg width="384" height="374" viewBox="0 0 384 374" fill="none" xmlns="http://www.w3.org/2000/svg">
<g filter="url(#filter0_d_197_57)">
<path d="M125.328 297.363C127.068 292.354 132.539 289.705 137.547 291.444L146.615 294.595L140.315 312.732L131.246 309.581C126.238 307.841 123.588 302.371 125.328 297.363Z" fill="#C07F7F"/>
<path d="M146.615 294.595L155.684 297.745C160.692 299.485 163.342 304.955 161.602 309.964C159.862 314.972 154.391 317.622 149.383 315.882L140.315 312.732L146.615 294.595Z" fill="#DEA2A2"/>
<path d="M137.164 321.8C138.904 316.792 144.375 314.142 149.383 315.882C154.391 317.622 157.041 323.092 155.301 328.101C153.561 333.109 148.091 335.758 143.082 334.019C138.074 332.279 135.425 326.808 137.164 321.8Z" fill="#7C97B6"/>
<path d="M119.028 315.499C120.767 310.491 126.238 307.841 131.246 309.581L140.315 312.732L134.014 330.868L124.946 327.718C119.937 325.978 117.288 320.508 119.028 315.499Z" fill="#D3BEDF"/>
<path d="M112.727 333.636C114.467 328.628 119.937 325.978 124.946 327.718L134.014 330.868L130.864 339.937C129.124 344.945 123.653 347.595 118.645 345.855C113.637 344.115 110.987 338.644 112.727 333.636Z" fill="#96A991"/>
<path d="M149.383 315.882L140.315 312.732L137.164 321.8C138.904 316.792 144.375 314.142 149.383 315.882Z" fill="#FBFBFB"/>
<path d="M117.214 314.869C115.899 318.654 116.673 322.659 118.928 325.628C115.319 326.559 112.228 329.221 110.913 333.006C108.825 339.016 112.005 345.581 118.015 347.668C124.025 349.756 130.59 346.577 132.677 340.567L135.828 331.498L136.16 330.541C137.487 332.933 139.665 334.864 142.452 335.832C148.462 337.92 155.027 334.741 157.115 328.731C158.43 324.946 157.655 320.94 155.4 317.972C159.01 317.041 162.101 314.379 163.415 310.594C165.503 304.584 162.324 298.019 156.314 295.931L147.245 292.781L138.177 289.631C132.167 287.543 125.602 290.723 123.515 296.733C122.2 300.518 122.974 304.523 125.229 307.491C121.619 308.422 118.529 311.084 117.214 314.869Z" stroke="#FBFBFB" stroke-width="3.84"/>
</g>
<g filter="url(#filter1_d_197_57)">
<path d="M82.414 122.017C83.0306 117.878 88.5837 116.946 90.5178 120.657L96.5823 132.293C97.4473 133.952 99.2825 134.866 101.128 134.556L114.069 132.385C118.196 131.692 120.798 136.685 117.867 139.671L108.674 149.035C107.363 150.37 107.061 152.398 107.926 154.058L113.99 165.694C115.924 169.405 111.98 173.423 108.234 171.557L96.488 165.708C94.8127 164.874 92.7907 165.213 91.4796 166.549L82.2871 175.912C79.3553 178.899 74.315 176.389 74.9316 172.249L76.8648 159.271C77.1405 157.42 76.1929 155.602 74.5176 154.768L62.7719 148.918C59.0258 147.053 59.8554 141.484 63.9825 140.791L76.923 138.619C78.7688 138.309 80.2051 136.846 80.4808 134.995L82.414 122.017Z" fill="#EBD495"/>
<path d="M98.2839 131.406L92.2194 119.77C89.4261 114.41 81.4066 115.756 80.5162 121.734L78.583 134.712C78.4297 135.741 77.6313 136.555 76.6054 136.727L63.6649 138.899C57.7046 139.899 56.5066 147.942 61.9166 150.636L73.6623 156.485C74.5935 156.949 75.1202 157.959 74.9669 158.988L73.0337 171.967C72.1433 177.944 79.4224 181.569 83.6564 177.256L92.8488 167.893C93.5776 167.151 94.7015 166.962 95.6326 167.426L107.378 173.275C112.788 175.969 118.485 170.166 115.692 164.807L109.627 153.171C109.147 152.248 109.315 151.121 110.043 150.379L119.236 141.016C123.47 136.703 119.711 129.492 113.751 130.492L100.811 132.664C99.7847 132.836 98.7646 132.328 98.2839 131.406Z" stroke="#FBFBFB" stroke-width="3.8376"/>
</g>
<g filter="url(#filter2_d_197_57)">
<path fill-rule="evenodd" clip-rule="evenodd" d="M339.685 122.44C354.994 122.44 367.405 110.029 367.405 94.72C367.405 79.4107 354.994 67 339.685 67C324.376 67 311.965 79.4107 311.965 94.72C311.965 110.029 324.376 122.44 339.685 122.44ZM319.42 94.2847C318.996 94.4825 318.996 95.085 319.42 95.2828L329.001 99.7542L326.589 107.61C326.459 108.032 326.855 108.428 327.277 108.298L334.908 105.955L339.122 114.985C339.32 115.409 339.922 115.409 340.12 114.985L344.326 105.973L351.897 108.298C352.319 108.428 352.714 108.032 352.585 107.61L350.181 99.7823L359.822 95.2828C360.246 95.085 360.246 94.4825 359.822 94.2847L350.459 89.9145L352.585 82.9902C352.714 82.5679 352.319 82.1725 351.897 82.3021L344.747 84.4972L340.12 74.5824C339.922 74.1586 339.32 74.1586 339.122 74.5824L334.486 84.5156L327.277 82.3021C326.855 82.1725 326.459 82.5679 326.589 82.9902L328.723 89.9426L319.42 94.2847Z" fill="#9B82AA"/>
<path fill-rule="evenodd" clip-rule="evenodd" d="M319.42 95.2828C318.996 95.085 318.996 94.4825 319.42 94.2847L328.723 89.9426L326.589 82.9902C326.459 82.5679 326.855 82.1725 327.277 82.3021L334.486 84.5156L339.122 74.5824C339.32 74.1586 339.922 74.1586 340.12 74.5824L344.747 84.4972L351.897 82.3021C352.319 82.1725 352.714 82.5679 352.585 82.9902L350.459 89.9145L359.822 94.2847C360.246 94.4825 360.246 95.085 359.822 95.2828L350.181 99.7823L352.585 107.61C352.714 108.032 352.319 108.428 351.897 108.298L344.326 105.973L340.12 114.985C339.922 115.409 339.32 115.409 339.122 114.985L334.908 105.955L327.277 108.298C326.855 108.428 326.459 108.032 326.589 107.61L329.001 99.7542L319.42 95.2828ZM341.658 92.8938L340.051 89.4511C339.854 89.0274 339.251 89.0274 339.053 89.4511L337.447 92.8938C337.392 93.011 337.298 93.1052 337.18 93.1599L333.738 94.7666C333.314 94.9643 333.314 95.5669 333.738 95.7646L337.18 97.3713C337.298 97.426 337.392 97.5202 337.447 97.6374L339.053 101.08C339.251 101.504 339.854 101.504 340.051 101.08L341.658 97.6374C341.713 97.5202 341.807 97.426 341.924 97.3713L345.367 95.7646C345.79 95.5669 345.79 94.9643 345.367 94.7666L341.924 93.1599C341.807 93.1052 341.713 93.011 341.658 92.8938Z" fill="#FBFBFB"/>
<path d="M340.051 89.4511L341.658 92.8938C341.713 93.011 341.807 93.1052 341.924 93.1599L345.367 94.7666C345.79 94.9643 345.79 95.5669 345.367 95.7646L341.924 97.3713C341.807 97.426 341.713 97.5202 341.658 97.6374L340.051 101.08C339.854 101.504 339.251 101.504 339.053 101.08L337.447 97.6374C337.392 97.5202 337.298 97.426 337.18 97.3713L333.738 95.7646C333.314 95.5669 333.314 94.9643 333.738 94.7666L337.18 93.1599C337.298 93.1052 337.392 93.011 337.447 92.8938L339.053 89.4511C339.251 89.0274 339.854 89.0274 340.051 89.4511Z" fill="#9B82AA"/>
<path d="M339.685 124.359C356.054 124.359 369.324 111.089 369.324 94.72C369.324 78.3509 356.054 65.0812 339.685 65.0812C323.316 65.0812 310.046 78.3509 310.046 94.72C310.046 111.089 323.316 124.359 339.685 124.359Z" stroke="#FBFBFB" stroke-width="3.8376"/>
</g>
<g filter="url(#filter3_d_197_57)">
<path fill-rule="evenodd" clip-rule="evenodd" d="M248.497 69.3845C257.302 65.3259 261.461 56.0263 261.641 47.2563C261.737 42.5406 260.661 38.2606 258.765 35.3199C256.916 32.4505 254.389 30.9516 251.253 31.1875C247.726 31.4529 245.735 32.8354 244.538 34.799C243.245 36.9204 242.68 40.0468 242.826 44.0756C243.094 51.4479 245.678 60.7063 248.497 69.3845ZM238.186 45.9174C238.144 45.3527 238.113 44.7952 238.093 44.2459C237.933 39.837 238.494 35.61 240.494 32.3301C242.59 28.8924 246.06 26.8258 250.896 26.462C256.123 26.0688 260.168 28.7528 262.746 32.7524C265.278 36.6807 266.487 41.9557 266.376 47.3551C266.156 58.1104 260.61 70.4874 247.779 74.7556C234.947 79.0238 223.093 72.4345 216.474 63.9542C213.151 59.6969 210.96 54.7487 210.635 50.0863C210.303 45.3392 211.934 40.7674 216.355 37.9514C220.445 35.3461 224.462 34.9223 228.2 36.4196C231.766 37.8481 234.747 40.8966 237.26 44.5229C237.573 44.9747 237.882 45.44 238.186 45.9174ZM243.987 70.8847C241.046 62.2472 237.569 53.2856 233.368 47.2218C231.072 43.9082 228.747 41.7428 226.44 40.8188C224.306 39.9636 221.884 40.0488 218.9 41.9492C216.247 43.6389 215.122 46.3524 215.36 49.758C215.603 53.2483 217.305 57.3203 220.207 61.0385C225.604 67.9534 234.505 72.9087 243.987 70.8847Z" fill="#92725A"/>
<path d="M261.641 47.2563C261.461 56.0263 257.302 65.3259 248.497 69.3845C245.678 60.7063 243.094 51.4479 242.826 44.0756C242.68 40.0468 243.245 36.9204 244.538 34.799C245.735 32.8354 247.726 31.4529 251.253 31.1875C254.389 30.9516 256.916 32.4505 258.765 35.3199C260.661 38.2606 261.737 42.5406 261.641 47.2563Z" fill="#FBFBFB"/>
<path d="M233.368 47.2218C237.569 53.2856 241.046 62.2472 243.987 70.8847C234.505 72.9087 225.604 67.9534 220.207 61.0385C217.305 57.3203 215.603 53.2483 215.36 49.758C215.122 46.3524 216.247 43.6389 218.9 41.9492C221.884 40.0488 224.306 39.9636 226.44 40.8188C228.747 41.7428 231.072 43.9082 233.368 47.2218Z" fill="#FBFBFB"/>
<path fill-rule="evenodd" clip-rule="evenodd" d="M238.246 39.4847C238.083 40.9289 238.039 42.4288 238.083 43.9525C238.086 44.0502 238.089 44.148 238.093 44.2459C238.113 44.7952 238.144 45.3527 238.186 45.9174C237.882 45.44 237.573 44.9747 237.26 44.5229C237.204 44.4424 237.148 44.3621 237.092 44.2822C236.215 43.0356 235.281 41.8611 234.286 40.8018C232.471 38.87 230.452 37.3217 228.2 36.4196C224.462 34.9223 220.445 35.3461 216.355 37.9514C211.934 40.7674 210.303 45.3392 210.635 50.0863C210.96 54.7487 213.151 59.6969 216.474 63.9542C223.093 72.4345 234.947 79.0238 247.779 74.7556C260.61 70.4874 266.156 58.1104 266.376 47.3551C266.487 41.9557 265.278 36.6807 262.746 32.7524C260.168 28.7528 256.123 26.0688 250.896 26.462C246.06 26.8258 242.59 28.8924 240.494 32.3301C239.231 34.4015 238.542 36.8506 238.246 39.4847ZM234.926 36.1166C233.342 34.7736 231.582 33.6403 229.627 32.8572C224.588 30.8388 219.279 31.5393 214.294 34.7146C208.434 38.4468 206.4 44.528 206.806 50.3533C207.198 55.9647 209.786 61.6221 213.449 66.3154C220.7 75.6061 234.12 83.3433 248.99 78.397C263.86 73.4508 269.972 59.2168 270.213 47.4338C270.335 41.4814 269.019 35.4009 265.971 30.6731C262.807 25.765 257.536 22.114 250.608 22.6352C244.715 23.0785 240.043 25.698 237.218 30.3323C236.121 32.1305 235.391 34.0922 234.926 36.1166Z" fill="#FBFBFB"/>
</g>
<g filter="url(#filter4_d_197_57)">
<mask id="path-8-outside-1_197_57" maskUnits="userSpaceOnUse" x="264.394" y="270.435" width="58.7759" height="73.7743" fill="black">
<rect fill="white" x="264.394" y="270.435" width="58.7759" height="73.7743"/>
<path fill-rule="evenodd" clip-rule="evenodd" d="M289.812 281.839C289.317 282.797 288.835 283.737 288.365 284.659C285.542 290.197 283.181 295.08 281.413 299.384C279.34 304.428 278.137 308.545 277.908 311.898C277.683 315.194 278.402 317.631 280.071 319.53C281.79 321.488 284.723 323.111 289.41 324.302C290.13 324.485 290.67 325.074 290.783 325.801L292.03 333.762L303.572 331.955L302.326 323.993C302.212 323.266 302.546 322.541 303.175 322.146C307.274 319.58 309.57 317.138 310.609 314.748C311.616 312.429 311.556 309.889 310.334 306.82C309.091 303.698 306.687 300.146 303.172 295.977C300.172 292.419 296.432 288.492 292.051 284.081C291.322 283.348 290.576 282.6 289.812 281.839ZM286.501 280.15C287.073 279.041 288.113 278.351 289.238 278.175C290.362 277.999 291.563 278.338 292.448 279.219C297.817 284.568 302.427 289.322 306.039 293.607C309.639 297.875 312.344 301.786 313.805 305.457C315.288 309.18 315.528 312.761 314.034 316.197C312.689 319.291 310.038 322.03 306.196 324.595L307.544 333.2C307.701 334.207 307.004 335.152 305.986 335.311L290.758 337.696C289.74 337.856 288.787 337.169 288.63 336.162L287.282 327.557C282.84 326.29 279.478 324.492 277.252 321.957C274.78 319.142 273.913 315.659 274.187 311.661C274.456 307.719 275.836 303.169 277.958 298.004C280.088 292.82 283.024 286.885 286.501 280.15Z"/>
<path fill-rule="evenodd" clip-rule="evenodd" d="M291.366 279.709L292.051 284.081L295.799 308.012L296.362 311.608L292.676 312.185L292.112 308.589L288.365 284.659L287.68 280.286L291.366 279.709Z"/>
<path d="M299.576 312.038C299.996 314.723 298.137 317.243 295.422 317.668C292.708 318.093 290.167 316.262 289.747 313.577C289.427 311.537 290.424 309.592 292.112 308.589C292.646 308.272 293.248 308.049 293.9 307.947C294.552 307.845 295.194 307.873 295.799 308.012C297.713 308.451 299.257 309.998 299.576 312.038Z"/>
<path d="M288.365 284.659C285.542 290.197 283.181 295.08 281.413 299.384C279.34 304.428 278.137 308.545 277.908 311.898C277.683 315.194 278.402 317.631 280.071 319.53C281.79 321.488 284.723 323.111 289.41 324.302C290.13 324.485 290.67 325.074 290.783 325.801L292.03 333.762L303.572 331.955L302.326 323.993C302.212 323.266 302.546 322.541 303.175 322.146C307.274 319.58 309.57 317.138 310.609 314.748C311.616 312.429 311.556 309.889 310.334 306.82C309.091 303.698 306.687 300.146 303.172 295.977C300.172 292.419 296.432 288.492 292.051 284.081L295.799 308.012C297.713 308.451 299.257 309.998 299.576 312.038C299.996 314.723 298.137 317.243 295.422 317.668C292.708 318.093 290.167 316.262 289.747 313.577C289.427 311.537 290.424 309.592 292.112 308.589L288.365 284.659Z"/>
</mask>
<path fill-rule="evenodd" clip-rule="evenodd" d="M289.812 281.839C289.317 282.797 288.835 283.737 288.365 284.659C285.542 290.197 283.181 295.08 281.413 299.384C279.34 304.428 278.137 308.545 277.908 311.898C277.683 315.194 278.402 317.631 280.071 319.53C281.79 321.488 284.723 323.111 289.41 324.302C290.13 324.485 290.67 325.074 290.783 325.801L292.03 333.762L303.572 331.955L302.326 323.993C302.212 323.266 302.546 322.541 303.175 322.146C307.274 319.58 309.57 317.138 310.609 314.748C311.616 312.429 311.556 309.889 310.334 306.82C309.091 303.698 306.687 300.146 303.172 295.977C300.172 292.419 296.432 288.492 292.051 284.081C291.322 283.348 290.576 282.6 289.812 281.839ZM286.501 280.15C287.073 279.041 288.113 278.351 289.238 278.175C290.362 277.999 291.563 278.338 292.448 279.219C297.817 284.568 302.427 289.322 306.039 293.607C309.639 297.875 312.344 301.786 313.805 305.457C315.288 309.18 315.528 312.761 314.034 316.197C312.689 319.291 310.038 322.03 306.196 324.595L307.544 333.2C307.701 334.207 307.004 335.152 305.986 335.311L290.758 337.696C289.74 337.856 288.787 337.169 288.63 336.162L287.282 327.557C282.84 326.29 279.478 324.492 277.252 321.957C274.78 319.142 273.913 315.659 274.187 311.661C274.456 307.719 275.836 303.169 277.958 298.004C280.088 292.82 283.024 286.885 286.501 280.15Z" fill="#C07F7F"/>
<path fill-rule="evenodd" clip-rule="evenodd" d="M291.366 279.709L292.051 284.081L295.799 308.012L296.362 311.608L292.676 312.185L292.112 308.589L288.365 284.659L287.68 280.286L291.366 279.709Z" fill="#C07F7F"/>
<path d="M299.576 312.038C299.996 314.723 298.137 317.243 295.422 317.668C292.708 318.093 290.167 316.262 289.747 313.577C289.427 311.537 290.424 309.592 292.112 308.589C292.646 308.272 293.248 308.049 293.9 307.947C294.552 307.845 295.194 307.873 295.799 308.012C297.713 308.451 299.257 309.998 299.576 312.038Z" fill="#C07F7F"/>
<path d="M288.365 284.659C285.542 290.197 283.181 295.08 281.413 299.384C279.34 304.428 278.137 308.545 277.908 311.898C277.683 315.194 278.402 317.631 280.071 319.53C281.79 321.488 284.723 323.111 289.41 324.302C290.13 324.485 290.67 325.074 290.783 325.801L292.03 333.762L303.572 331.955L302.326 323.993C302.212 323.266 302.546 322.541 303.175 322.146C307.274 319.58 309.57 317.138 310.609 314.748C311.616 312.429 311.556 309.889 310.334 306.82C309.091 303.698 306.687 300.146 303.172 295.977C300.172 292.419 296.432 288.492 292.051 284.081L295.799 308.012C297.713 308.451 299.257 309.998 299.576 312.038C299.996 314.723 298.137 317.243 295.422 317.668C292.708 318.093 290.167 316.262 289.747 313.577C289.427 311.537 290.424 309.592 292.112 308.589L288.365 284.659Z" fill="#FBFBFB"/>
<path d="M281.413 299.384L279.638 298.655L279.638 298.655L281.413 299.384ZM277.908 311.898L279.823 312.029L279.823 312.029L277.908 311.898ZM280.071 319.53L278.629 320.796L278.629 320.796L280.071 319.53ZM289.41 324.302L289.882 322.442L289.882 322.442L289.41 324.302ZM292.03 333.762L290.134 334.059C290.298 335.106 291.28 335.822 292.327 335.658L292.03 333.762ZM303.572 331.955L303.869 333.85C304.916 333.686 305.632 332.705 305.468 331.658L303.572 331.955ZM303.175 322.146L302.157 320.52L302.157 320.52L303.175 322.146ZM310.609 314.748L308.849 313.983L308.849 313.983L310.609 314.748ZM310.334 306.82L308.551 307.53L308.551 307.53L310.334 306.82ZM303.172 295.977L301.705 297.214L301.705 297.214L303.172 295.977ZM288.365 284.659L290.261 284.362L289.344 278.511L286.655 283.787L288.365 284.659ZM292.051 284.081L293.412 282.729L289.239 278.528L290.155 284.378L292.051 284.081ZM295.799 308.012L293.903 308.308L294.104 309.592L295.37 309.882L295.799 308.012ZM292.112 308.589L293.093 310.238L294.209 309.575L294.008 308.292L292.112 308.589ZM279.823 312.029C280.031 308.985 281.141 305.095 283.188 300.114L279.638 298.655C277.54 303.761 276.244 308.105 275.994 311.767L279.823 312.029ZM281.512 318.264C280.263 316.842 279.623 314.953 279.823 312.029L275.994 311.767C275.743 315.434 276.541 318.42 278.629 320.796L281.512 318.264ZM289.882 322.442C285.372 321.296 282.868 319.807 281.512 318.264L278.629 320.796C280.713 323.169 284.074 324.926 288.937 326.162L289.882 322.442ZM292.679 325.504C292.445 324.009 291.338 322.812 289.882 322.442L288.937 326.162C288.922 326.158 288.894 326.139 288.888 326.098L292.679 325.504ZM293.926 333.465L292.679 325.504L288.888 326.098L290.134 334.059L293.926 333.465ZM300.43 324.29L301.677 332.251L305.468 331.658L304.221 323.697L300.43 324.29ZM302.157 320.52C300.884 321.317 300.196 322.795 300.43 324.29L304.221 323.697C304.228 323.738 304.207 323.764 304.193 323.773L302.157 320.52ZM308.849 313.983C308.03 315.867 306.101 318.05 302.157 320.52L304.193 323.773C308.446 321.109 311.11 318.409 312.368 315.513L308.849 313.983ZM308.551 307.53C309.636 310.253 309.603 312.247 308.849 313.983L312.368 315.513C313.629 312.612 313.477 309.525 312.117 306.11L308.551 307.53ZM301.705 297.214C305.177 301.331 307.423 304.696 308.551 307.53L312.117 306.11C310.759 302.7 308.198 298.96 304.639 294.74L301.705 297.214ZM303.275 330.059L291.733 331.866L292.327 335.658L303.869 333.85L303.275 330.059ZM297.68 312.335C297.934 313.953 296.813 315.509 295.126 315.773L295.719 319.564C299.461 318.978 302.059 315.492 301.472 311.741L297.68 312.335ZM295.126 315.773C293.438 316.037 291.896 314.898 291.642 313.28L287.851 313.874C288.438 317.625 291.978 320.15 295.719 319.564L295.126 315.773ZM286.655 283.787C283.826 289.338 281.437 294.277 279.638 298.655L283.188 300.114C284.926 295.883 287.258 291.056 290.074 285.53L286.655 283.787ZM304.639 294.74C301.588 291.122 297.803 287.15 293.412 282.729L290.69 285.434C295.06 289.834 298.757 293.717 301.705 297.214L304.639 294.74ZM290.155 284.378L293.903 308.308L297.694 307.715L293.947 283.784L290.155 284.378ZM295.37 309.882C296.555 310.154 297.488 311.106 297.68 312.335L301.472 311.741C301.025 308.89 298.87 306.747 296.227 306.141L295.37 309.882ZM291.642 313.28C291.45 312.052 292.047 310.86 293.093 310.238L291.132 306.939C288.802 308.324 287.404 311.023 287.851 313.874L291.642 313.28ZM294.008 308.292L290.261 284.362L286.469 284.956L290.217 308.886L294.008 308.292ZM289.812 281.839L292.52 279.121C291.653 278.257 290.427 277.859 289.218 278.048C288.009 278.237 286.963 278.992 286.402 280.079L289.812 281.839ZM289.238 278.175L288.644 274.383L289.238 278.175ZM286.501 280.15L289.911 281.911L289.911 281.911L286.501 280.15ZM292.448 279.219L289.739 281.938L289.739 281.938L292.448 279.219ZM306.039 293.607L308.973 291.133L308.973 291.133L306.039 293.607ZM313.805 305.457L310.24 306.876L310.24 306.876L313.805 305.457ZM314.034 316.197L310.515 314.667L310.515 314.667L314.034 316.197ZM306.196 324.595L304.066 321.403C302.822 322.234 302.173 323.711 302.405 325.189L306.196 324.595ZM287.282 327.557L291.073 326.963C290.842 325.486 289.773 324.277 288.335 323.867L287.282 327.557ZM277.252 321.957L280.135 319.424L280.135 319.424L277.252 321.957ZM274.187 311.661L278.015 311.923L278.015 311.923L274.187 311.661ZM277.958 298.004L274.409 296.546L274.409 296.546L277.958 298.004ZM296.362 311.608L296.955 315.399C297.961 315.242 298.863 314.691 299.462 313.869C300.062 313.047 300.311 312.02 300.153 311.014L296.362 311.608ZM291.366 279.709L295.158 279.115C294.83 277.021 292.866 275.59 290.772 275.918L291.366 279.709ZM292.676 312.185L288.884 312.779C289.212 314.873 291.175 316.304 293.269 315.977L292.676 312.185ZM287.68 280.286L287.086 276.495C286.081 276.652 285.179 277.203 284.579 278.025C283.98 278.847 283.731 279.874 283.889 280.88L287.68 280.286ZM288.365 284.659L284.574 285.252L286.406 296.953L291.784 286.401L288.365 284.659ZM292.051 284.081L289.328 286.786L297.675 295.189L295.842 283.488L292.051 284.081ZM295.799 308.012L299.59 307.418L299.188 304.852L296.656 304.271L295.799 308.012ZM292.112 308.589L290.152 305.29L287.919 306.616L288.321 309.183L292.112 308.589ZM288.644 274.383C286.368 274.74 284.251 276.143 283.091 278.39L289.911 281.911C289.911 281.91 289.91 281.912 289.908 281.915C289.906 281.918 289.903 281.922 289.9 281.926C289.892 281.934 289.884 281.942 289.875 281.948C289.86 281.959 289.846 281.964 289.832 281.966L288.644 274.383ZM295.156 276.5C293.364 274.715 290.92 274.027 288.644 274.383L289.832 281.966C289.817 281.968 289.802 281.968 289.784 281.962C289.774 281.959 289.764 281.954 289.754 281.949C289.75 281.946 289.746 281.943 289.743 281.941C289.74 281.939 289.739 281.937 289.739 281.938L295.156 276.5ZM308.973 291.133C305.245 286.712 300.534 281.858 295.156 276.5L289.739 281.938C295.1 287.279 299.608 291.933 303.106 296.08L308.973 291.133ZM317.371 304.037C315.68 299.791 312.66 295.505 308.973 291.133L303.106 296.08C306.618 300.245 309.007 303.781 310.24 306.876L317.371 304.037ZM317.554 317.726C319.555 313.122 319.126 308.447 317.371 304.037L310.24 306.876C311.449 309.913 311.5 312.4 310.515 314.667L317.554 317.726ZM308.327 327.787C312.493 325.006 315.802 321.757 317.554 317.726L310.515 314.667C309.577 316.825 307.584 319.054 304.066 321.403L308.327 327.787ZM311.335 332.606L309.988 324.001L302.405 325.189L303.752 333.794L311.335 332.606ZM306.58 339.103C309.652 338.622 311.827 335.746 311.335 332.606L303.752 333.794C303.576 332.667 304.356 331.682 305.392 331.52L306.58 339.103ZM284.838 336.756C285.33 339.896 288.28 341.969 291.352 341.488L290.164 333.905C291.201 333.743 292.245 334.442 292.421 335.568L284.838 336.756ZM283.491 328.151L284.838 336.756L292.421 335.568L291.073 326.963L283.491 328.151ZM274.368 324.489C277.269 327.791 281.413 329.873 286.229 331.247L288.335 323.867C284.267 322.706 281.688 321.192 280.135 319.424L274.368 324.489ZM270.358 311.399C270.034 316.135 271.055 320.717 274.368 324.489L280.135 319.424C278.504 317.567 277.793 315.183 278.015 311.923L270.358 311.399ZM274.409 296.546C272.235 301.836 270.67 306.84 270.358 311.399L278.015 311.923C278.243 308.599 279.437 304.502 281.508 299.463L274.409 296.546ZM283.091 278.39C279.609 285.135 276.607 291.196 274.409 296.546L281.508 299.463C283.57 294.444 286.439 288.635 289.911 281.911L283.091 278.39ZM291.352 341.488L306.58 339.103L305.392 331.52L290.164 333.905L291.352 341.488ZM293.269 315.977L296.955 315.399L295.768 307.816L292.082 308.394L293.269 315.977ZM290.772 275.918L287.086 276.495L288.274 284.078L291.96 283.5L290.772 275.918ZM294.073 311.888C294.193 311.817 294.332 311.764 294.494 311.738L293.306 304.156C292.165 304.334 291.099 304.727 290.152 305.29L294.073 311.888ZM300.153 311.014L299.59 307.418L292.007 308.605L292.57 312.202L300.153 311.014ZM295.842 283.488L295.158 279.115L287.575 280.303L288.26 284.675L295.842 283.488ZM291.784 286.401C292.25 285.487 292.73 284.553 293.222 283.6L286.402 280.079C285.905 281.042 285.419 281.988 284.946 282.916L291.784 286.401ZM287.103 284.558C287.863 285.315 288.605 286.057 289.328 286.786L294.774 281.377C294.039 280.638 293.288 279.886 292.52 279.121L287.103 284.558ZM294.494 311.738C294.655 311.713 294.805 311.721 294.941 311.752L296.656 304.271C295.583 304.025 294.448 303.977 293.306 304.156L294.494 311.738ZM283.889 280.88L284.574 285.252L292.156 284.065L291.472 279.692L283.889 280.88ZM288.321 309.183L288.884 312.779L296.467 311.591L295.904 307.995L288.321 309.183Z" fill="#FBFBFB" mask="url(#path-8-outside-1_197_57)"/>
</g>
<g filter="url(#filter5_d_197_57)">
<path d="M270.535 196.403C270.501 192.192 272 188.281 277.595 187.153C288.661 184.924 293.675 177.476 290.633 164.186C290.537 163.765 290.869 162.892 291.899 162.94C297.155 163.183 300.605 164.009 305.671 166.397C306.643 166.855 306.486 167.76 306.202 168.086C297.255 178.373 298.167 187.305 306.875 194.487C311.278 198.119 310.812 202.302 308.742 205.973C301.652 218.542 293.9 219.776 285.509 217.674C277.118 215.572 270.645 209.982 270.535 196.403Z" fill="#DEA2A2"/>
</g>
<g filter="url(#filter6_d_197_57)">
<path fill-rule="evenodd" clip-rule="evenodd" d="M268.738 188.529C270.454 185.89 273.192 184.126 276.838 183.391C281.687 182.414 284.574 180.438 286.105 177.859C287.673 175.217 288.292 171.153 286.893 165.042C286.562 163.594 286.987 162.129 287.781 161.076C288.749 159.794 290.305 159.025 292.078 159.107C297.841 159.373 301.787 160.323 307.308 162.926C308.886 163.669 309.965 165.064 310.207 166.744C310.407 168.13 310.001 169.567 309.099 170.604L306.291 168.162L309.099 170.604C304.985 175.334 303.615 179.21 303.753 182.279C303.887 185.276 305.502 188.379 309.318 191.527C312.18 193.887 313.779 196.735 314.059 199.874C314.328 202.881 313.339 205.635 312.085 207.858C308.287 214.591 304.018 218.81 299.093 220.866C294.158 222.926 289.191 222.552 284.578 221.396C279.835 220.209 275.274 217.94 271.919 213.737C268.561 209.531 266.758 203.827 266.699 196.434C266.678 193.925 267.101 191.046 268.738 188.529ZM277.596 187.153C272.001 188.281 270.502 192.192 270.536 196.403C270.646 209.982 277.119 215.572 285.51 217.674C293.901 219.776 301.653 218.542 308.743 205.973C310.813 202.302 311.279 198.119 306.876 194.487C298.168 187.305 297.257 178.373 306.203 168.086C306.487 167.76 306.645 166.855 305.672 166.397C300.606 164.009 297.157 163.183 291.9 162.94C290.87 162.892 290.538 163.765 290.634 164.186C293.676 177.476 288.662 184.924 277.596 187.153Z" fill="#FBFBFB"/>
</g>
<g filter="url(#filter7_d_197_57)">
<path fill-rule="evenodd" clip-rule="evenodd" d="M77.6246 38.7933C71.5655 38.7933 66.6536 43.7955 66.6536 49.966C66.6536 56.1366 71.5655 61.1388 77.6246 61.1388C80.6618 61.1388 83.4062 59.8858 85.3958 57.8527C87.3764 55.8287 88.5957 53.0452 88.5957 49.966C88.5957 43.7955 83.6838 38.7933 77.6246 38.7933ZM60.9648 49.966C60.9648 40.5959 68.4237 33 77.6246 33C86.8256 33 94.2844 40.5959 94.2844 49.966C94.2844 53.595 93.1634 56.9606 91.2579 59.719L101.172 69.8151C102.283 70.9463 102.283 72.7804 101.172 73.9116C100.061 75.0428 98.26 75.0428 97.1492 73.9116L87.2412 63.8214C84.5253 65.7792 81.2055 66.9321 77.6246 66.9321C68.4237 66.9321 60.9648 59.3361 60.9648 49.966Z" fill="#9B82AA"/>
<path d="M66.6536 49.966C66.6536 43.7955 71.5655 38.7933 77.6246 38.7933C83.6838 38.7933 88.5957 43.7955 88.5957 49.966C88.5957 53.0452 87.3764 55.8287 85.3958 57.8527C83.4062 59.8858 80.6618 61.1388 77.6246 61.1388C71.5655 61.1388 66.6536 56.1366 66.6536 49.966Z" fill="#FBFBFB"/>
<path d="M77.6246 31.0812C67.3312 31.0812 59.046 39.5693 59.046 49.966C59.046 60.3627 67.3312 68.8509 77.6246 68.8509C81.0322 68.8509 84.229 67.9152 86.974 66.2879L95.7801 75.2559C97.643 77.153 100.678 77.153 102.541 75.2559C104.385 73.3783 104.385 70.3483 102.541 68.4707L93.6893 59.4565C95.2874 56.666 96.2032 53.4207 96.2032 49.966C96.2032 39.5693 87.9181 31.0812 77.6246 31.0812Z" stroke="#FBFBFB" stroke-width="3.8376" stroke-linecap="round"/>
</g>
<g filter="url(#filter8_d_197_57)">
<mask id="path-14-outside-2_197_57" maskUnits="userSpaceOnUse" x="11.1398" y="219.71" width="83.5826" height="74.5661" fill="black">
<rect fill="white" x="11.1398" y="219.71" width="83.5826" height="74.5661"/>
<path fill-rule="evenodd" clip-rule="evenodd" d="M53.6301 230.87C53.3206 230.468 52.8432 230.228 52.3344 230.219C51.8257 230.21 51.3417 230.433 51.0208 230.823L16.6988 272.615C16.12 273.32 16.2282 274.359 16.9406 274.936C17.6531 275.513 18.6999 275.409 19.2788 274.705L19.3288 274.644L34.1665 256.577C35.9776 259.61 37.9315 261.734 40.0312 263.344C42.5783 265.298 45.2699 266.434 47.8867 267.529L48.0237 267.586C50.6234 268.674 53.1957 269.75 55.8758 271.568C58.5855 273.405 61.4508 276.034 64.4557 280.252C64.7564 280.674 65.2382 280.933 65.7578 280.952C66.2774 280.971 66.775 280.747 67.1025 280.347L85.3669 258.073C85.8292 257.509 85.8631 256.71 85.4504 256.106C79.8196 247.871 74.2277 245.424 69.0728 243.167C67.9273 242.666 66.8034 242.174 65.7055 241.63C63.8105 240.691 62.1657 239.757 60.3269 238.211C58.4714 236.651 56.3692 234.427 53.6301 230.87ZM49.3821 264.579L49.1688 264.49C47.5262 263.803 46.0149 263.16 44.5888 262.376C43.7167 261.897 42.8765 261.365 42.0577 260.737C41.204 260.082 40.3621 259.314 39.5341 258.378C38.471 257.177 37.4306 255.701 36.4174 253.836L39.2538 250.383L42.9283 245.908L46.4336 241.64L50.0267 237.265L52.288 234.512C53.6005 236.136 54.7919 237.48 55.9099 238.613C56.6988 239.413 57.4511 240.109 58.1836 240.725C59.0874 241.484 59.9518 242.115 60.8032 242.667C61.9474 243.407 63.0681 244.005 64.2296 244.581C65.3256 245.124 66.3991 245.603 67.4565 246.07L67.8834 246.258L67.8901 246.261C69.669 247.043 71.4044 247.807 73.1274 248.791C75.0754 249.904 77.0076 251.299 78.9685 253.321C79.9679 254.352 80.9747 255.546 81.9949 256.949L79.2665 260.276L75.5136 264.853L72.3319 268.734L68.7678 273.08L65.8706 276.614C64.7857 275.223 63.7093 274.005 62.642 272.929C60.9871 271.262 59.354 269.937 57.7442 268.846C57.5985 268.747 57.453 268.65 57.3079 268.555C55.3133 267.251 53.3778 266.305 51.5494 265.502C50.8085 265.176 50.0852 264.873 49.3828 264.579L49.3821 264.579Z"/>
<path d="M62.642 272.929C63.7093 274.005 64.7857 275.223 65.8706 276.614L68.7678 273.08C67.6297 271.799 66.4861 270.68 65.3422 269.686L62.642 272.929Z"/>
<path d="M51.5494 265.502C53.3778 266.305 55.3133 267.251 57.3079 268.555L59.6562 265.622C57.7071 264.47 55.7841 263.526 53.9148 262.612L51.5494 265.502Z"/>
<path d="M39.5341 258.378C40.3621 259.314 41.204 260.082 42.0577 260.737C42.8765 261.365 43.7167 261.897 44.5888 262.376L47.3211 259.055C45.587 257.925 43.9447 256.599 42.4237 254.891L39.5341 258.378Z"/>
<path d="M42.9283 245.908L39.2538 250.383C40.2357 252.147 41.2964 253.624 42.4237 254.891L46.0141 250.557C44.9232 249.259 43.8911 247.735 42.9283 245.908Z"/>
<path d="M46.0141 250.557C47.5092 252.337 49.1149 253.692 50.8044 254.821L54.7175 250.064C53.0463 248.966 51.4124 247.668 49.8139 245.971L46.0141 250.557Z"/>
<path d="M50.8044 254.821L47.3211 259.055C49.3668 260.389 51.5402 261.451 53.7927 262.552L53.9148 262.612L57.413 258.339C55.1153 257.266 52.8956 256.217 50.8044 254.821Z"/>
<path d="M61.2339 253.671L57.413 258.339L57.6195 258.435C59.4328 259.281 61.2935 260.15 63.1769 261.223L66.7206 256.796C64.8491 255.565 63.0209 254.592 61.2339 253.671Z"/>
<path d="M68.9731 265.326C67.0348 263.618 65.0941 262.315 63.1769 261.223L59.6562 265.622C61.5356 266.731 63.4392 268.034 65.3422 269.686L68.9731 265.326Z"/>
<path d="M72.3319 268.734L75.5136 264.853C74.4334 263.52 73.3668 262.351 72.3134 261.314L68.9731 265.326C70.0952 266.314 71.2165 267.438 72.3319 268.734Z"/>
<path d="M70.151 252.51L66.7206 256.796C68.543 257.994 70.4066 259.437 72.3134 261.314L75.9723 256.92C73.9599 255.08 72.0269 253.681 70.151 252.51Z"/>
<path d="M81.9949 256.949C80.9747 255.546 79.9679 254.352 78.9685 253.321L75.9723 256.92C77.0466 257.902 78.1435 259.01 79.2665 260.276L81.9949 256.949Z"/>
<path d="M73.1274 248.791C71.4044 247.807 69.669 247.043 67.8901 246.261L67.8834 246.258L67.4565 246.07L64.6765 249.466L64.8067 249.533C66.5476 250.442 68.3222 251.368 70.151 252.51L73.1274 248.791Z"/>
<path d="M58.2763 245.738L54.7175 250.064C56.5662 251.279 58.4608 252.25 60.4042 253.245C60.6798 253.386 60.9563 253.528 61.2339 253.671L64.6765 249.466C62.505 248.332 60.385 247.219 58.2763 245.738Z"/>
<path d="M58.1836 240.725C57.4511 240.109 56.6988 239.413 55.9099 238.613L53.4702 241.558C55.0775 243.276 56.6736 244.613 58.2763 245.738L60.8032 242.667C59.9518 242.115 59.0874 241.484 58.1836 240.725Z"/>
<path d="M50.0267 237.265L46.4336 241.64C47.5428 243.337 48.6693 244.756 49.8139 245.971L53.4702 241.558C52.3301 240.339 51.1843 238.928 50.0267 237.265Z"/>
<path d="M36.4174 253.836C37.4306 255.701 38.471 257.177 39.5341 258.378L42.4237 254.891C41.2964 253.624 40.2357 252.147 39.2538 250.383L36.4174 253.836Z"/>
<path d="M46.0141 250.557L42.4237 254.891C43.9447 256.599 45.587 257.925 47.3211 259.055L50.8044 254.821C49.1149 253.692 47.5092 252.337 46.0141 250.557Z"/>
<path d="M46.4336 241.64L42.9283 245.908C43.8911 247.735 44.9232 249.259 46.0141 250.557L49.8139 245.971C48.6693 244.756 47.5428 243.337 46.4336 241.64Z"/>
<path d="M55.9099 238.613C54.7919 237.48 53.6005 236.136 52.288 234.512L50.0267 237.265C51.1843 238.928 52.3301 240.339 53.4702 241.558L55.9099 238.613Z"/>
<path d="M49.8139 245.971C51.4124 247.668 53.0463 248.966 54.7175 250.064L58.2763 245.738C56.6736 244.613 55.0775 243.276 53.4702 241.558L49.8139 245.971Z"/>
<path d="M64.2296 244.581C63.0681 244.005 61.9474 243.407 60.8032 242.667L58.2763 245.738C60.385 247.219 62.505 248.332 64.6765 249.466L67.4565 246.07C66.3991 245.603 65.3256 245.124 64.2296 244.581Z"/>
<path d="M64.6765 249.466L61.2339 253.671C63.0209 254.592 64.8491 255.565 66.7206 256.796L70.151 252.51C68.3222 251.368 66.5476 250.442 64.8067 249.533L64.6765 249.466Z"/>
<path d="M78.9685 253.321C77.0076 251.299 75.0754 249.904 73.1274 248.791L70.151 252.51C72.0269 253.681 73.9599 255.08 75.9723 256.92L78.9685 253.321Z"/>
<path d="M75.5136 264.853L79.2665 260.276C78.1435 259.01 77.0466 257.902 75.9723 256.92L72.3134 261.314C73.3668 262.351 74.4334 263.52 75.5136 264.853Z"/>
<path d="M72.3134 261.314C70.4066 259.437 68.543 257.994 66.7206 256.796L63.1769 261.223C65.0941 262.315 67.0348 263.618 68.9731 265.326L72.3134 261.314Z"/>
<path d="M68.7678 273.08L72.3319 268.734C71.2165 267.438 70.0952 266.314 68.9731 265.326L65.3422 269.686C66.4861 270.68 67.6297 271.799 68.7678 273.08Z"/>
<path d="M57.3079 268.555C57.453 268.65 57.5985 268.747 57.7442 268.846C59.354 269.937 60.9871 271.262 62.642 272.929L65.3422 269.686C63.4392 268.034 61.5356 266.731 59.6562 265.622L57.3079 268.555Z"/>
<path d="M57.413 258.339L53.9148 262.612C55.7841 263.526 57.7071 264.47 59.6562 265.622L63.1769 261.223C61.2935 260.15 59.4328 259.281 57.6195 258.435L57.413 258.339Z"/>
<path d="M50.8044 254.821C52.8956 256.217 55.1153 257.266 57.413 258.339L61.2339 253.671C60.9563 253.528 60.6798 253.386 60.4042 253.245C58.4608 252.25 56.5662 251.279 54.7175 250.064L50.8044 254.821Z"/>
<path d="M49.1688 264.49L49.3821 264.579L49.3828 264.579C50.0852 264.873 50.8085 265.176 51.5494 265.502L53.9148 262.612L53.7927 262.552C51.5402 261.451 49.3668 260.389 47.3211 259.055L44.5888 262.376C46.0149 263.16 47.5262 263.803 49.1688 264.49Z"/>
</mask>
<path fill-rule="evenodd" clip-rule="evenodd" d="M53.6301 230.87C53.3206 230.468 52.8432 230.228 52.3344 230.219C51.8257 230.21 51.3417 230.433 51.0208 230.823L16.6988 272.615C16.12 273.32 16.2282 274.359 16.9406 274.936C17.6531 275.513 18.6999 275.409 19.2788 274.705L19.3288 274.644L34.1665 256.577C35.9776 259.61 37.9315 261.734 40.0312 263.344C42.5783 265.298 45.2699 266.434 47.8867 267.529L48.0237 267.586C50.6234 268.674 53.1957 269.75 55.8758 271.568C58.5855 273.405 61.4508 276.034 64.4557 280.252C64.7564 280.674 65.2382 280.933 65.7578 280.952C66.2774 280.971 66.775 280.747 67.1025 280.347L85.3669 258.073C85.8292 257.509 85.8631 256.71 85.4504 256.106C79.8196 247.871 74.2277 245.424 69.0728 243.167C67.9273 242.666 66.8034 242.174 65.7055 241.63C63.8105 240.691 62.1657 239.757 60.3269 238.211C58.4714 236.651 56.3692 234.427 53.6301 230.87ZM49.3821 264.579L49.1688 264.49C47.5262 263.803 46.0149 263.16 44.5888 262.376C43.7167 261.897 42.8765 261.365 42.0577 260.737C41.204 260.082 40.3621 259.314 39.5341 258.378C38.471 257.177 37.4306 255.701 36.4174 253.836L39.2538 250.383L42.9283 245.908L46.4336 241.64L50.0267 237.265L52.288 234.512C53.6005 236.136 54.7919 237.48 55.9099 238.613C56.6988 239.413 57.4511 240.109 58.1836 240.725C59.0874 241.484 59.9518 242.115 60.8032 242.667C61.9474 243.407 63.0681 244.005 64.2296 244.581C65.3256 245.124 66.3991 245.603 67.4565 246.07L67.8834 246.258L67.8901 246.261C69.669 247.043 71.4044 247.807 73.1274 248.791C75.0754 249.904 77.0076 251.299 78.9685 253.321C79.9679 254.352 80.9747 255.546 81.9949 256.949L79.2665 260.276L75.5136 264.853L72.3319 268.734L68.7678 273.08L65.8706 276.614C64.7857 275.223 63.7093 274.005 62.642 272.929C60.9871 271.262 59.354 269.937 57.7442 268.846C57.5985 268.747 57.453 268.65 57.3079 268.555C55.3133 267.251 53.3778 266.305 51.5494 265.502C50.8085 265.176 50.0852 264.873 49.3828 264.579L49.3821 264.579Z" fill="#7C97B6"/>
<path d="M62.642 272.929C63.7093 274.005 64.7857 275.223 65.8706 276.614L68.7678 273.08C67.6297 271.799 66.4861 270.68 65.3422 269.686L62.642 272.929Z" fill="#7C97B6"/>
<path d="M51.5494 265.502C53.3778 266.305 55.3133 267.251 57.3079 268.555L59.6562 265.622C57.7071 264.47 55.7841 263.526 53.9148 262.612L51.5494 265.502Z" fill="#7C97B6"/>
<path d="M39.5341 258.378C40.3621 259.314 41.204 260.082 42.0577 260.737C42.8765 261.365 43.7167 261.897 44.5888 262.376L47.3211 259.055C45.587 257.925 43.9447 256.599 42.4237 254.891L39.5341 258.378Z" fill="#7C97B6"/>
<path d="M42.9283 245.908L39.2538 250.383C40.2357 252.147 41.2964 253.624 42.4237 254.891L46.0141 250.557C44.9232 249.259 43.8911 247.735 42.9283 245.908Z" fill="#7C97B6"/>
<path d="M46.0141 250.557C47.5092 252.337 49.1149 253.692 50.8044 254.821L54.7175 250.064C53.0463 248.966 51.4124 247.668 49.8139 245.971L46.0141 250.557Z" fill="#7C97B6"/>
<path d="M50.8044 254.821L47.3211 259.055C49.3668 260.389 51.5402 261.451 53.7927 262.552L53.9148 262.612L57.413 258.339C55.1153 257.266 52.8956 256.217 50.8044 254.821Z" fill="#7C97B6"/>
<path d="M61.2339 253.671L57.413 258.339L57.6195 258.435C59.4328 259.281 61.2935 260.15 63.1769 261.223L66.7206 256.796C64.8491 255.565 63.0209 254.592 61.2339 253.671Z" fill="#7C97B6"/>
<path d="M68.9731 265.326C67.0348 263.618 65.0941 262.315 63.1769 261.223L59.6562 265.622C61.5356 266.731 63.4392 268.034 65.3422 269.686L68.9731 265.326Z" fill="#7C97B6"/>
<path d="M72.3319 268.734L75.5136 264.853C74.4334 263.52 73.3668 262.351 72.3134 261.314L68.9731 265.326C70.0952 266.314 71.2165 267.438 72.3319 268.734Z" fill="#7C97B6"/>
<path d="M70.151 252.51L66.7206 256.796C68.543 257.994 70.4066 259.437 72.3134 261.314L75.9723 256.92C73.9599 255.08 72.0269 253.681 70.151 252.51Z" fill="#7C97B6"/>
<path d="M81.9949 256.949C80.9747 255.546 79.9679 254.352 78.9685 253.321L75.9723 256.92C77.0466 257.902 78.1435 259.01 79.2665 260.276L81.9949 256.949Z" fill="#7C97B6"/>
<path d="M73.1274 248.791C71.4044 247.807 69.669 247.043 67.8901 246.261L67.8834 246.258L67.4565 246.07L64.6765 249.466L64.8067 249.533C66.5476 250.442 68.3222 251.368 70.151 252.51L73.1274 248.791Z" fill="#7C97B6"/>
<path d="M58.2763 245.738L54.7175 250.064C56.5662 251.279 58.4608 252.25 60.4042 253.245C60.6798 253.386 60.9563 253.528 61.2339 253.671L64.6765 249.466C62.505 248.332 60.385 247.219 58.2763 245.738Z" fill="#7C97B6"/>
<path d="M58.1836 240.725C57.4511 240.109 56.6988 239.413 55.9099 238.613L53.4702 241.558C55.0775 243.276 56.6736 244.613 58.2763 245.738L60.8032 242.667C59.9518 242.115 59.0874 241.484 58.1836 240.725Z" fill="#7C97B6"/>
<path d="M50.0267 237.265L46.4336 241.64C47.5428 243.337 48.6693 244.756 49.8139 245.971L53.4702 241.558C52.3301 240.339 51.1843 238.928 50.0267 237.265Z" fill="#7C97B6"/>
<path d="M36.4174 253.836C37.4306 255.701 38.471 257.177 39.5341 258.378L42.4237 254.891C41.2964 253.624 40.2357 252.147 39.2538 250.383L36.4174 253.836Z" fill="#FBFBFB"/>
<path d="M46.0141 250.557L42.4237 254.891C43.9447 256.599 45.587 257.925 47.3211 259.055L50.8044 254.821C49.1149 253.692 47.5092 252.337 46.0141 250.557Z" fill="#FBFBFB"/>
<path d="M46.4336 241.64L42.9283 245.908C43.8911 247.735 44.9232 249.259 46.0141 250.557L49.8139 245.971C48.6693 244.756 47.5428 243.337 46.4336 241.64Z" fill="#FBFBFB"/>
<path d="M55.9099 238.613C54.7919 237.48 53.6005 236.136 52.288 234.512L50.0267 237.265C51.1843 238.928 52.3301 240.339 53.4702 241.558L55.9099 238.613Z" fill="#FBFBFB"/>
<path d="M49.8139 245.971C51.4124 247.668 53.0463 248.966 54.7175 250.064L58.2763 245.738C56.6736 244.613 55.0775 243.276 53.4702 241.558L49.8139 245.971Z" fill="#FBFBFB"/>
<path d="M64.2296 244.581C63.0681 244.005 61.9474 243.407 60.8032 242.667L58.2763 245.738C60.385 247.219 62.505 248.332 64.6765 249.466L67.4565 246.07C66.3991 245.603 65.3256 245.124 64.2296 244.581Z" fill="#FBFBFB"/>
<path d="M64.6765 249.466L61.2339 253.671C63.0209 254.592 64.8491 255.565 66.7206 256.796L70.151 252.51C68.3222 251.368 66.5476 250.442 64.8067 249.533L64.6765 249.466Z" fill="#FBFBFB"/>
<path d="M78.9685 253.321C77.0076 251.299 75.0754 249.904 73.1274 248.791L70.151 252.51C72.0269 253.681 73.9599 255.08 75.9723 256.92L78.9685 253.321Z" fill="#FBFBFB"/>
<path d="M75.5136 264.853L79.2665 260.276C78.1435 259.01 77.0466 257.902 75.9723 256.92L72.3134 261.314C73.3668 262.351 74.4334 263.52 75.5136 264.853Z" fill="#FBFBFB"/>
<path d="M72.3134 261.314C70.4066 259.437 68.543 257.994 66.7206 256.796L63.1769 261.223C65.0941 262.315 67.0348 263.618 68.9731 265.326L72.3134 261.314Z" fill="#FBFBFB"/>
<path d="M68.7678 273.08L72.3319 268.734C71.2165 267.438 70.0952 266.314 68.9731 265.326L65.3422 269.686C66.4861 270.68 67.6297 271.799 68.7678 273.08Z" fill="#FBFBFB"/>
<path d="M57.3079 268.555C57.453 268.65 57.5985 268.747 57.7442 268.846C59.354 269.937 60.9871 271.262 62.642 272.929L65.3422 269.686C63.4392 268.034 61.5356 266.731 59.6562 265.622L57.3079 268.555Z" fill="#FBFBFB"/>
<path d="M57.413 258.339L53.9148 262.612C55.7841 263.526 57.7071 264.47 59.6562 265.622L63.1769 261.223C61.2935 260.15 59.4328 259.281 57.6195 258.435L57.413 258.339Z" fill="#FBFBFB"/>
<path d="M50.8044 254.821C52.8956 256.217 55.1153 257.266 57.413 258.339L61.2339 253.671C60.9563 253.528 60.6798 253.386 60.4042 253.245C58.4608 252.25 56.5662 251.279 54.7175 250.064L50.8044 254.821Z" fill="#FBFBFB"/>
<path d="M49.1688 264.49L49.3821 264.579L49.3828 264.579C50.0852 264.873 50.8085 265.176 51.5494 265.502L53.9148 262.612L53.7927 262.552C51.5402 261.451 49.3668 260.389 47.3211 259.055L44.5888 262.376C46.0149 263.16 47.5262 263.803 49.1688 264.49Z" fill="#FBFBFB"/>
<path d="M42.0577 260.737L43.2253 259.214L43.2253 259.214L42.0577 260.737ZM36.4174 253.836L34.9346 252.618C34.4389 253.222 34.3585 254.066 34.7314 254.752L36.4174 253.836ZM49.3821 264.579L50.1262 262.811L50.1226 262.809L49.3821 264.579ZM57.7442 268.846L58.8211 267.258L58.8211 267.258L57.7442 268.846ZM65.8706 276.614L64.3578 277.794C64.7163 278.253 65.2644 278.525 65.8473 278.532C66.4303 278.539 66.9848 278.281 67.3544 277.83L65.8706 276.614ZM81.9949 256.949L83.4787 258.166C84.0324 257.49 84.0603 256.527 83.5468 255.82L81.9949 256.949ZM67.8901 246.261L68.663 244.504L68.663 244.504L67.8901 246.261ZM64.2296 244.581L63.3778 246.3L63.3778 246.3L64.2296 244.581ZM58.1836 240.725L59.4183 239.256L59.4183 239.256L58.1836 240.725ZM52.288 234.512L53.7804 233.306C53.4178 232.857 52.8726 232.595 52.2956 232.593C51.7187 232.591 51.1713 232.848 50.8051 233.294L52.288 234.512ZM55.9099 238.613L57.2761 237.266L55.9099 238.613ZM60.8032 242.667L61.8463 241.056L61.8463 241.056L60.8032 242.667ZM44.5888 262.376L43.6646 264.058L44.5888 262.376ZM51.5494 265.502L50.7771 267.258L50.7771 267.258L51.5494 265.502ZM57.3079 268.555L56.2576 270.161L57.3079 268.555ZM78.9685 253.321L80.3461 251.986L80.3461 251.986L78.9685 253.321ZM62.642 272.929L61.2801 274.281L61.2801 274.281L62.642 272.929ZM50.0267 237.265L48.5439 236.047L48.5439 236.047L50.0267 237.265ZM79.2665 260.276L80.7503 261.493L80.7503 261.493L79.2665 260.276ZM46.4336 241.64L44.9508 240.422L44.9508 240.422L46.4336 241.64ZM75.5136 264.853L76.9974 266.07L76.9974 266.07L75.5136 264.853ZM72.3319 268.734L73.8157 269.95L73.8157 269.95L72.3319 268.734ZM39.2538 250.383L37.771 249.165L37.771 249.165L39.2538 250.383ZM49.3828 264.579L48.6387 266.348L48.6423 266.35L49.3828 264.579ZM53.7927 262.552L54.6354 260.829L54.6354 260.829L53.7927 262.552ZM64.8067 249.533L65.6944 247.832L65.6944 247.832L64.8067 249.533ZM67.8834 246.258L67.1104 248.014L67.1104 248.014L67.8834 246.258ZM60.4042 253.245L59.5293 254.953L59.5293 254.953L60.4042 253.245ZM57.6195 258.435L56.8079 260.174L56.8079 260.174L57.6195 258.435ZM50.1225 262.809C50.0511 262.779 49.9802 262.75 49.9096 262.72L48.428 266.26C48.4991 266.29 48.5704 266.32 48.6417 266.349L50.1225 262.809ZM50.7955 235.718C52.139 237.381 53.3726 238.773 54.5437 239.961L57.2761 237.266C56.2113 236.186 55.0619 234.892 53.7804 233.306L50.7955 235.718ZM54.5437 239.961C55.3707 240.799 56.1667 241.536 56.9488 242.193L59.4183 239.256C58.7356 238.682 58.0269 238.027 57.2761 237.266L54.5437 239.961ZM43.2253 259.214C42.4659 258.632 41.7148 257.947 40.9709 257.107L38.0974 259.65C39.0095 260.681 39.9421 261.533 40.8901 262.259L43.2253 259.214ZM40.9709 257.107C40.0151 256.027 39.0558 254.673 38.1035 252.92L34.7314 254.752C35.8055 256.729 36.9268 258.328 38.0974 259.65L40.9709 257.107ZM56.9488 242.193C57.9152 243.006 58.8438 243.684 59.7602 244.277L61.8463 241.056C61.0598 240.547 60.2596 239.963 59.4183 239.256L56.9488 242.193ZM59.7602 244.277C60.9902 245.074 62.1828 245.708 63.3778 246.3L65.0813 242.861C63.9535 242.303 62.9046 241.741 61.8463 241.056L59.7602 244.277ZM49.9096 262.72C48.2581 262.029 46.8371 261.423 45.5131 260.695L43.6646 264.058C45.1926 264.898 46.7943 265.576 48.428 266.26L49.9096 262.72ZM45.5131 260.695C44.7117 260.254 43.9552 259.774 43.2253 259.214L40.8901 262.259C41.7978 262.956 42.7217 263.54 43.6646 264.058L45.5131 260.695ZM63.3778 246.3C64.5149 246.863 65.6219 247.358 66.6823 247.825L68.2306 244.314C67.1763 243.849 66.1363 243.384 65.0813 242.861L63.3778 246.3ZM67.1172 248.017C68.9089 248.805 70.5534 249.531 72.1756 250.457L74.0791 247.125C72.2554 246.083 70.429 245.281 68.663 244.504L67.1172 248.017ZM58.8211 267.258C58.6664 267.153 58.5121 267.05 58.3582 266.949L56.2576 270.161C56.394 270.25 56.5306 270.341 56.6674 270.434L58.8211 267.258ZM58.3582 266.949C56.2418 265.565 54.2015 264.572 52.3217 263.745L50.7771 267.258C52.554 268.039 54.3848 268.936 56.2576 270.161L58.3582 266.949ZM72.1756 250.457C73.987 251.492 75.7708 252.78 77.5909 254.657L80.3461 251.986C78.2444 249.818 76.1639 248.316 74.0791 247.125L72.1756 250.457ZM77.5908 254.657C78.5226 255.618 79.4718 256.742 80.4431 258.077L83.5468 255.82C82.4776 254.35 81.4131 253.086 80.3461 251.986L77.5908 254.657ZM67.3835 275.433C66.2541 273.986 65.1276 272.71 64.004 271.577L61.2801 274.281C62.2911 275.299 63.3173 276.46 64.3578 277.794L67.3835 275.433ZM64.004 271.577C62.2602 269.82 60.5312 268.417 58.8211 267.258L56.6674 270.434C58.1768 271.457 59.7141 272.703 61.2801 274.281L64.004 271.577ZM51.5095 238.483L53.7708 235.73L50.8051 233.294L48.5439 236.047L51.5095 238.483ZM80.5112 255.732L77.7828 259.06L80.7503 261.493L83.4787 258.166L80.5112 255.732ZM47.9164 242.858L51.5095 238.483L48.5439 236.047L44.9508 240.422L47.9164 242.858ZM77.7828 259.06L74.0298 263.637L76.9974 266.07L80.7503 261.493L77.7828 259.06ZM44.4111 247.126L47.9164 242.858L44.9508 240.422L41.4454 244.691L44.4111 247.126ZM74.0298 263.637L70.8481 267.517L73.8157 269.95L76.9974 266.07L74.0298 263.637ZM37.9003 255.054L40.7366 251.6L37.771 249.165L34.9346 252.618L37.9003 255.054ZM40.7366 251.6L44.4111 247.126L41.4454 244.691L37.771 249.165L40.7366 251.6ZM70.8481 267.517L67.284 271.864L70.2516 274.297L73.8157 269.95L70.8481 267.517ZM67.284 271.864L64.3869 275.397L67.3544 277.83L70.2516 274.297L67.284 271.864ZM44.5365 249.333L40.9462 253.667L43.9013 256.115L47.4917 251.781L44.5365 249.333ZM40.9905 256.167C42.6447 258.025 44.4243 259.457 46.2732 260.663L48.3689 257.448C46.7497 256.392 45.2447 255.174 43.857 253.615L40.9905 256.167ZM48.8029 260.274L52.2862 256.04L49.3226 253.602L45.8393 257.836L48.8029 260.274ZM51.8701 253.225C50.3101 252.183 48.8462 250.945 47.4832 249.323L44.545 251.792C46.1722 253.728 47.9196 255.202 49.7388 256.417L51.8701 253.225ZM37.5771 251.316C38.6245 253.198 39.7658 254.791 40.9905 256.167L43.857 253.615C42.8269 252.458 41.8469 251.097 40.9305 249.45L37.5771 251.316ZM41.2309 246.803C42.253 248.742 43.3601 250.381 44.545 251.792L47.4832 249.323C46.4862 248.136 45.5292 246.727 44.6256 245.014L41.2309 246.803ZM45.8393 257.836L43.107 261.157L46.0706 263.595L48.8029 260.274L45.8393 257.836ZM40.9462 253.667L38.0566 257.154L41.0117 259.603L43.9013 256.115L40.9462 253.667ZM48.4283 266.26L48.6415 266.349L50.1226 262.809L49.9093 262.72L48.4283 266.26ZM48.638 266.348L48.6387 266.348L50.1269 262.811L50.1262 262.811L48.638 266.348ZM48.6423 266.35C49.347 266.644 50.0546 266.94 50.7771 267.258L52.3217 263.745C51.5625 263.411 50.8235 263.102 50.1232 262.809L48.6423 266.35ZM53.0342 266.717L55.3995 263.828L52.43 261.397L50.0647 264.286L53.0342 266.717ZM46.2732 260.663C48.4345 262.071 50.7155 263.184 52.9499 264.276L54.6354 260.829C52.3648 259.719 50.2991 258.706 48.3689 257.448L46.2732 260.663ZM52.9499 264.276L53.072 264.336L54.7575 260.888L54.6354 260.829L52.9499 264.276ZM55.3995 263.828L58.8978 259.554L55.9283 257.123L52.43 261.397L55.3995 263.828ZM58.2249 256.6C55.9135 255.521 53.8223 254.529 51.8701 253.225L49.7388 256.417C51.9689 257.906 54.3171 259.011 56.6012 260.077L58.2249 256.6ZM54.7576 260.888C54.7168 260.868 54.6761 260.848 54.6354 260.829L52.9499 264.276C52.9906 264.296 53.0313 264.316 53.072 264.336L54.7576 260.888ZM55.7714 248.461C54.2057 247.432 52.6916 246.227 51.2105 244.655L48.4173 247.287C50.1333 249.108 51.8868 250.5 53.6637 251.668L55.7714 248.461ZM48.3363 244.747L44.5365 249.333L47.4917 251.781L51.2915 247.195L48.3363 244.747ZM52.2862 256.04L56.1994 251.283L53.2357 248.845L49.3226 253.602L52.2862 256.04ZM44.8276 242.69C45.995 244.476 47.1908 245.985 48.4173 247.287L51.2105 244.655C50.1479 243.527 49.0907 242.198 48.0397 240.59L44.8276 242.69ZM54.8715 240.247C53.7986 239.1 52.7103 237.762 51.6015 236.169L48.4518 238.361C49.6584 240.095 50.8615 241.578 52.0689 242.869L54.8715 240.247ZM51.2915 247.195L54.9477 242.782L51.9926 240.334L48.3363 244.747L51.2915 247.195ZM54.4323 237.389L51.9926 240.334L54.9477 242.782L57.3874 239.838L54.4323 237.389ZM52.0689 242.869C53.7737 244.691 55.4717 246.114 57.1738 247.309L59.3787 244.168C57.8755 243.112 56.3812 241.861 54.8715 240.247L52.0689 242.869ZM59.7581 246.957L62.2851 243.886L59.3214 241.447L56.7944 244.519L59.7581 246.957ZM56.7945 244.519L53.2357 248.845L56.1994 251.283L59.7581 246.957L56.7945 244.519ZM62.7186 254.887L66.1613 250.681L63.1918 248.25L59.7491 252.456L62.7186 254.887ZM65.5643 247.764C63.3838 246.627 61.3704 245.566 59.3787 244.168L57.1738 247.309C59.3995 248.871 61.6261 250.038 63.7888 251.167L65.5643 247.764ZM65.9717 244.854L63.1918 248.25L66.1613 250.681L68.9413 247.285L65.9717 244.854ZM59.7491 252.456L55.9283 257.123L58.8978 259.554L62.7186 254.887L59.7491 252.456ZM63.7889 251.167L63.919 251.235L65.6944 247.832L65.5642 247.764L63.7889 251.167ZM63.919 251.235C65.667 252.147 67.3779 253.04 69.1347 254.137L71.1673 250.882C69.2664 249.695 67.4283 248.737 65.6944 247.832L63.919 251.235ZM71.649 253.709L74.6254 249.99L71.6293 247.592L68.653 251.311L71.649 253.709ZM63.7888 251.167C63.8322 251.189 63.8757 251.212 63.919 251.235L65.6944 247.832C65.6509 247.81 65.6076 247.787 65.5643 247.764L63.7888 251.167ZM60.3552 255.377C62.1301 256.291 63.8835 257.226 65.6662 258.399L67.775 255.192C65.8146 253.903 63.9118 252.892 62.1125 251.965L60.3552 255.377ZM68.2186 257.995L71.649 253.709L68.653 251.311L65.2226 255.597L68.2186 257.995ZM73.788 262.542L77.4468 258.147L74.4977 255.692L70.8388 260.086L73.788 262.542ZM77.267 255.504C75.1565 253.574 73.1275 252.106 71.1673 250.882L69.1347 254.137C70.9262 255.256 72.7632 256.586 74.6775 258.336L77.267 255.504ZM65.6662 258.399C67.3954 259.536 69.1592 260.902 70.9674 262.681L73.6594 259.946C71.6541 257.973 69.6907 256.452 67.775 255.192L65.6662 258.399ZM70.9674 262.681C71.968 263.666 72.9863 264.782 74.0226 266.061L77.0046 263.646C75.8805 262.258 74.7657 261.035 73.6594 259.946L70.9674 262.681ZM74.6775 258.336C75.7011 259.272 76.7511 260.332 77.8309 261.549L80.7022 259.003C79.536 257.688 78.3921 256.532 77.267 255.504L74.6775 258.336ZM77.4939 252.094L74.4977 255.692L77.4468 258.147L80.4431 254.549L77.4939 252.094ZM70.8388 260.086L67.4985 264.098L70.4476 266.553L73.788 262.542L70.8388 260.086ZM67.7048 266.766C68.7607 267.695 69.8198 268.756 70.8775 269.985L73.7863 267.482C72.6132 266.119 71.4297 264.932 70.2413 263.886L67.7048 266.766ZM65.2226 255.597L61.6789 260.024L64.675 262.422L68.2186 257.995L65.2226 255.597ZM62.2273 262.89C64.0542 263.931 65.8831 265.161 67.7048 266.766L70.2413 263.886C68.1865 262.076 66.1339 260.699 64.1266 259.556L62.2273 262.89ZM53.072 264.336C54.9464 265.252 56.8051 266.166 58.6804 267.274L60.6319 263.969C58.609 262.775 56.6217 261.8 54.7576 260.888L53.072 264.336ZM61.1542 266.821L64.675 262.422L61.6789 260.024L58.1581 264.422L61.1542 266.821ZM58.1581 264.422L55.8099 267.356L58.8059 269.754L61.1542 266.821L58.1581 264.422ZM66.8168 270.914L70.4476 266.553L67.4985 264.098L63.8676 268.458L66.8168 270.914ZM58.6804 267.274C60.4801 268.337 62.285 269.573 64.0841 271.135L66.6003 268.237C64.5933 266.495 62.5911 265.126 60.6319 263.969L58.6804 267.274ZM64.0841 271.135C65.1663 272.075 66.251 273.137 67.3334 274.355L70.2022 271.806C69.0085 270.462 67.8059 269.284 66.6003 268.237L64.0841 271.135ZM63.8676 268.458L61.1675 271.701L64.1166 274.157L66.8168 270.914L63.8676 268.458ZM66.6823 247.825C66.8256 247.888 66.9685 247.951 67.1104 248.014L68.6563 244.501C68.5142 244.439 68.3725 244.376 68.2306 244.314L66.6823 247.825ZM67.1105 248.014L67.1173 248.017L68.6629 244.504L68.6562 244.501L67.1105 248.014ZM67.1104 248.014C67.1117 248.014 67.1129 248.015 67.114 248.015C67.1151 248.016 67.1161 248.016 67.1172 248.017L68.663 244.504C68.6618 244.504 68.6606 244.503 68.6595 244.503C68.6584 244.502 68.6573 244.502 68.6563 244.501L67.1104 248.014ZM66.6832 247.826L67.11 248.014L68.6567 244.501L68.2298 244.313L66.6832 247.826ZM62.1125 251.965C61.8328 251.821 61.5544 251.679 61.2791 251.538L59.5293 254.953C59.8052 255.094 60.0799 255.235 60.3552 255.377L62.1125 251.965ZM61.2791 251.538C59.3223 250.535 57.5196 249.61 55.7714 248.461L53.6637 251.668C55.6129 252.949 57.5993 253.964 59.5293 254.953L61.2791 251.538ZM64.1266 259.556C62.1654 258.438 60.2359 257.539 58.4311 256.696L56.8079 260.174C58.6296 261.024 60.4215 261.862 62.2273 262.89L64.1266 259.556ZM58.4311 256.696C58.3622 256.664 58.2935 256.632 58.2249 256.6L56.6012 260.077C56.6701 260.109 56.739 260.142 56.8079 260.174L58.4311 256.696ZM56.6013 260.077L56.8078 260.174L58.4312 256.696L58.2247 256.6L56.6013 260.077ZM53.6301 230.87L50.5896 233.211L50.5896 233.211L53.6301 230.87ZM52.3344 230.219L52.4027 226.382L52.4027 226.382L52.3344 230.219ZM60.3269 238.211L57.8574 241.148L57.8574 241.148L60.3269 238.211ZM65.7055 241.63L64.002 245.069L64.002 245.069L65.7055 241.63ZM69.0728 243.167L70.6117 239.652L70.6117 239.652L69.0728 243.167ZM85.4504 256.106L82.2826 258.272L82.2826 258.272L85.4504 256.106ZM85.3669 258.073L88.3345 260.506L88.3345 260.506L85.3669 258.073ZM67.1025 280.347L70.0701 282.781L70.0701 282.781L67.1025 280.347ZM65.7578 280.952L65.8955 277.117L65.8955 277.117L65.7578 280.952ZM64.4557 280.252L67.5813 278.026L67.5813 278.026L64.4557 280.252ZM55.8758 271.568L53.7222 274.744L53.7222 274.744L55.8758 271.568ZM48.0237 267.586L46.5423 271.126L46.5424 271.126L48.0237 267.586ZM47.8867 267.529L46.4051 271.069L46.4053 271.069L47.8867 267.529ZM40.0312 263.344L37.6959 266.39L37.696 266.39L40.0312 263.344ZM34.1665 256.577L37.4616 254.61C36.8211 253.537 35.6986 252.843 34.4528 252.75C33.207 252.657 31.9938 253.176 31.2009 254.141L34.1665 256.577ZM51.0208 230.823L53.9865 233.259L53.9865 233.259L51.0208 230.823ZM19.3288 274.644L22.2939 277.08L22.2944 277.079L19.3288 274.644ZM16.6988 272.615L19.6645 275.05L19.6645 275.05L16.6988 272.615ZM16.9406 274.936L14.5251 277.918L14.5251 277.918L16.9406 274.936ZM19.2788 274.705L16.3137 272.268L16.3131 272.269L19.2788 274.705ZM56.6705 228.528C55.6466 227.199 54.0737 226.412 52.4027 226.382L52.2662 234.056C51.6126 234.045 50.9946 233.737 50.5896 233.211L56.6705 228.528ZM62.7964 235.273C61.2245 233.952 59.311 231.957 56.6705 228.528L50.5896 233.211C53.4274 236.896 55.7183 239.35 57.8574 241.148L62.7964 235.273ZM67.409 238.191C65.6635 237.327 64.3139 236.549 62.7964 235.273L57.8574 241.148C60.0176 242.964 61.9575 244.056 64.002 245.069L67.409 238.191ZM70.6117 239.652C69.4518 239.144 68.4118 238.688 67.409 238.191L64.002 245.069C65.1951 245.66 66.4029 246.188 67.534 246.683L70.6117 239.652ZM88.6182 253.94C82.3731 244.807 75.9759 242 70.6117 239.652L67.534 246.683C72.4795 248.848 77.266 250.936 82.2826 258.272L88.6182 253.94ZM88.3345 260.506C89.8822 258.619 89.9894 255.945 88.6182 253.94L82.2826 258.272C81.7369 257.474 81.7762 256.4 82.3994 255.64L88.3345 260.506ZM70.0701 282.781L88.3345 260.506L82.3994 255.64L64.135 277.914L70.0701 282.781ZM65.62 284.787C67.3276 284.848 68.9771 284.114 70.0701 282.781L64.135 277.914C64.5729 277.38 65.2272 277.093 65.8955 277.117L65.62 284.787ZM61.3301 282.479C62.3255 283.876 63.9136 284.726 65.62 284.787L65.8955 277.117C66.5627 277.141 67.1872 277.473 67.5813 278.026L61.3301 282.479ZM53.7222 274.744C56.0293 276.308 58.5722 278.608 61.3301 282.479L67.5813 278.026C64.3293 273.461 61.1418 270.501 58.0294 268.391L53.7222 274.744ZM46.5424 271.126C49.1633 272.223 51.4004 273.17 53.7222 274.744L58.0294 268.391C54.991 266.331 52.0835 265.125 49.505 264.046L46.5424 271.126ZM46.4053 271.069L46.5423 271.126L49.505 264.046L49.368 263.989L46.4053 271.069ZM37.696 266.39C40.6895 268.685 43.8216 269.988 46.4051 271.069L49.3682 263.989C46.7181 262.88 44.4671 261.91 42.3664 260.299L37.696 266.39ZM30.8715 258.544C32.9148 261.966 35.186 264.465 37.6959 266.39L42.3664 260.299C40.677 259.004 39.0405 257.254 37.4616 254.61L30.8715 258.544ZM52.4027 226.382C50.7306 226.352 49.1258 227.084 48.0552 228.388L53.9865 233.259C53.5576 233.781 52.9208 234.068 52.2662 234.056L52.4027 226.382ZM22.2944 277.079L37.1322 259.013L31.2009 254.141L16.3632 272.208L22.2944 277.079ZM48.0552 228.388L13.7332 270.179L19.6645 275.05L53.9865 233.259L48.0552 228.388ZM14.5251 277.918C16.8622 279.811 20.3151 279.489 22.2444 277.14L16.3131 272.269C17.0847 271.33 18.4439 271.215 19.3561 271.954L14.5251 277.918ZM13.7332 270.179C11.7908 272.544 12.1725 276.012 14.5251 277.918L19.3562 271.954C20.2839 272.705 20.4491 274.095 19.6645 275.05L13.7332 270.179ZM22.2439 277.141L22.2939 277.08L16.3637 272.207L16.3137 272.268L22.2439 277.141Z" fill="#FBFBFB" mask="url(#path-14-outside-2_197_57)"/>
</g>
<path fill-rule="evenodd" clip-rule="evenodd" d="M161.813 208.622C156.737 210.883 151.027 212.014 144.683 212.014C132.558 212.014 122.408 209.329 114.23 203.958C106.053 198.447 101.965 190.462 101.965 180.004C101.965 166.438 108.38 157.322 121.209 152.659C134.039 147.995 150.322 145.664 170.06 145.664V127.221C170.06 120.862 169.214 115.915 167.523 112.382C165.972 108.849 162.87 107.083 158.218 107.083C148.208 107.083 143.203 113.513 143.203 126.373C143.203 128.917 143.485 132.45 144.049 136.972C143.062 137.679 141.37 138.174 138.973 138.456C136.576 138.739 134.462 138.88 132.629 138.88C125.862 138.88 120.222 137.467 115.711 134.64C111.199 131.673 108.944 127.221 108.944 121.286C108.944 111.958 114.16 105.246 124.593 101.147C135.026 97.0492 146.727 95 159.698 95C176.475 95 189.305 97.9677 198.187 103.903C207.069 109.839 211.51 120.155 211.51 134.852V151.822C217.059 150.598 223.131 149.986 229.727 149.986C241.57 149.986 251.368 152.036 259.122 156.134C267.017 160.232 270.965 167.086 270.965 176.696C270.965 182.49 268.639 186.871 263.986 189.839C259.475 192.807 253.835 194.29 247.068 194.29C245.235 194.29 243.12 194.149 240.724 193.866C238.468 193.584 236.847 193.089 235.86 192.383C236.424 187.86 236.706 184.257 236.706 181.572C236.706 176.06 236.001 171.538 234.591 168.005C233.322 164.472 230.714 162.705 226.766 162.705C217.743 162.705 213.232 177.261 213.232 206.373C213.232 217.396 214.853 226.017 218.096 232.235C221.479 238.312 227.612 241.35 236.494 241.35C241.993 241.35 246.716 239.937 250.663 237.111C254.752 234.143 257.924 230.045 260.18 224.816C262.717 225.381 264.691 226.794 266.101 229.055C267.511 231.175 268.216 233.648 268.216 236.475C268.216 246.367 264.268 253.928 256.373 259.157C248.619 264.386 239.173 267 228.035 267C209.848 267 195.75 261.771 185.74 251.313C175.871 240.714 170.936 226.088 170.936 207.433C170.936 205.159 171.012 202.951 171.163 200.809C168.916 204.242 165.799 206.846 161.813 208.622ZM166.888 190.604C164.773 194.843 161.319 196.963 156.526 196.963C152.014 196.963 148.631 195.338 146.375 192.087C144.26 188.696 143.203 184.385 143.203 179.157C143.203 170.96 145.458 165.095 149.97 161.562C154.481 158.029 161.178 156.263 170.06 156.263V174.917C170.06 181.135 169.003 186.364 166.888 190.604Z" fill="#7C97B6"/>
<defs>
<filter id="filter0_d_197_57" x="98.754" y="277.472" width="76.8202" height="82.356" filterUnits="userSpaceOnUse" color-interpolation-filters="sRGB">
<feFlood flood-opacity="0" result="BackgroundImageFix"/>
<feColorMatrix in="SourceAlpha" type="matrix" values="0 0 0 0 0 0 0 0 0 0 0 0 0 0 0 0 0 0 127 0" result="hardAlpha"/>
<feOffset/>
<feGaussianBlur stdDeviation="4.7988"/>
<feComposite in2="hardAlpha" operator="out"/>
<feColorMatrix type="matrix" values="0 0 0 0 0.263281 0 0 0 0 0.19884 0 0 0 0 0.150509 0 0 0 0.3 0"/>
<feBlend mode="normal" in2="BackgroundImageFix" result="effect1_dropShadow_197_57"/>
<feBlend mode="normal" in="SourceGraphic" in2="effect1_dropShadow_197_57" result="shape"/>
</filter>
<filter id="filter1_d_197_57" x="46.9376" y="104.893" width="85.6307" height="85.7757" filterUnits="userSpaceOnUse" color-interpolation-filters="sRGB">
<feFlood flood-opacity="0" result="BackgroundImageFix"/>
<feColorMatrix in="SourceAlpha" type="matrix" values="0 0 0 0 0 0 0 0 0 0 0 0 0 0 0 0 0 0 127 0" result="hardAlpha"/>
<feOffset/>
<feGaussianBlur stdDeviation="4.7988"/>
<feComposite in2="hardAlpha" operator="out"/>
<feColorMatrix type="matrix" values="0 0 0 0 0.263281 0 0 0 0 0.19884 0 0 0 0 0.150509 0 0 0 0.3 0"/>
<feBlend mode="normal" in2="BackgroundImageFix" result="effect1_dropShadow_197_57"/>
<feBlend mode="normal" in="SourceGraphic" in2="effect1_dropShadow_197_57" result="shape"/>
</filter>
<filter id="filter2_d_197_57" x="298.529" y="53.5648" width="82.3104" height="82.3104" filterUnits="userSpaceOnUse" color-interpolation-filters="sRGB">
<feFlood flood-opacity="0" result="BackgroundImageFix"/>
<feColorMatrix in="SourceAlpha" type="matrix" values="0 0 0 0 0 0 0 0 0 0 0 0 0 0 0 0 0 0 127 0" result="hardAlpha"/>
<feOffset/>
<feGaussianBlur stdDeviation="4.7988"/>
<feComposite in2="hardAlpha" operator="out"/>
<feColorMatrix type="matrix" values="0 0 0 0 0.263281 0 0 0 0 0.19884 0 0 0 0 0.150509 0 0 0 0.3 0"/>
<feBlend mode="normal" in2="BackgroundImageFix" result="effect1_dropShadow_197_57"/>
<feBlend mode="normal" in="SourceGraphic" in2="effect1_dropShadow_197_57" result="shape"/>
</filter>
<filter id="filter3_d_197_57" x="197.158" y="12.988" width="82.66" height="76.5487" filterUnits="userSpaceOnUse" color-interpolation-filters="sRGB">
<feFlood flood-opacity="0" result="BackgroundImageFix"/>
<feColorMatrix in="SourceAlpha" type="matrix" values="0 0 0 0 0 0 0 0 0 0 0 0 0 0 0 0 0 0 127 0" result="hardAlpha"/>
<feOffset/>
<feGaussianBlur stdDeviation="4.7988"/>
<feComposite in2="hardAlpha" operator="out"/>
<feColorMatrix type="matrix" values="0 0 0 0 0.263281 0 0 0 0 0.19884 0 0 0 0 0.150509 0 0 0 0.3 0"/>
<feBlend mode="normal" in2="BackgroundImageFix" result="effect1_dropShadow_197_57"/>
<feBlend mode="normal" in="SourceGraphic" in2="effect1_dropShadow_197_57" result="shape"/>
</filter>
<filter id="filter4_d_197_57" x="260.703" y="264.695" width="67.7753" height="86.4597" filterUnits="userSpaceOnUse" color-interpolation-filters="sRGB">
<feFlood flood-opacity="0" result="BackgroundImageFix"/>
<feColorMatrix in="SourceAlpha" type="matrix" values="0 0 0 0 0 0 0 0 0 0 0 0 0 0 0 0 0 0 127 0" result="hardAlpha"/>
<feOffset/>
<feGaussianBlur stdDeviation="4.7988"/>
<feComposite in2="hardAlpha" operator="out"/>
<feColorMatrix type="matrix" values="0 0 0 0 0.263281 0 0 0 0 0.19884 0 0 0 0 0.150509 0 0 0 0.3 0"/>
<feBlend mode="normal" in2="BackgroundImageFix" result="effect1_dropShadow_197_57"/>
<feBlend mode="normal" in="SourceGraphic" in2="effect1_dropShadow_197_57" result="shape"/>
</filter>
<filter id="filter5_d_197_57" x="260.938" y="153.341" width="58.9237" height="74.7573" filterUnits="userSpaceOnUse" color-interpolation-filters="sRGB">
<feFlood flood-opacity="0" result="BackgroundImageFix"/>
<feColorMatrix in="SourceAlpha" type="matrix" values="0 0 0 0 0 0 0 0 0 0 0 0 0 0 0 0 0 0 127 0" result="hardAlpha"/>
<feOffset/>
<feGaussianBlur stdDeviation="4.7988"/>
<feComposite in2="hardAlpha" operator="out"/>
<feColorMatrix type="matrix" values="0 0 0 0 0.263281 0 0 0 0 0.19884 0 0 0 0 0.150509 0 0 0 0.3 0"/>
<feBlend mode="normal" in2="BackgroundImageFix" result="effect1_dropShadow_197_57"/>
<feBlend mode="normal" in="SourceGraphic" in2="effect1_dropShadow_197_57" result="shape"/>
</filter>
<filter id="filter6_d_197_57" x="257.1" y="149.503" width="66.6014" height="82.4324" filterUnits="userSpaceOnUse" color-interpolation-filters="sRGB">
<feFlood flood-opacity="0" result="BackgroundImageFix"/>
<feColorMatrix in="SourceAlpha" type="matrix" values="0 0 0 0 0 0 0 0 0 0 0 0 0 0 0 0 0 0 127 0" result="hardAlpha"/>
<feOffset/>
<feGaussianBlur stdDeviation="4.7988"/>
<feComposite in2="hardAlpha" operator="out"/>
<feColorMatrix type="matrix" values="0 0 0 0 0.263281 0 0 0 0 0.19884 0 0 0 0 0.150509 0 0 0 0.3 0"/>
<feBlend mode="normal" in2="BackgroundImageFix" result="effect1_dropShadow_197_57"/>
<feBlend mode="normal" in="SourceGraphic" in2="effect1_dropShadow_197_57" result="shape"/>
</filter>
<filter id="filter7_d_197_57" x="47.5294" y="19.5648" width="67.91" height="68.6304" filterUnits="userSpaceOnUse" color-interpolation-filters="sRGB">
<feFlood flood-opacity="0" result="BackgroundImageFix"/>
<feColorMatrix in="SourceAlpha" type="matrix" values="0 0 0 0 0 0 0 0 0 0 0 0 0 0 0 0 0 0 127 0" result="hardAlpha"/>
<feOffset/>
<feGaussianBlur stdDeviation="4.7988"/>
<feComposite in2="hardAlpha" operator="out"/>
<feColorMatrix type="matrix" values="0 0 0 0 0.263281 0 0 0 0 0.19884 0 0 0 0 0.150509 0 0 0 0.3 0"/>
<feBlend mode="normal" in2="BackgroundImageFix" result="effect1_dropShadow_197_57"/>
<feBlend mode="normal" in="SourceGraphic" in2="effect1_dropShadow_197_57" result="shape"/>
</filter>
<filter id="filter8_d_197_57" x="2.89068" y="216.784" width="96.2831" height="77.6044" filterUnits="userSpaceOnUse" color-interpolation-filters="sRGB">
<feFlood flood-opacity="0" result="BackgroundImageFix"/>
<feColorMatrix in="SourceAlpha" type="matrix" values="0 0 0 0 0 0 0 0 0 0 0 0 0 0 0 0 0 0 127 0" result="hardAlpha"/>
<feOffset/>
<feGaussianBlur stdDeviation="4.7988"/>
<feComposite in2="hardAlpha" operator="out"/>
<feColorMatrix type="matrix" values="0 0 0 0 0.263281 0 0 0 0 0.19884 0 0 0 0 0.150509 0 0 0 0.3 0"/>
<feBlend mode="normal" in2="BackgroundImageFix" result="effect1_dropShadow_197_57"/>
<feBlend mode="normal" in="SourceGraphic" in2="effect1_dropShadow_197_57" result="shape"/>
</filter>
</defs>
</svg>
