<svg width="118" height="118" viewBox="0 0 118 118" fill="none" xmlns="http://www.w3.org/2000/svg">
<g filter="url(#filter0_d_183_501)">
<path d="M68.5179 87.5179C67.0179 87.7857 66.4643 86.8571 66.4643 86.0893C66.4643 85.125 66.5 80.1964 66.5 76.2143C66.5 73.4286 65.5714 71.6607 64.4821 70.7321C71.0893 70 78.0536 69.0893 78.0536 57.6786C78.0536 54.4286 76.8929 52.8036 75 50.7143C75.3036 49.9464 76.3214 46.7857 74.6964 42.6786C72.2143 41.9107 66.5357 45.875 66.5357 45.875C64.1786 45.2143 61.625 44.875 59.1071 44.875C56.5893 44.875 54.0357 45.2143 51.6786 45.875C51.6786 45.875 46 41.9107 43.5179 42.6786C41.8929 46.7679 42.8929 49.9286 43.2143 50.7143C41.3214 52.8036 40.4286 54.4286 40.4286 57.6786C40.4286 69.0357 47.0893 70 53.6964 70.7321C52.8393 71.5 52.0714 72.8214 51.8036 74.7143C50.1071 75.4821 45.7679 76.8036 43.1786 72.2321C41.5536 69.4107 38.625 69.1786 38.625 69.1786C35.7321 69.1429 38.4286 71 38.4286 71C40.3571 71.8929 41.7143 75.3214 41.7143 75.3214C43.4464 80.625 51.7321 78.8393 51.7321 78.8393C51.7321 81.3214 51.7679 85.3571 51.7679 86.0893C51.7679 86.8571 51.2321 87.7857 49.7143 87.5179C37.9286 83.5714 29.6786 72.3571 29.6786 59.25C29.6786 42.8572 42.2143 30.4107 58.6071 30.4107C75 30.4107 88.2857 42.8572 88.2857 59.25C88.3036 72.3571 80.3035 83.5893 68.5179 87.5179Z" fill="#FBFBFB"/>
<path d="M43.0357 73.6607C42.875 73.7679 42.5714 73.6607 42.375 73.3929C42.1786 73.125 42.1786 72.8214 42.375 72.6964C42.5714 72.5357 42.875 72.6607 43.0357 72.9286C43.2321 73.1964 43.2321 73.5179 43.0357 73.6607Z" fill="#FBFBFB"/>
<path d="M41.875 71.9286C41.7143 72.0893 41.4464 72 41.25 71.8214C41.0536 71.5893 41.0179 71.3214 41.1786 71.1964C41.3393 71.0357 41.6071 71.125 41.8036 71.3036C42 71.5357 42.0357 71.8036 41.875 71.9286Z" fill="#FBFBFB"/>
<path d="M40.6786 70.6071C40.6071 70.7679 40.375 70.8036 40.1786 70.6786C39.9464 70.5714 39.8393 70.375 39.9107 70.2143C39.9821 70.1071 40.1786 70.0536 40.4107 70.1429C40.6429 70.2679 40.75 70.4643 40.6786 70.6071Z" fill="#FBFBFB"/>
<path d="M44.6607 75.2857C44.5 75.4821 44.1607 75.4464 43.8929 75.1786C43.625 74.9464 43.5536 74.6071 43.7321 74.4464C43.8929 74.25 44.2321 74.2857 44.5 74.5536C44.7321 74.7857 44.8214 75.1429 44.6607 75.2857Z" fill="#FBFBFB"/>
<path d="M46.8571 76.25C46.7857 76.4821 46.4286 76.5893 46.125 76.4821C45.7857 76.4107 45.5536 76.1429 45.625 75.9107C45.6964 75.6786 46.0536 75.5714 46.3571 75.6429C46.7143 75.75 46.9464 76.0179 46.8571 76.25Z" fill="#FBFBFB"/>
<path d="M49.3036 76.4464C49.3036 76.6786 49.0357 76.875 48.6786 76.875C48.2857 76.9107 48.0179 76.7143 48.0179 76.4464C48.0179 76.2143 48.2857 76.0179 48.6429 76.0179C48.9821 75.9821 49.3036 76.1786 49.3036 76.4464Z" fill="#FBFBFB"/>
<path d="M51 76.6071C50.6607 76.6786 50.3393 76.5357 50.3036 76.3036C50.2679 76.0357 50.5 75.8036 50.8393 75.7321C51.1786 75.6964 51.5 75.8393 51.5357 76.0714C51.5893 76.3036 51.3571 76.5357 51 76.6071Z" fill="#FBFBFB"/>
<path fill-rule="evenodd" clip-rule="evenodd" d="M90.4286 19H27.5714C22.8393 19 19 22.8393 19 27.5714V90.4286C19 95.1607 22.8393 99 27.5714 99H90.4286C95.1607 99 99 95.1607 99 90.4286V27.5714C99 22.8393 95.1607 19 90.4286 19ZM66.4643 86.0893C66.4643 86.8571 67.0179 87.7857 68.5179 87.5179C80.3035 83.5893 88.3036 72.3571 88.2857 59.25C88.2857 42.8572 75 30.4107 58.6071 30.4107C42.2143 30.4107 29.6786 42.8572 29.6786 59.25C29.6786 72.3571 37.9286 83.5714 49.7143 87.5179C51.2321 87.7857 51.7679 86.8571 51.7679 86.0893C51.7679 85.3571 51.7321 81.3214 51.7321 78.8393C51.7321 78.8393 43.4464 80.625 41.7143 75.3214C41.7143 75.3214 40.3571 71.8929 38.4286 71C38.4286 71 35.7321 69.1429 38.625 69.1786C38.625 69.1786 41.5536 69.4107 43.1786 72.2321C45.7679 76.8036 50.1071 75.4821 51.8036 74.7143C52.0714 72.8214 52.8393 71.5 53.6964 70.7321C47.0893 70 40.4286 69.0357 40.4286 57.6786C40.4286 54.4286 41.3214 52.8036 43.2143 50.7143C42.8929 49.9286 41.8929 46.7679 43.5179 42.6786C46 41.9107 51.6786 45.875 51.6786 45.875C54.0357 45.2143 56.5893 44.875 59.1071 44.875C61.625 44.875 64.1786 45.2143 66.5357 45.875C66.5357 45.875 72.2143 41.9107 74.6964 42.6786C76.3214 46.7857 75.3036 49.9464 75 50.7143C76.8929 52.8036 78.0536 54.4286 78.0536 57.6786C78.0536 69.0893 71.0893 70 64.4821 70.7321C65.5714 71.6607 66.5 73.4286 66.5 76.2143C66.5 80.1964 66.4643 85.125 66.4643 86.0893ZM50.3036 76.3036C50.3393 76.5357 50.6607 76.6786 51 76.6071C51.3571 76.5357 51.5893 76.3036 51.5357 76.0714C51.5 75.8393 51.1786 75.6964 50.8393 75.7321C50.5 75.8036 50.2679 76.0357 50.3036 76.3036ZM48.6786 76.875C49.0357 76.875 49.3036 76.6786 49.3036 76.4464C49.3036 76.1786 48.9821 75.9821 48.6429 76.0179C48.2857 76.0179 48.0179 76.2143 48.0179 76.4464C48.0179 76.7143 48.2857 76.9107 48.6786 76.875ZM46.125 76.4821C46.4286 76.5893 46.7857 76.4821 46.8571 76.25C46.9464 76.0179 46.7143 75.75 46.3571 75.6429C46.0536 75.5714 45.6964 75.6786 45.625 75.9107C45.5536 76.1429 45.7857 76.4107 46.125 76.4821ZM43.8929 75.1786C44.1607 75.4464 44.5 75.4821 44.6607 75.2857C44.8214 75.1429 44.7321 74.7857 44.5 74.5536C44.2321 74.2857 43.8929 74.25 43.7321 74.4464C43.5536 74.6071 43.625 74.9464 43.8929 75.1786ZM42.375 73.3929C42.5714 73.6607 42.875 73.7679 43.0357 73.6607C43.2321 73.5179 43.2321 73.1964 43.0357 72.9286C42.875 72.6607 42.5714 72.5357 42.375 72.6964C42.1786 72.8214 42.1786 73.125 42.375 73.3929ZM41.25 71.8214C41.4464 72 41.7143 72.0893 41.875 71.9286C42.0357 71.8036 42 71.5357 41.8036 71.3036C41.6071 71.125 41.3393 71.0357 41.1786 71.1964C41.0179 71.3214 41.0536 71.5893 41.25 71.8214ZM40.1786 70.6786C40.375 70.8036 40.6071 70.7679 40.6786 70.6071C40.75 70.4643 40.6429 70.2679 40.4107 70.1429C40.1786 70.0536 39.9821 70.1071 39.9107 70.2143C39.8393 70.375 39.9464 70.5714 40.1786 70.6786Z" fill="#A48DB2"/>
<path d="M90.4286 16.6H27.5714C21.5138 16.6 16.6 21.5138 16.6 27.5714V90.4286C16.6 96.4862 21.5138 101.4 27.5714 101.4H90.4286C96.4862 101.4 101.4 96.4862 101.4 90.4286V27.5714C101.4 21.5138 96.4862 16.6 90.4286 16.6Z" stroke="#FBFBFB" stroke-width="4.8"/>
</g>
<defs>
<filter id="filter0_d_183_501" x="0.870195" y="0.869951" width="116.26" height="116.26" filterUnits="userSpaceOnUse" color-interpolation-filters="sRGB">
<feFlood flood-opacity="0" result="BackgroundImageFix"/>
<feColorMatrix in="SourceAlpha" type="matrix" values="0 0 0 0 0 0 0 0 0 0 0 0 0 0 0 0 0 0 127 0" result="hardAlpha"/>
<feOffset/>
<feGaussianBlur stdDeviation="6.665"/>
<feComposite in2="hardAlpha" operator="out"/>
<feColorMatrix type="matrix" values="0 0 0 0 0.263281 0 0 0 0 0.19884 0 0 0 0 0.150509 0 0 0 0.3 0"/>
<feBlend mode="normal" in2="BackgroundImageFix" result="effect1_dropShadow_183_501"/>
<feBlend mode="normal" in="SourceGraphic" in2="effect1_dropShadow_183_501" result="shape"/>
</filter>
</defs>
</svg>
