<svg width="118" height="118" viewBox="0 0 118 118" fill="none" xmlns="http://www.w3.org/2000/svg">
<g filter="url(#filter0_d_183_521)">
<mask id="path-1-outside-1_183_521" maskUnits="userSpaceOnUse" x="14" y="14" width="90" height="90" fill="black">
<rect fill="white" x="14" y="14" width="90" height="90"/>
<path d="M87 19H31C24.3726 19 19 24.3726 19 31V87C19 93.6274 24.3726 99 31 99H87C93.6274 99 99 93.6274 99 87V31C99 24.3726 93.6274 19 87 19Z"/>
<path d="M43.6876 80.0938V57.9063L30.8751 48.0625V75.4063C30.8751 78.5313 32.4376 80.0938 35.5626 80.0938"/>
<path d="M43.0629 57.7501L59.0004 69.7813L74.9379 57.7501V42.4376L59.0004 54.4688L43.0629 42.4376"/>
<path d="M74.3123 80.0938V57.9063L87.1248 48.0625V75.4063C87.1248 78.5313 85.5623 80.0938 82.4373 80.0938"/>
<path d="M30.8751 48.3751L43.6876 58.2188V42.9063L39.0001 39.3126C34.7814 36.0313 30.8751 39.3126 30.8751 43.3751"/>
<path d="M87.1248 48.3751L74.3123 58.2188V42.9063L78.9998 39.3126C83.2186 36.0313 87.1248 39.3126 87.1248 43.3751"/>
</mask>
<path d="M87 19H31C24.3726 19 19 24.3726 19 31V87C19 93.6274 24.3726 99 31 99H87C93.6274 99 99 93.6274 99 87V31C99 24.3726 93.6274 19 87 19Z" fill="#FBFBFB"/>
<path d="M43.6876 80.0938V57.9063L30.8751 48.0625V75.4063C30.8751 78.5313 32.4376 80.0938 35.5626 80.0938" fill="#7C97B6"/>
<path d="M43.0629 57.7501L59.0004 69.7813L74.9379 57.7501V42.4376L59.0004 54.4688L43.0629 42.4376" fill="#C07F7F"/>
<path d="M74.3123 80.0938V57.9063L87.1248 48.0625V75.4063C87.1248 78.5313 85.5623 80.0938 82.4373 80.0938" fill="#96A991"/>
<path d="M30.8751 48.3751L43.6876 58.2188V42.9063L39.0001 39.3126C34.7814 36.0313 30.8751 39.3126 30.8751 43.3751" fill="#A95B5B"/>
<path d="M87.1248 48.3751L74.3123 58.2188V42.9063L78.9998 39.3126C83.2186 36.0313 87.1248 39.3126 87.1248 43.3751" fill="#EBD495"/>
<path d="M43.6876 57.9063H48.4876V55.541L46.612 54.0999L43.6876 57.9063ZM30.8751 48.0625L33.7995 44.2562L26.0751 38.3216V48.0625H30.8751ZM59.0004 69.7813L56.1084 73.6123L59.0004 75.7955L61.8924 73.6123L59.0004 69.7813ZM74.9379 57.7501L77.8299 61.5811L79.7379 60.1407V57.7501H74.9379ZM74.9379 42.4376H79.7379V32.7999L72.0459 38.6066L74.9379 42.4376ZM59.0004 54.4688L56.1084 58.2998L59.0004 60.483L61.8924 58.2998L59.0004 54.4688ZM74.3123 57.9063L71.3879 54.0999L69.5123 55.541V57.9063H74.3123ZM87.1248 48.0625H91.9248V38.3216L84.2004 44.2562L87.1248 48.0625ZM43.6876 58.2188L40.7633 62.0252L48.4876 67.9597V58.2188H43.6876ZM43.6876 42.9063H48.4876V40.538L46.6081 39.097L43.6876 42.9063ZM39.0001 39.3126L36.0532 43.1015L36.0664 43.1117L36.0796 43.1219L39.0001 39.3126ZM74.3123 58.2188H69.5123V67.9597L77.2367 62.0252L74.3123 58.2188ZM74.3123 42.9063L71.3918 39.097L69.5123 40.538V42.9063H74.3123ZM78.9998 39.3126L81.9203 43.1219L81.9335 43.1117L81.9467 43.1015L78.9998 39.3126ZM31 23.8H87V14.2H31V23.8ZM87 23.8C90.9764 23.8 94.2 27.0235 94.2 31H103.8C103.8 21.7216 96.2784 14.2 87 14.2V23.8ZM94.2 31V87H103.8V31H94.2ZM94.2 87C94.2 90.9764 90.9764 94.2 87 94.2V103.8C96.2784 103.8 103.8 96.2784 103.8 87H94.2ZM87 94.2H31V103.8H87V94.2ZM31 94.2C27.0235 94.2 23.8 90.9764 23.8 87H14.2C14.2 96.2784 21.7216 103.8 31 103.8V94.2ZM23.8 87V31H14.2V87H23.8ZM23.8 31C23.8 27.0235 27.0235 23.8 31 23.8V14.2C21.7216 14.2 14.2 21.7216 14.2 31H23.8ZM48.4876 80.0938V57.9063H38.8876V80.0938H48.4876ZM46.612 54.0999L33.7995 44.2562L27.9507 51.8688L40.7633 61.7126L46.612 54.0999ZM26.0751 48.0625V75.4063H35.6751V48.0625H26.0751ZM26.0751 75.4063C26.0751 77.7087 26.654 80.3171 28.6529 82.316C30.6518 84.3149 33.2602 84.8938 35.5626 84.8938V75.2938C35.3702 75.2938 35.2328 75.2816 35.1428 75.2688C35.0532 75.256 35.0197 75.2438 35.0297 75.2471C35.0412 75.251 35.0955 75.2705 35.1758 75.3186C35.2577 75.3678 35.3505 75.4371 35.4411 75.5278C35.5317 75.6184 35.6011 75.7111 35.6503 75.7931C35.6984 75.8734 35.7179 75.9277 35.7218 75.9392C35.7251 75.9491 35.7129 75.9157 35.7001 75.8261C35.6873 75.7361 35.6751 75.5987 35.6751 75.4063H26.0751ZM40.1709 61.5811L56.1084 73.6123L61.8924 65.9504L45.9549 53.9191L40.1709 61.5811ZM61.8924 73.6123L77.8299 61.5811L72.0459 53.9191L56.1084 65.9504L61.8924 73.6123ZM79.7379 57.7501V42.4376H70.1379V57.7501H79.7379ZM72.0459 38.6066L56.1084 50.6379L61.8924 58.2998L77.8299 46.2686L72.0459 38.6066ZM61.8924 50.6379L45.9549 38.6066L40.1709 46.2686L56.1084 58.2998L61.8924 50.6379ZM79.1123 80.0938V57.9063H69.5123V80.0938H79.1123ZM77.2367 61.7126L90.0492 51.8688L84.2004 44.2562L71.3879 54.0999L77.2367 61.7126ZM82.3248 48.0625V75.4063H91.9248V48.0625H82.3248ZM82.3248 75.4063C82.3248 75.5987 82.3127 75.7361 82.2998 75.8261C82.287 75.9157 82.2748 75.9491 82.2782 75.9392C82.282 75.9277 82.3015 75.8734 82.3497 75.7931C82.3989 75.7111 82.4682 75.6184 82.5588 75.5278C82.6495 75.4371 82.7422 75.3678 82.8242 75.3186C82.9045 75.2705 82.9587 75.251 82.9702 75.2471C82.9802 75.2438 82.9467 75.256 82.8571 75.2688C82.7671 75.2816 82.6298 75.2938 82.4373 75.2938V84.8938C84.7397 84.8938 87.3481 84.3149 89.3471 82.316C91.346 80.3171 91.9248 77.7087 91.9248 75.4063H82.3248ZM27.9507 52.1814L40.7633 62.0252L46.612 54.4125L33.7995 44.5688L27.9507 52.1814ZM48.4876 58.2188V42.9063H38.8876V58.2188H48.4876ZM46.6081 39.097L41.9206 35.5033L36.0796 43.1219L40.7671 46.7157L46.6081 39.097ZM41.947 35.5237C38.4979 32.8411 34.3034 32.3879 30.8548 34.4929C27.7388 36.3948 26.0751 39.8983 26.0751 43.3751H35.6751C35.6751 43.1228 35.737 42.9194 35.8063 42.7866C35.8777 42.65 35.9237 42.6459 35.8564 42.687C35.8201 42.7091 35.7621 42.7365 35.6863 42.7545C35.6083 42.7731 35.5418 42.7745 35.5009 42.7707C35.4018 42.7613 35.5917 42.7425 36.0532 43.1015L41.947 35.5237ZM84.2004 44.5688L71.3879 54.4125L77.2367 62.0252L90.0492 52.1814L84.2004 44.5688ZM79.1123 58.2188V42.9063H69.5123V58.2188H79.1123ZM77.2328 46.7157L81.9203 43.1219L76.0793 35.5033L71.3918 39.097L77.2328 46.7157ZM81.9467 43.1015C82.4083 42.7425 82.5981 42.7613 82.499 42.7707C82.4581 42.7745 82.3916 42.7731 82.3137 42.7545C82.2378 42.7365 82.1798 42.7091 82.1435 42.687C82.0762 42.6459 82.1223 42.65 82.1936 42.7866C82.2629 42.9194 82.3248 43.1228 82.3248 43.3751H91.9248C91.9248 39.8983 90.2611 36.3948 87.1452 34.4929C83.6965 32.3879 79.502 32.8411 76.0529 35.5237L81.9467 43.1015Z" fill="#FBFBFB" mask="url(#path-1-outside-1_183_521)"/>
</g>
<defs>
<filter id="filter0_d_183_521" x="0.870195" y="0.869951" width="116.26" height="116.26" filterUnits="userSpaceOnUse" color-interpolation-filters="sRGB">
<feFlood flood-opacity="0" result="BackgroundImageFix"/>
<feColorMatrix in="SourceAlpha" type="matrix" values="0 0 0 0 0 0 0 0 0 0 0 0 0 0 0 0 0 0 127 0" result="hardAlpha"/>
<feOffset/>
<feGaussianBlur stdDeviation="6.665"/>
<feComposite in2="hardAlpha" operator="out"/>
<feColorMatrix type="matrix" values="0 0 0 0 0.263281 0 0 0 0 0.19884 0 0 0 0 0.150509 0 0 0 0.3 0"/>
<feBlend mode="normal" in2="BackgroundImageFix" result="effect1_dropShadow_183_521"/>
<feBlend mode="normal" in="SourceGraphic" in2="effect1_dropShadow_183_521" result="shape"/>
</filter>
</defs>
</svg>
