<svg width="118" height="118" viewBox="0 0 118 118" fill="none" xmlns="http://www.w3.org/2000/svg">
<g filter="url(#filter0_d_183_510)">
<path d="M87.1667 87.1711H75.3144V68.6067C75.3144 64.1778 75.2278 58.4833 69.1467 58.4833C62.9711 58.4833 62.03 63.3067 62.03 68.2856V87.1722H50.1689V48.9944H61.5522V54.2078H61.7144C63.2989 51.2078 67.17 48.0422 72.9433 48.0422C84.95 48.0422 87.1678 55.9467 87.1678 66.23L87.1667 87.1711Z" fill="#FBFBFB"/>
<path d="M42.7267 87.1711H30.8556V48.9944H42.7267V87.1711Z" fill="#FBFBFB"/>
<path d="M36.7911 43.7744C32.9878 43.7744 29.9133 40.6922 29.9133 36.8922C29.9133 33.0978 32.9878 30.0156 36.7911 30.0156C40.5856 30.0156 43.6678 33.0978 43.6678 36.8922C43.6678 40.6922 40.5856 43.7744 36.7911 43.7744Z" fill="#FBFBFB"/>
<path fill-rule="evenodd" clip-rule="evenodd" d="M93.0744 19H24.9056C21.6456 19 19 21.5833 19 24.7644V93.2278C19 96.4133 21.6456 99 24.9056 99H93.0744C96.3367 99 99 96.4133 99 93.2278V24.7644C99 21.5833 96.3367 19 93.0744 19ZM30.8556 87.1711H42.7267V48.9944H30.8556V87.1711ZM29.9133 36.8922C29.9133 40.6922 32.9878 43.7744 36.7911 43.7744C40.5856 43.7744 43.6678 40.6922 43.6678 36.8922C43.6678 33.0978 40.5856 30.0156 36.7911 30.0156C32.9878 30.0156 29.9133 33.0978 29.9133 36.8922ZM75.3144 87.1711H87.1667L87.1678 66.23C87.1678 55.9467 84.95 48.0422 72.9433 48.0422C67.17 48.0422 63.2989 51.2078 61.7144 54.2078H61.5522V48.9944H50.1689V87.1722H62.03V68.2856C62.03 63.3067 62.9711 58.4833 69.1467 58.4833C75.2278 58.4833 75.3144 64.1778 75.3144 68.6067V87.1711Z" fill="#96A991"/>
<path d="M93.0744 16.6H24.9056C20.3748 16.6 16.6 20.2037 16.6 24.7644V93.2278C16.6 97.79 20.3718 101.4 24.9056 101.4H93.0744C97.6003 101.4 101.4 97.7998 101.4 93.2278V24.7644C101.4 20.1939 97.5973 16.6 93.0744 16.6Z" stroke="#FBFBFB" stroke-width="4.8"/>
</g>
<defs>
<filter id="filter0_d_183_510" x="0.870195" y="0.869951" width="116.26" height="116.26" filterUnits="userSpaceOnUse" color-interpolation-filters="sRGB">
<feFlood flood-opacity="0" result="BackgroundImageFix"/>
<feColorMatrix in="SourceAlpha" type="matrix" values="0 0 0 0 0 0 0 0 0 0 0 0 0 0 0 0 0 0 127 0" result="hardAlpha"/>
<feOffset/>
<feGaussianBlur stdDeviation="6.665"/>
<feComposite in2="hardAlpha" operator="out"/>
<feColorMatrix type="matrix" values="0 0 0 0 0.263281 0 0 0 0 0.19884 0 0 0 0 0.150509 0 0 0 0.3 0"/>
<feBlend mode="normal" in2="BackgroundImageFix" result="effect1_dropShadow_183_510"/>
<feBlend mode="normal" in="SourceGraphic" in2="effect1_dropShadow_183_510" result="shape"/>
</filter>
</defs>
</svg>
