<svg width="118" height="118" viewBox="0 0 118 118" fill="none" xmlns="http://www.w3.org/2000/svg">
<g filter="url(#filter0_d_183_504)">
<path fill-rule="evenodd" clip-rule="evenodd" d="M59.8393 66.0179C59.8393 61.7143 57.8036 58 53.5893 56.8036C56.6607 55.3393 58.2679 53.6429 58.2679 50.1964C58.2679 43.375 53.1786 41.7143 47.3036 41.7143H31.1429V76H47.7679C54 75.9643 59.8393 72.9821 59.8393 66.0179ZM46.7321 70.1429C49.8036 70.1429 52.3036 69.0536 52.3036 65.6071C52.3036 62.0893 50.2143 60.7143 46.8929 60.6964H38.6786V70.1429H46.7321ZM45.7679 47C48.4821 47 50.9286 47.75 50.9286 50.9107C50.9286 53.8214 49.0179 55 46.3214 55H38.6964V47H45.7679Z" fill="#FBFBFB"/>
<path fill-rule="evenodd" clip-rule="evenodd" d="M86.8571 63.375C86.8571 56.0357 82.5536 49.9107 74.7857 49.9107C67.2143 49.9107 62.0893 55.5893 62.0893 63.0536C62.0893 70.7857 66.9643 76.0893 74.7857 76.0893C80.7143 76.0893 84.5536 73.4286 86.4107 67.7321H80.3929C79.7321 69.8571 77.0714 70.9643 75 70.9643C71 70.9643 68.9107 68.625 68.9107 64.6607H86.8036C86.8092 64.5319 86.8165 64.3995 86.824 64.2652C86.8403 63.9716 86.8571 63.6691 86.8571 63.375ZM68.8929 60.3571C69.1071 57.0893 71.2857 55.0536 74.5536 55.0536C77.9821 55.0536 79.6964 57.0536 80 60.3571H68.8929Z" fill="#FBFBFB"/>
<path d="M67.5179 46.3214H81.4107V42.9464H67.5179V46.3214Z" fill="#FBFBFB"/>
<path d="M50.9286 50.9107C50.9286 47.75 48.4821 47 45.7679 47H38.6964V55H46.3214C49.0179 55 50.9286 53.8214 50.9286 50.9107Z" fill="#C07F7F"/>
<path fill-rule="evenodd" clip-rule="evenodd" d="M99 90.4286V27.5714C99 22.8393 95.1607 19 90.4286 19H27.5714C22.8393 19 19 22.8393 19 27.5714V90.4286C19 95.1607 22.8393 99 27.5714 99H90.4286C95.1607 99 99 95.1607 99 90.4286ZM81.4107 46.3214H67.5179V42.9464H81.4107V46.3214ZM53.5893 56.8036C57.8036 58 59.8393 61.7143 59.8393 66.0179C59.8393 72.9821 54 75.9643 47.7679 76H31.1429V41.7143H47.3036C53.1786 41.7143 58.2679 43.375 58.2679 50.1964C58.2679 53.6429 56.6607 55.3393 53.5893 56.8036ZM74.7857 49.9107C82.5536 49.9107 86.8571 56.0357 86.8571 63.375C86.8571 63.6691 86.8403 63.9716 86.824 64.2652C86.8165 64.3995 86.8092 64.5319 86.8036 64.6607H68.9107C68.9107 68.625 71 70.9643 75 70.9643C77.0714 70.9643 79.7321 69.8571 80.3929 67.7321H86.4107C84.5536 73.4286 80.7143 76.0893 74.7857 76.0893C66.9643 76.0893 62.0893 70.7857 62.0893 63.0536C62.0893 55.5893 67.2143 49.9107 74.7857 49.9107Z" fill="#C07F7F"/>
<path d="M52.3036 65.6071C52.3036 69.0536 49.8036 70.1429 46.7321 70.1429H38.6786V60.6964H46.8929C50.2143 60.7143 52.3036 62.0893 52.3036 65.6071Z" fill="#C07F7F"/>
<path d="M74.5536 55.0536C71.2857 55.0536 69.1071 57.0893 68.8929 60.3571H80C79.6964 57.0536 77.9821 55.0536 74.5536 55.0536Z" fill="#C07F7F"/>
<path d="M101.4 90.4286V27.5714C101.4 21.5138 96.4862 16.6 90.4286 16.6H27.5714C21.5138 16.6 16.6 21.5138 16.6 27.5714V90.4286C16.6 96.4862 21.5138 101.4 27.5714 101.4H90.4286C96.4862 101.4 101.4 96.4862 101.4 90.4286Z" stroke="#FBFBFB" stroke-width="4.8"/>
</g>
<defs>
<filter id="filter0_d_183_504" x="0.870195" y="0.869951" width="116.26" height="116.26" filterUnits="userSpaceOnUse" color-interpolation-filters="sRGB">
<feFlood flood-opacity="0" result="BackgroundImageFix"/>
<feColorMatrix in="SourceAlpha" type="matrix" values="0 0 0 0 0 0 0 0 0 0 0 0 0 0 0 0 0 0 127 0" result="hardAlpha"/>
<feOffset/>
<feGaussianBlur stdDeviation="6.665"/>
<feComposite in2="hardAlpha" operator="out"/>
<feColorMatrix type="matrix" values="0 0 0 0 0.263281 0 0 0 0 0.19884 0 0 0 0 0.150509 0 0 0 0.3 0"/>
<feBlend mode="normal" in2="BackgroundImageFix" result="effect1_dropShadow_183_504"/>
<feBlend mode="normal" in="SourceGraphic" in2="effect1_dropShadow_183_504" result="shape"/>
</filter>
</defs>
</svg>
