<svg width="590" height="210" viewBox="0 0 590 210" fill="none" xmlns="http://www.w3.org/2000/svg">
<path d="M48.4328 97.9613C46.8907 101.348 44.3847 103.815 40.9149 105.363C37.4451 106.911 33.5415 107.685 29.2043 107.685C20.9153 107.685 13.9756 105.847 8.38538 102.17C2.79513 98.3967 0 92.9302 0 85.7706C0 76.4824 4.38546 70.2419 13.1564 67.0491C21.9273 63.8563 33.0596 62.2599 46.5533 62.2599V49.6337C46.5533 45.2799 45.975 41.8936 44.8184 39.4748C43.7582 37.056 41.6377 35.8466 38.4571 35.8466C31.6138 35.8466 28.1922 40.2488 28.1922 49.0532C28.1922 50.7948 28.385 53.2136 28.7705 56.3096C28.0958 56.7934 26.9392 57.132 25.3007 57.3255C23.6622 57.519 22.2164 57.6158 20.9634 57.6158C16.337 57.6158 12.4817 56.6482 9.39741 54.7132C6.31313 52.6814 4.77099 49.6337 4.77099 45.5701C4.77099 39.1845 8.33719 34.5888 15.4696 31.783C22.602 28.9772 30.6018 27.5743 39.4691 27.5743C50.9388 27.5743 59.7097 29.6061 65.7818 33.6697C71.854 37.7332 74.8901 44.7961 74.8901 54.8583V87.5121C74.8901 93.801 76.3841 98.8804 79.3719 102.751C77.9262 104.008 75.9021 104.976 73.2998 105.653C70.7938 106.33 68.3842 106.669 66.071 106.669C57.1073 106.669 51.2279 103.766 48.4328 97.9613ZM37.3005 97.3808C40.5775 97.3808 42.9389 95.9295 44.3847 93.027C45.8304 90.1244 46.5533 86.5446 46.5533 82.2875V69.5162C40.4811 69.5162 35.9029 70.7256 32.8186 73.1444C29.7344 75.5632 28.1922 79.5784 28.1922 85.1901C28.1922 88.7699 28.9151 91.7208 30.3609 94.0429C31.903 96.2682 34.2162 97.3808 37.3005 97.3808Z" fill="#7C97B6"/>
<path d="M88.4881 30.4768L111.331 28.7353L112.488 41.7968C114.415 36.7657 117.355 33.1375 121.307 30.9122C125.258 28.6869 130.174 27.5743 136.053 27.5743C146.848 27.5743 154.125 31.396 157.884 39.0394C161.836 31.396 169.065 27.5743 179.571 27.5743C187.956 27.5743 194.028 29.8963 197.787 34.5404C201.643 39.0878 203.57 45.8604 203.57 54.8583V87.5121C203.57 93.801 205.064 98.8804 208.052 102.751C206.606 104.008 204.582 104.976 201.98 105.653C199.474 106.33 197.064 106.669 194.751 106.669C188.486 106.669 183.667 105.169 180.294 102.17C176.92 99.1707 175.233 94.6234 175.233 88.528V55.1486C175.233 49.924 174.848 45.8604 174.077 42.9578C173.306 40.0553 171.474 38.604 168.583 38.604C165.21 38.604 163.041 40.3939 162.077 43.9737C161.21 47.4568 160.776 52.1493 160.776 58.0511V104.492H132.439V55.1486C132.439 49.924 132.005 45.8604 131.138 42.9578C130.367 40.0553 128.391 38.604 125.21 38.604C122.608 38.604 120.68 39.5715 119.427 41.5066C118.174 43.3449 117.403 45.5701 117.114 48.1824C116.921 50.698 116.825 53.9876 116.825 58.0511V104.492H88.4881V30.4768Z" fill="#7C97B6"/>
<path d="M261.06 97.9613C259.518 101.348 257.012 103.815 253.542 105.363C250.073 106.911 246.169 107.685 241.832 107.685C233.543 107.685 226.603 105.847 221.013 102.17C215.423 98.3967 212.628 92.9302 212.628 85.7706C212.628 76.4824 217.013 70.2419 225.784 67.0491C234.555 63.8563 245.687 62.2599 259.181 62.2599V49.6337C259.181 45.2799 258.603 41.8936 257.446 39.4748C256.386 37.056 254.265 35.8466 251.085 35.8466C244.241 35.8466 240.82 40.2488 240.82 49.0532C240.82 50.7948 241.013 53.2136 241.398 56.3096C240.723 56.7934 239.567 57.132 237.928 57.3255C236.29 57.519 234.844 57.6158 233.591 57.6158C228.965 57.6158 225.109 56.6482 222.025 54.7132C218.941 52.6814 217.399 49.6337 217.399 45.5701C217.399 39.1845 220.965 34.5888 228.097 31.783C235.23 28.9772 243.229 27.5743 252.097 27.5743C263.566 27.5743 272.337 29.6061 278.409 33.6697C284.482 37.7332 287.518 44.7961 287.518 54.8583V87.5121C287.518 93.801 289.012 98.8804 292 102.751C290.554 104.008 288.53 104.976 285.927 105.653C283.421 106.33 281.012 106.669 278.699 106.669C269.735 106.669 263.856 103.766 261.06 97.9613ZM249.928 97.3808C253.205 97.3808 255.567 95.9295 257.012 93.027C258.458 90.1244 259.181 86.5446 259.181 82.2875V69.5162C253.109 69.5162 248.531 70.7256 245.446 73.1444C242.362 75.5632 240.82 79.5784 240.82 85.1901C240.82 88.7699 241.543 91.7208 242.988 94.0429C244.531 96.2682 246.844 97.3808 249.928 97.3808Z" fill="#7C97B6"/>
<path d="M301.116 30.4768L323.959 28.7353L325.115 41.7968C327.043 36.7657 329.983 33.1375 333.934 30.9122C337.886 28.6869 342.802 27.5743 348.681 27.5743C357.356 27.5743 363.621 29.848 367.476 34.3953C371.428 38.9426 373.403 45.7637 373.403 54.8583V87.5121C373.403 93.801 374.897 98.8804 377.885 102.751C376.44 104.008 374.415 104.976 371.813 105.653C369.211 106.33 366.753 106.669 364.44 106.669C358.271 106.669 353.5 105.169 350.127 102.17C346.753 99.1707 345.067 94.6234 345.067 88.528V55.1486C345.067 49.924 344.633 45.8604 343.766 42.9578C342.994 40.0553 341.019 38.604 337.838 38.604C335.236 38.604 333.308 39.5715 332.055 41.5066C330.802 43.3449 330.031 45.5701 329.742 48.1824C329.549 50.698 329.453 53.9876 329.453 58.0511V104.492H301.116V30.4768Z" fill="#7C97B6"/>
<path d="M459.245 87.5121C459.245 93.801 453.365 98.2999 456.352 102.17C454.907 103.428 460.257 104.976 457.655 105.653C455.052 106.33 452.595 106.669 450.281 106.669C441.414 106.669 435.583 103.766 432.788 97.9613C428.547 104.444 421.8 107.685 412.547 107.685C402.523 107.685 395.295 103.96 390.861 96.51C386.427 88.9634 384.211 79.1914 384.211 67.1942C384.211 54.2294 387.536 44.4091 394.186 37.7332C400.933 30.9606 410.716 27.5743 423.535 27.5743C426.234 27.5743 428.692 27.7194 430.908 28.0097V2.90255L459.245 0V87.5121ZM430.908 38.8943C428.692 37.1527 426.234 36.282 423.535 36.282C419.294 36.282 416.499 39.0878 415.15 44.6994C413.8 50.311 413.126 57.5674 413.126 66.4686C413.126 75.4665 413.704 82.7713 414.86 88.3829C416.017 93.8977 418.571 96.6552 422.523 96.6552C425.607 96.6552 427.776 95.2039 429.029 92.3013C430.282 89.302 430.908 85.7222 430.908 81.5619V38.8943Z" fill="#7C97B6"/>
<path d="M517.738 97.9613C516.196 101.348 513.69 103.815 510.22 105.363C506.751 106.911 502.847 107.685 498.51 107.685C490.221 107.685 483.281 105.847 477.691 102.17C472.101 98.3967 469.306 92.9302 469.306 85.7706C469.306 76.4824 473.691 70.2419 482.462 67.0491C491.233 63.8563 502.365 62.2599 515.859 62.2599V49.6337C515.859 45.2799 515.281 41.8936 514.124 39.4748C513.064 37.056 510.943 35.8466 507.763 35.8466C500.919 35.8466 497.498 40.2488 497.498 49.0532C497.498 50.7948 497.691 53.2136 498.076 56.3096C497.401 56.7934 496.245 57.132 494.606 57.3255C492.968 57.519 491.522 57.6158 490.269 57.6158C485.643 57.6158 481.787 56.6482 478.703 54.7132C475.619 52.6814 474.077 49.6337 474.077 45.5701C474.077 39.1845 477.643 34.5888 484.775 31.783C491.908 28.9772 499.907 27.5743 508.775 27.5743C520.244 27.5743 529.015 29.6061 535.087 33.6697C541.16 37.7332 544.196 44.7961 544.196 54.8583V87.5121C544.196 93.801 545.69 98.8804 548.678 102.751C547.232 104.008 545.208 104.976 542.605 105.653C540.099 106.33 537.69 106.669 535.377 106.669C526.413 106.669 520.534 103.766 517.738 97.9613ZM506.606 97.3808C509.883 97.3808 512.245 95.9295 513.69 93.027C515.136 90.1244 515.859 86.5446 515.859 82.2875V69.5162C509.787 69.5162 505.209 70.7256 502.124 73.1444C499.04 75.5632 497.498 79.5784 497.498 85.1901C497.498 88.7699 498.221 91.7208 499.666 94.0429C501.209 96.2682 503.522 97.3808 506.606 97.3808Z" fill="#7C97B6"/>
<path d="M186.864 138.597C180.695 138.597 177.611 148.563 177.611 168.493C177.611 176.04 178.719 181.942 180.936 186.199C183.249 190.359 187.442 192.44 193.514 192.44C197.273 192.44 200.502 191.472 203.201 189.537C205.996 187.505 208.164 184.699 209.707 181.12C211.442 181.507 212.791 182.474 213.755 184.022C214.719 185.473 215.2 187.167 215.2 189.102C215.2 195.874 212.502 201.05 207.104 204.63C201.803 208.21 195.345 210 187.731 210C175.298 210 165.659 206.42 158.816 199.261C152.069 192.004 148.696 181.99 148.696 169.219C148.696 156.448 152.166 146.724 159.105 140.048C166.141 133.276 176.069 129.889 188.888 129.889C196.984 129.889 203.683 131.292 208.984 134.098C214.381 136.904 217.08 141.596 217.08 148.176C217.08 152.142 215.49 155.142 212.309 157.173C209.225 159.205 205.369 160.221 200.743 160.221C199.49 160.221 198.044 160.124 196.406 159.931C194.864 159.737 193.755 159.399 193.08 158.915C193.466 155.819 193.659 153.352 193.659 151.513C193.659 147.74 193.177 144.644 192.213 142.225C191.346 139.807 189.562 138.597 186.864 138.597Z" fill="#7C97B6"/>
<path d="M259.857 129.889C272.291 129.889 281.736 133.276 288.194 140.048C294.748 146.724 298.025 156.303 298.025 168.784C298.025 177.008 296.531 184.216 293.543 190.408C290.556 196.6 286.17 201.437 280.387 204.921C274.7 208.307 267.857 210 259.857 210C252.05 210 245.255 208.355 239.472 205.066C233.786 201.776 229.4 197.132 226.316 191.133C223.232 185.135 221.689 178.169 221.689 170.235C221.689 157.56 224.966 147.692 231.521 140.629C238.171 133.469 247.617 129.889 259.857 129.889ZM259.857 201.292C263.809 201.292 266.315 198.341 267.375 192.44C268.532 186.538 269.11 178.894 269.11 169.509C269.11 160.221 268.532 152.771 267.375 147.16C266.315 141.451 263.809 138.597 259.857 138.597C255.906 138.597 253.351 141.451 252.195 147.16C251.135 152.771 250.605 160.221 250.605 169.509C250.605 178.894 251.135 186.538 252.195 192.44C253.351 198.341 255.906 201.292 259.857 201.292Z" fill="#7C97B6"/>
<path d="M370.6 181.99C371.949 182.668 372.961 183.78 373.636 185.328C374.311 186.78 374.648 188.376 374.648 190.117C374.648 194.471 373.202 198.148 370.311 201.147C367.419 204.147 363.708 206.372 359.178 207.823C354.745 209.274 350.07 210 345.155 210C332.721 210 323.083 206.42 316.24 199.261C309.493 192.004 306.119 181.99 306.119 169.219C306.119 156.254 309.685 146.482 316.818 139.903C324.047 133.227 334.263 129.889 347.468 129.889C355.95 129.889 363.13 131.631 369.01 135.114C374.889 138.597 377.829 143.87 377.829 150.933C377.829 159.641 374.696 165.639 368.431 168.929C362.166 172.122 353.54 173.718 342.552 173.718C339.372 173.718 336.914 173.573 335.179 173.283C335.564 179.378 336.914 184.119 339.227 187.505C341.637 190.795 345.54 192.44 350.938 192.44C355.082 192.44 358.938 191.569 362.504 189.827C366.07 187.989 368.769 185.377 370.6 181.99ZM335.034 166.752C341.203 166.752 345.733 165.591 348.624 163.269C351.612 160.85 353.106 156.738 353.106 150.933C353.106 147.45 352.48 144.547 351.227 142.225C350.07 139.807 348.143 138.597 345.444 138.597C338.793 138.597 335.323 147.982 335.034 166.752Z" fill="#7C97B6"/>
<path d="M415.138 115.739V189.827C415.138 196.116 416.632 201.196 419.62 205.066C418.174 206.323 416.15 207.291 413.548 207.968C410.946 208.645 408.488 208.984 406.175 208.984C399.91 208.984 395.09 207.484 391.717 204.485C388.44 201.486 386.801 196.939 386.801 190.843V99.7754C391.293 115.014 409.365 116.465 415.138 115.739Z" fill="#7C97B6"/>
<path d="M458.93 119.005C458.93 128.003 458.496 135.017 457.629 138.597C459.846 135.598 462.689 133.421 466.159 132.066C469.725 130.615 473.628 129.889 477.869 129.889C486.64 129.889 493.002 132.163 496.953 136.71C500.905 141.161 502.881 147.982 502.881 157.173V189.827C502.881 196.116 504.375 201.196 507.363 205.066C505.917 206.323 503.893 207.291 501.291 207.968C498.688 208.645 496.23 208.984 493.917 208.984C487.749 208.984 482.978 207.484 479.604 204.485C476.231 201.486 474.544 196.939 474.544 190.843V157.464C474.544 152.239 474.11 148.176 473.243 145.273C472.472 142.37 470.496 140.919 467.315 140.919C464.713 140.919 462.785 141.887 461.532 143.822C460.279 145.66 459.508 147.885 459.219 150.498C459.026 153.013 458.93 156.303 458.93 160.366V206.807H430.593L430.908 62.2599L459.245 59.3573L458.93 119.005Z" fill="#7C97B6"/>
<path d="M551.832 129.889C564.266 129.889 573.711 133.276 580.169 140.048C586.723 146.724 590 156.303 590 168.784C590 177.008 588.506 184.216 585.518 190.408C582.53 196.6 578.145 201.437 572.362 204.921C566.675 208.307 559.832 210 551.832 210C544.025 210 537.23 208.355 531.447 205.066C525.76 201.776 521.375 197.132 518.291 191.133C515.206 185.135 513.664 178.169 513.664 170.235C513.664 157.56 516.941 147.692 523.495 140.629C530.146 133.469 539.591 129.889 551.832 129.889ZM551.832 201.292C555.784 201.292 558.29 198.341 559.35 192.44C560.507 186.538 561.085 178.894 561.085 169.509C561.085 160.221 560.507 152.771 559.35 147.16C558.29 141.451 555.784 138.597 551.832 138.597C547.88 138.597 545.326 141.451 544.17 147.16C543.109 152.771 542.579 160.221 542.579 169.509C542.579 178.894 543.109 186.538 544.17 192.44C545.326 198.341 547.88 201.292 551.832 201.292Z" fill="#7C97B6"/>
</svg>
