<svg width="51" height="51" viewBox="0 0 51 51" fill="none" xmlns="http://www.w3.org/2000/svg">
<g clip-path="url(#clip0_183_490)">
<rect x="0.560547" y="0.560059" width="50" height="50" rx="7.5" fill="#7C97B6"/>
<path fill-rule="evenodd" clip-rule="evenodd" d="M25.6507 33.7933C24.1298 34.4693 22.4188 34.8073 20.5177 34.8073C16.8844 34.8073 13.8426 34.0046 11.3923 32.3991C8.94196 30.7515 7.7168 28.3645 7.7168 25.2382C7.7168 21.1824 9.63904 18.4574 13.4835 17.0632C17.328 15.6691 22.2075 14.972 28.1221 14.972V9.45865C28.1221 7.5575 27.8686 6.07883 27.3617 5.02264C26.897 3.96645 25.9675 3.43835 24.5734 3.43835C21.5738 3.43835 20.0741 5.36062 20.0741 9.20516C20.0741 9.96562 20.1586 11.0218 20.3275 12.3737C20.0318 12.585 19.5249 12.7328 18.8067 12.8173C18.0885 12.9018 17.4547 12.9441 16.9055 12.9441C14.8777 12.9441 13.1878 12.5216 11.8359 11.6766C10.484 10.7894 9.80803 9.45865 9.80803 7.68424C9.80803 4.8959 11.3712 2.88913 14.4975 1.66395C17.6237 0.438763 21.1302 -0.173828 25.017 -0.173828C30.0444 -0.173828 33.8889 0.713374 36.5504 2.48778C39.212 4.26218 40.5428 7.34626 40.5428 11.74V16.8132C42.2056 16.4472 44.0253 16.2643 46.0017 16.2643C49.5505 16.2643 52.4867 16.8769 54.8102 18.1021C57.1761 19.3272 58.359 21.3762 58.359 24.2491C58.359 25.9812 57.6619 27.2909 56.2678 28.1781C54.9159 29.0653 53.226 29.5089 51.1981 29.5089C50.6489 29.5089 50.0152 29.4667 49.297 29.3822C48.621 29.2977 48.1352 29.1498 47.8395 28.9386C48.0085 27.5867 48.093 26.5093 48.093 25.7066C48.093 24.059 47.8817 22.7071 47.4593 21.6509C47.079 20.5947 46.2975 20.0666 45.1145 20.0666C42.4107 20.0666 41.0588 24.4181 41.0588 33.1211C41.0588 36.4164 41.5447 38.9935 42.5163 40.8524C43.5303 42.6691 45.368 43.5774 48.0296 43.5774C49.6772 43.5774 51.0925 43.1549 52.2754 42.31C53.5006 41.4228 54.4511 40.1976 55.1271 38.6344C55.8875 38.8034 56.479 39.2259 56.9015 39.9019C57.3239 40.5356 57.5352 41.2749 57.5352 42.1199C57.5352 45.0772 56.3523 47.3375 53.9864 48.9006C51.6628 50.4638 48.8323 51.2454 45.4948 51.2454C40.0449 51.2454 35.8202 49.6822 32.8206 46.5559C29.8633 43.3873 28.3847 39.0147 28.3847 33.438C28.3847 32.7581 28.4073 32.098 28.4525 31.4577C27.7792 32.4838 26.8453 33.2624 25.6507 33.7933ZM27.1716 28.4067C26.5379 29.6742 25.5028 30.3079 24.0664 30.3079C22.7145 30.3079 21.7006 29.822 21.0246 28.8503C20.3909 27.8364 20.0741 26.5478 20.0741 24.9847C20.0741 22.5343 20.75 20.781 22.1019 19.7248C23.4538 18.6686 25.4606 18.1405 28.1221 18.1405V23.7172C28.1221 25.5761 27.8053 27.1393 27.1716 28.4067Z" fill="#FBFBFB"/>
</g>
<defs>
<clipPath id="clip0_183_490">
<rect x="0.560547" y="0.560059" width="50" height="50" rx="7.5" fill="white"/>
</clipPath>
</defs>
</svg>
