<svg width="675" height="89" viewBox="0 0 675 89" fill="none" xmlns="http://www.w3.org/2000/svg">
<path d="M39.2846 32.8842C52.0819 32.8842 61.8039 36.3719 68.4505 43.3474C75.1963 50.2232 78.5693 60.0884 78.5693 72.9432C78.5693 81.4133 77.0316 88.8372 73.9563 95.2147C70.881 101.592 66.3672 106.575 60.415 110.162C54.562 113.65 47.5185 115.394 39.2846 115.394C31.2491 115.394 24.2553 113.7 18.3031 110.312C12.4501 106.924 7.93629 102.14 4.76177 95.9621C1.58726 89.7839 0 82.6091 0 74.4379C0 61.3839 3.37292 51.2196 10.1188 43.9453C16.9638 36.5712 26.6858 32.8842 39.2846 32.8842ZM39.2846 106.425C43.352 106.425 45.9313 103.386 47.0225 97.3074C48.213 91.2288 48.8082 83.3565 48.8082 73.6905C48.8082 64.1242 48.213 56.4512 47.0225 50.6716C45.9313 44.7923 43.352 41.8526 39.2846 41.8526C35.2173 41.8526 32.5884 44.7923 31.3979 50.6716C30.3067 56.4512 29.7611 64.1242 29.7611 73.6905C29.7611 83.3565 30.3067 91.2288 31.3979 97.3074C32.5884 103.386 35.2173 106.425 39.2846 106.425Z" fill="#7C97B6"/>
<path d="M119.935 22.4211C119.935 31.6884 119.488 38.1656 118.596 41.8526C123.06 35.8737 129.954 32.8842 139.28 32.8842C149.498 32.8842 156.839 36.5214 161.303 43.7958C165.767 51.0702 167.999 60.786 167.999 72.9432C167.999 86.5951 164.428 97.1081 157.285 104.482C150.142 111.756 139.875 115.394 126.482 115.394C120.828 115.394 114.677 114.646 108.03 113.152C101.384 111.657 95.63 109.714 90.769 107.322V7.47369L119.935 4.48421V22.4211ZM119.935 103.735C122.018 105.528 124.548 106.425 127.524 106.425C132.087 106.425 135.014 103.436 136.303 97.4568C137.593 91.4779 138.238 83.5558 138.238 73.6905C138.238 64.6225 137.643 57.4477 136.452 52.1663C135.262 46.8849 132.633 44.2442 128.566 44.2442C125.887 44.2442 123.903 45.2407 122.613 47.2337C121.324 49.2267 120.53 51.5684 120.232 54.2589C120.034 56.8498 119.935 60.2379 119.935 64.4232V103.735Z" fill="#7C97B6"/>
<path d="M214.662 45.7389C211.785 45.7389 210 47.3333 209.305 50.5221C208.611 53.6112 208.264 58.1951 208.264 64.2737V112.105H179.098V35.8737L202.609 34.08L203.799 47.5326C205.486 42.8491 208.164 39.2618 211.835 36.7705C215.605 34.1797 220.019 32.8842 225.079 32.8842C231.428 32.8842 236.437 34.6779 240.108 38.2653C243.878 41.753 245.763 46.6358 245.763 52.9137C245.763 58.1951 244.275 62.3305 241.298 65.32C238.422 68.2098 234.305 69.6547 228.948 69.6547C227.658 69.6547 226.12 69.5551 224.335 69.3558C222.648 69.0568 221.458 68.6583 220.763 68.16C221.359 65.5691 221.656 62.6295 221.656 59.3411C221.656 50.273 219.325 45.7389 214.662 45.7389Z" fill="#7C97B6"/>
<path d="M266.935 0C271.697 0 275.516 1.04632 278.393 3.13895C281.27 5.23159 282.708 8.17124 282.708 11.9579C282.708 15.7446 281.171 18.6842 278.095 20.7769C275.119 22.8695 271.201 23.9158 266.34 23.9158C261.578 23.9158 257.709 22.9193 254.733 20.9263C251.856 18.8337 250.417 15.9439 250.417 12.2568C250.417 8.37053 251.955 5.38106 255.03 3.28842C258.205 1.09614 262.173 0 266.935 0ZM280.923 94.6168C280.923 101.094 282.46 106.326 285.536 110.312C284.047 111.607 281.964 112.604 279.286 113.301C276.607 113.999 274.078 114.347 271.697 114.347C265.248 114.347 260.288 112.803 256.816 109.714C253.443 106.625 251.757 101.941 251.757 95.6632V35.8737H280.923V94.6168Z" fill="#7C97B6"/>
<path d="M330.608 133.48C334.081 133.48 336.61 132.135 338.198 129.444C339.785 126.754 340.777 123.216 341.174 118.832C341.57 114.547 341.769 108.468 341.769 100.596V95.5137C337.305 100.695 330.41 103.286 321.085 103.286C311.561 103.286 304.468 100.247 299.806 94.1684C295.242 87.9902 292.961 79.6197 292.961 69.0568C292.961 57.0989 296.284 48.0807 302.931 42.0021C309.577 35.9235 319.051 32.8842 331.352 32.8842C337.999 32.8842 344.001 33.8807 349.358 35.8737L369.595 32.8842V97.0084C369.595 107.771 368.355 116.39 365.875 122.867C363.494 129.345 359.377 134.128 353.524 137.217C347.771 140.406 339.785 142 329.567 142C324.607 142 319.646 141.352 314.686 140.057C309.825 138.761 305.708 136.719 302.335 133.928C299.062 131.138 297.425 127.651 297.425 123.465C297.425 119.38 299.012 116.291 302.187 114.198C305.46 112.105 309.478 111.059 314.24 111.059C315.53 111.059 316.968 111.159 318.555 111.358C320.242 111.557 321.432 111.906 322.127 112.404C321.73 115.593 321.531 118.134 321.531 120.027C321.531 128.996 324.557 133.48 330.608 133.48ZM340.43 43.9453C338.346 42.5502 335.817 41.8526 332.841 41.8526C328.476 41.8526 325.698 44.1446 324.507 48.7284C323.317 53.3123 322.722 59.4905 322.722 67.2632C322.722 74.4379 323.218 80.367 324.21 85.0505C325.301 89.6344 327.831 91.9263 331.799 91.9263C334.973 91.9263 337.205 90.3818 338.495 87.2926C339.785 84.1039 340.43 80.2674 340.43 75.7832V43.9453Z" fill="#7C97B6"/>
<path d="M429.814 105.379C428.227 108.867 425.647 111.408 422.076 113.002C418.505 114.596 414.487 115.394 410.023 115.394C401.491 115.394 394.349 113.5 388.595 109.714C382.841 105.827 379.964 100.197 379.964 92.8232C379.964 83.2568 384.478 76.8295 393.505 73.5411C402.533 70.2526 413.991 68.6084 427.88 68.6084V55.6042C427.88 51.12 427.284 47.6323 426.094 45.1411C425.003 42.6498 422.82 41.4042 419.546 41.4042C412.503 41.4042 408.981 45.9382 408.981 55.0063C408.981 56.8 409.18 59.2912 409.576 62.48C408.882 62.9782 407.692 63.327 406.005 63.5263C404.319 63.7256 402.831 63.8253 401.541 63.8253C396.779 63.8253 392.811 62.8288 389.637 60.8358C386.462 58.7432 384.875 55.6042 384.875 51.419C384.875 44.8421 388.545 40.1088 395.886 37.2189C403.227 34.3291 411.461 32.8842 420.588 32.8842C432.393 32.8842 441.421 34.9768 447.671 39.1621C453.92 43.3474 457.045 50.6218 457.045 60.9853V94.6168C457.045 101.094 458.583 106.326 461.658 110.312C460.17 111.607 458.087 112.604 455.409 113.301C452.829 113.999 450.349 114.347 447.968 114.347C438.742 114.347 432.691 111.358 429.814 105.379ZM418.356 104.781C421.729 104.781 424.159 103.286 425.647 100.297C427.135 97.3074 427.88 93.6204 427.88 89.2358V76.0821C421.63 76.0821 416.918 77.3277 413.743 79.819C410.568 82.3102 408.981 86.4456 408.981 92.2253C408.981 95.9123 409.725 98.9516 411.213 101.343C412.801 103.635 415.181 104.781 418.356 104.781Z" fill="#7C97B6"/>
<path d="M545.444 94.6168C545.444 101.094 546.982 106.326 550.057 110.312C548.569 111.607 546.486 112.604 543.807 113.301C541.129 113.999 538.599 114.347 536.218 114.347C527.091 114.347 521.089 111.358 518.213 105.379C513.848 112.055 506.903 115.394 497.38 115.394C487.063 115.394 479.622 111.557 475.059 103.884C470.496 96.1116 468.214 86.047 468.214 73.6905C468.214 60.3375 471.636 50.2232 478.482 43.3474C485.426 36.3719 495.495 32.8842 508.689 32.8842C511.467 32.8842 513.996 33.0337 516.278 33.3326V7.47369L545.444 4.48421V94.6168ZM516.278 44.5432C513.996 42.7495 511.467 41.8526 508.689 41.8526C504.324 41.8526 501.447 44.7425 500.058 50.5221C498.669 56.3018 497.975 63.7754 497.975 72.9432C497.975 82.2105 498.57 89.734 499.761 95.5137C500.951 101.194 503.58 104.034 507.647 104.034C510.822 104.034 513.054 102.539 514.344 99.5495C515.633 96.4604 516.278 92.7733 516.278 88.4884V44.5432Z" fill="#7C97B6"/>
<path d="M605.649 105.379C604.061 108.867 601.482 111.408 597.911 113.002C594.339 114.596 590.322 115.394 585.857 115.394C577.326 115.394 570.183 113.5 564.429 109.714C558.676 105.827 555.799 100.197 555.799 92.8232C555.799 83.2568 560.312 76.8295 569.34 73.5411C578.368 70.2526 589.826 68.6084 603.714 68.6084V55.6042C603.714 51.12 603.119 47.6323 601.928 45.1411C600.837 42.6498 598.655 41.4042 595.381 41.4042C588.338 41.4042 584.816 45.9382 584.816 55.0063C584.816 56.8 585.014 59.2912 585.411 62.48C584.717 62.9782 583.526 63.327 581.84 63.5263C580.153 63.7256 578.665 63.8253 577.375 63.8253C572.614 63.8253 568.646 62.8288 565.471 60.8358C562.297 58.7432 560.709 55.6042 560.709 51.419C560.709 44.8421 564.38 40.1088 571.721 37.2189C579.062 34.3291 587.296 32.8842 596.423 32.8842C608.228 32.8842 617.255 34.9768 623.505 39.1621C629.755 43.3474 632.88 50.6218 632.88 60.9853V94.6168C632.88 101.094 634.418 106.326 637.493 110.312C636.005 111.607 633.922 112.604 631.243 113.301C628.664 113.999 626.184 114.347 623.803 114.347C614.577 114.347 608.525 111.358 605.649 105.379ZM594.191 104.781C597.563 104.781 599.994 103.286 601.482 100.297C602.97 97.3074 603.714 93.6204 603.714 89.2358V76.0821C597.464 76.0821 592.752 77.3277 589.578 79.819C586.403 82.3102 584.816 86.4456 584.816 92.2253C584.816 95.9123 585.56 98.9516 587.048 101.343C588.635 103.635 591.016 104.781 594.191 104.781Z" fill="#7C97B6"/>
<path d="M657.441 10.3137C662.203 10.3137 665.724 11.6589 668.006 14.3495C670.387 17.04 671.577 20.8765 671.577 25.859C671.577 30.4428 671.081 36.92 670.089 45.2905L666.816 83.4063C665.129 84.6021 662.748 85.2 659.673 85.2C656.796 85.2 654.614 84.7018 653.126 83.7053C651.737 82.6091 650.745 81.1144 650.149 79.2211C649.653 77.3277 649.257 74.687 648.959 71.2989L644.346 15.0968C645.735 13.6021 647.62 12.4561 650.001 11.6589C652.481 10.7621 654.961 10.3137 657.441 10.3137ZM659.227 91.1789C663.988 91.1789 667.808 92.2253 670.685 94.3179C673.562 96.4105 675 99.3502 675 103.137C675 106.924 673.462 109.863 670.387 111.956C667.411 114.048 663.492 115.095 658.631 115.095C653.87 115.095 650.001 114.098 647.025 112.105C644.148 110.013 642.709 107.123 642.709 103.436C642.709 99.5495 644.247 96.56 647.322 94.4674C650.497 92.2751 654.465 91.1789 659.227 91.1789Z" fill="#7C97B6"/>
</svg>
