<svg width="91" height="105" viewBox="0 0 91 105" fill="none" xmlns="http://www.w3.org/2000/svg">
<path d="M14.0159 16.3507C32.3226 -2.15073 64.9332 -6.64399 89.7522 11.712C90.6401 12.3687 90.8277 13.6208 90.1712 14.5089C89.5144 15.3969 88.2614 15.5846 87.3733 14.9278C64.1931 -2.2159 33.8031 2.04059 16.8596 19.1641C8.42561 27.6879 3.31091 39.4104 4.07547 53.3595C4.78735 66.3452 10.6084 81.426 23.8968 97.7462L24.7649 84.7266C24.8384 83.6246 25.7917 82.7909 26.8938 82.8643C27.9958 82.938 28.8296 83.8912 28.7561 84.9932L27.5589 102.953C27.4852 104.055 26.532 104.889 25.43 104.816L7.47 103.618C6.36795 103.545 5.53423 102.591 5.6077 101.489C5.68134 100.387 6.6346 99.5536 7.7366 99.627L20.9895 100.51C7.17308 83.6176 0.854054 67.675 0.0813282 53.5782C-0.747906 38.4492 4.82492 25.6395 14.0159 16.3507Z" fill="#9B82AA"/>
</svg>
