<svg width="86" height="105" viewBox="0 0 86 105" fill="none" xmlns="http://www.w3.org/2000/svg">
<path d="M41.5555 2.1456C55.9437 -2.80215 73.7515 0.756075 84.8231 13.4132C85.5501 14.2446 85.4659 15.5083 84.6346 16.2354C83.8033 16.9625 82.5396 16.878 81.8124 16.047C71.9031 4.71863 55.8441 1.46163 42.8563 5.92782C36.3931 8.15037 30.7503 12.2669 27.0096 18.1915C23.7124 23.4137 21.8293 30.1437 22.2577 38.419C28.2754 35.0284 35.439 35.3631 40.8212 37.9278C43.9914 39.4385 46.6953 41.7903 48.1874 44.7989C49.708 47.8653 49.8898 51.4665 48.2245 55.1768C46.4963 59.0269 43.7175 61.1981 40.3817 61.755C37.1757 62.2901 33.7946 61.2779 30.7997 59.5401C25.661 56.5584 20.8976 50.9868 19.162 45.0558C10.9307 50.0024 7.58299 58.0924 8.04088 67.6778C8.48509 76.9767 12.5402 87.6163 19.2958 97.7442L21.1327 84.8985C21.289 83.8051 22.3019 83.045 23.3954 83.2013C24.4887 83.3576 25.2478 84.3706 25.0917 85.464L22.5448 103.283C22.3884 104.377 21.3755 105.136 20.2821 104.98L2.46373 102.433C1.37027 102.276 0.610165 101.263 0.766464 100.17C0.922774 99.0766 1.93579 98.3166 3.02916 98.4727L16.2352 100.36C9.04112 89.6945 4.53898 78.2121 4.04478 67.8692C3.50566 56.5836 7.76922 46.5888 18.4296 40.8731C17.474 30.8685 19.5302 22.5456 23.6278 16.0558C27.908 9.27695 34.331 4.62999 41.5555 2.1456ZM39.1004 41.5392C34.2472 39.2264 27.726 39.2132 22.7313 42.8673C23.8061 47.966 28.0355 53.3112 32.8075 56.0802C35.3365 57.5477 37.7597 58.1375 39.7235 57.8097C41.5574 57.5034 43.3151 56.3462 44.5751 53.5392C45.7594 50.9007 45.5836 48.5528 44.6034 46.5763C43.5946 44.5421 41.654 42.756 39.1004 41.5392Z" fill="#C07F7F"/>
</svg>
