<svg width="207" height="210" viewBox="0 0 207 210" fill="none" xmlns="http://www.w3.org/2000/svg">
<path fill-rule="evenodd" clip-rule="evenodd" d="M73.2434 138.724C67.0319 141.485 60.044 142.865 52.2797 142.865C37.4412 142.865 25.0183 139.587 15.011 133.031C5.00367 126.301 0 116.553 0 103.785C0 87.2204 7.85058 76.0914 23.5517 70.3975C39.2529 64.7036 59.1813 61.8566 83.337 61.8566V39.3398C83.337 31.5753 82.3017 25.5363 80.2312 21.2228C78.3333 16.9092 74.5374 14.7524 68.8436 14.7524C56.5932 14.7524 50.468 22.6031 50.468 38.3045C50.468 41.4103 50.8131 45.7239 51.5033 51.2452C50.2955 52.1079 48.225 52.7118 45.2918 53.0569C42.3586 53.402 39.7705 53.5746 37.5275 53.5746C29.2456 53.5746 22.344 51.8491 16.8227 48.3983C11.3014 44.7749 8.54074 39.3398 8.54074 32.093C8.54074 20.7051 14.9247 12.5094 27.6927 7.50561C40.4607 2.50187 54.7815 0 70.6552 0C91.1875 0 106.889 3.6234 117.759 10.8702C128.629 18.117 134.064 30.7126 134.064 48.6571V69.3762C140.855 67.8817 148.287 67.1345 156.359 67.1345C170.852 67.1345 182.844 69.6364 192.333 74.6401C201.996 79.6439 206.827 88.0122 206.827 99.7451C206.827 106.819 203.98 112.168 198.286 115.792C192.765 119.415 185.863 121.227 177.581 121.227C175.338 121.227 172.75 121.054 169.817 120.709C167.056 120.364 165.072 119.76 163.864 118.897C164.554 113.376 164.899 108.976 164.899 105.698C164.899 98.9687 164.037 93.4473 162.311 89.1337C160.758 84.8201 157.566 82.6634 152.735 82.6634C141.693 82.6634 136.171 100.435 136.171 135.979C136.171 149.437 138.156 159.963 142.124 167.554C146.265 174.974 153.771 178.683 164.641 178.683C171.37 178.683 177.15 176.958 181.981 173.507C186.985 169.884 190.867 164.88 193.627 158.496C196.733 159.186 199.149 160.912 200.874 163.672C202.599 166.26 203.462 169.28 203.462 172.731C203.462 184.809 198.631 194.04 188.969 200.424C179.479 206.808 167.919 210 154.288 210C132.03 210 114.776 203.616 102.526 190.848C90.4482 177.907 84.4093 160.049 84.4093 137.273C84.4093 134.497 84.5016 131.801 84.6863 129.186C81.9364 133.376 78.1221 136.556 73.2434 138.724ZM79.4548 116.725C76.8667 121.902 72.6395 124.49 66.7731 124.49C61.2518 124.49 57.1108 122.505 54.3502 118.537C51.7621 114.396 50.468 109.133 50.468 102.749C50.468 92.7418 53.2287 85.5813 58.75 81.2677C64.2713 76.9541 72.4669 74.7973 83.337 74.7973V97.573C83.337 105.165 82.0429 111.549 79.4548 116.725Z" fill="#BAA3C7"/>
</svg>
