<svg width="85" height="108" viewBox="0 0 85 108" fill="none" xmlns="http://www.w3.org/2000/svg">
<g filter="url(#filter0_d_102_14)">
<mask id="path-1-outside-1_102_14" maskUnits="userSpaceOnUse" x="11.8999" y="12.25" width="62" height="84" fill="black">
<rect fill="white" x="11.8999" y="12.25" width="62" height="84"/>
<path fill-rule="evenodd" clip-rule="evenodd" d="M42.5499 21.8866C41.7538 22.9742 40.9763 24.0413 40.218 25.0885C35.6611 31.3821 31.8012 36.9562 28.7846 41.9296C25.2496 47.7577 22.968 52.6095 22.0367 56.7051C21.1211 60.7317 21.538 63.8806 23.231 66.5491C24.9759 69.2994 28.2838 71.8713 33.8417 74.2481C34.6954 74.6131 35.2481 75.445 35.2481 76.3649V86.4375H49.8516V76.3649C49.8516 75.445 50.4043 74.6131 51.258 74.2481C56.8159 71.8713 60.1238 69.2994 61.8688 66.549C63.5618 63.8806 63.9787 60.7317 63.0631 56.7051C62.1318 52.6095 59.8503 47.7577 56.3152 41.9296C53.2986 36.9562 49.4387 31.3821 44.8818 25.0884C44.1236 24.0412 43.3461 22.9742 42.5499 21.8866ZM38.7879 19.1605C39.7094 17.9016 41.1268 17.25 42.5498 17.25C43.9728 17.25 45.3903 17.9015 46.312 19.1604C51.9082 26.8047 56.6815 33.5671 60.3146 39.5569C63.9344 45.5248 66.5182 50.8775 67.6132 55.6931C68.7239 60.5776 68.3279 65.0465 65.8192 69.0006C63.5599 72.5617 59.7564 75.432 54.5154 77.8564V88.7438C54.5154 90.0175 53.4714 91.05 52.1835 91.05H32.9163C31.6284 91.05 30.5844 90.0175 30.5844 88.7438V77.8564C25.3434 75.432 21.5398 72.5617 19.2805 69.0006C16.7719 65.0465 16.3759 60.5776 17.4866 55.6931C18.5816 50.8775 21.1654 45.5248 24.7853 39.5569C28.4184 33.5671 33.1916 26.8047 38.7879 19.1605Z"/>
<path fill-rule="evenodd" clip-rule="evenodd" d="M44.8818 19.5563L44.8818 25.0884L44.8818 55.3658L44.8818 59.916L40.2181 59.916L40.2181 55.3658L40.218 25.0885L40.218 19.5563L44.8818 19.5563Z"/>
<path d="M48.7682 61.0688C48.7682 64.4653 45.9842 67.2188 42.5499 67.2188C39.1156 67.2188 36.3316 64.4653 36.3316 61.0688C36.3316 58.4878 37.9392 56.2781 40.2181 55.3658C40.9382 55.0775 41.7253 54.9188 42.5499 54.9188C43.3745 54.9188 44.1617 55.0775 44.8818 55.3658C47.1607 56.2782 48.7682 58.4878 48.7682 61.0688Z"/>
<path d="M40.218 25.0885C35.6611 31.3821 31.8012 36.9562 28.7846 41.9296C25.2496 47.7577 22.968 52.6095 22.0367 56.7051C21.1211 60.7317 21.538 63.8806 23.231 66.5491C24.9759 69.2994 28.2838 71.8713 33.8417 74.2481C34.6954 74.6131 35.2481 75.445 35.2481 76.3649V86.4375H49.8516V76.3649C49.8516 75.445 50.4043 74.6131 51.258 74.2481C56.8159 71.8713 60.1238 69.2994 61.8688 66.549C63.5618 63.8806 63.9787 60.7317 63.0631 56.7051C62.1318 52.6095 59.8503 47.7577 56.3152 41.9296C53.2986 36.9562 49.4387 31.3821 44.8818 25.0884L44.8818 55.3658C47.1607 56.2782 48.7682 58.4878 48.7682 61.0688C48.7682 64.4653 45.9842 67.2188 42.5499 67.2188C39.1156 67.2188 36.3316 64.4653 36.3316 61.0688C36.3316 58.4878 37.9392 56.2781 40.2181 55.3658L40.218 25.0885Z"/>
</mask>
<path fill-rule="evenodd" clip-rule="evenodd" d="M42.5499 21.8866C41.7538 22.9742 40.9763 24.0413 40.218 25.0885C35.6611 31.3821 31.8012 36.9562 28.7846 41.9296C25.2496 47.7577 22.968 52.6095 22.0367 56.7051C21.1211 60.7317 21.538 63.8806 23.231 66.5491C24.9759 69.2994 28.2838 71.8713 33.8417 74.2481C34.6954 74.6131 35.2481 75.445 35.2481 76.3649V86.4375H49.8516V76.3649C49.8516 75.445 50.4043 74.6131 51.258 74.2481C56.8159 71.8713 60.1238 69.2994 61.8688 66.549C63.5618 63.8806 63.9787 60.7317 63.0631 56.7051C62.1318 52.6095 59.8503 47.7577 56.3152 41.9296C53.2986 36.9562 49.4387 31.3821 44.8818 25.0884C44.1236 24.0412 43.3461 22.9742 42.5499 21.8866ZM38.7879 19.1605C39.7094 17.9016 41.1268 17.25 42.5498 17.25C43.9728 17.25 45.3903 17.9015 46.312 19.1604C51.9082 26.8047 56.6815 33.5671 60.3146 39.5569C63.9344 45.5248 66.5182 50.8775 67.6132 55.6931C68.7239 60.5776 68.3279 65.0465 65.8192 69.0006C63.5599 72.5617 59.7564 75.432 54.5154 77.8564V88.7438C54.5154 90.0175 53.4714 91.05 52.1835 91.05H32.9163C31.6284 91.05 30.5844 90.0175 30.5844 88.7438V77.8564C25.3434 75.432 21.5398 72.5617 19.2805 69.0006C16.7719 65.0465 16.3759 60.5776 17.4866 55.6931C18.5816 50.8775 21.1654 45.5248 24.7853 39.5569C28.4184 33.5671 33.1916 26.8047 38.7879 19.1605Z" fill="#C07F7F"/>
<path fill-rule="evenodd" clip-rule="evenodd" d="M44.8818 19.5563L44.8818 25.0884L44.8818 55.3658L44.8818 59.916L40.2181 59.916L40.2181 55.3658L40.218 25.0885L40.218 19.5563L44.8818 19.5563Z" fill="#C07F7F"/>
<path d="M48.7682 61.0688C48.7682 64.4653 45.9842 67.2188 42.5499 67.2188C39.1156 67.2188 36.3316 64.4653 36.3316 61.0688C36.3316 58.4878 37.9392 56.2781 40.2181 55.3658C40.9382 55.0775 41.7253 54.9188 42.5499 54.9188C43.3745 54.9188 44.1617 55.0775 44.8818 55.3658C47.1607 56.2782 48.7682 58.4878 48.7682 61.0688Z" fill="#C07F7F"/>
<path d="M40.218 25.0885C35.6611 31.3821 31.8012 36.9562 28.7846 41.9296C25.2496 47.7577 22.968 52.6095 22.0367 56.7051C21.1211 60.7317 21.538 63.8806 23.231 66.5491C24.9759 69.2994 28.2838 71.8713 33.8417 74.2481C34.6954 74.6131 35.2481 75.445 35.2481 76.3649V86.4375H49.8516V76.3649C49.8516 75.445 50.4043 74.6131 51.258 74.2481C56.8159 71.8713 60.1238 69.2994 61.8688 66.549C63.5618 63.8806 63.9787 60.7317 63.0631 56.7051C62.1318 52.6095 59.8503 47.7577 56.3152 41.9296C53.2986 36.9562 49.4387 31.3821 44.8818 25.0884L44.8818 55.3658C47.1607 56.2782 48.7682 58.4878 48.7682 61.0688C48.7682 64.4653 45.9842 67.2188 42.5499 67.2188C39.1156 67.2188 36.3316 64.4653 36.3316 61.0688C36.3316 58.4878 37.9392 56.2781 40.2181 55.3658L40.218 25.0885Z" fill="#FBFBFB"/>
<path d="M28.7846 41.9296L26.7339 40.6858L26.7339 40.6858L28.7846 41.9296ZM22.0367 56.7051L24.3755 57.2369L24.3755 57.2369L22.0367 56.7051ZM23.231 66.5491L21.2057 67.834L21.2057 67.834L23.231 66.5491ZM33.8417 74.2481L34.7848 72.0428L34.7848 72.0427L33.8417 74.2481ZM35.2481 86.4375H32.8496C32.8496 87.7622 33.9235 88.836 35.2481 88.836V86.4375ZM49.8516 86.4375V88.836C51.1763 88.836 52.2501 87.7622 52.2501 86.4375H49.8516ZM51.258 74.2481L50.315 72.0428L50.315 72.0428L51.258 74.2481ZM61.8688 66.549L59.8435 65.2641L59.8435 65.2641L61.8688 66.549ZM63.0631 56.7051L60.7243 57.2369L60.7243 57.2369L63.0631 56.7051ZM56.3152 41.9296L54.2645 43.1735L54.2645 43.1735L56.3152 41.9296ZM40.218 25.0885L42.6165 25.0885L42.6165 17.6862L38.2753 23.6819L40.218 25.0885ZM44.8818 25.0884L46.8245 23.6818L42.4833 17.6861L42.4833 25.0884L44.8818 25.0884ZM44.8818 55.3658L42.4833 55.3658L42.4833 56.9892L43.9904 57.5925L44.8818 55.3658ZM40.2181 55.3658L41.1095 57.5925L42.6166 56.9891L42.6166 55.3658L40.2181 55.3658ZM24.3755 57.2369C25.2209 53.519 27.3441 48.9295 30.8354 43.1735L26.7339 40.6858C23.1551 46.586 20.7151 51.7 19.6979 56.1733L24.3755 57.2369ZM25.2563 65.2641C23.9887 63.2663 23.563 60.8099 24.3755 57.2369L19.6979 56.1733C18.6792 60.6535 19.0872 64.4949 21.2057 67.834L25.2563 65.2641ZM34.7848 72.0427C29.4363 69.7555 26.6317 67.4321 25.2562 65.2641L21.2057 67.834C23.3201 71.1667 27.1314 73.9871 32.8987 76.4534L34.7848 72.0427ZM37.6466 76.3649C37.6466 74.4731 36.5105 72.7807 34.7848 72.0428L32.8986 76.4534C32.8804 76.4456 32.8496 76.417 32.8496 76.3649H37.6466ZM37.6466 86.4375V76.3649H32.8496V86.4375H37.6466ZM47.4531 76.3649V86.4375H52.2501V76.3649H47.4531ZM50.315 72.0428C48.5893 72.7807 47.4531 74.4731 47.4531 76.3649H52.2501C52.2501 76.417 52.2194 76.4456 52.2011 76.4534L50.315 72.0428ZM59.8435 65.2641C58.468 67.4321 55.6635 69.7555 50.315 72.0428L52.2011 76.4534C57.9684 73.9871 61.7796 71.1667 63.8941 67.834L59.8435 65.2641ZM60.7243 57.2369C61.5368 60.8099 61.1111 63.2663 59.8435 65.2641L63.8941 67.834C66.0126 64.4949 66.4206 60.6534 65.4019 56.1733L60.7243 57.2369ZM54.2645 43.1735C57.7558 48.9295 59.8789 53.519 60.7243 57.2369L65.4019 56.1733C64.3848 51.7 61.9448 46.586 58.366 40.6858L54.2645 43.1735ZM49.8516 84.039H35.2481V88.836H49.8516V84.039ZM46.3697 61.0688C46.3697 63.1158 44.6846 64.8203 42.5499 64.8203V69.6173C47.2838 69.6173 51.1667 65.8149 51.1667 61.0688H46.3697ZM42.5499 64.8203C40.4152 64.8203 38.7301 63.1158 38.7301 61.0688H33.9331C33.9331 65.8149 37.816 69.6173 42.5499 69.6173V64.8203ZM38.2753 23.6819C33.7079 29.99 29.8021 35.6272 26.7339 40.6858L30.8354 43.1735C33.8003 38.2853 37.6143 32.7743 42.1607 26.4951L38.2753 23.6819ZM58.366 40.6858C55.2977 35.6272 51.3919 29.9899 46.8245 23.6818L42.939 26.495C47.4855 32.7742 51.2995 38.2853 54.2645 43.1735L58.366 40.6858ZM42.4833 25.0884L42.4833 55.3658L47.2803 55.3658L47.2803 25.0884L42.4833 25.0884ZM43.9904 57.5925C45.4021 58.1577 46.3697 59.5139 46.3697 61.0688H51.1667C51.1667 57.4617 48.9193 54.3987 45.7733 53.1392L43.9904 57.5925ZM38.7301 61.0688C38.7301 59.5139 39.6978 58.1576 41.1095 57.5925L39.3267 53.1391C36.1806 54.3986 33.9331 57.4616 33.9331 61.0688H38.7301ZM42.6166 55.3658L42.6165 25.0885L37.8195 25.0885L37.8196 55.3658L42.6166 55.3658ZM42.5499 21.8866L46.4206 19.0531C45.5172 17.819 44.0794 17.0896 42.5499 17.0896C41.0205 17.0896 39.5827 17.819 38.6792 19.0531L42.5499 21.8866ZM42.5498 17.25L42.5497 12.453L42.5498 17.25ZM38.7879 19.1605L42.6585 21.9941L42.6586 21.994L38.7879 19.1605ZM46.312 19.1604L42.4413 21.994L42.4413 21.994L46.312 19.1604ZM60.3146 39.5569L64.4161 37.0691L64.4161 37.0691L60.3146 39.5569ZM67.6132 55.6931L62.9356 56.7567L62.9356 56.7567L67.6132 55.6931ZM65.8192 69.0006L61.7687 66.4308L61.7687 66.4308L65.8192 69.0006ZM54.5154 77.8564L52.5014 73.5027C50.8046 74.2876 49.7184 75.9868 49.7184 77.8564H54.5154ZM30.5844 77.8564H35.3814C35.3814 75.9868 34.2952 74.2876 32.5983 73.5027L30.5844 77.8564ZM19.2805 69.0006L23.3311 66.4308L23.3311 66.4308L19.2805 69.0006ZM17.4866 55.6931L22.1642 56.7567L22.1642 56.7567L17.4866 55.6931ZM24.7853 39.5569L20.6838 37.0691L20.6838 37.0691L24.7853 39.5569ZM44.8818 59.916L44.8818 64.713C46.1541 64.713 47.3742 64.2076 48.2738 63.3079C49.1734 62.4083 49.6788 61.1882 49.6788 59.9159L44.8818 59.916ZM44.8818 19.5563L49.6788 19.5562C49.6788 16.9069 47.5311 14.7592 44.8817 14.7593L44.8818 19.5563ZM40.2181 59.916L35.4211 59.916C35.4211 62.5653 37.5688 64.713 40.2181 64.713L40.2181 59.916ZM40.218 19.5563L40.218 14.7593C38.9458 14.7593 37.7256 15.2647 36.826 16.1643C35.9264 17.0639 35.421 18.284 35.421 19.5563L40.218 19.5563ZM40.218 25.0885L35.421 25.0885L35.421 39.8931L44.1035 27.9018L40.218 25.0885ZM44.8818 25.0884L40.9963 27.9017L49.6788 39.8931L49.6788 25.0884L44.8818 25.0884ZM44.8818 55.3658L49.6788 55.3658L49.6788 52.1192L46.6647 50.9125L44.8818 55.3658ZM40.2181 55.3658L38.4352 50.9124L35.4211 52.1191L35.4211 55.3658L40.2181 55.3658ZM42.5497 12.453C39.6704 12.4531 36.7845 13.7761 34.9171 16.327L42.6586 21.994C42.6588 21.9937 42.6574 21.9955 42.6543 21.9989C42.6512 22.0022 42.647 22.0062 42.6418 22.0106C42.6311 22.0195 42.6193 22.0271 42.6077 22.0329C42.5863 22.0434 42.5677 22.047 42.5499 22.047L42.5497 12.453ZM50.1826 16.3268C48.3152 13.7759 45.429 12.4529 42.5497 12.453L42.5499 22.047C42.5322 22.047 42.5136 22.0435 42.4922 22.0329C42.4805 22.0271 42.4687 22.0195 42.458 22.0106C42.4529 22.0062 42.4487 22.0022 42.4456 21.9989C42.4424 21.9955 42.4411 21.9937 42.4413 21.994L50.1826 16.3268ZM64.4161 37.0691C60.6671 30.8883 55.7875 23.9829 50.1826 16.3268L42.4413 21.994C48.0289 29.6265 52.6959 36.2459 56.2131 42.0446L64.4161 37.0691ZM72.2908 54.6295C71.0242 49.0591 68.124 43.1822 64.4161 37.0691L56.2131 42.0446C59.7448 47.8673 62.0123 52.696 62.9356 56.7567L72.2908 54.6295ZM69.8698 71.5705C73.2321 66.271 73.6064 60.4152 72.2908 54.6295L62.9356 56.7567C63.8414 60.7401 63.4238 63.822 61.7687 66.4308L69.8698 71.5705ZM56.5293 82.2102C62.2116 79.5817 66.9267 76.2094 69.8698 71.5705L61.7687 66.4308C60.1932 68.914 57.3011 71.2824 52.5014 73.5027L56.5293 82.2102ZM59.3124 88.7438V77.8564H49.7184V88.7438H59.3124ZM52.1835 95.847C56.0706 95.847 59.3124 92.7166 59.3124 88.7438H49.7184C49.7184 87.3183 50.8722 86.253 52.1835 86.253V95.847ZM25.7874 88.7438C25.7874 92.7166 29.0292 95.847 32.9163 95.847V86.253C34.2276 86.253 35.3814 87.3183 35.3814 88.7438H25.7874ZM25.7874 77.8564V88.7438H35.3814V77.8564H25.7874ZM15.23 71.5705C18.1731 76.2094 22.8882 79.5817 28.5704 82.2102L32.5983 73.5027C27.7987 71.2824 24.9066 68.914 23.3311 66.4308L15.23 71.5705ZM12.809 54.6294C11.4934 60.4151 11.8677 66.271 15.23 71.5705L23.3311 66.4308C21.676 63.822 21.2584 60.7401 22.1642 56.7567L12.809 54.6294ZM20.6838 37.0691C16.9759 43.1822 14.0756 49.0591 12.809 54.6294L22.1642 56.7567C23.0875 52.696 25.355 47.8673 28.8868 42.0446L20.6838 37.0691ZM34.9172 16.3268C29.3123 23.9829 24.4328 30.8883 20.6838 37.0691L28.8868 42.0446C32.404 36.2459 37.0709 29.6265 42.6585 21.9941L34.9172 16.3268ZM32.9163 95.847H52.1835V86.253H32.9163V95.847ZM40.2181 64.713L44.8818 64.713L44.8818 55.119L40.2181 55.119L40.2181 64.713ZM44.8817 14.7593L40.218 14.7593L40.218 24.3533L44.8818 24.3533L44.8817 14.7593ZM42.0009 59.8192C42.1627 59.7544 42.3453 59.7158 42.5499 59.7158V50.1218C41.1052 50.1218 39.7136 50.4006 38.4352 50.9124L42.0009 59.8192ZM49.6788 59.9159L49.6788 55.3658L40.0848 55.3658L40.0848 59.916L49.6788 59.9159ZM49.6788 25.0884L49.6788 19.5562L40.0848 19.5563L40.0848 25.0884L49.6788 25.0884ZM44.1035 27.9018C44.856 26.8624 45.6286 25.8022 46.4206 24.7201L38.6792 19.0531C37.879 20.1462 37.0965 21.2202 36.3326 22.2752L44.1035 27.9018ZM38.6792 24.7201C39.4713 25.8021 40.2438 26.8624 40.9963 27.9017L48.7672 22.2751C48.0033 21.2201 47.2208 20.1462 46.4206 19.0531L38.6792 24.7201ZM42.5499 59.7158C42.7544 59.7158 42.9371 59.7544 43.0989 59.8192L46.6647 50.9125C45.3863 50.4007 43.9946 50.1218 42.5499 50.1218V59.7158ZM35.421 19.5563L35.421 25.0885L45.015 25.0885L45.015 19.5563L35.421 19.5563ZM35.4211 55.3658L35.4211 59.916L45.0151 59.916L45.0151 55.3658L35.4211 55.3658Z" fill="#FBFBFB" mask="url(#path-1-outside-1_102_14)"/>
</g>
<defs>
<filter id="filter0_d_102_14" x="0.107004" y="0.456003" width="84.8856" height="107.388" filterUnits="userSpaceOnUse" color-interpolation-filters="sRGB">
<feFlood flood-opacity="0" result="BackgroundImageFix"/>
<feColorMatrix in="SourceAlpha" type="matrix" values="0 0 0 0 0 0 0 0 0 0 0 0 0 0 0 0 0 0 127 0" result="hardAlpha"/>
<feOffset/>
<feGaussianBlur stdDeviation="5.9985"/>
<feComposite in2="hardAlpha" operator="out"/>
<feColorMatrix type="matrix" values="0 0 0 0 0.263281 0 0 0 0 0.19884 0 0 0 0 0.150509 0 0 0 0.3 0"/>
<feBlend mode="normal" in2="BackgroundImageFix" result="effect1_dropShadow_102_14"/>
<feBlend mode="normal" in="SourceGraphic" in2="effect1_dropShadow_102_14" result="shape"/>
</filter>
</defs>
</svg>
