<svg width="114" height="99" viewBox="0 0 114 99" fill="none" xmlns="http://www.w3.org/2000/svg">
<g filter="url(#filter0_d_102_17)">
<mask id="path-1-outside-1_102_17" maskUnits="userSpaceOnUse" x="12" y="12.15" width="90" height="75" fill="black">
<rect fill="white" x="12" y="12.15" width="90" height="75"/>
<path fill-rule="evenodd" clip-rule="evenodd" d="M50.5581 17.626C50.0688 17.2228 49.4202 17.0639 48.7978 17.1949C48.1755 17.326 47.6479 17.7324 47.366 18.298L17.2156 78.8C16.707 79.8204 17.1291 81.0564 18.1582 81.5607C19.1874 82.0649 20.434 81.6464 20.9425 80.626L20.9864 80.5378L34.0208 54.3822C37.0743 57.5725 40.0481 59.615 43.0558 60.9904C46.7047 62.6591 50.3013 63.292 53.7955 63.8957L53.9784 63.9273C57.4497 64.5268 60.8843 65.12 64.6572 66.5859C68.4717 68.0679 72.6969 70.4717 77.5359 74.7721C78.02 75.2024 78.6793 75.3832 79.3177 75.2609C79.956 75.1386 80.4998 74.7271 80.7874 74.149L96.822 41.9097C97.2278 41.0937 97.046 40.1104 96.3747 39.4902C87.2148 31.0289 79.7182 29.6079 72.8073 28.2979C71.2717 28.0068 69.7649 27.7212 68.2753 27.365C65.7043 26.7503 63.4393 26.0706 60.7672 24.7005C58.0709 23.3179 54.8886 21.1949 50.5581 17.626ZM54.7939 59.8842L54.5092 59.835C52.3158 59.456 50.2951 59.0953 48.3387 58.5384C47.1423 58.1979 45.9699 57.7839 44.7969 57.2475C43.574 56.6882 42.3338 55.9871 41.0638 55.0786C39.433 53.9121 37.7532 52.4036 35.9981 50.4144L38.4897 45.4145L41.7176 38.9373L44.7969 32.7581L47.9533 26.4243L49.9397 22.4382C51.9924 24.0509 53.8192 25.3553 55.4979 26.4243C56.6825 27.1788 57.7933 27.816 58.8576 28.3618C60.171 29.0352 61.4003 29.5624 62.5917 29.9965C64.1926 30.5799 65.725 30.9953 67.3008 31.3721C68.7878 31.7276 70.2297 32.0124 71.6483 32.2852L72.2209 32.3951L72.2299 32.3968C74.6159 32.8541 76.9436 33.3001 79.3177 34.0182C82.002 34.8301 84.7455 35.9899 87.6994 37.9068C89.2049 38.8837 90.765 40.0573 92.3997 41.4818L90.0044 46.2978L86.7096 52.9223L83.9164 58.5384L80.7874 64.8295L78.2439 69.9435C76.5337 68.5518 74.8821 67.368 73.2814 66.3556C70.7995 64.7859 68.4399 63.6285 66.1738 62.7481C65.9686 62.6683 65.7644 62.591 65.561 62.5158C62.7666 61.4832 60.1443 60.8719 57.6922 60.4029C56.6985 60.2129 55.7328 60.0462 54.7948 59.8843L54.7939 59.8842Z"/>
<path d="M73.2814 66.3556C74.8821 67.368 76.5337 68.5518 78.2439 69.9435L80.7874 64.8295C79.0432 63.5867 77.337 62.5415 75.666 61.6506L73.2814 66.3556Z"/>
<path d="M57.6922 60.4029C60.1443 60.8719 62.7666 61.4832 65.561 62.5158L67.6031 58.2856C64.9069 57.4273 62.3002 56.8136 59.7674 56.2219L57.6922 60.4029Z"/>
<path d="M41.0638 55.0786C42.3338 55.9871 43.574 56.6882 44.7969 57.2475C45.9699 57.7839 47.1423 58.1979 48.3387 58.5384L50.7404 53.7289C48.312 52.8357 45.941 51.6796 43.6107 50.0224L41.0638 55.0786Z"/>
<path d="M41.7176 38.9373L38.4897 45.4145C40.1788 47.2904 41.8836 48.794 43.6107 50.0224L46.7754 43.7399C45.0837 42.4625 43.4006 40.8935 41.7176 38.9373Z"/>
<path d="M46.7754 43.7399C49.0939 45.4907 51.4288 46.6942 53.8024 47.5972L57.2422 40.709C54.8992 39.8374 52.5461 38.712 50.1247 37.0911L46.7754 43.7399Z"/>
<path d="M53.8024 47.5972L50.7404 53.7289C53.6053 54.7826 56.5501 55.4704 59.602 56.1832L59.7674 56.2219L62.8366 50.0383C59.7375 49.3726 56.7402 48.7149 53.8024 47.5972Z"/>
<path d="M66.1888 43.2845L62.8366 50.0383L63.1151 50.0981C65.5608 50.6231 68.0704 51.1619 70.6648 51.9432L73.7463 45.5596C71.1224 44.5824 68.6232 43.9071 66.1888 43.2845Z"/>
<path d="M78.8724 55.3238C76.0341 53.7849 73.3055 52.7384 70.6648 51.9432L67.6031 58.2856C70.2029 59.1133 72.8859 60.1684 75.666 61.6506L78.8724 55.3238Z"/>
<path d="M83.9164 58.5384L86.7096 52.9223C85.0212 51.5992 83.3952 50.4724 81.8223 49.5033L78.8724 55.3238C80.5155 56.2147 82.1954 57.2706 83.9164 58.5384Z"/>
<path d="M76.7294 39.3799L73.7463 45.5596C76.3015 46.5112 78.975 47.749 81.8223 49.5033L85.0534 43.1277C82.0877 41.4477 79.3421 40.2833 76.7294 39.3799Z"/>
<path d="M92.3997 41.4818C90.765 40.0573 89.2049 38.8837 87.6994 37.9068L85.0534 43.1277C86.6366 44.0245 88.2826 45.0683 90.0044 46.2978L92.3997 41.4818Z"/>
<path d="M79.3177 34.0182C76.9436 33.3001 74.6159 32.8541 72.2299 32.3968L72.2209 32.3951L71.6483 32.2852L69.2093 37.1991L69.3868 37.2456C71.7617 37.8663 74.1823 38.4991 76.7294 39.3799L79.3177 34.0182Z"/>
<path d="M60.3704 34.4447L57.2422 40.709C59.8339 41.6732 62.4132 42.3268 65.0591 42.9973C65.4342 43.0924 65.8108 43.1878 66.1888 43.2845L69.2093 37.1991C66.247 36.4246 63.353 35.6596 60.3704 34.4447Z"/>
<path d="M58.8576 28.3618C57.7933 27.816 56.6825 27.1788 55.4979 26.4243L53.3474 30.6933C55.7855 32.3381 58.1035 33.5213 60.3704 34.4447L62.5917 29.9965C61.4003 29.5624 60.171 29.0352 58.8576 28.3618Z"/>
<path d="M47.9533 26.4243L44.7969 32.7581C46.6221 34.5157 48.3909 35.9304 50.1247 37.0911L53.3474 30.6933C51.618 29.5265 49.8281 28.1275 47.9533 26.4243Z"/>
<path d="M35.9981 50.4144C37.7532 52.4036 39.433 53.9121 41.0638 55.0786L43.6107 50.0224C41.8836 48.794 40.1788 47.2904 38.4897 45.4145L35.9981 50.4144Z"/>
<path d="M46.7754 43.7399L43.6107 50.0224C45.941 51.6796 48.312 52.8357 50.7404 53.7289L53.8024 47.5972C51.4288 46.6942 49.0939 45.4907 46.7754 43.7399Z"/>
<path d="M44.7969 32.7581L41.7176 38.9373C43.4006 40.8935 45.0837 42.4625 46.7754 43.7399L50.1247 37.0911C48.3909 35.9304 46.6221 34.5157 44.7969 32.7581Z"/>
<path d="M55.4979 26.4243C53.8192 25.3553 51.9924 24.0509 49.9397 22.4382L47.9533 26.4243C49.8281 28.1275 51.618 29.5265 53.3474 30.6933L55.4979 26.4243Z"/>
<path d="M50.1247 37.0911C52.5461 38.712 54.8992 39.8374 57.2422 40.709L60.3704 34.4447C58.1035 33.5213 55.7855 32.3381 53.3474 30.6933L50.1247 37.0911Z"/>
<path d="M67.3008 31.3721C65.725 30.9953 64.1926 30.5799 62.5917 29.9965L60.3704 34.4447C63.353 35.6596 66.247 36.4246 69.2093 37.1991L71.6483 32.2852C70.2297 32.0124 68.7878 31.7276 67.3008 31.3721Z"/>
<path d="M69.2093 37.1991L66.1888 43.2845C68.6232 43.9071 71.1224 44.5824 73.7463 45.5596L76.7294 39.3799C74.1823 38.4991 71.7617 37.8663 69.3868 37.2456L69.2093 37.1991Z"/>
<path d="M87.6994 37.9068C84.7455 35.9899 82.002 34.8301 79.3177 34.0182L76.7294 39.3799C79.3421 40.2833 82.0877 41.4477 85.0534 43.1277L87.6994 37.9068Z"/>
<path d="M86.7096 52.9223L90.0044 46.2978C88.2826 45.0683 86.6366 44.0245 85.0534 43.1277L81.8223 49.5033C83.3952 50.4724 85.0212 51.5992 86.7096 52.9223Z"/>
<path d="M81.8223 49.5033C78.975 47.749 76.3015 46.5112 73.7463 45.5596L70.6648 51.9432C73.3055 52.7384 76.0341 53.7849 78.8724 55.3238L81.8223 49.5033Z"/>
<path d="M80.7874 64.8295L83.9164 58.5384C82.1954 57.2706 80.5155 56.2147 78.8724 55.3238L75.666 61.6506C77.337 62.5415 79.0432 63.5867 80.7874 64.8295Z"/>
<path d="M65.561 62.5158C65.7644 62.591 65.9686 62.6683 66.1738 62.7481C68.4399 63.6285 70.7995 64.7859 73.2814 66.3556L75.666 61.6506C72.8859 60.1684 70.2029 59.1133 67.6031 58.2856L65.561 62.5158Z"/>
<path d="M62.8366 50.0383L59.7674 56.2219C62.3002 56.8136 64.9069 57.4273 67.6031 58.2856L70.6648 51.9432C68.0704 51.1619 65.5608 50.6231 63.1151 50.0981L62.8366 50.0383Z"/>
<path d="M53.8024 47.5972C56.7402 48.7149 59.7375 49.3726 62.8366 50.0383L66.1888 43.2845C65.8108 43.1878 65.4342 43.0924 65.0591 42.9973C62.4132 42.3268 59.8339 41.6732 57.2422 40.709L53.8024 47.5972Z"/>
<path d="M54.5092 59.835L54.7939 59.8842L54.7948 59.8843C55.7328 60.0462 56.6985 60.2129 57.6922 60.4029L59.7674 56.2219L59.602 56.1832C56.5501 55.4704 53.6053 54.7826 50.7404 53.7289L48.3387 58.5384C50.2951 59.0953 52.3158 59.456 54.5092 59.835Z"/>
</mask>
<path fill-rule="evenodd" clip-rule="evenodd" d="M50.5581 17.626C50.0688 17.2228 49.4202 17.0639 48.7978 17.1949C48.1755 17.326 47.6479 17.7324 47.366 18.298L17.2156 78.8C16.707 79.8204 17.1291 81.0564 18.1582 81.5607C19.1874 82.0649 20.434 81.6464 20.9425 80.626L20.9864 80.5378L34.0208 54.3822C37.0743 57.5725 40.0481 59.615 43.0558 60.9904C46.7047 62.6591 50.3013 63.292 53.7955 63.8957L53.9784 63.9273C57.4497 64.5268 60.8843 65.12 64.6572 66.5859C68.4717 68.0679 72.6969 70.4717 77.5359 74.7721C78.02 75.2024 78.6793 75.3832 79.3177 75.2609C79.956 75.1386 80.4998 74.7271 80.7874 74.149L96.822 41.9097C97.2278 41.0937 97.046 40.1104 96.3747 39.4902C87.2148 31.0289 79.7182 29.6079 72.8073 28.2979C71.2717 28.0068 69.7649 27.7212 68.2753 27.365C65.7043 26.7503 63.4393 26.0706 60.7672 24.7005C58.0709 23.3179 54.8886 21.1949 50.5581 17.626ZM54.7939 59.8842L54.5092 59.835C52.3158 59.456 50.2951 59.0953 48.3387 58.5384C47.1423 58.1979 45.9699 57.7839 44.7969 57.2475C43.574 56.6882 42.3338 55.9871 41.0638 55.0786C39.433 53.9121 37.7532 52.4036 35.9981 50.4144L38.4897 45.4145L41.7176 38.9373L44.7969 32.7581L47.9533 26.4243L49.9397 22.4382C51.9924 24.0509 53.8192 25.3553 55.4979 26.4243C56.6825 27.1788 57.7933 27.816 58.8576 28.3618C60.171 29.0352 61.4003 29.5624 62.5917 29.9965C64.1926 30.5799 65.725 30.9953 67.3008 31.3721C68.7878 31.7276 70.2297 32.0124 71.6483 32.2852L72.2209 32.3951L72.2299 32.3968C74.6159 32.8541 76.9436 33.3001 79.3177 34.0182C82.002 34.8301 84.7455 35.9899 87.6994 37.9068C89.2049 38.8837 90.765 40.0573 92.3997 41.4818L90.0044 46.2978L86.7096 52.9223L83.9164 58.5384L80.7874 64.8295L78.2439 69.9435C76.5337 68.5518 74.8821 67.368 73.2814 66.3556C70.7995 64.7859 68.4399 63.6285 66.1738 62.7481C65.9686 62.6683 65.7644 62.591 65.561 62.5158C62.7666 61.4832 60.1443 60.8719 57.6922 60.4029C56.6985 60.2129 55.7328 60.0462 54.7948 59.8843L54.7939 59.8842Z" fill="#7C97B6"/>
<path d="M73.2814 66.3556C74.8821 67.368 76.5337 68.5518 78.2439 69.9435L80.7874 64.8295C79.0432 63.5867 77.337 62.5415 75.666 61.6506L73.2814 66.3556Z" fill="#7C97B6"/>
<path d="M57.6922 60.4029C60.1443 60.8719 62.7666 61.4832 65.561 62.5158L67.6031 58.2856C64.9069 57.4273 62.3002 56.8136 59.7674 56.2219L57.6922 60.4029Z" fill="#7C97B6"/>
<path d="M41.0638 55.0786C42.3338 55.9871 43.574 56.6882 44.7969 57.2475C45.9699 57.7839 47.1423 58.1979 48.3387 58.5384L50.7404 53.7289C48.312 52.8357 45.941 51.6796 43.6107 50.0224L41.0638 55.0786Z" fill="#7C97B6"/>
<path d="M41.7176 38.9373L38.4897 45.4145C40.1788 47.2904 41.8836 48.794 43.6107 50.0224L46.7754 43.7399C45.0837 42.4625 43.4006 40.8935 41.7176 38.9373Z" fill="#7C97B6"/>
<path d="M46.7754 43.7399C49.0939 45.4907 51.4288 46.6942 53.8024 47.5972L57.2422 40.709C54.8992 39.8374 52.5461 38.712 50.1247 37.0911L46.7754 43.7399Z" fill="#7C97B6"/>
<path d="M53.8024 47.5972L50.7404 53.7289C53.6053 54.7826 56.5501 55.4704 59.602 56.1832L59.7674 56.2219L62.8366 50.0383C59.7375 49.3726 56.7402 48.7149 53.8024 47.5972Z" fill="#7C97B6"/>
<path d="M66.1888 43.2845L62.8366 50.0383L63.1151 50.0981C65.5608 50.6231 68.0704 51.1619 70.6648 51.9432L73.7463 45.5596C71.1224 44.5824 68.6232 43.9071 66.1888 43.2845Z" fill="#7C97B6"/>
<path d="M78.8724 55.3238C76.0341 53.7849 73.3055 52.7384 70.6648 51.9432L67.6031 58.2856C70.2029 59.1133 72.8859 60.1684 75.666 61.6506L78.8724 55.3238Z" fill="#7C97B6"/>
<path d="M83.9164 58.5384L86.7096 52.9223C85.0212 51.5992 83.3952 50.4724 81.8223 49.5033L78.8724 55.3238C80.5155 56.2147 82.1954 57.2706 83.9164 58.5384Z" fill="#7C97B6"/>
<path d="M76.7294 39.3799L73.7463 45.5596C76.3015 46.5112 78.975 47.749 81.8223 49.5033L85.0534 43.1277C82.0877 41.4477 79.3421 40.2833 76.7294 39.3799Z" fill="#7C97B6"/>
<path d="M92.3997 41.4818C90.765 40.0573 89.2049 38.8837 87.6994 37.9068L85.0534 43.1277C86.6366 44.0245 88.2826 45.0683 90.0044 46.2978L92.3997 41.4818Z" fill="#7C97B6"/>
<path d="M79.3177 34.0182C76.9436 33.3001 74.6159 32.8541 72.2299 32.3968L72.2209 32.3951L71.6483 32.2852L69.2093 37.1991L69.3868 37.2456C71.7617 37.8663 74.1823 38.4991 76.7294 39.3799L79.3177 34.0182Z" fill="#7C97B6"/>
<path d="M60.3704 34.4447L57.2422 40.709C59.8339 41.6732 62.4132 42.3268 65.0591 42.9973C65.4342 43.0924 65.8108 43.1878 66.1888 43.2845L69.2093 37.1991C66.247 36.4246 63.353 35.6596 60.3704 34.4447Z" fill="#7C97B6"/>
<path d="M58.8576 28.3618C57.7933 27.816 56.6825 27.1788 55.4979 26.4243L53.3474 30.6933C55.7855 32.3381 58.1035 33.5213 60.3704 34.4447L62.5917 29.9965C61.4003 29.5624 60.171 29.0352 58.8576 28.3618Z" fill="#7C97B6"/>
<path d="M47.9533 26.4243L44.7969 32.7581C46.6221 34.5157 48.3909 35.9304 50.1247 37.0911L53.3474 30.6933C51.618 29.5265 49.8281 28.1275 47.9533 26.4243Z" fill="#7C97B6"/>
<path d="M35.9981 50.4144C37.7532 52.4036 39.433 53.9121 41.0638 55.0786L43.6107 50.0224C41.8836 48.794 40.1788 47.2904 38.4897 45.4145L35.9981 50.4144Z" fill="#FBFBFB"/>
<path d="M46.7754 43.7399L43.6107 50.0224C45.941 51.6796 48.312 52.8357 50.7404 53.7289L53.8024 47.5972C51.4288 46.6942 49.0939 45.4907 46.7754 43.7399Z" fill="#FBFBFB"/>
<path d="M44.7969 32.7581L41.7176 38.9373C43.4006 40.8935 45.0837 42.4625 46.7754 43.7399L50.1247 37.0911C48.3909 35.9304 46.6221 34.5157 44.7969 32.7581Z" fill="#FBFBFB"/>
<path d="M55.4979 26.4243C53.8192 25.3553 51.9924 24.0509 49.9397 22.4382L47.9533 26.4243C49.8281 28.1275 51.618 29.5265 53.3474 30.6933L55.4979 26.4243Z" fill="#FBFBFB"/>
<path d="M50.1247 37.0911C52.5461 38.712 54.8992 39.8374 57.2422 40.709L60.3704 34.4447C58.1035 33.5213 55.7855 32.3381 53.3474 30.6933L50.1247 37.0911Z" fill="#FBFBFB"/>
<path d="M67.3008 31.3721C65.725 30.9953 64.1926 30.5799 62.5917 29.9965L60.3704 34.4447C63.353 35.6596 66.247 36.4246 69.2093 37.1991L71.6483 32.2852C70.2297 32.0124 68.7878 31.7276 67.3008 31.3721Z" fill="#FBFBFB"/>
<path d="M69.2093 37.1991L66.1888 43.2845C68.6232 43.9071 71.1224 44.5824 73.7463 45.5596L76.7294 39.3799C74.1823 38.4991 71.7617 37.8663 69.3868 37.2456L69.2093 37.1991Z" fill="#FBFBFB"/>
<path d="M87.6994 37.9068C84.7455 35.9899 82.002 34.8301 79.3177 34.0182L76.7294 39.3799C79.3421 40.2833 82.0877 41.4477 85.0534 43.1277L87.6994 37.9068Z" fill="#FBFBFB"/>
<path d="M86.7096 52.9223L90.0044 46.2978C88.2826 45.0683 86.6366 44.0245 85.0534 43.1277L81.8223 49.5033C83.3952 50.4724 85.0212 51.5992 86.7096 52.9223Z" fill="#FBFBFB"/>
<path d="M81.8223 49.5033C78.975 47.749 76.3015 46.5112 73.7463 45.5596L70.6648 51.9432C73.3055 52.7384 76.0341 53.7849 78.8724 55.3238L81.8223 49.5033Z" fill="#FBFBFB"/>
<path d="M80.7874 64.8295L83.9164 58.5384C82.1954 57.2706 80.5155 56.2147 78.8724 55.3238L75.666 61.6506C77.337 62.5415 79.0432 63.5867 80.7874 64.8295Z" fill="#FBFBFB"/>
<path d="M65.561 62.5158C65.7644 62.591 65.9686 62.6683 66.1738 62.7481C68.4399 63.6285 70.7995 64.7859 73.2814 66.3556L75.666 61.6506C72.8859 60.1684 70.2029 59.1133 67.6031 58.2856L65.561 62.5158Z" fill="#FBFBFB"/>
<path d="M62.8366 50.0383L59.7674 56.2219C62.3002 56.8136 64.9069 57.4273 67.6031 58.2856L70.6648 51.9432C68.0704 51.1619 65.5608 50.6231 63.1151 50.0981L62.8366 50.0383Z" fill="#FBFBFB"/>
<path d="M53.8024 47.5972C56.7402 48.7149 59.7375 49.3726 62.8366 50.0383L66.1888 43.2845C65.8108 43.1878 65.4342 43.0924 65.0591 42.9973C62.4132 42.3268 59.8339 41.6732 57.2422 40.709L53.8024 47.5972Z" fill="#FBFBFB"/>
<path d="M54.5092 59.835L54.7939 59.8842L54.7948 59.8843C55.7328 60.0462 56.6985 60.2129 57.6922 60.4029L59.7674 56.2219L59.602 56.1832C56.5501 55.4704 53.6053 54.7826 50.7404 53.7289L48.3387 58.5384C50.2951 59.0953 52.3158 59.456 54.5092 59.835Z" fill="#FBFBFB"/>
<path d="M44.7969 57.2475L45.7944 55.0662L45.7944 55.0662L44.7969 57.2475ZM35.9981 50.4144L33.8514 49.3446C33.4159 50.2184 33.5536 51.2691 34.1996 52.0012L35.9981 50.4144ZM54.7939 59.8842L55.2067 57.5214L55.202 57.5206L54.7939 59.8842ZM66.1738 62.7481L67.0424 60.5124L67.0424 60.5124L66.1738 62.7481ZM78.2439 69.9435L76.7301 71.8039C77.2953 72.2638 78.039 72.4418 78.7512 72.2877C79.4634 72.1336 80.067 71.664 80.3915 71.0116L78.2439 69.9435ZM92.3997 41.4818L94.5473 42.5499C95.0333 41.5726 94.7983 40.3904 93.9754 39.6734L92.3997 41.4818ZM72.2299 32.3968L72.6813 30.0412L72.6813 30.0412L72.2299 32.3968ZM67.3008 31.3721L66.7431 33.7048L66.7431 33.7048L67.3008 31.3721ZM58.8576 28.3618L59.952 26.2275L59.952 26.2275L58.8576 28.3618ZM49.9397 22.4382L51.4215 20.5521C50.8544 20.1066 50.1169 19.9399 49.4133 20.0982C48.7097 20.2564 48.1147 20.7229 47.793 21.3684L49.9397 22.4382ZM55.4979 26.4243L56.7863 24.4013L55.4979 26.4243ZM62.5917 29.9965L63.4129 27.743L62.5917 29.9965ZM48.3387 58.5384L47.682 60.8453L48.3387 58.5384ZM57.6922 60.4029L57.2417 62.7587L57.2417 62.7587L57.6922 60.4029ZM65.561 62.5158L64.7297 64.7656L65.561 62.5158ZM87.6994 37.9068L89.005 35.8948L89.005 35.8948L87.6994 37.9068ZM73.2814 66.3556L71.9994 68.3827L71.9994 68.3827L73.2814 66.3556ZM47.9533 26.4243L45.8066 25.3545L45.8066 25.3545L47.9533 26.4243ZM90.0044 46.2978L92.152 47.3659L92.152 47.3659L90.0044 46.2978ZM44.7969 32.7581L42.6502 31.6883L42.6502 31.6883L44.7969 32.7581ZM86.7096 52.9223L88.8572 53.9904L88.8572 53.9904L86.7096 52.9223ZM83.9164 58.5384L86.0639 59.6065L86.0639 59.6065L83.9164 58.5384ZM38.4897 45.4145L36.343 44.3448L36.343 44.3448L38.4897 45.4145ZM54.7948 59.8843L54.382 62.247L54.3869 62.2479L54.7948 59.8843ZM59.602 56.1832L60.1475 53.8476L60.1475 53.8476L59.602 56.1832ZM69.3868 37.2456L69.9934 34.925L69.9934 34.925L69.3868 37.2456ZM72.2209 32.3951L71.7694 34.7507L71.7695 34.7508L72.2209 32.3951ZM65.0591 42.9973L64.4699 45.3223L64.4699 45.3223L65.0591 42.9973ZM63.1151 50.0981L62.6117 52.4432L62.6117 52.4432L63.1151 50.0981ZM55.2018 57.5206C55.1065 57.5042 55.0119 57.4878 54.9176 57.4715L54.1008 62.1985C54.1957 62.2149 54.2909 62.2313 54.386 62.2477L55.2018 57.5206ZM48.4579 24.3242C50.5592 25.9751 52.451 27.3275 54.2094 28.4474L56.7863 24.4013C55.1875 23.383 53.4256 22.1267 51.4215 20.5521L48.4579 24.3242ZM54.2094 28.4474C55.4512 29.2382 56.6267 29.9133 57.7632 30.496L59.952 26.2275C58.9598 25.7188 57.9137 25.1193 56.7863 24.4013L54.2094 28.4474ZM45.7944 55.0662C44.7067 54.5688 43.6002 53.9441 42.4592 53.1279L39.6683 57.0294C41.0673 58.0302 42.4414 58.8077 43.7994 59.4287L45.7944 55.0662ZM42.4592 53.1279C40.9932 52.0792 39.4463 50.6972 37.7966 48.8275L34.1996 52.0012C36.0602 54.11 37.8729 55.745 39.6683 57.0294L42.4592 53.1279ZM57.7632 30.496C59.1675 31.2161 60.4882 31.7828 61.7705 32.25L63.4129 27.743C62.3124 27.342 61.1745 26.8543 59.952 26.2275L57.7632 30.496ZM61.7705 32.25C63.4915 32.8772 65.1217 33.3171 66.7431 33.7048L67.8586 29.0393C66.3284 28.6734 64.8938 28.2826 63.4129 27.743L61.7705 32.25ZM54.9175 57.4715C52.7124 57.0905 50.8118 56.7487 48.9954 56.2316L47.682 60.8453C49.7783 61.442 51.9193 61.8215 54.1008 62.1985L54.9175 57.4715ZM48.9954 56.2316C47.896 55.9186 46.8401 55.5444 45.7944 55.0662L43.7994 59.4287C45.0997 60.0233 46.3885 60.4771 47.682 60.8453L48.9954 56.2316ZM66.7431 33.7048C68.2858 34.0737 69.7726 34.3669 71.1952 34.6406L72.1013 29.9299C70.6869 29.6579 69.2898 29.3815 67.8586 29.0393L66.7431 33.7048ZM71.7785 34.7525C74.1817 35.213 76.388 35.6379 78.6233 36.314L80.0121 31.7224C77.4992 30.9623 75.0501 30.4951 72.6813 30.0412L71.7785 34.7525ZM67.0424 60.5124C66.8247 60.4278 66.6081 60.3457 66.3924 60.266L64.7297 64.7656C64.9207 64.8362 65.1126 64.9089 65.3052 64.9838L67.0424 60.5124ZM66.3924 60.266C63.4272 59.1703 60.6639 58.5293 58.1428 58.0471L57.2417 62.7587C59.6248 63.2145 62.1059 63.7961 64.7297 64.7656L66.3924 60.266ZM78.6233 36.314C81.1192 37.0689 83.652 38.1396 86.3938 39.9188L89.005 35.8948C85.8389 33.8402 82.8848 32.5914 80.0121 31.7224L78.6233 36.314ZM86.3938 39.9188C87.7973 40.8296 89.2677 41.9339 90.8241 43.2901L93.9754 39.6734C92.2623 38.1807 90.6124 36.9378 89.005 35.8948L86.3938 39.9188ZM79.7577 68.083C77.9773 66.6343 76.2486 65.3943 74.5635 64.3285L71.9994 68.3827C73.5156 69.3417 75.09 70.4693 76.7301 71.8039L79.7577 68.083ZM74.5635 64.3285C71.9482 62.6745 69.4499 61.4477 67.0424 60.5124L65.3052 64.9838C67.43 65.8093 69.6508 66.8974 71.9994 68.3827L74.5635 64.3285ZM50.1 27.4941L52.0864 23.508L47.793 21.3684L45.8066 25.3545L50.1 27.4941ZM90.2522 40.4136L87.8569 45.2297L92.152 47.3659L94.5473 42.5499L90.2522 40.4136ZM46.9436 33.8279L50.1 27.4941L45.8066 25.3545L42.6502 31.6883L46.9436 33.8279ZM87.8569 45.2297L84.5621 51.8542L88.8572 53.9904L92.152 47.3659L87.8569 45.2297ZM43.8643 40.007L46.9436 33.8279L42.6502 31.6883L39.5709 37.8675L43.8643 40.007ZM84.5621 51.8542L81.7688 57.4703L86.0639 59.6065L88.8572 53.9904L84.5621 51.8542ZM38.1448 51.4842L40.6364 46.4843L36.343 44.3448L33.8514 49.3446L38.1448 51.4842ZM40.6364 46.4843L43.8643 40.007L39.5709 37.8675L36.343 44.3448L40.6364 46.4843ZM81.7688 57.4703L78.6399 63.7614L82.9349 65.8977L86.0639 59.6065L81.7688 57.4703ZM78.6399 63.7614L76.0964 68.8754L80.3915 71.0116L82.9349 65.8977L78.6399 63.7614ZM44.6333 42.6609L41.4687 48.9434L45.7528 51.1014L48.9175 44.819L44.6333 42.6609ZM42.2207 51.977C44.755 53.7794 47.3232 55.0276 49.9125 55.98L51.5684 51.4779C49.3008 50.6438 47.1269 49.5798 45.0008 48.0678L42.2207 51.977ZM52.8863 54.8005L55.9482 48.6688L51.6566 46.5257L48.5946 52.6574L52.8863 54.8005ZM54.6553 45.3555C52.4637 44.5217 50.3344 43.4219 48.2208 41.8259L45.33 45.654C47.8534 47.5595 50.3938 48.8666 52.9495 49.839L54.6553 45.3555ZM36.7073 47.0195C38.509 49.0204 40.3444 50.6426 42.2207 51.977L45.0008 48.0678C43.4227 46.9455 41.8486 45.5604 40.2721 43.8096L36.7073 47.0195ZM39.8994 40.5015C41.686 42.5782 43.4926 44.2665 45.33 45.654L48.2208 41.8259C46.6747 40.6584 45.1153 39.2089 43.5358 37.373L39.8994 40.5015ZM48.5946 52.6574L46.1929 57.4669L50.4845 59.61L52.8863 54.8005L48.5946 52.6574ZM41.4687 48.9434L38.9217 53.9996L43.2058 56.1577L45.7528 51.1014L41.4687 48.9434ZM54.1011 62.1985L54.3859 62.2477L55.202 57.5206L54.9172 57.4715L54.1011 62.1985ZM54.3811 62.2469L54.382 62.247L55.2077 57.5216L55.2067 57.5215L54.3811 62.2469ZM54.3869 62.2479C55.3278 62.4102 56.2726 62.5734 57.2417 62.7587L58.1428 58.0471C57.1245 57.8524 56.1378 57.6821 55.2027 57.5208L54.3869 62.2479ZM59.8406 61.4693L61.9159 57.2882L57.619 55.1555L55.5438 59.3366L59.8406 61.4693ZM49.9125 55.98C52.9392 57.0932 56.0291 57.8118 59.0565 58.5189L60.1475 53.8476C57.0711 53.1291 54.2714 52.4721 51.5684 51.4779L49.9125 55.98ZM59.0565 58.5189L59.2219 58.5575L60.313 53.8863L60.1476 53.8476L59.0565 58.5189ZM61.9159 57.2882L64.9851 51.1046L60.6882 48.9719L57.619 55.1555L61.9159 57.2882ZM63.3404 47.6933C60.2228 47.0236 57.3979 46.399 54.6553 45.3555L52.9495 49.839C56.0825 51.0309 59.2522 51.7215 62.3329 52.3833L63.3404 47.6933ZM60.313 53.8863C60.2578 53.8734 60.2027 53.8605 60.1475 53.8476L59.0565 58.5189C59.1116 58.5318 59.1667 58.5446 59.2218 58.5575L60.313 53.8863ZM58.0784 38.4611C55.8836 37.6445 53.7025 36.5998 51.459 35.0979L48.7904 39.0842C51.3897 40.8243 53.9148 42.0303 56.4059 42.957L58.0784 38.4611ZM47.9826 36.012L44.6333 42.6609L48.9175 44.819L52.2668 38.1701L47.9826 36.012ZM55.9482 48.6688L59.388 41.7806L55.0963 39.6375L51.6566 46.5257L55.9482 48.6688ZM43.1332 34.4858C45.0543 36.3356 46.9326 37.8405 48.7904 39.0842L51.459 35.0979C49.8493 34.0204 48.19 32.6957 46.4606 31.0304L43.1332 34.4858ZM54.6888 28.7049C53.0614 27.607 51.3617 26.2803 49.5661 24.649L46.3405 28.1996C48.2946 29.9748 50.1746 31.4461 52.0061 32.6816L54.6888 28.7049ZM52.2668 38.1701L55.4895 31.7723L51.2054 29.6142L47.9826 36.012L52.2668 38.1701ZM53.3558 25.3453L51.2054 29.6142L55.4895 31.7723L57.6399 27.5034L53.3558 25.3453ZM52.0061 32.6816C54.5921 34.4262 57.0581 35.6853 59.4656 36.666L61.2752 32.2234C59.1489 31.3573 56.979 30.25 54.6888 28.7049L52.0061 32.6816ZM62.5162 35.5162L64.7375 31.0681L60.4459 28.9249L58.2246 33.3731L62.5162 35.5162ZM58.2246 33.3731L55.0963 39.6375L59.388 41.7806L62.5162 35.5162L58.2246 33.3731ZM68.3373 44.3509L71.3577 38.2655L67.0609 36.1328L64.0404 42.2182L68.3373 44.3509ZM69.816 34.8786C66.8415 34.1009 64.0922 33.3709 61.2752 32.2234L59.4656 36.666C62.6137 37.9483 65.6524 38.7483 68.6026 39.5196L69.816 34.8786ZM69.4998 31.2189L67.0609 36.1328L71.3577 38.2655L73.7967 33.3516L69.4998 31.2189ZM64.0404 42.2182L60.6882 48.9719L64.9851 51.1046L68.3373 44.3509L64.0404 42.2182ZM68.6027 39.5197L68.7802 39.5661L69.9934 34.925L69.8159 34.8786L68.6027 39.5197ZM68.7802 39.5661C71.1646 40.1894 73.4988 40.8006 75.9456 41.6467L77.5133 37.1131C74.8658 36.1976 72.3587 35.5433 69.9934 34.925L68.7802 39.5661ZM78.8894 40.4226L81.4777 35.0609L77.1577 32.9755L74.5694 38.3372L78.8894 40.4226ZM68.6026 39.5196C68.6618 39.5351 68.7211 39.5506 68.7802 39.5661L69.9934 34.925C69.9341 34.9095 69.8751 34.8941 69.816 34.8786L68.6026 39.5196ZM65.5946 45.6082C68.0124 46.2265 70.4099 46.8764 72.9092 47.8073L74.5834 43.3119C71.8349 42.2883 69.2341 41.5876 66.7831 40.9608L65.5946 45.6082ZM75.9063 46.6023L78.8894 40.4226L74.5694 38.3372L71.5863 44.5169L75.9063 46.6023ZM83.9617 50.5876L87.1929 44.2119L82.914 42.0434L79.6828 48.419L83.9617 50.5876ZM86.2356 41.0408C83.1253 39.2788 80.2434 38.0571 77.5133 37.1131L75.9456 41.6467C78.4407 42.5095 81.0501 43.6165 83.8713 45.2146L86.2356 41.0408ZM72.9092 47.8073C75.3337 48.7102 77.864 49.8817 80.5641 51.5453L83.0804 47.4612C80.0861 45.6164 77.2693 44.3122 74.5834 43.3119L72.9092 47.8073ZM80.5641 51.5453C82.0581 52.4658 83.6104 53.5408 85.2302 54.8102L88.1891 51.0344C86.4321 49.6576 84.7324 48.4791 83.0804 47.4612L80.5641 51.5453ZM83.8713 45.2146C85.3797 46.0691 86.9551 47.0676 88.6106 48.2498L91.3982 44.3459C89.61 43.069 87.8936 41.98 86.2356 41.0408L83.8713 45.2146ZM85.56 36.8225L82.914 42.0434L87.1929 44.2119L89.8388 38.9911L85.56 36.8225ZM79.6828 48.419L76.733 54.2395L81.0118 56.408L83.9617 50.5876L79.6828 48.419ZM77.7292 57.4323C79.2753 58.2706 80.8618 59.2673 82.4938 60.4695L85.339 56.6074C83.5291 55.274 81.7558 54.1588 80.0156 53.2153L77.7292 57.4323ZM71.5863 44.5169L68.5048 50.9005L72.8248 52.9859L75.9063 46.6023L71.5863 44.5169ZM69.9732 54.2398C72.4897 54.9976 75.0616 55.9859 77.7292 57.4323L80.0156 53.2153C77.0067 51.5838 74.1213 50.4792 71.3564 49.6465L69.9732 54.2398ZM59.2218 58.5575C61.7616 59.1508 64.2814 59.7452 66.8755 60.5711L68.3307 56.0001C65.5324 55.1093 62.8388 54.4763 60.313 53.8863L59.2218 58.5575ZM69.7631 59.3283L72.8248 52.9859L68.5048 50.9005L65.4431 57.2429L69.7631 59.3283ZM65.4431 57.2429L63.4011 61.4731L67.721 63.5585L69.7631 59.3283L65.4431 57.2429ZM77.8054 62.7349L81.0118 56.408L76.733 54.2395L73.5265 60.5663L77.8054 62.7349ZM66.8755 60.5711C69.365 61.3636 71.9094 62.3659 74.5376 63.7671L76.7943 59.5341C73.8624 57.971 71.0408 56.8629 68.3307 56.0001L66.8755 60.5711ZM74.5376 63.7671C76.1185 64.61 77.7366 65.6008 79.3956 66.7829L82.1792 62.8762C80.3497 61.5726 78.5555 60.473 76.7943 59.5341L74.5376 63.7671ZM73.5265 60.5663L71.142 65.2714L75.4208 67.4399L77.8054 62.7349L73.5265 60.5663ZM71.1952 34.6406C71.3874 34.6775 71.5791 34.7143 71.7694 34.7507L72.6723 30.0395C72.4816 30.0029 72.2916 29.9665 72.1013 29.9299L71.1952 34.6406ZM71.7696 34.7508L71.7786 34.7525L72.6811 30.0412L72.6721 30.0394L71.7696 34.7508ZM71.7695 34.7508C71.7711 34.7511 71.7727 34.7514 71.7742 34.7517C71.7757 34.7519 71.7771 34.7522 71.7785 34.7525L72.6813 30.0412C72.6797 30.0409 72.678 30.0406 72.6766 30.0403C72.675 30.04 72.6736 30.0397 72.6723 30.0395L71.7695 34.7508ZM71.1963 34.6408L71.7689 34.7506L72.6728 30.0396L72.1002 29.9297L71.1963 34.6408ZM66.7831 40.9608C66.4021 40.8633 66.023 40.7673 65.6482 40.6723L64.4699 45.3223C64.8455 45.4175 65.2195 45.5123 65.5946 45.6082L66.7831 40.9608ZM65.6483 40.6723C62.9841 39.9972 60.5293 39.3728 58.0784 38.4611L56.4059 42.957C59.1384 43.9735 61.8423 44.6565 64.4699 45.3223L65.6483 40.6723ZM71.3564 49.6465C68.6549 48.833 66.0528 48.2756 63.6186 47.753L62.6117 52.4432C65.0687 52.9706 67.4859 53.4908 69.9732 54.2398L71.3564 49.6465ZM63.6186 47.753C63.5256 47.7331 63.433 47.7132 63.3404 47.6933L62.3329 52.3833C62.4258 52.4033 62.5188 52.4232 62.6117 52.4432L63.6186 47.753ZM62.3331 52.3833L62.6116 52.4431L63.6187 47.7531L63.3402 47.6932L62.3331 52.3833ZM50.5581 17.626L47.5073 21.3279L47.5073 21.3279L50.5581 17.626ZM48.7978 17.1949L47.8097 12.5008L47.8097 12.5008L48.7978 17.1949ZM60.7672 24.7005L58.5784 28.969L58.5784 28.969L60.7672 24.7005ZM68.2753 27.365L67.1598 32.0305L67.1598 32.0305L68.2753 27.365ZM72.8073 28.2979L73.7007 23.5848L73.7007 23.5848L72.8073 28.2979ZM96.3747 39.4902L93.1197 43.0139L93.1197 43.0139L96.3747 39.4902ZM96.822 41.9097L101.117 44.046L101.117 44.0459L96.822 41.9097ZM80.7874 74.149L85.0825 76.2852L85.0825 76.2852L80.7874 74.149ZM79.3177 75.2609L78.4147 70.5496L78.4147 70.5496L79.3177 75.2609ZM77.5359 74.7721L80.7225 71.1865L80.7225 71.1865L77.5359 74.7721ZM64.6572 66.5859L62.92 71.0573L62.92 71.0573L64.6572 66.5859ZM53.9784 63.9273L53.1619 68.6543L53.162 68.6543L53.9784 63.9273ZM53.7955 63.8957L52.9787 68.6227L52.979 68.6227L53.7955 63.8957ZM43.0558 60.9904L41.0608 65.3529L41.0608 65.3529L43.0558 60.9904ZM34.0208 54.3822L37.4862 51.0653C36.4064 49.9371 34.8451 49.4052 33.3011 49.6395C31.7572 49.8738 30.4239 50.8449 29.7274 52.2426L34.0208 54.3822ZM47.366 18.298L51.6594 20.4376L51.6594 20.4376L47.366 18.298ZM20.9864 80.5378L25.2793 82.6784L25.2798 82.6774L20.9864 80.5378ZM17.2156 78.8L21.509 80.9396L21.509 80.9396L17.2156 78.8ZM18.1582 81.5607L16.0477 85.8684L16.0477 85.8685L18.1582 81.5607ZM20.9425 80.626L16.6496 78.4854L16.6491 78.4864L20.9425 80.626ZM53.6089 13.9242C51.9901 12.59 49.854 12.0705 47.8097 12.5008L49.786 21.8891C48.9864 22.0574 48.1476 21.8555 47.5073 21.3279L53.6089 13.9242ZM62.9559 20.4319C60.6718 19.2607 57.7834 17.3644 53.6089 13.9242L47.5073 21.3279C51.9938 25.0253 55.4701 27.3752 58.5784 28.969L62.9559 20.4319ZM69.3908 22.6995C67.0226 22.1333 65.1611 21.5626 62.9559 20.4319L58.5784 28.969C61.7176 30.5786 64.386 31.3673 67.1598 32.0305L69.3908 22.6995ZM73.7007 23.5848C72.1458 23.2901 70.7513 23.0248 69.3908 22.6995L67.1598 32.0305C68.7786 32.4175 70.3975 32.7235 71.9139 33.0109L73.7007 23.5848ZM99.6296 35.9665C89.4705 26.5822 80.8922 24.948 73.7007 23.5848L71.9139 33.0109C78.5441 34.2678 84.959 35.4757 93.1197 43.0139L99.6296 35.9665ZM101.117 44.0459C102.476 41.314 101.86 38.0269 99.6296 35.9665L93.1197 43.0139C92.2319 42.1939 91.9798 40.8735 92.5269 39.7735L101.117 44.0459ZM85.0825 76.2852L101.117 44.046L92.5269 39.7735L76.4923 72.0127L85.0825 76.2852ZM80.2206 79.9722C82.3183 79.5701 84.123 78.2144 85.0825 76.2852L76.4923 72.0127C76.8767 71.2398 77.5938 70.707 78.4147 70.5496L80.2206 79.9722ZM74.3493 78.3578C75.9523 79.7823 78.1243 80.3739 80.2206 79.9722L78.4147 70.5496C79.2344 70.3926 80.0878 70.6224 80.7225 71.1865L74.3493 78.3578ZM62.92 71.0573C66.1678 72.3191 69.9081 74.4109 74.3493 78.3578L80.7225 71.1865C75.4857 66.5325 70.7757 63.8167 66.3944 62.1145L62.92 71.0573ZM53.162 68.6543C56.6616 69.2587 59.6515 69.7874 62.92 71.0573L66.3944 62.1145C62.1171 60.4527 58.2377 59.7949 54.7948 59.2003L53.162 68.6543ZM52.979 68.6227L53.1619 68.6543L54.7949 59.2003L54.612 59.1687L52.979 68.6227ZM41.0608 65.3529C45.3492 67.314 49.5291 68.0266 52.9787 68.6227L54.6122 59.1688C51.0736 58.5573 48.0602 58.0042 45.0508 56.628L41.0608 65.3529ZM30.5554 57.6991C34.0003 61.2983 37.4653 63.7086 41.0608 65.3529L45.0508 56.628C42.6308 55.5213 40.1484 53.8466 37.4862 51.0653L30.5554 57.6991ZM47.8097 12.5008C45.764 12.9315 44.0131 14.2712 43.0726 16.1584L51.6594 20.4376C51.2827 21.1936 50.5869 21.7205 49.786 21.8891L47.8097 12.5008ZM25.2798 82.6774L38.3142 56.5218L29.7274 52.2426L16.693 78.3983L25.2798 82.6774ZM43.0726 16.1584L12.9221 76.6604L21.509 80.9396L51.6594 20.4376L43.0726 16.1584ZM16.0477 85.8685C19.4238 87.5225 23.5411 86.1665 25.2359 82.7655L16.6491 78.4864C17.3269 77.1263 18.951 76.6073 20.2687 77.2529L16.0477 85.8685ZM12.9221 76.6604C11.2158 80.0844 12.6492 84.2034 16.0477 85.8684L20.2688 77.2529C21.6089 77.9095 22.1982 79.5565 21.509 80.9396L12.9221 76.6604ZM25.2354 82.7666L25.2793 82.6784L16.6935 78.3972L16.6496 78.4854L25.2354 82.7666Z" fill="#FBFBFB" mask="url(#path-1-outside-1_102_17)"/>
</g>
<defs>
<filter id="filter0_d_102_17" x="0.204172" y="0.355997" width="113.627" height="98.2126" filterUnits="userSpaceOnUse" color-interpolation-filters="sRGB">
<feFlood flood-opacity="0" result="BackgroundImageFix"/>
<feColorMatrix in="SourceAlpha" type="matrix" values="0 0 0 0 0 0 0 0 0 0 0 0 0 0 0 0 0 0 127 0" result="hardAlpha"/>
<feOffset/>
<feGaussianBlur stdDeviation="5.9985"/>
<feComposite in2="hardAlpha" operator="out"/>
<feColorMatrix type="matrix" values="0 0 0 0 0.263281 0 0 0 0 0.19884 0 0 0 0 0.150509 0 0 0 0.3 0"/>
<feBlend mode="normal" in2="BackgroundImageFix" result="effect1_dropShadow_102_17"/>
<feBlend mode="normal" in="SourceGraphic" in2="effect1_dropShadow_102_17" result="shape"/>
</filter>
</defs>
</svg>
