<svg width="108" height="106" viewBox="0 0 108 106" fill="none" xmlns="http://www.w3.org/2000/svg">
<g filter="url(#filter0_d_102_11)">
<path d="M48.8162 21.4813C50.4327 16.5062 57.4711 16.5062 59.0876 21.4813L64.1561 37.0804C64.879 39.3053 66.9523 40.8117 69.2918 40.8117L85.6936 40.8117C90.9247 40.8117 93.0997 47.5056 88.8677 50.5804L75.5983 60.2212C73.7056 61.5963 72.9137 64.0337 73.6366 66.2586L78.7051 81.8577C80.3216 86.8328 74.6274 90.9698 70.3953 87.8951L57.1259 78.2543C55.2333 76.8792 52.6705 76.8792 50.7778 78.2543L37.5085 87.8951C33.2764 90.9698 27.5822 86.8327 29.1987 81.8577L34.2672 66.2586C34.9901 64.0337 34.1981 61.5963 32.3055 60.2212L19.0361 50.5804C14.8041 47.5056 16.979 40.8117 22.2102 40.8117L38.612 40.8117C40.9514 40.8117 43.0248 39.3053 43.7477 37.0804L48.8162 21.4813Z" fill="#EBD495"/>
<path d="M66.4372 36.3392L61.3687 20.7401C59.0342 13.5553 48.8696 13.5553 46.5351 20.7401L41.4666 36.3392C41.0648 37.5759 39.9124 38.4132 38.612 38.4132L22.2102 38.4132C14.6556 38.4132 11.5145 48.0804 17.6263 52.5208L30.8957 62.1616C31.9477 62.9259 32.3879 64.2807 31.9861 65.5174L26.9176 81.1165C24.5831 88.3013 32.8065 94.276 38.9183 89.8355L52.1877 80.1947C53.2396 79.4304 54.6641 79.4304 55.7161 80.1947L68.9855 89.8355C75.0973 94.276 83.3207 88.3013 80.9862 81.1165L75.9177 65.5174C75.5159 64.2807 75.9561 62.9259 77.0081 62.1616L90.2775 52.5208C96.3892 48.0804 93.2482 38.4132 85.6936 38.4132L69.2918 38.4132C67.9914 38.4132 66.839 37.5759 66.4372 36.3392Z" stroke="#FBFBFB" stroke-width="4.797"/>
</g>
<defs>
<filter id="filter0_d_102_11" x="-0.0033474" y="0.956003" width="107.911" height="104.811" filterUnits="userSpaceOnUse" color-interpolation-filters="sRGB">
<feFlood flood-opacity="0" result="BackgroundImageFix"/>
<feColorMatrix in="SourceAlpha" type="matrix" values="0 0 0 0 0 0 0 0 0 0 0 0 0 0 0 0 0 0 127 0" result="hardAlpha"/>
<feOffset/>
<feGaussianBlur stdDeviation="5.9985"/>
<feComposite in2="hardAlpha" operator="out"/>
<feColorMatrix type="matrix" values="0 0 0 0 0.263281 0 0 0 0 0.19884 0 0 0 0 0.150509 0 0 0 0.3 0"/>
<feBlend mode="normal" in2="BackgroundImageFix" result="effect1_dropShadow_102_11"/>
<feBlend mode="normal" in="SourceGraphic" in2="effect1_dropShadow_102_11" result="shape"/>
</filter>
</defs>
</svg>
