<svg width="86" height="86" viewBox="0 0 86 86" fill="none" xmlns="http://www.w3.org/2000/svg">
<g filter="url(#filter0_d_102_16)">
<path fill-rule="evenodd" clip-rule="evenodd" d="M38.3248 24.1916C30.7508 24.1916 24.6109 30.4444 24.6109 38.1576C24.6109 45.8708 30.7508 52.1235 38.3248 52.1235C42.1212 52.1235 45.5517 50.5573 48.0387 48.0159C50.5144 45.486 52.0386 42.0065 52.0386 38.1576C52.0386 30.4444 45.8987 24.1916 38.3248 24.1916ZM17.5 38.1576C17.5 26.4449 26.8236 16.95 38.3248 16.95C49.8259 16.95 59.1495 26.4449 59.1495 38.1576C59.1495 42.6937 57.7482 46.9008 55.3663 50.3488L67.7586 62.9689C69.1471 64.3829 69.1471 66.6755 67.7586 68.0895C66.3701 69.5035 64.119 69.5035 62.7305 68.0895L50.3455 55.4768C46.9505 57.9241 42.8009 59.3651 38.3248 59.3651C26.8236 59.3651 17.5 49.8702 17.5 38.1576Z" fill="#9B82AA"/>
<path d="M24.6109 38.1576C24.6109 30.4444 30.7508 24.1916 38.3248 24.1916C45.8987 24.1916 52.0386 30.4444 52.0386 38.1576C52.0386 42.0065 50.5144 45.486 48.0387 48.0159C45.5517 50.5573 42.1212 52.1235 38.3248 52.1235C30.7508 52.1235 24.6109 45.8708 24.6109 38.1576Z" fill="#FBFBFB"/>
<path d="M38.3248 14.5515C25.4579 14.5515 15.1015 25.1617 15.1015 38.1576C15.1015 51.1535 25.4579 61.7636 38.3248 61.7636C42.5841 61.7636 46.5801 60.5941 50.0115 58.56L61.0191 69.77C63.3477 72.1413 67.1414 72.1413 69.47 69.77C71.7747 67.4229 71.7747 63.6354 69.47 61.2884L58.4056 50.0206C60.4032 46.5325 61.548 42.4759 61.548 38.1576C61.548 25.1617 51.1916 14.5515 38.3248 14.5515Z" stroke="#FBFBFB" stroke-width="4.797" stroke-linecap="round"/>
</g>
<defs>
<filter id="filter0_d_102_16" x="0.706125" y="0.156" width="84.888" height="85.788" filterUnits="userSpaceOnUse" color-interpolation-filters="sRGB">
<feFlood flood-opacity="0" result="BackgroundImageFix"/>
<feColorMatrix in="SourceAlpha" type="matrix" values="0 0 0 0 0 0 0 0 0 0 0 0 0 0 0 0 0 0 127 0" result="hardAlpha"/>
<feOffset/>
<feGaussianBlur stdDeviation="5.9985"/>
<feComposite in2="hardAlpha" operator="out"/>
<feColorMatrix type="matrix" values="0 0 0 0 0.263281 0 0 0 0 0.19884 0 0 0 0 0.150509 0 0 0 0.3 0"/>
<feBlend mode="normal" in2="BackgroundImageFix" result="effect1_dropShadow_102_16"/>
<feBlend mode="normal" in="SourceGraphic" in2="effect1_dropShadow_102_16" result="shape"/>
</filter>
</defs>
</svg>
