<svg width="105" height="91" viewBox="0 0 105 91" fill="none" xmlns="http://www.w3.org/2000/svg">
<g filter="url(#filter0_d_105_38)">
<path fill-rule="evenodd" clip-rule="evenodd" d="M55.6708 68.0626C67.7154 66.7225 76.318 57.3332 79.9912 47.002C81.9664 41.4469 82.3784 35.9457 81.2901 31.7098C80.2282 27.5766 77.8231 24.802 74.01 23.8445C69.7214 22.7675 66.8151 23.622 64.6203 25.4787C62.2491 27.4846 60.3462 30.9702 58.9302 35.8064C56.3389 44.6563 55.7513 56.6573 55.6708 68.0626ZM52.7 36.1603C52.8728 35.4739 53.0554 34.8003 53.2485 34.1408C54.7982 28.8483 57.1319 24.0561 60.7979 20.9548C64.6403 17.7044 69.5718 16.6222 75.4512 18.0987C81.806 19.6945 85.544 24.4737 87.0241 30.2349C88.4778 35.8933 87.8307 42.627 85.5692 48.9876C81.0644 61.6575 69.6035 74.15 52.7 74.15C35.7966 74.15 24.3356 61.6575 19.8309 48.9876C17.5694 42.627 16.9222 35.8933 18.3759 30.2349C19.8561 24.4737 23.5941 19.6945 29.9489 18.0987C35.8283 16.6222 40.7598 17.7044 44.6022 20.9548C48.2682 24.0561 50.6019 28.8483 52.1515 34.1408C52.3446 34.8003 52.5273 35.4739 52.7 36.1603ZM49.7293 68.0626C49.6488 56.6573 49.0611 44.6563 46.4699 35.8064C45.0539 30.9702 43.1509 27.4846 40.7798 25.4787C38.5849 23.622 35.6786 22.7675 31.3901 23.8445C27.5769 24.802 25.1718 27.5766 24.11 31.7098C23.0217 35.9457 23.4337 41.4469 25.4088 47.002C29.0821 57.3332 37.6847 66.7225 49.7293 68.0626Z" fill="#92725A"/>
<path d="M79.9912 47.002C76.318 57.3332 67.7154 66.7225 55.6708 68.0626C55.7513 56.6573 56.3389 44.6563 58.9302 35.8064C60.3462 30.9702 62.2491 27.4846 64.6203 25.4787C66.8151 23.622 69.7214 22.7675 74.01 23.8445C77.8231 24.802 80.2282 27.5766 81.2901 31.7098C82.3784 35.9457 81.9664 41.4469 79.9912 47.002Z" fill="#FBFBFB"/>
<path d="M46.4699 35.8064C49.0611 44.6563 49.6488 56.6573 49.7293 68.0626C37.6847 66.7225 29.0821 57.3332 25.4088 47.002C23.4337 41.4469 23.0217 35.9457 24.11 31.7098C25.1718 27.5766 27.5769 24.802 31.3901 23.8445C35.6786 22.7675 38.5849 23.622 40.7798 25.4787C43.1509 27.4846 45.0539 30.9702 46.4699 35.8064Z" fill="#FBFBFB"/>
<path fill-rule="evenodd" clip-rule="evenodd" d="M55.3083 28.5538C54.5459 30.2028 53.9017 31.9643 53.3529 33.789C53.3178 33.906 53.2829 34.0233 53.2485 34.1408C53.0554 34.8003 52.8728 35.4739 52.7 36.1603C52.5273 35.4739 52.3446 34.8003 52.1515 34.1408C52.1171 34.0233 52.0824 33.906 52.0472 33.789C51.4984 31.9643 50.8543 30.2028 50.0918 28.5538C48.7013 25.5464 46.9174 22.9134 44.6022 20.9548C40.7598 17.7044 35.8283 16.6222 29.9489 18.0987C23.5941 19.6945 19.8561 24.4737 18.3759 30.2349C16.9222 35.8933 17.5694 42.627 19.8309 48.9876C24.3356 61.6575 35.7966 74.15 52.7 74.15C69.6035 74.15 81.0644 61.6575 85.5692 48.9876C87.8307 42.627 88.4778 35.8933 87.0241 30.2349C85.544 24.4737 81.806 19.6945 75.4512 18.0987C69.5718 16.6222 64.6403 17.7044 60.7979 20.9548C58.4827 22.9134 56.6989 25.5464 55.3083 28.5538ZM52.7001 23.2494C51.3508 21.0314 49.7102 18.9928 47.7003 17.2925C42.5205 12.9106 35.9462 11.6467 28.7806 13.4461C20.3583 15.5611 15.5462 21.9714 13.7298 29.0412C11.9802 35.8513 12.818 43.5827 15.3111 50.5947C20.2463 64.4753 33.1111 78.947 52.7001 78.947C72.289 78.947 85.1538 64.4753 90.089 50.5947C92.5821 43.5827 93.4199 35.8513 91.6703 29.0412C89.8539 21.9714 85.0418 15.5611 76.6195 13.4461C69.4539 11.6467 62.8796 12.9106 57.6998 17.2925C55.6899 18.9928 54.0493 21.0314 52.7001 23.2494Z" fill="#FBFBFB"/>
</g>
<defs>
<filter id="filter0_d_105_38" x="0.805735" y="0.657755" width="103.788" height="90.2862" filterUnits="userSpaceOnUse" color-interpolation-filters="sRGB">
<feFlood flood-opacity="0" result="BackgroundImageFix"/>
<feColorMatrix in="SourceAlpha" type="matrix" values="0 0 0 0 0 0 0 0 0 0 0 0 0 0 0 0 0 0 127 0" result="hardAlpha"/>
<feOffset/>
<feGaussianBlur stdDeviation="5.9985"/>
<feComposite in2="hardAlpha" operator="out"/>
<feColorMatrix type="matrix" values="0 0 0 0 0.263281 0 0 0 0 0.19884 0 0 0 0 0.150509 0 0 0 0.3 0"/>
<feBlend mode="normal" in2="BackgroundImageFix" result="effect1_dropShadow_105_38"/>
<feBlend mode="normal" in="SourceGraphic" in2="effect1_dropShadow_105_38" result="shape"/>
</filter>
</defs>
</svg>
