<svg width="901" height="489" viewBox="0 0 901 489" fill="none" xmlns="http://www.w3.org/2000/svg">
<rect width="900" height="487.735" transform="translate(0.5 0.63266)" fill="#EBDFD3"/>
<path opacity="0.5" d="M563.783 275.873L516.566 262.574L489.509 303.52L461.89 262.965L414.861 276.938L419.763 228.103L374.766 208.565L409.897 174.301L387.987 130.394L436.907 126.733L448.336 79.0018L488.156 107.657L527.576 78.4351L539.664 125.998L588.629 128.959L567.329 173.175L602.929 206.934L558.207 227.113L563.783 275.873Z" fill="#8B95A4"/>
<path d="M339.514 254.076L434.074 149.514L442.939 286.354L352.925 283.171L339.514 254.076Z" fill="#C88888"/>
<path d="M433.109 149.444C446.777 141.279 469.98 135.502 483.22 158.818C502.194 157.389 517.913 185.846 506.135 202.68C510.842 206.174 518.727 231.757 501.853 241.45C510.318 251.166 501.41 269.903 490.743 272.466C487.829 279.258 483.224 284.955 469.564 284.965C461.112 293.483 447.578 296.117 435.308 291.909" fill="#C88888"/>
<path d="M433.109 149.444C446.777 141.279 469.98 135.502 483.22 158.818C502.194 157.389 517.913 185.846 506.135 202.68C510.842 206.174 518.727 231.757 501.853 241.45C510.318 251.166 501.41 269.903 490.743 272.466C487.829 279.258 483.224 284.955 469.564 284.965C461.112 293.483 447.578 296.117 435.308 291.909" stroke="#563B40" stroke-width="4.51199" stroke-linecap="round" stroke-linejoin="round"/>
<path d="M352.906 282.072C369.021 294.83 380.016 295.279 395.727 289.826C407.101 301.268 433.571 292.862 439.936 284.386" fill="#C88888"/>
<path d="M352.906 282.072C369.021 294.83 380.016 295.279 395.727 289.826C407.101 301.268 433.571 292.862 439.936 284.386" stroke="#563B40" stroke-width="4.51199" stroke-linecap="round" stroke-linejoin="round"/>
<path d="M445.491 171.086C445.903 164.31 438.393 161.361 434.381 165.068C434.452 147.554 409.101 125.053 387.857 149.791C363.731 136.374 344.432 167.706 350.823 183.353C333.027 182.097 325.063 216.002 340.871 222.239C331.208 231.88 331.777 249.636 342.014 256.781" fill="#C88888"/>
<path d="M445.491 171.086C445.903 164.31 438.393 161.361 434.381 165.068C434.452 147.554 409.101 125.053 387.857 149.791C363.731 136.374 344.432 167.706 350.823 183.353C333.027 182.097 325.063 216.002 340.871 222.239C331.208 231.88 331.777 249.636 342.014 256.781" stroke="#563B40" stroke-width="4.51199" stroke-linecap="round" stroke-linejoin="round"/>
<path d="M349.061 287.49L333.15 288.399L326.33 309.766L343.151 325.223L359.29 308.402L349.061 287.49Z" fill="#F6ECE3"/>
<path d="M335.516 287.758C331.016 287.945 329.849 291.86 331.997 295.942Z" fill="#F6ECE3"/>
<path d="M335.516 287.758C331.016 287.945 329.849 291.86 331.997 295.942" stroke="#563B40" stroke-width="3.99541" stroke-linecap="round" stroke-linejoin="round"/>
<path d="M347.217 286.776C356.267 284.991 354.546 293.647 351.554 293.814C362.459 292.625 361.978 306.385 356.873 306.252" fill="#F6ECE3"/>
<path d="M347.217 286.776C356.267 284.991 354.546 293.647 351.554 293.814C362.459 292.625 361.978 306.385 356.873 306.252" stroke="#563B40" stroke-width="3.99541" stroke-linecap="round" stroke-linejoin="round"/>
<path d="M336.007 296.351C322.915 294.969 319.631 331.173 333.47 322.374Z" fill="#F6ECE3"/>
<path d="M336.007 296.351C322.915 294.969 319.631 331.173 333.47 322.374" stroke="#563B40" stroke-width="3.99541" stroke-linecap="round" stroke-linejoin="round"/>
<path d="M332.406 313.618C331.194 320.983 338.776 332.512 345.173 322.947Z" fill="#F6ECE3"/>
<path d="M332.406 313.618C331.194 320.983 338.776 332.512 345.173 322.947" stroke="#563B40" stroke-width="3.99541" stroke-linecap="round" stroke-linejoin="round"/>
<path d="M342.226 310.672C342.719 323.123 348.121 325.697 353.765 322.676C357.313 320.777 365.943 305.079 351.227 305.598" fill="#F6ECE3"/>
<path d="M342.226 310.672C342.719 323.123 348.121 325.697 353.765 322.676C357.313 320.777 365.943 305.079 351.227 305.598" stroke="#563B40" stroke-width="3.99541" stroke-linecap="round" stroke-linejoin="round"/>
<path d="M352.619 300.933C350.43 303.261 349.229 307.975 351.801 311.817Z" fill="#F6ECE3"/>
<path d="M352.619 300.933C350.43 303.261 349.229 307.975 351.801 311.817" stroke="#563B40" stroke-width="3.99541" stroke-linecap="round" stroke-linejoin="round"/>
<path d="M363.012 235.138C344.244 241.525 334.629 273.14 335.68 287.676C340.817 289.561 343.803 287.68 347.3 286.694C349.65 272.334 355.209 251.529 370.05 244.092" fill="#563B40" stroke="#563B40" stroke-width="3.99541" stroke-linecap="round" stroke-linejoin="round"/>
<path d="M412.253 363.638L391.568 359.092L385.885 375.231L399.069 391.597L412.253 363.638Z" fill="#A06060"/>
<path d="M391.56 382.643C372.447 356.42 348.581 371.495 345.962 393.521C363.657 403.895 400.304 404.825 417.252 396.299C418.496 382.934 415.794 375.308 410.73 371.119" fill="#A06060"/>
<path d="M391.56 382.643C372.447 356.42 348.581 371.495 345.962 393.521C363.657 403.895 400.304 404.825 417.252 396.299C418.496 382.934 415.794 375.308 410.73 371.119" stroke="#563B40" stroke-width="4.47824" stroke-linecap="round" stroke-linejoin="round"/>
<path d="M390.404 368.292C388.8 370.267 387.824 371.558 386.122 376.046Z" fill="#A06060"/>
<path d="M390.404 368.292C388.8 370.267 387.824 371.558 386.122 376.046" stroke="#563B40" stroke-width="4.47824" stroke-linecap="round" stroke-linejoin="round"/>
<path d="M392.255 359.38C384.755 358.159 382.963 368.316 397.463 370.491Z" fill="#A06060"/>
<path d="M392.255 359.38C384.755 358.159 382.963 368.316 397.463 370.491" stroke="#563B40" stroke-width="4.47824" stroke-linecap="round" stroke-linejoin="round"/>
<path d="M406.721 362.622C417.724 361.983 415.571 373.399 403.944 371.418Z" fill="#A06060"/>
<path d="M406.721 362.622C417.724 361.983 415.571 373.399 403.944 371.418" stroke="#563B40" stroke-width="4.47824" stroke-linecap="round" stroke-linejoin="round"/>
<path d="M402.786 294.455C398.056 308.835 394.146 327.807 392.486 359.38C397.308 363.752 402.131 365.638 406.953 362.621C406.83 339.249 409.889 316.445 418.989 294.918" fill="#563B40"/>
<path d="M402.786 294.455C398.056 308.835 394.146 327.807 392.486 359.38C397.308 363.752 402.131 365.638 406.953 362.621C406.83 339.249 409.889 316.445 418.989 294.918" stroke="#563B40" stroke-width="3.99541" stroke-linecap="round" stroke-linejoin="round"/>
<path d="M467.944 357.956L446.123 360.683L449.987 385.233L475.673 374.777L467.944 357.956Z" fill="#A06060"/>
<path d="M465.513 379.403C493.308 349.619 505.73 379.39 505.208 392.596C481.068 401.712 457.943 402.534 435.654 396.531C436.027 386.452 441.397 376.727 445.491 369.334" fill="#A06060"/>
<path d="M465.513 379.403C493.308 349.619 505.73 379.39 505.208 392.596C481.068 401.712 457.943 402.534 435.654 396.531C436.027 386.452 441.397 376.727 445.491 369.334" stroke="#563B40" stroke-width="4.47824" stroke-linecap="round" stroke-linejoin="round"/>
<path d="M451.857 368.292C438.429 372.9 437.469 357.359 449.533 360.229Z" fill="#A06060"/>
<path d="M451.857 368.292C438.429 372.9 437.469 357.359 449.533 360.229" stroke="#563B40" stroke-width="4.47824" stroke-linecap="round" stroke-linejoin="round"/>
<path d="M463.17 358.41C470.216 352.727 472.754 364.028 467.942 364.936C470.495 366.784 472.476 368.918 474.423 371.069" fill="#A06060"/>
<path d="M463.17 358.41C470.216 352.727 472.754 364.028 467.942 364.936C470.495 366.784 472.476 368.918 474.423 371.069" stroke="#563B40" stroke-width="4.47824" stroke-linecap="round" stroke-linejoin="round"/>
<path d="M456.985 292.781C461.026 307.369 463.948 326.587 464.105 358.204C460.471 361.523 456.106 361.725 449.387 360.446C450.621 337.107 449.418 315.799 441.352 293.864" fill="#563B40"/>
<path d="M456.985 292.781C461.026 307.369 463.948 326.587 464.105 358.204C460.471 361.523 456.106 361.725 449.387 360.446C450.621 337.107 449.418 315.799 441.352 293.864" stroke="#563B40" stroke-width="3.99541" stroke-linecap="round" stroke-linejoin="round"/>
<path d="M448.617 253.949C437.835 254.684 430.257 247.94 424.544 255.917C420.204 261.978 424.127 276.535 450.7 273.161C470.389 270.661 477.293 259.503 475.119 253.024C471.008 240.775 458.615 253.269 448.617 253.949Z" fill="#EBDFD3" stroke="#563B40" stroke-width="3.99541" stroke-linecap="round" stroke-linejoin="round"/>
<path d="M438.548 253.37L430.678 271.077Z" fill="#EBDFD3"/>
<path d="M438.548 253.37L430.678 271.077" stroke="#563B40" stroke-width="3.49599" stroke-linecap="round" stroke-linejoin="round"/>
<path d="M447.691 254.065L445.376 273.045Z" fill="#EBDFD3"/>
<path d="M447.691 254.065L445.376 273.045" stroke="#563B40" stroke-width="3.49599" stroke-linecap="round" stroke-linejoin="round"/>
<path d="M457.759 251.172L465.397 268.763Z" fill="#EBDFD3"/>
<path d="M457.759 251.172L465.397 268.763" stroke="#563B40" stroke-width="3.49599" stroke-linecap="round" stroke-linejoin="round"/>
<path d="M465.63 248.279L473.615 261.125Z" fill="#EBDFD3"/>
<path d="M465.63 248.279L473.615 261.125" stroke="#563B40" stroke-width="3.49599" stroke-linecap="round" stroke-linejoin="round"/>
<path d="M447.941 234.073L441.803 191.339L470.217 227.026L447.941 234.073Z" fill="#EBDFD3"/>
<path d="M441.788 191.803C454.494 172.651 474.048 180.177 477.78 203.954C479.455 214.627 479.055 234.583 463.661 235.781" fill="#EBDFD3"/>
<path d="M441.788 191.803C454.494 172.651 474.048 180.177 477.78 203.954C479.455 214.627 479.055 234.583 463.661 235.781" stroke="#563B40" stroke-width="4.49484" stroke-linecap="round" stroke-linejoin="round"/>
<path d="M464.687 235.67C479.072 233.681 479.417 214.385 477.78 203.954C476.076 193.1 471.075 185.632 464.934 182.543C459.434 188.475 457.451 195.076 458.431 202.242L468.594 209.579L460.708 217.297C459.677 227.904 461.728 231.92 464.687 235.67Z" fill="#563B40" stroke="#563B40" stroke-width="3.99541" stroke-linecap="round" stroke-linejoin="round"/>
<path d="M420.624 182.929C405.984 185.259 398.337 200.982 400.329 218.936C402.933 242.417 417.408 249.208 427.825 247.25C442.793 244.437 450.824 230.916 449.266 212.553C448.353 201.801 439.518 179.921 420.624 182.929Z" fill="#EBDFD3" stroke="#563B40" stroke-width="4.49484" stroke-linecap="round" stroke-linejoin="round"/>
<path d="M430.116 246.721C443.607 243.009 450.742 229.955 449.265 212.552C448.545 204.057 442.877 188.614 431.209 183.99C421.139 193.638 421.91 201.502 422.113 207.657L432.529 214.485L423.386 223.28C423.795 233.845 424.365 238.21 430.116 246.721Z" fill="#563B40" stroke="#563B40" stroke-width="3.99541" stroke-linecap="round" stroke-linejoin="round"/>
<path d="M448.5 233.928C454.779 234.409 455.261 230.745 459.258 231.332C466.128 232.341 464.877 243.151 452.55 243.649" stroke="#563B40" stroke-width="3.99541" stroke-linecap="round" stroke-linejoin="round"/>
<path d="M368.819 168.772C366.933 173.632 366.694 178.493 368.356 183.354C364.537 187.828 363.582 190.532 362.338 195.216" stroke="#563B40" stroke-width="3.01281" stroke-linecap="round" stroke-linejoin="round"/>
<path d="M373.622 167.151C371.081 171.684 370.454 176.063 371.77 180.287C374.101 178.105 376.99 175.887 384.038 173.401" stroke="#563B40" stroke-width="3.01281" stroke-linecap="round" stroke-linejoin="round"/>
<path d="M385.658 176.583C375.287 179.75 368.543 186.089 365.579 195.737" stroke="#563B40" stroke-width="3.01281" stroke-linecap="round" stroke-linejoin="round"/>
<path d="M521.815 219.98L525.906 217.252L531.817 208.842L545.91 204.295L553.865 218.616L564.549 224.98L562.049 239.301L536.59 230.89L531.817 234.755L526.588 228.845L521.815 219.98Z" fill="#F6ECE3"/>
<path d="M526.516 218.28C524.688 216.37 521.155 218.259 522.997 222.536Z" fill="#F6ECE3"/>
<path d="M526.516 218.28C524.688 216.37 521.155 218.259 522.997 222.536" stroke="#563B40" stroke-width="3.99541" stroke-linecap="round" stroke-linejoin="round"/>
<path d="M536.521 211.613C533.061 213.004 530.066 211.856 528.514 212.684C525.625 214.225 526.065 217.016 526.799 218.922C527.792 221.498 531.343 223.129 533.047 225.145C536.42 229.136 537.597 232.141 542.484 234.941C562.146 246.207 576.158 234.369 567.685 231.515C560.838 229.209 558.671 239.148 541.741 222.431" fill="#F6ECE3"/>
<path d="M536.521 211.613C533.061 213.004 530.066 211.856 528.514 212.684C525.625 214.225 526.065 217.016 526.799 218.922C527.792 221.498 531.343 223.129 533.047 225.145C536.42 229.136 537.597 232.141 542.484 234.941C562.146 246.207 576.158 234.369 567.685 231.515C560.838 229.209 558.671 239.148 541.741 222.431" stroke="#563B40" stroke-width="3.99541" stroke-linecap="round" stroke-linejoin="round"/>
<path d="M531.643 210.166C534.047 201.372 539.108 204.464 541.396 202.898C545.957 199.777 544.484 193.105 546.758 191.867C551.235 189.43 553.403 192.134 554.371 197.158C554.991 200.373 554.19 204.759 549.912 208.677" fill="#F6ECE3"/>
<path d="M531.643 210.166C534.047 201.372 539.108 204.464 541.396 202.898C545.957 199.777 544.484 193.105 546.758 191.867C551.235 189.43 553.403 192.134 554.371 197.158C554.991 200.373 554.19 204.759 549.912 208.677" stroke="#563B40" stroke-width="3.99541" stroke-linecap="round" stroke-linejoin="round"/>
<path d="M545.142 206.65C552.12 208.731 550.111 214.807 555.228 219.397C562.088 225.55 566.08 223.55 568.616 226.86" stroke="#563B40" stroke-width="3.99541" stroke-linecap="round" stroke-linejoin="round"/>
<path d="M549.478 220.951C552.665 225.476 557.731 227.626 562.251 227.996C563.693 228.114 568.156 226.825 568.929 231.369" fill="#F6ECE3"/>
<path d="M549.478 220.951C552.665 225.476 557.731 227.626 562.251 227.996C563.693 228.114 568.156 226.825 568.929 231.369" stroke="#563B40" stroke-width="3.99541" stroke-linecap="round" stroke-linejoin="round"/>
<path d="M535.715 228.899C536.521 231.834 532.679 235.231 530.035 233.01Z" fill="#F6ECE3"/>
<path d="M535.715 228.899C536.521 231.834 532.679 235.231 530.035 233.01" stroke="#563B40" stroke-width="3.99541" stroke-linecap="round" stroke-linejoin="round"/>
<path d="M501.131 242.483L509.768 236.118L507.723 248.393L501.131 242.483Z" fill="#563B40"/>
<path d="M505.731 249.623C515.533 245.766 522.236 239.873 530.036 232.847C526.726 229.645 524.459 226.67 522.998 222.618C520.563 225.322 515.442 229.356 510.477 232.111" fill="#563B40"/>
<path d="M505.731 249.623C515.533 245.766 522.236 239.873 530.036 232.847C526.726 229.645 524.459 226.67 522.998 222.618C520.563 225.322 515.442 229.356 510.477 232.111" stroke="#563B40" stroke-width="3.99541" stroke-linecap="round" stroke-linejoin="round"/>
</svg>
